<svg xmlns="http://www.w3.org/2000/svg" width="39" height="39" viewBox="0 0 39 39" fill="none">
<path d="M19.5133 0C18.1428 0.0130371 16.738 0.164593 15.3039 0.44978C6.55114 2.35483 0 10.107 0 19.3813C0 22.8296 0.907708 26.0661 2.49497 28.8723L2.56505 29.0043L3.62106 28.6327C6.50714 27.7185 9.43886 27.9075 12.3608 28.6164C14.5282 29.1428 16.5571 30.0978 18.6838 30.7594C20.9832 31.4732 23.3152 32.0142 25.732 32.0419C28.051 32.068 30.295 31.6492 32.4412 30.7496C32.8812 30.5655 33.3277 30.3944 33.7759 30.2167C33.8345 30.1923 34.0562 30.101 34.1654 30.075C34.1654 30.075 33.9698 30.2656 33.8264 30.3976C33.8036 30.4204 33.7808 30.44 33.7596 30.4596C33.7547 30.4644 33.7482 30.471 33.7433 30.4742C33.74 30.4742 33.7384 30.4775 33.7368 30.4791C33.608 30.5948 33.4776 30.7073 33.3456 30.8181L33.3228 30.8376C31.6639 32.2163 29.7556 33.1305 27.6191 33.5265C23.6672 34.2582 19.8457 33.639 16.1204 32.2424C14.0133 31.452 12.0088 30.3748 9.73382 30.0538C7.94937 29.8012 6.18447 29.8159 4.42935 30.1613C3.88343 30.2852 3.49557 30.4547 3.49557 30.4547C6.99277 35.4414 12.7878 38.7153 19.3552 38.7609C20.1879 38.7512 21.0354 38.6909 21.8991 38.5784C23.4456 38.3747 24.909 38.0325 26.2861 37.5534C33.7025 34.8123 38.9874 27.7104 38.9874 19.3813C38.9842 8.68434 30.2689 0.0114075 19.5133 0ZM28.9424 13.8552C28.8544 16.8505 28.1797 19.6567 26.2355 22.0425C25.38 23.0903 24.3386 23.941 23.312 24.8015C22.8801 25.1632 22.476 25.5462 22.0995 25.9503V25.9471C22.0995 25.9471 20.7013 27.3013 20.1358 28.7615C19.7235 27.8717 19.5785 26.9884 19.4954 26.0921C19.1319 22.1712 20.6214 18.8631 22.9127 15.8254C23.3853 15.1964 23.8807 14.5853 24.3647 13.966C23.5108 14.3376 22.8866 15.0073 22.2576 15.651C19.5002 18.4687 18.0254 21.829 18.0759 25.8069C18.0825 26.2698 18.1444 26.7309 18.1835 27.2427C17.8934 27.0846 17.662 26.8809 17.4567 26.6576C15.9264 25.2072 15.1882 23.0235 15.1882 23.0235H15.1899C14.7303 21.7671 14.569 20.4194 14.7596 18.9706C15.1703 15.8384 16.9303 13.4934 19.1499 11.4368C21.2814 9.46168 23.734 7.92656 26.2779 6.53974C27.0259 6.13396 27.021 6.15188 27.3909 6.89826C28.4812 9.09012 29.0141 11.4091 28.9424 13.8552Z" fill="#007c6a"/>
</svg>