<svg width="37" height="30" viewBox="0 0 37 30" fill="none" xmlns="http://www.w3.org/2000/svg">
<path d="M21.8687 30V16.791C21.8687 12.0149 23.3413 8.20896 26.2866 5.37314C29.3055 2.46269 32.8766 0.671642 37 0V5.2612C35.0119 5.93284 33.2448 7.16418 31.6985 8.95523C30.2259 10.7463 29.4896 12.9104 29.4896 15.4478H36.7791V30H21.8687ZM0 30V16.791C0 12.0149 1.47264 8.20896 4.41791 5.37314C7.43682 2.46269 11.008 0.671642 15.1313 0V5.2612C13.1433 5.93284 11.3761 7.16418 9.82985 8.95523C8.35721 10.7463 7.6209 12.9104 7.6209 15.4478H14.9104V30H0Z" fill="#007C6A"/>
</svg>
