<svg width="16" height="18" viewBox="0 0 16 18" fill="none" xmlns="http://www.w3.org/2000/svg">
<path fill-rule="evenodd" clip-rule="evenodd" d="M4.9692 14.8333H1.44813C0.832466 14.8333 0.333374 14.3342 0.333374 13.7186V12.9911C0.333374 12.5699 0.500682 12.166 0.798491 11.8682C1.56783 11.0989 2.00004 10.0554 2.00004 8.96741V6.49999C2.00004 3.27833 4.61172 0.666656 7.83337 0.666656C11.055 0.666656 13.6667 3.27833 13.6667 6.49999V8.96741C13.6667 10.0554 14.099 11.0989 14.8683 11.8682C15.166 12.166 15.3334 12.5699 15.3334 12.9911V13.7186C15.3334 14.3342 14.8343 14.8333 14.2186 14.8333H10.6975C10.6975 15.1304 10.6879 15.6969 10.3891 16.2394C9.89454 17.1372 8.93637 17.75 7.83337 17.75C6.73029 17.75 5.77217 17.1372 5.27763 16.2394C4.97882 15.6969 4.9692 15.1304 4.9692 14.8333ZM13.9844 12.7521C14.0478 12.8155 14.0834 12.9015 14.0834 12.9911V13.5833H1.58337V12.9911C1.58337 12.9015 1.61898 12.8155 1.68237 12.7521C2.68613 11.7483 3.25004 10.3869 3.25004 8.96741V6.49999C3.25004 3.96868 5.30207 1.91666 7.83337 1.91666C10.3647 1.91666 12.4167 3.96868 12.4167 6.49999V8.96741C12.4167 10.3869 12.9806 11.7483 13.9844 12.7521ZM9.44754 14.8333H6.21921C6.21921 15.11 6.23904 15.394 6.37254 15.6363C6.46562 15.8054 6.58729 15.9566 6.73096 16.0833C7.02471 16.3427 7.41071 16.5 7.83337 16.5C8.25604 16.5 8.64196 16.3427 8.93579 16.0833C9.07946 15.9566 9.20104 15.8054 9.29421 15.6363C9.42771 15.394 9.44754 15.11 9.44754 14.8333Z" fill="#6B7483"/>
</svg>
