<svg width="154" height="39" viewBox="0 0 154 39" fill="none" xmlns="http://www.w3.org/2000/svg">
<path d="M46.4684 16.0797V14.4076H54.3465V16.0797H51.4098V24H49.4051V16.0797H46.4684ZM57.6017 19.8408V24H55.6064V14.4076H57.5455V18.075H57.6298C57.7922 17.6504 58.0545 17.3178 58.4167 17.0774C58.7789 16.8338 59.2332 16.7121 59.7797 16.7121C60.2793 16.7121 60.7148 16.8213 61.0864 17.0399C61.4611 17.2554 61.7515 17.5661 61.9576 17.972C62.1668 18.3748 62.2699 18.8572 62.2667 19.4193V24H60.2714V19.7752C60.2746 19.3318 60.1622 18.9868 59.9342 18.7401C59.7094 18.4934 59.394 18.3701 58.9881 18.3701C58.7164 18.3701 58.476 18.4279 58.2668 18.5434C58.0607 18.6589 57.8983 18.8276 57.7797 19.0493C57.6641 19.2678 57.6048 19.5317 57.6017 19.8408ZM67.1156 24.1405C66.3756 24.1405 65.7386 23.9906 65.2046 23.6909C64.6738 23.388 64.2648 22.9602 63.9775 22.4075C63.6902 21.8517 63.5466 21.1944 63.5466 20.4357C63.5466 19.6956 63.6902 19.0461 63.9775 18.4872C64.2648 17.9283 64.6691 17.4927 65.1906 17.1804C65.7152 16.8682 66.3303 16.7121 67.036 16.7121C67.5106 16.7121 67.9524 16.7886 68.3615 16.9416C68.7737 17.0914 69.1327 17.3178 69.4388 17.6207C69.7479 17.9236 69.9883 18.3045 70.1601 18.7635C70.3318 19.2194 70.4177 19.7534 70.4177 20.3654V20.9134H64.3428V19.6769H68.5395C68.5395 19.3896 68.477 19.1351 68.3521 18.9134C68.2272 18.6917 68.0539 18.5184 67.8322 18.3935C67.6136 18.2655 67.3592 18.2015 67.0688 18.2015C66.7659 18.2015 66.4973 18.2717 66.2632 18.4123C66.0321 18.5497 65.851 18.7354 65.7198 18.9696C65.5887 19.2007 65.5216 19.4583 65.5184 19.7425V20.9181C65.5184 21.274 65.584 21.5816 65.7152 21.8408C65.8494 22.1 66.0383 22.2998 66.2819 22.4403C66.5255 22.5808 66.8143 22.6511 67.1484 22.6511C67.3701 22.6511 67.5731 22.6198 67.7573 22.5574C67.9415 22.4949 68.0992 22.4013 68.2303 22.2764C68.3615 22.1515 68.4614 21.9985 68.5301 21.8174L70.3755 21.9391C70.2818 22.3825 70.0898 22.7697 69.7994 23.1007C69.5121 23.4286 69.1406 23.6846 68.6847 23.8689C68.2319 24.05 67.7089 24.1405 67.1156 24.1405ZM74.8099 24V14.4076H78.5944C79.3219 14.4076 79.9417 14.5466 80.4538 14.8245C80.9659 15.0993 81.3562 15.4818 81.6248 15.972C81.8964 16.4591 82.0322 17.0212 82.0322 17.6582C82.0322 18.2952 81.8949 18.8572 81.6201 19.3443C81.3453 19.8314 80.9472 20.2108 80.4257 20.4825C79.9074 20.7541 79.2797 20.89 78.5428 20.89H76.1307V19.2647H78.215C78.6053 19.2647 78.9269 19.1976 79.1798 19.0633C79.4359 18.9259 79.6263 18.737 79.7512 18.4966C79.8793 18.253 79.9433 17.9735 79.9433 17.6582C79.9433 17.3397 79.8793 17.0618 79.7512 16.8245C79.6263 16.584 79.4359 16.3982 79.1798 16.2671C78.9238 16.1328 78.599 16.0657 78.2056 16.0657H76.8379V24H74.8099ZM85.3074 14.4076V24H83.3121V14.4076H85.3074ZM88.9572 24.1358C88.4982 24.1358 88.0891 24.0562 87.73 23.897C87.371 23.7346 87.0868 23.4957 86.8776 23.1803C86.6715 22.8618 86.5685 22.4653 86.5685 21.9907C86.5685 21.591 86.6419 21.2553 86.7886 20.9837C86.9354 20.712 87.1352 20.4934 87.3881 20.3279C87.6411 20.1624 87.9283 20.0375 88.2499 19.9532C88.5747 19.8689 88.915 19.8096 89.271 19.7752C89.6894 19.7315 90.0267 19.6909 90.2827 19.6535C90.5387 19.6129 90.7245 19.5535 90.8401 19.4755C90.9556 19.3974 91.0134 19.2819 91.0134 19.1289V19.1008C91.0134 18.8041 90.9197 18.5746 90.7323 18.4123C90.5481 18.2499 90.2858 18.1687 89.9455 18.1687C89.5864 18.1687 89.3007 18.2483 89.0883 18.4076C88.876 18.5637 88.7355 18.7604 88.6668 18.9977L86.8214 18.8479C86.9151 18.4107 87.0993 18.0329 87.3741 17.7144C87.6489 17.3928 88.0033 17.1461 88.4373 16.9743C88.8744 16.7995 89.3803 16.7121 89.9548 16.7121C90.3545 16.7121 90.737 16.7589 91.1024 16.8526C91.4708 16.9462 91.7971 17.0914 92.0813 17.2882C92.3685 17.4849 92.5949 17.7378 92.7604 18.0469C92.9259 18.3529 93.0087 18.7198 93.0087 19.1476V24H91.1164V23.0024H91.0602C90.9447 23.2272 90.7901 23.4255 90.5965 23.5972C90.4029 23.7658 90.1703 23.8985 89.8986 23.9953C89.627 24.089 89.3132 24.1358 88.9572 24.1358ZM89.5286 22.7588C89.8221 22.7588 90.0813 22.701 90.3061 22.5855C90.5309 22.4668 90.7074 22.3076 90.8354 22.1078C90.9634 21.9079 91.0274 21.6815 91.0274 21.4286V20.6652C90.965 20.7057 90.8791 20.7432 90.7698 20.7776C90.6636 20.8088 90.5434 20.8385 90.4092 20.8666C90.2749 20.8915 90.1406 20.915 90.0064 20.9368C89.8721 20.9555 89.7503 20.9727 89.641 20.9883C89.4068 21.0227 89.2023 21.0773 89.0275 21.1523C88.8526 21.2272 88.7168 21.3287 88.62 21.4567C88.5232 21.5816 88.4748 21.7377 88.4748 21.9251C88.4748 22.1967 88.5731 22.4044 88.7698 22.548C88.9697 22.6885 89.2226 22.7588 89.5286 22.7588ZM96.5519 19.8408V24H94.5566V16.8057H96.4583V18.075H96.5426C96.7018 17.6566 96.9688 17.3256 97.3435 17.0821C97.7182 16.8354 98.1725 16.7121 98.7065 16.7121C99.2061 16.7121 99.6417 16.8213 100.013 17.0399C100.385 17.2585 100.674 17.5707 100.88 17.9767C101.086 18.3795 101.189 18.8603 101.189 19.4193V24H99.1936V19.7752C99.1967 19.335 99.0843 18.9915 98.8563 18.7448C98.6284 18.495 98.3146 18.3701 97.9149 18.3701C97.6464 18.3701 97.4091 18.4279 97.203 18.5434C97 18.6589 96.8408 18.8276 96.7252 19.0493C96.6128 19.2678 96.5551 19.5317 96.5519 19.8408ZM105.852 24V14.4076H109.692C110.398 14.4076 110.987 14.5122 111.458 14.7215C111.93 14.9307 112.284 15.2211 112.521 15.5926C112.759 15.9611 112.877 16.3858 112.877 16.8666C112.877 17.2413 112.802 17.5707 112.652 17.8549C112.503 18.1359 112.296 18.367 112.034 18.5481C111.775 18.7261 111.478 18.8525 111.144 18.9275V19.0212C111.51 19.0368 111.851 19.1398 112.17 19.3303C112.492 19.5208 112.752 19.7877 112.952 20.1312C113.152 20.4716 113.252 20.8775 113.252 21.349C113.252 21.858 113.125 22.3123 112.873 22.712C112.623 23.1085 112.253 23.4223 111.762 23.6534C111.272 23.8845 110.668 24 109.95 24H105.852ZM107.88 22.3419H109.533C110.098 22.3419 110.51 22.2342 110.77 22.0188C111.029 21.8002 111.158 21.5098 111.158 21.1476C111.158 20.8822 111.094 20.648 110.966 20.445C110.838 20.2421 110.656 20.0828 110.418 19.9673C110.184 19.8517 109.905 19.794 109.58 19.794H107.88V22.3419ZM107.88 18.4216H109.383C109.661 18.4216 109.908 18.3732 110.123 18.2764C110.342 18.1765 110.513 18.036 110.638 17.8549C110.766 17.6738 110.83 17.4568 110.83 17.2039C110.83 16.8573 110.707 16.5778 110.46 16.3655C110.217 16.1531 109.87 16.047 109.421 16.047H107.88V18.4216ZM117.813 24.1405C117.073 24.1405 116.436 23.9906 115.902 23.6909C115.371 23.388 114.962 22.9602 114.675 22.4075C114.387 21.8517 114.244 21.1944 114.244 20.4357C114.244 19.6956 114.387 19.0461 114.675 18.4872C114.962 17.9283 115.366 17.4927 115.888 17.1804C116.412 16.8682 117.027 16.7121 117.733 16.7121C118.208 16.7121 118.65 16.7886 119.059 16.9416C119.471 17.0914 119.83 17.3178 120.136 17.6207C120.445 17.9236 120.685 18.3045 120.857 18.7635C121.029 19.2194 121.115 19.7534 121.115 20.3654V20.9134H115.04V19.6769H119.237C119.237 19.3896 119.174 19.1351 119.049 18.9134C118.924 18.6917 118.751 18.5184 118.529 18.3935C118.311 18.2655 118.056 18.2015 117.766 18.2015C117.463 18.2015 117.194 18.2717 116.96 18.4123C116.729 18.5497 116.548 18.7354 116.417 18.9696C116.286 19.2007 116.219 19.4583 116.216 19.7425V20.9181C116.216 21.274 116.281 21.5816 116.412 21.8408C116.547 22.1 116.735 22.2998 116.979 22.4403C117.223 22.5808 117.511 22.6511 117.846 22.6511C118.067 22.6511 118.27 22.6198 118.454 22.5574C118.639 22.4949 118.796 22.4013 118.927 22.2764C119.059 22.1515 119.159 21.9985 119.227 21.8174L121.073 21.9391C120.979 22.3825 120.787 22.7697 120.497 23.1007C120.209 23.4286 119.838 23.6846 119.382 23.8689C118.929 24.05 118.406 24.1405 117.813 24.1405ZM123.456 26.6979C123.203 26.6979 122.965 26.6776 122.744 26.637C122.525 26.5995 122.344 26.5511 122.2 26.4918L122.65 25.0023C122.884 25.0741 123.095 25.1132 123.282 25.1194C123.473 25.1257 123.637 25.082 123.774 24.9883C123.915 24.8946 124.028 24.7354 124.116 24.5105L124.233 24.2061L121.652 16.8057H123.751L125.24 22.089H125.315L126.818 16.8057H128.931L126.135 24.7775C126 25.1647 125.818 25.5019 125.587 25.7892C125.359 26.0796 125.07 26.3029 124.72 26.459C124.37 26.6182 123.949 26.6979 123.456 26.6979ZM132.971 24.1405C132.243 24.1405 131.614 23.9859 131.083 23.6768C130.555 23.3646 130.148 22.9305 129.861 22.3747C129.573 21.8158 129.43 21.1679 129.43 20.431C129.43 19.6878 129.573 19.0383 129.861 18.4825C130.148 17.9236 130.555 17.4896 131.083 17.1804C131.614 16.8682 132.243 16.7121 132.971 16.7121C133.698 16.7121 134.326 16.8682 134.853 17.1804C135.384 17.4896 135.793 17.9236 136.081 18.4825C136.368 19.0383 136.512 19.6878 136.512 20.431C136.512 21.1679 136.368 21.8158 136.081 22.3747C135.793 22.9305 135.384 23.3646 134.853 23.6768C134.326 23.9859 133.698 24.1405 132.971 24.1405ZM132.98 22.5949C133.311 22.5949 133.587 22.5012 133.809 22.3138C134.031 22.1234 134.198 21.8642 134.31 21.5363C134.426 21.2085 134.483 20.8353 134.483 20.4169C134.483 19.9985 134.426 19.6254 134.31 19.2975C134.198 18.9696 134.031 18.7105 133.809 18.52C133.587 18.3295 133.311 18.2343 132.98 18.2343C132.646 18.2343 132.365 18.3295 132.137 18.52C131.912 18.7105 131.742 18.9696 131.626 19.2975C131.514 19.6254 131.458 19.9985 131.458 20.4169C131.458 20.8353 131.514 21.2085 131.626 21.5363C131.742 21.8642 131.912 22.1234 132.137 22.3138C132.365 22.5012 132.646 22.5949 132.98 22.5949ZM139.804 19.8408V24H137.809V16.8057H139.711V18.075H139.795C139.954 17.6566 140.221 17.3256 140.596 17.0821C140.97 16.8354 141.425 16.7121 141.959 16.7121C142.458 16.7121 142.894 16.8213 143.266 17.0399C143.637 17.2585 143.926 17.5707 144.132 17.9767C144.338 18.3795 144.441 18.8603 144.441 19.4193V24H142.446V19.7752C142.449 19.335 142.337 18.9915 142.109 18.7448C141.881 18.495 141.567 18.3701 141.167 18.3701C140.899 18.3701 140.661 18.4279 140.455 18.5434C140.252 18.6589 140.093 18.8276 139.977 19.0493C139.865 19.2678 139.807 19.5317 139.804 19.8408ZM148.665 24.1171C148.118 24.1171 147.623 23.9766 147.18 23.6956C146.74 23.4114 146.39 22.9946 146.131 22.445C145.875 21.8923 145.747 21.2147 145.747 20.4122C145.747 19.5879 145.879 18.9025 146.145 18.3561C146.41 17.8065 146.763 17.3959 147.203 17.1242C147.647 16.8494 148.132 16.7121 148.66 16.7121C149.063 16.7121 149.399 16.7807 149.667 16.9181C149.939 17.0524 150.157 17.221 150.323 17.424C150.491 17.6238 150.619 17.8205 150.707 18.0141H150.768V14.4076H152.758V24H150.791V22.8478H150.707C150.613 23.0476 150.48 23.2459 150.309 23.4426C150.14 23.6362 149.92 23.797 149.648 23.9251C149.38 24.0531 149.052 24.1171 148.665 24.1171ZM149.297 22.5293C149.619 22.5293 149.89 22.4419 150.112 22.267C150.337 22.089 150.509 21.8408 150.627 21.5223C150.749 21.2038 150.81 20.8306 150.81 20.4029C150.81 19.9751 150.751 19.6035 150.632 19.2881C150.513 18.9728 150.342 18.7292 150.117 18.5575C149.892 18.3857 149.619 18.2999 149.297 18.2999C148.969 18.2999 148.693 18.3888 148.468 18.5668C148.243 18.7448 148.073 18.9915 147.957 19.3069C147.842 19.6222 147.784 19.9876 147.784 20.4029C147.784 20.8213 147.842 21.1913 147.957 21.5129C148.076 21.8314 148.246 22.0812 148.468 22.2623C148.693 22.4403 148.969 22.5293 149.297 22.5293Z" fill="white"/>
<path d="M19.5133 0C18.1428 0.0130371 16.738 0.164593 15.3039 0.44978C6.55114 2.35483 0 10.107 0 19.3813C0 22.8296 0.907708 26.0661 2.49497 28.8723L2.56505 29.0043L3.62106 28.6327C6.50714 27.7185 9.43886 27.9075 12.3608 28.6164C14.5282 29.1428 16.5571 30.0978 18.6838 30.7594C20.9832 31.4732 23.3152 32.0142 25.732 32.0419C28.051 32.068 30.295 31.6492 32.4412 30.7496C32.8812 30.5655 33.3277 30.3944 33.7759 30.2167C33.8345 30.1923 34.0562 30.101 34.1654 30.075C34.1654 30.075 33.9698 30.2656 33.8264 30.3976C33.8036 30.4204 33.7808 30.44 33.7596 30.4596C33.7547 30.4644 33.7482 30.471 33.7433 30.4742C33.74 30.4742 33.7384 30.4775 33.7368 30.4791C33.608 30.5948 33.4776 30.7073 33.3456 30.8181L33.3228 30.8376C31.6639 32.2163 29.7556 33.1305 27.6191 33.5265C23.6672 34.2582 19.8457 33.639 16.1204 32.2424C14.0133 31.452 12.0088 30.3748 9.73382 30.0538C7.94937 29.8012 6.18447 29.8158 4.42935 30.1613C3.88343 30.2852 3.49557 30.4547 3.49557 30.4547C6.99277 35.4414 12.7878 38.7153 19.3552 38.7609C20.1879 38.7512 21.0354 38.6909 21.8991 38.5784C23.4456 38.3747 24.909 38.0325 26.2861 37.5534C33.7025 34.8123 38.9874 27.7104 38.9874 19.3813C38.9842 8.68434 30.2689 0.0114075 19.5133 0ZM28.9424 13.8552C28.8544 16.8505 28.1797 19.6567 26.2355 22.0425C25.38 23.0903 24.3386 23.941 23.312 24.8015C22.8801 25.1632 22.476 25.5462 22.0995 25.9503V25.9471C22.0995 25.9471 20.7013 27.3013 20.1358 28.7615C19.7235 27.8717 19.5785 26.9884 19.4954 26.0921C19.1319 22.1712 20.6214 18.8631 22.9127 15.8254C23.3853 15.1964 23.8807 14.5853 24.3647 13.966C23.5108 14.3376 22.8866 15.0073 22.2576 15.651C19.5002 18.4687 18.0254 21.829 18.0759 25.8069C18.0825 26.2698 18.1444 26.7309 18.1835 27.2427C17.8934 27.0846 17.662 26.8809 17.4567 26.6576C15.9264 25.2072 15.1882 23.0235 15.1882 23.0235H15.1899C14.7303 21.7671 14.569 20.4194 14.7596 18.9706C15.1703 15.8384 16.9303 13.4934 19.1499 11.4368C21.2814 9.46168 23.734 7.92656 26.2779 6.53974C27.0259 6.13396 27.021 6.15188 27.3909 6.89826C28.4812 9.09012 29.0141 11.4091 28.9424 13.8552Z" fill="white"/>
</svg>
