<svg width="20" height="20" viewBox="0 0 20 20" fill="none" xmlns="http://www.w3.org/2000/svg">
<g clip-path="url(#clip0_1183_9840)">
<path d="M2.5207 9.84565L3.25973 9.97346L2.5207 9.84565ZM3.10865 6.44585L3.84768 6.57366L3.10865 6.44585ZM14.2185 2.93575L14.9657 2.87114L14.2185 2.93575ZM14.8953 10.763L14.1481 10.8276L14.8953 10.763ZM8.33754 15.6488L7.59741 15.5275L7.59741 15.5275L8.33754 15.6488ZM8.88977 12.2783L8.14964 12.1571L8.88977 12.2783ZM14.4182 11.9354L14.9078 12.5036L14.9078 12.5036L14.4182 11.9354ZM13.2193 12.9686L12.7297 12.4004L12.7297 12.4004L13.2193 12.9686ZM11.235 16.0135L11.9609 16.2018L11.235 16.0135ZM10.8385 17.5417L10.1126 17.3534L10.1126 17.3534L10.8385 17.5417ZM9.44367 18.2797L9.67306 17.5656L9.67306 17.5656L9.44367 18.2797ZM9.32286 18.2409L9.09347 18.9549L9.09347 18.9549L9.32286 18.2409ZM11.7817 14.6145L11.1202 14.2611L11.7817 14.6145ZM8.41277 17.2937L9.13874 17.1054L9.13874 17.1054L8.41277 17.2937ZM10.2715 18.223L10.5971 18.8986L10.5971 18.8986L10.2715 18.223ZM16.6903 2.10771L17.4375 2.0431L17.4375 2.0431L16.6903 2.10771ZM17.5 11.4715L16.7528 11.5361C16.7874 11.9362 17.1311 12.2381 17.5323 12.2208C17.9336 12.2035 18.25 11.8731 18.25 11.4715L17.5 11.4715ZM2.5207 9.84565L3.25973 9.97346L3.84768 6.57366L3.10865 6.44585L2.36962 6.31805L1.78167 9.71785L2.5207 9.84565ZM8.96253 1.66665L8.96253 2.41665L12.8364 2.41665L12.8364 1.66665L12.8364 0.916647L8.96253 0.916646L8.96253 1.66665ZM14.2185 2.93575L13.4713 3.00036L14.1481 10.8276L14.8953 10.763L15.6425 10.6984L14.9657 2.87114L14.2185 2.93575ZM3.10865 6.44585L3.84768 6.57366C4.2591 4.19464 6.40643 2.41665 8.96253 2.41665L8.96253 1.66665L8.96253 0.916646C5.71647 0.916646 2.91207 3.18133 2.36962 6.31805L3.10865 6.44585ZM8.33754 15.6488L9.07767 15.7701L9.6299 12.3996L8.88977 12.2783L8.14964 12.1571L7.59741 15.5275L8.33754 15.6488ZM14.4182 11.9354L13.9286 11.3673L12.7297 12.4004L13.2193 12.9686L13.7089 13.5367L14.9078 12.5036L14.4182 11.9354ZM11.235 16.0135L10.509 15.8252L10.1126 17.3534L10.8385 17.5417L11.5645 17.7301L11.9609 16.2018L11.235 16.0135ZM9.44367 18.2797L9.67306 17.5656L9.55225 17.5268L9.32286 18.2409L9.09347 18.9549L9.21428 18.9937L9.44367 18.2797ZM11.7817 14.6145L11.1202 14.2611C10.8556 14.7564 10.6501 15.2811 10.509 15.8252L11.235 16.0135L11.9609 16.2018C12.0721 15.7734 12.234 15.3595 12.4432 14.9678L11.7817 14.6145ZM9.32286 18.2409L9.55225 17.5268C9.33612 17.4574 9.18719 17.2922 9.13874 17.1054L8.41277 17.2937L7.68679 17.482C7.86916 18.1851 8.40675 18.7343 9.09347 18.9549L9.32286 18.2409ZM10.8385 17.5417L10.1126 17.3534C10.0929 17.4292 10.0368 17.5035 9.94592 17.5473L10.2715 18.223L10.5971 18.8986C11.0724 18.6696 11.4306 18.2462 11.5645 17.7301L10.8385 17.5417ZM10.2715 18.223L9.94592 17.5473C9.86262 17.5875 9.76355 17.5947 9.67306 17.5656L9.44367 18.2797L9.21428 18.9937C9.66944 19.14 10.1659 19.1064 10.5971 18.8986L10.2715 18.223ZM8.20526 11.4715L8.20526 10.7215L3.88768 10.7215L3.88768 11.4715L3.88768 12.2215L8.20526 12.2215L8.20526 11.4715ZM16.6903 2.10771L15.9431 2.17232L16.7528 11.5361L17.5 11.4715L18.2472 11.4069L17.4375 2.0431L16.6903 2.10771ZM17.5 2.0727L16.75 2.0727L16.75 11.4715L17.5 11.4715L18.25 11.4715L18.25 2.0727L17.5 2.0727ZM16.6903 2.10771L17.4375 2.0431C17.4548 2.24309 17.2972 2.41665 17.0944 2.41665L17.0944 1.66665L17.0944 0.916647C16.416 0.916647 15.8848 1.49797 15.9431 2.17232L16.6903 2.10771ZM8.33754 15.6488L7.59741 15.5275C7.49081 16.1781 7.52126 16.8439 7.68679 17.482L8.41277 17.2937L9.13874 17.1054C9.02565 16.6694 9.00484 16.2146 9.07767 15.7701L8.33754 15.6488ZM12.8364 1.66665L12.8364 2.41665C13.1663 2.41665 13.4427 2.66944 13.4713 3.00036L14.2185 2.93575L14.9657 2.87114C14.8702 1.76617 13.9461 0.916647 12.8364 0.916647L12.8364 1.66665ZM13.2193 12.9686L12.7297 12.4004C12.1611 12.8904 11.5353 13.484 11.1202 14.2611L11.7817 14.6145L12.4432 14.9678C12.7204 14.449 13.1649 14.0055 13.7089 13.5367L13.2193 12.9686ZM2.5207 9.84565L1.78167 9.71785C1.55571 11.0245 2.56055 12.2215 3.88768 12.2215L3.88768 11.4715L3.88768 10.7215C3.4932 10.7215 3.192 10.3651 3.25973 9.97346L2.5207 9.84565ZM17.0944 1.66665L17.0944 2.41665C16.9034 2.41665 16.75 2.26185 16.75 2.0727L17.5 2.0727L18.25 2.0727C18.25 1.43503 17.7334 0.916647 17.0944 0.916647L17.0944 1.66665ZM8.88977 12.2783L9.6299 12.3996C9.77381 11.5213 9.0968 10.7215 8.20526 10.7215L8.20526 11.4715L8.20526 12.2215C8.16956 12.2215 8.14427 12.1899 8.14964 12.1571L8.88977 12.2783ZM14.8953 10.763L14.1481 10.8276C14.1658 11.0326 14.084 11.2334 13.9286 11.3673L14.4182 11.9354L14.9078 12.5036C15.4285 12.0548 15.7017 11.3831 15.6425 10.6984L14.8953 10.763Z" fill="#506273"/>
</g>
<defs>
<clipPath id="clip0_1183_9840">
<rect x="20" y="20" width="20" height="20" rx="3" transform="rotate(-180 20 20)" fill="white"/>
</clipPath>
</defs>
</svg>
