<svg width="100" height="100" viewBox="0 0 100 100" fill="none" xmlns="http://www.w3.org/2000/svg">
<path d="M31.25 12.5C32.4006 12.5 33.3333 13.4327 33.3333 14.5833C33.3333 15.7339 32.4006 16.6667 31.25 16.6667H22.9167C19.4649 16.6667 16.6667 19.4649 16.6667 22.9167V31.3797C16.6667 32.5303 15.7339 33.463 14.5833 33.463C13.4327 33.463 12.5 32.5303 12.5 31.3797V22.9167C12.5 17.1637 17.1637 12.5 22.9167 12.5H31.25ZM68.75 16.6667C67.5994 16.6667 66.6667 15.7339 66.6667 14.5833C66.6667 13.4327 67.5994 12.5 68.75 12.5H77.0833C82.8363 12.5 87.5 17.1637 87.5 22.9167V31.25C87.5 32.4006 86.5673 33.3333 85.4167 33.3333C84.2661 33.3333 83.3333 32.4006 83.3333 31.25V22.9167C83.3333 19.4649 80.5351 16.6667 77.0833 16.6667H68.75ZM83.3333 68.75C83.3333 67.5994 84.2661 66.6667 85.4167 66.6667C86.5673 66.6667 87.5 67.5994 87.5 68.75V77.0833C87.5 82.8363 82.8363 87.5 77.0833 87.5H68.75C67.5994 87.5 66.6667 86.5673 66.6667 85.4167C66.6667 84.2661 67.5994 83.3333 68.75 83.3333H77.0833C80.5351 83.3333 83.3333 80.5351 83.3333 77.0833V68.75ZM12.5 68.75C12.5 67.5994 13.4327 66.6667 14.5833 66.6667C15.7339 66.6667 16.6667 67.5994 16.6667 68.75V77.0833C16.6667 80.5351 19.4649 83.3333 22.9167 83.3333H31.25C32.4006 83.3333 33.3333 84.2661 33.3333 85.4167C33.3333 86.5673 32.4006 87.5 31.25 87.5H22.9167C17.1637 87.5 12.5 82.8363 12.5 77.0833V68.75ZM33.3333 35.4167C33.3333 34.2661 34.2661 33.3333 35.4167 33.3333C36.5673 33.3333 37.5 34.2661 37.5 35.4167V39.5833C37.5 40.7339 36.5673 41.6667 35.4167 41.6667C34.2661 41.6667 33.3333 40.7339 33.3333 39.5833V35.4167ZM66.6667 35.4167C66.6667 34.2661 67.5994 33.3333 68.75 33.3333C69.9006 33.3333 70.8333 34.2661 70.8333 35.4167V39.5833C70.8333 40.7339 69.9006 41.6667 68.75 41.6667C67.5994 41.6667 66.6667 40.7339 66.6667 39.5833V35.4167ZM50 35.4167C50 34.2661 50.9327 33.3333 52.0833 33.3333C53.2339 33.3333 54.1667 34.2661 54.1667 35.4167V52.0833C54.1667 55.5351 51.3684 58.3333 47.9167 58.3333C46.7661 58.3333 45.8333 57.4006 45.8333 56.25C45.8333 55.0994 46.7661 54.1667 47.9167 54.1667C49.0673 54.1667 50 53.2339 50 52.0833V35.4167ZM33.75 65.8333C33.0596 64.9129 33.2462 63.607 34.1667 62.9167C35.0871 62.2263 36.393 62.4129 37.0833 63.3333C40.879 68.3943 45.1474 70.8333 50 70.8333C54.8526 70.8333 59.121 68.3943 62.9167 63.3333C63.607 62.4129 64.9129 62.2263 65.8333 62.9167C66.7538 63.607 66.9404 64.9129 66.25 65.8333C61.7124 71.8835 56.2585 75 50 75C43.7415 75 38.2876 71.8835 33.75 65.8333Z" fill="#6B7483"/>
</svg>
