<svg width="91" height="91" viewBox="0 0 91 91" fill="none" xmlns="http://www.w3.org/2000/svg">
<path d="M69.3912 13.3799C69.0588 13.3807 68.7322 13.2923 68.4456 13.1239C60.5578 8.90097 53.7381 7.1094 45.5623 7.1094C37.4274 7.1094 29.7031 9.11425 22.6772 13.1239C21.6837 13.6856 20.4591 13.2946 19.8833 12.2637C19.6262 11.7662 19.5682 11.1894 19.7211 10.6506C19.8739 10.1119 20.2261 9.65152 20.7062 9.36308C28.2836 5.06542 36.851 2.81837 45.5623 2.84378C54.3122 2.84378 61.9548 4.84862 70.3367 9.32753C70.8257 9.59642 71.1899 10.0463 71.3511 10.5806C71.5122 11.1149 71.4575 11.6911 71.1987 12.1855C71.0431 12.5365 70.7902 12.8356 70.4698 13.0473C70.1494 13.259 69.7751 13.3744 69.3912 13.3799ZM10.5984 35.7744C10.1715 35.7714 9.75586 35.6374 9.40759 35.3905C8.95447 35.0537 8.64973 34.5543 8.55756 33.9973C8.4654 33.4403 8.593 32.8693 8.91349 32.4046C12.9818 26.4327 18.1557 21.7405 24.3213 18.456C37.2212 11.5528 53.7381 11.503 66.6789 18.4133C72.8428 21.6978 78.0184 26.3474 82.0867 32.2766C82.4059 32.7418 82.5327 33.3124 82.4406 33.869C82.3485 34.4256 82.0446 34.9249 81.5926 35.2625C81.3733 35.4264 81.1227 35.5436 80.8563 35.6068C80.5899 35.6699 80.3134 35.6778 80.0438 35.6298C79.7743 35.5818 79.5174 35.479 79.2892 35.3278C79.061 35.1766 78.8662 34.9802 78.7169 34.7507C75.02 29.376 70.3367 25.153 64.7896 22.2097C52.9987 15.9392 37.9197 15.9392 26.1697 22.2524C20.5817 25.2383 15.8984 29.5039 12.2016 34.8715C12.0422 35.154 11.8085 35.3874 11.5259 35.5466C11.2433 35.7057 10.9226 35.7845 10.5984 35.7744ZM36.2757 87.2676C36.0042 87.2702 35.7353 87.2144 35.4872 87.104C35.2391 86.9936 35.0176 86.8312 34.8378 86.6278C31.2636 82.9096 29.3263 80.5137 26.5803 75.3594C23.7365 70.1127 22.2667 63.7142 22.2667 56.8466C22.2667 44.1777 32.7015 33.8549 45.5214 33.8549C58.3414 33.8549 68.7833 44.1777 68.7833 56.8466C68.7914 57.1214 68.7443 57.395 68.6447 57.6512C68.5451 57.9074 68.3951 58.1411 68.2036 58.3383C68.0121 58.5355 67.783 58.6923 67.5298 58.7994C67.2766 58.9065 67.0045 58.9616 66.7296 58.9616C66.4547 58.9616 66.1826 58.9065 65.9294 58.7994C65.6762 58.6923 65.4471 58.5355 65.2556 58.3383C65.0641 58.1411 64.9141 57.9074 64.8145 57.6512C64.7149 57.395 64.6678 57.1214 64.6759 56.8466C64.6759 46.5238 56.0877 38.1205 45.5303 38.1205C34.9729 38.1205 26.3759 46.5238 26.3759 56.8466C26.3759 62.9891 27.6893 68.6624 30.1954 73.2692C32.8259 78.1747 34.6388 80.2649 37.7971 83.5921C38.1717 84.0061 38.3791 84.5445 38.3791 85.1028C38.3791 85.6611 38.1717 86.1995 37.7971 86.6135C37.3938 87.0204 36.8484 87.2549 36.2757 87.2676ZM65.7352 79.3762C60.8457 79.3762 56.5321 78.0965 52.9987 75.5798C49.9884 73.4698 47.5291 70.6674 45.828 67.4086C44.1268 64.1497 43.2335 60.5298 43.2233 56.8537C43.2118 56.5767 43.2564 56.3002 43.3545 56.0409C43.4525 55.7816 43.602 55.5448 43.7939 55.3447C43.9859 55.1446 44.2163 54.9854 44.4713 54.8766C44.7263 54.7679 45.0007 54.7118 45.2779 54.7118C45.5552 54.7118 45.8296 54.7679 46.0846 54.8766C46.3396 54.9854 46.57 55.1446 46.7619 55.3447C46.9539 55.5448 47.1034 55.7816 47.2014 56.0409C47.2995 56.3002 47.3441 56.5767 47.3326 56.8537C47.3395 59.8397 48.0677 62.7798 49.4553 65.4237C50.8429 68.0677 52.8488 70.3373 55.3022 72.0393C58.2188 74.0868 61.6295 75.0608 65.7387 75.0608C67.1699 75.0354 68.5965 74.8927 70.0043 74.6342C71.1134 74.421 72.1816 75.1888 72.386 76.3831C72.4901 76.9343 72.3714 77.5043 72.0559 77.9681C71.7404 78.4319 71.2538 78.7517 70.7028 78.8572C69.0663 79.1806 67.4033 79.3519 65.7352 79.3691V79.3762ZM57.4759 88.1563C57.2954 88.1488 57.1164 88.1201 56.9427 88.071C50.4091 86.1941 46.1364 83.6774 41.6575 79.1131C35.9042 73.1839 32.7423 65.2925 32.7423 56.8466C32.7423 49.9363 38.4121 44.3057 45.3952 44.3057C52.3784 44.3057 58.0499 49.9363 58.0499 56.8466C58.0499 61.4108 61.8712 65.1219 66.5954 65.1219C71.3196 65.1219 75.1409 61.4108 75.1409 56.8466C75.1409 40.7652 61.7877 27.7124 45.3544 27.7124C33.6861 27.7124 23.0043 34.4521 18.1983 44.9028C16.5987 48.358 15.774 52.4103 15.774 56.8466C15.774 60.1738 16.0602 65.4205 18.5254 72.2455C18.9377 73.3546 18.4027 74.5916 17.3345 74.9755C17.0807 75.0722 16.8099 75.1165 16.5385 75.1059C16.267 75.0953 16.0005 75.0299 15.755 74.9137C15.5095 74.7975 15.29 74.6329 15.1097 74.4297C14.9294 74.2265 14.792 73.989 14.7058 73.7314C12.7235 68.3225 11.708 62.6072 11.7057 56.8466C11.7057 51.7278 12.6512 47.0712 14.4997 43.026C19.965 31.1178 32.0847 23.4041 45.3544 23.4041C64.0485 23.4041 79.2501 38.3764 79.2501 56.8039C79.2501 63.7142 73.5804 69.3449 66.5954 69.3449C59.6104 69.3449 53.9407 63.7142 53.9407 56.8039C53.9425 52.2397 50.1212 48.5215 45.397 48.5215C40.6728 48.5215 36.8516 52.2326 36.8516 56.7968C36.8516 64.0839 39.5638 70.916 44.535 76.0348C48.4452 80.0445 52.1776 82.2555 57.97 83.9262C59.079 84.2248 59.6958 85.4192 59.4078 86.5282C59.3181 86.9784 59.078 87.3848 58.727 87.6806C58.3759 87.9764 57.9348 88.1442 57.4759 88.1563Z" fill="#6B7483"/>
</svg>
