<svg width="32" height="32" viewBox="0 0 32 32" fill="none" xmlns="http://www.w3.org/2000/svg">
<path d="M4 16C4 10.3431 4 7.51472 5.75736 5.75736C7.51472 4 10.3431 4 16 4C21.6569 4 24.4853 4 26.2426 5.75736C28 7.51472 28 10.3431 28 16C28 21.6569 28 24.4853 26.2426 26.2426C24.4853 28 21.6569 28 16 28C10.3431 28 7.51472 28 5.75736 26.2426C4 24.4853 4 21.6569 4 16Z" stroke="#007C6A" stroke-width="2"/>
<circle cx="20.8" cy="11.2" r="2.4" stroke="#007C6A" stroke-width="2"/>
<path d="M4 16.6002L6.1019 14.761C7.19543 13.8042 8.84353 13.8591 9.87098 14.8865L15.0187 20.0342C15.8433 20.8589 17.1415 20.9713 18.0957 20.3007L18.4535 20.0492C19.8266 19.0842 21.6843 19.1961 22.9318 20.3187L26.8 23.8002" stroke="#007C6A" stroke-width="2" stroke-linecap="round"/>
</svg>
