<svg width="21" height="24" viewBox="0 0 21 24" fill="none" xmlns="http://www.w3.org/2000/svg">
<g clip-path="url(#clip0_1096_2380)">
<path fill-rule="evenodd" clip-rule="evenodd" d="M3.56286 15.0115H17.4839C18.882 12.3457 19.5616 8.92576 19.3521 4.7259C16.8345 4.95355 13.7176 3.80779 10.4706 1.76922C7.87306 3.76798 4.88387 4.76103 1.62225 4.59193C1.50732 8.93325 2.21016 12.3719 3.56286 15.0115ZM19.1014 15.0386C19.801 15.1731 20.334 15.7881 20.334 16.5156V22.4954C20.334 23.3194 19.6473 24 18.8148 24H2.18414C1.35218 24 0.665427 23.3227 0.665427 22.4954V16.5156C0.665427 15.768 1.22685 15.137 1.95759 15.0283C0.575562 11.9813 -0.114033 8.07979 0.0155617 3.18479C3.57894 3.36982 7.07563 2.60676 10.4635 0C14.3798 2.45827 17.9166 3.62089 20.9527 3.3464C21.1896 8.0915 20.5293 11.9681 19.1014 15.0386ZM7.64651 8.30369H7.93076V7.65212C7.93076 6.93075 8.21786 6.27309 8.67995 5.7953C9.14678 5.31376 9.79049 5.01491 10.5 5.01491C11.2089 5.01491 11.8536 5.31376 12.3195 5.7953C12.782 6.27309 13.0691 6.93028 13.0691 7.65212V8.30369H13.3529C13.5837 8.30369 13.7725 8.49059 13.7725 8.71871V13.1059C13.7725 13.3345 13.5837 13.5214 13.3529 13.5214H7.64651C7.4157 13.5214 7.22745 13.3345 7.22745 13.1059V8.71871C7.22698 8.49059 7.4157 8.30369 7.64651 8.30369ZM8.72394 8.30369H12.2755V7.65212C12.2755 7.13873 12.0735 6.67406 11.7486 6.33867C11.4275 6.00656 10.9852 5.80092 10.4995 5.80092C10.0142 5.80092 9.57151 6.00656 9.25083 6.33867C8.92543 6.67406 8.72394 7.13873 8.72394 7.65212V8.30369ZM10.1556 11.1058L9.70347 12.2792H11.2964L10.8774 11.0894C11.1432 10.954 11.3253 10.6795 11.3253 10.3629C11.3253 9.91131 10.9559 9.54548 10.4995 9.54548C10.044 9.54548 9.67462 9.91131 9.67462 10.3629C9.67462 10.6922 9.87185 10.9765 10.1556 11.1058ZM4.97563 18.6399L4.80441 17.6702C5.35685 17.5053 5.90644 17.4229 6.45462 17.4229C6.6736 17.4229 6.85617 17.429 7.00326 17.4421C7.14989 17.4552 7.30218 17.4875 7.46016 17.5395C7.61766 17.592 7.74252 17.6632 7.83428 17.7545C8.04522 17.9625 8.15022 18.282 8.15022 18.7115C8.15022 19.1411 8.02725 19.4577 7.78178 19.662C7.53678 19.8657 7.01935 20.0999 6.2309 20.3646V20.5473H8.08401V21.5886H4.71266V20.7749C4.71266 20.5318 4.75854 20.2999 4.85029 20.0784C4.90752 19.9524 5.04563 19.8006 5.26462 19.6226C5.38286 19.5228 5.54178 19.4273 5.7409 19.3364C5.94049 19.2451 6.12874 19.1593 6.30658 19.0792C6.48394 18.9991 6.62725 18.9326 6.73698 18.8806V18.5293C6.53975 18.5078 6.35766 18.4965 6.19117 18.4965C5.7882 18.4965 5.38286 18.5443 4.97563 18.6399ZM11.6304 20.1885H10.5132V21.5886H9.19833V17.5199H11.8933L11.7287 18.5621H10.5132V19.2184H11.6304V20.1885ZM13.4579 21.5886H12.1265L13.1916 17.5199H15.2226L16.2873 21.5886H14.9558L14.8045 20.9445H13.6093L13.4579 21.5886ZM14.0316 18.7701L13.8458 19.9093H14.5614L14.3816 18.7701H14.0316Z" fill="#007C6A"/>
</g>
<defs>
<clipPath id="clip0_1096_2380">
<rect width="21" height="24" fill="white"/>
</clipPath>
</defs>
</svg>
