<svg width="24" height="24" viewBox="0 0 24 24" fill="none" xmlns="http://www.w3.org/2000/svg">
<circle cx="11.6128" cy="11.6128" r="11.6128" fill="white"/>
<path fill-rule="evenodd" clip-rule="evenodd" d="M9.27368 5.45427C9.89033 5.42577 10.0869 5.41943 11.6577 5.41943C13.2286 5.41943 13.4252 5.4263 14.0413 5.45427C14.6574 5.48225 15.078 5.58096 15.446 5.72401C15.8313 5.87022 16.1809 6.09878 16.47 6.39438C16.7644 6.68417 16.9915 7.03467 17.1366 7.42211C17.2796 7.79161 17.3774 8.21389 17.4058 8.83148C17.4342 9.45171 17.4405 9.64913 17.4405 11.2258C17.4405 12.8031 17.4337 13.0005 17.4058 13.6197C17.3779 14.2372 17.2796 14.6595 17.1366 15.029C16.9915 15.4165 16.7641 15.7676 16.47 16.0578C16.1809 16.3534 15.8313 16.5814 15.446 16.7271C15.078 16.8707 14.6574 16.9689 14.0423 16.9974C13.4252 17.0259 13.2286 17.0322 11.6577 17.0322C10.0869 17.0322 9.89033 17.0254 9.27368 16.9974C8.6586 16.9694 8.23804 16.8707 7.87005 16.7271C7.48414 16.5814 7.13449 16.353 6.84545 16.0578C6.55126 15.7678 6.32359 15.4169 6.17833 15.0295C6.03587 14.6601 5.93808 14.2378 5.9097 13.6202C5.88131 12.9999 5.875 12.8025 5.875 11.2258C5.875 9.6486 5.88183 9.45119 5.9097 8.83254C5.93756 8.21389 6.03587 7.79161 6.17833 7.42211C6.32381 7.03471 6.55164 6.68381 6.84598 6.39385C7.13461 6.09852 7.4839 5.86993 7.86952 5.72401C8.23751 5.58096 8.6586 5.48278 9.27368 5.45427ZM13.9945 6.49942C13.3847 6.47145 13.2017 6.46564 11.6577 6.46564C10.1138 6.46564 9.93081 6.47145 9.32099 6.49942C8.75691 6.52529 8.45095 6.61977 8.24698 6.69948C7.97729 6.80505 7.78436 6.93015 7.58196 7.13338C7.3901 7.32079 7.24245 7.54895 7.14983 7.80111C7.07045 8.00592 6.97635 8.31313 6.95059 8.87952C6.92273 9.49183 6.91695 9.67552 6.91695 11.2258C6.91695 12.7761 6.92273 12.9598 6.95059 13.5721C6.97635 14.1385 7.07045 14.4457 7.14983 14.6506C7.24236 14.9023 7.39008 15.1309 7.58196 15.3183C7.76859 15.511 7.99622 15.6593 8.24698 15.7522C8.45095 15.8319 8.75691 15.9264 9.32099 15.9522C9.93081 15.9802 10.1132 15.986 11.6577 15.986C13.2023 15.986 13.3847 15.9802 13.9945 15.9522C14.5586 15.9264 14.8645 15.8319 15.0685 15.7522C15.3382 15.6466 15.5311 15.5215 15.7335 15.3183C15.9254 15.1309 16.0731 14.9023 16.1657 14.6506C16.245 14.4457 16.3391 14.1385 16.3649 13.5721C16.3928 12.9598 16.3985 12.7761 16.3985 11.2258C16.3985 9.67552 16.3928 9.49183 16.3649 8.87952C16.3391 8.31313 16.245 8.00592 16.1657 7.80111C16.0605 7.53032 15.9359 7.3366 15.7335 7.13338C15.5469 6.94075 15.3196 6.79249 15.0685 6.69948C14.8645 6.61977 14.5586 6.52529 13.9945 6.49942ZM10.9191 13.0158C11.3316 13.1882 11.7909 13.2115 12.2186 13.0816C12.6463 12.9518 13.0158 12.6769 13.2641 12.3038C13.5123 11.9308 13.6239 11.4828 13.5797 11.0364C13.5356 10.5899 13.3384 10.1727 13.0219 9.85605C12.8202 9.6536 12.5763 9.49859 12.3077 9.40217C12.0391 9.30575 11.7526 9.27032 11.4688 9.29843C11.1849 9.32654 10.9108 9.4175 10.6662 9.56474C10.4215 9.71199 10.2125 9.91187 10.054 10.15C9.89551 10.3881 9.7916 10.6585 9.74971 10.9418C9.70783 11.2251 9.72902 11.5142 9.81176 11.7883C9.8945 12.0623 10.0367 12.3146 10.2282 12.5268C10.4197 12.7391 10.6557 12.9061 10.9191 13.0158ZM9.55598 9.11547C9.83199 8.83833 10.1597 8.6185 10.5203 8.46851C10.8809 8.31853 11.2674 8.24133 11.6577 8.24133C12.0481 8.24133 12.4346 8.31853 12.7952 8.46851C13.1558 8.6185 13.4835 8.83833 13.7595 9.11547C14.0355 9.39261 14.2545 9.72162 14.4038 10.0837C14.5532 10.4458 14.6301 10.8339 14.6301 11.2258C14.6301 11.6178 14.5532 12.0059 14.4038 12.368C14.2545 12.73 14.0355 13.0591 13.7595 13.3362C13.2021 13.8959 12.4461 14.2103 11.6577 14.2103C10.8694 14.2103 10.1134 13.8959 9.55598 13.3362C8.99856 12.7765 8.6854 12.0174 8.6854 11.2258C8.6854 10.4343 8.99856 9.67517 9.55598 9.11547ZM15.2893 8.6858C15.3577 8.62101 15.4125 8.54311 15.4503 8.45669C15.4882 8.37028 15.5084 8.27711 15.5098 8.18271C15.5112 8.08831 15.4937 7.9946 15.4583 7.90711C15.423 7.81963 15.3705 7.74015 15.304 7.67339C15.2375 7.60663 15.1584 7.55395 15.0712 7.51846C14.9841 7.48296 14.8908 7.46538 14.7968 7.46676C14.7027 7.46814 14.61 7.48844 14.5239 7.52647C14.4378 7.5645 14.3602 7.61948 14.2957 7.68815C14.1702 7.82171 14.1016 7.99912 14.1042 8.18271C14.1069 8.36631 14.1807 8.54163 14.31 8.67146C14.4393 8.80129 14.6139 8.87542 14.7968 8.87809C14.9796 8.88077 15.1563 8.81179 15.2893 8.6858Z" fill="#121826"/>
</svg>
