<svg width="24" height="24" viewBox="0 0 24 24" fill="none" xmlns="http://www.w3.org/2000/svg">
<path d="M17.5807 2.58185C17.2436 1.88479 17.248 1.86805 16.5666 2.24705C14.2487 3.5422 12.014 4.97586 10.0718 6.82049C8.04941 8.74108 6.44576 10.9312 6.07157 13.8563C5.89785 15.2093 6.0449 16.4679 6.46358 17.6413L6.46202 17.6412C6.46202 17.6412 7.13473 19.6806 8.52903 21.0351C8.71614 21.2436 8.92693 21.4339 9.1913 21.5815C9.15566 21.1036 9.09918 20.6729 9.09329 20.2407C9.04724 16.5257 10.391 13.3875 12.9034 10.7561C13.4765 10.155 14.0453 9.52944 14.8233 9.18241C14.3824 9.76073 13.931 10.3315 13.5003 10.9189C11.4126 13.7558 10.0554 16.8453 10.3866 20.5071C10.4622 21.3441 10.5944 22.169 10.9701 23C11.4853 21.6364 12.7594 20.3716 12.7594 20.3716V20.3747C13.1024 19.9973 13.4707 19.6396 13.864 19.3017C14.7995 18.4981 15.7484 17.7037 16.5279 16.7251C18.2993 14.4971 18.914 11.8763 18.9942 9.07898C19.0595 6.79453 18.5741 4.62895 17.5807 2.58185Z" fill="#007C6A"/>
</svg>
