<svg width="20" height="20" viewBox="0 0 20 20" fill="none" xmlns="http://www.w3.org/2000/svg">
<path d="M17.4793 10.1543L16.7403 10.0265L17.4793 10.1543ZM16.8914 13.5541L16.1523 13.4263L16.8914 13.5541ZM5.78148 17.0642L5.03426 17.1289L5.78148 17.0642ZM5.10467 9.23702L5.85188 9.17241L5.10467 9.23702ZM11.6625 4.3512L12.4026 4.47247V4.47247L11.6625 4.3512ZM11.1102 7.72167L11.8504 7.84294L11.1102 7.72167ZM5.58178 8.06459L5.09219 7.49644L5.09219 7.49644L5.58178 8.06459ZM6.78073 7.03143L7.27032 7.59959V7.59959L6.78073 7.03143ZM8.76504 3.98647L8.03907 3.79815L8.76504 3.98647ZM9.16147 2.45826L9.88744 2.64658V2.64658L9.16147 2.45826ZM10.5563 1.72032L10.3269 2.43437L10.3269 2.43437L10.5563 1.72032ZM10.6771 1.75912L10.9065 1.04507L10.9065 1.04507L10.6771 1.75912ZM8.21829 5.38553L8.87982 5.73891L8.21829 5.38553ZM11.5872 2.70629L10.8613 2.89461V2.89461L11.5872 2.70629ZM9.7285 1.77701L9.40292 1.10137L9.40292 1.10137L9.7285 1.77701ZM3.30967 17.8923L2.56245 17.9569L2.56245 17.9569L3.30967 17.8923ZM2.5 8.52852L3.24721 8.46391C3.21261 8.06377 2.86893 7.7619 2.46767 7.77922C2.0664 7.79653 1.75 8.12688 1.75 8.52852H2.5ZM17.4793 10.1543L16.7403 10.0265L16.1523 13.4263L16.8914 13.5541L17.6304 13.682L18.2183 10.2822L17.4793 10.1543ZM11.0375 18.3334V17.5834H7.16362V18.3334V19.0834H11.0375V18.3334ZM5.78148 17.0642L6.52869 16.9996L5.85188 9.17241L5.10467 9.23702L4.35746 9.30163L5.03426 17.1289L5.78148 17.0642ZM16.8914 13.5541L16.1523 13.4263C15.7409 15.8054 13.5936 17.5834 11.0375 17.5834V18.3334V19.0834C14.2835 19.0834 17.0879 16.8187 17.6304 13.682L16.8914 13.5541ZM11.6625 4.3512L10.9223 4.22994L10.3701 7.60041L11.1102 7.72167L11.8504 7.84294L12.4026 4.47247L11.6625 4.3512ZM5.58178 8.06459L6.07138 8.63275L7.27032 7.59959L6.78073 7.03143L6.29114 6.46328L5.09219 7.49644L5.58178 8.06459ZM8.76504 3.98647L9.49102 4.17479L9.88744 2.64658L9.16147 2.45826L8.4355 2.26994L8.03907 3.79815L8.76504 3.98647ZM10.5563 1.72032L10.3269 2.43437L10.4477 2.47318L10.6771 1.75912L10.9065 1.04507L10.7857 1.00626L10.5563 1.72032ZM8.21829 5.38553L8.87982 5.73891C9.14441 5.24359 9.34988 4.71888 9.49102 4.17479L8.76504 3.98647L8.03907 3.79815C7.92794 4.22655 7.76595 4.64054 7.55676 5.03216L8.21829 5.38553ZM10.6771 1.75912L10.4477 2.47318C10.6639 2.54262 10.8128 2.70784 10.8613 2.89461L11.5872 2.70629L12.3132 2.51797C12.1308 1.81494 11.5932 1.26567 10.9065 1.04507L10.6771 1.75912ZM9.16147 2.45826L9.88744 2.64658C9.90711 2.57077 9.96318 2.49646 10.0541 2.45266L9.7285 1.77701L9.40292 1.10137C8.92757 1.33043 8.56938 1.75383 8.4355 2.26994L9.16147 2.45826ZM9.7285 1.77701L10.0541 2.45266C10.1374 2.41252 10.2364 2.4053 10.3269 2.43437L10.5563 1.72032L10.7857 1.00626C10.3306 0.860036 9.83407 0.893609 9.40292 1.10137L9.7285 1.77701ZM11.7947 8.52852L11.7947 9.27852L16.1123 9.27852V8.52852V7.77852L11.7947 7.77852V8.52852ZM3.30967 17.8923L4.05688 17.8277L3.24721 8.46391L2.5 8.52852L1.75279 8.59313L2.56245 17.9569L3.30967 17.8923ZM2.5 17.9273H3.25L3.25 8.52852H2.5H1.75L1.75 17.9273H2.5ZM3.30967 17.8923L2.56245 17.9569C2.54516 17.7569 2.70278 17.5834 2.90559 17.5834L2.90559 18.3334V19.0834C3.584 19.0834 4.11519 18.502 4.05688 17.8277L3.30967 17.8923ZM11.6625 4.3512L12.4026 4.47247C12.5092 3.82186 12.4787 3.15612 12.3132 2.51797L11.5872 2.70629L10.8613 2.89461C10.9744 3.33058 10.9952 3.78543 10.9223 4.22994L11.6625 4.3512ZM7.16362 18.3334V17.5834C6.83368 17.5834 6.5573 17.3306 6.52869 16.9996L5.78148 17.0642L5.03426 17.1289C5.12981 18.2338 6.05394 19.0834 7.16362 19.0834V18.3334ZM6.78073 7.03143L7.27032 7.59959C7.83892 7.10961 8.46472 6.516 8.87982 5.73891L8.21829 5.38553L7.55676 5.03216C7.27961 5.55099 6.8351 5.99453 6.29114 6.46328L6.78073 7.03143ZM17.4793 10.1543L18.2183 10.2822C18.4443 8.9755 17.4394 7.77852 16.1123 7.77852V8.52852V9.27852C16.5068 9.27852 16.808 9.63489 16.7403 10.0265L17.4793 10.1543ZM2.90559 18.3334L2.90559 17.5834C3.0966 17.5834 3.25 17.7381 3.25 17.9273H2.5H1.75C1.75 18.565 2.26657 19.0834 2.90559 19.0834V18.3334ZM11.1102 7.72167L10.3701 7.6004C10.2262 8.4787 10.9032 9.27852 11.7947 9.27852L11.7947 8.52852V7.77852C11.8304 7.77852 11.8557 7.81015 11.8504 7.84294L11.1102 7.72167ZM5.10467 9.23702L5.85188 9.17241C5.83416 8.96742 5.916 8.76664 6.07138 8.63275L5.58178 8.06459L5.09219 7.49644C4.57147 7.94515 4.29825 8.61689 4.35746 9.30163L5.10467 9.23702Z" fill="#506273"/>
</svg>
