<svg width="195" height="43" viewBox="0 0 195 43" fill="none" xmlns="http://www.w3.org/2000/svg">
<path d="M58.0013 27.0505C57.6481 27.0505 57.5135 26.8486 57.5135 26.6299C57.5135 25.8898 58.8424 26.3271 58.8424 25.1833V16.8902C58.8424 16.3855 58.6742 16.15 58.1696 16.15H57.6817C56.5715 16.15 55.7809 16.8229 54.6707 18.1014C54.4351 18.3705 54.2838 18.5219 54.0483 18.5219C53.8296 18.5219 53.6445 18.3537 53.6445 18.0509C53.6445 17.7817 53.7623 17.479 54.0146 16.8902L54.5865 15.5276C54.8389 14.9052 55.0407 14.6866 55.3772 14.6866C55.7809 14.6866 55.8482 15.0566 56.4201 15.0566H63.4852C64.0739 15.0566 64.1412 14.6866 64.545 14.6866C64.8814 14.6866 65.0664 14.9052 65.3356 15.5276L65.9075 16.8902C66.143 17.479 66.2776 17.7817 66.2776 18.0509C66.2776 18.3537 66.0757 18.5219 65.857 18.5219C65.6384 18.5219 65.487 18.3705 65.2515 18.1014C64.1412 16.8229 63.3338 16.15 62.2236 16.15H61.7526C61.2479 16.15 61.0797 16.3855 61.0797 16.8902V25.1833C61.0797 26.3271 62.4086 25.8898 62.4086 26.6299C62.4086 26.8486 62.274 27.0505 61.904 27.0505C61.4161 27.0505 60.8105 27 59.9526 27C59.1116 27 58.4892 27.0505 58.0013 27.0505ZM75.6468 24.9309C75.8487 26.4785 76.8244 25.9739 76.8244 26.6636C76.8244 26.8991 76.6057 27.0505 76.2861 27.0505C75.8487 27.0505 75.4954 27 74.7217 27C73.9142 27 73.5946 27.0505 73.1572 27.0505C72.7872 27.0505 72.5853 26.8654 72.5853 26.6299C72.5853 26.0243 73.6451 26.3271 73.6451 25.4188C73.6451 25.2337 73.6282 25.0655 73.6114 24.9309L73.2245 22.2227C73.0731 21.2134 72.7199 20.0695 71.5928 20.0695C70.7181 20.0695 69.7593 20.7592 69.7593 22.4582V25.116C69.7593 26.4112 70.8022 25.9907 70.8022 26.6467C70.8022 26.8318 70.6508 27.0505 70.3312 27.0505C69.9443 27.0505 69.4733 27 68.75 27C68.0266 27 67.5725 27.0505 67.2024 27.0505C66.8491 27.0505 66.7145 26.8486 66.7145 26.6467C66.7145 25.9907 67.7407 26.4112 67.7407 25.116V16.9575C67.7407 15.9145 66.58 16.436 66.58 15.7295C66.58 15.4099 66.9501 15.208 67.9762 14.7202C68.9518 14.266 69.1537 14.2156 69.3387 14.2156C69.6583 14.2156 69.7593 14.4847 69.7593 14.8043V20.1199C70.2976 19.2452 71.2059 18.4714 72.5012 18.4714C74.3852 18.4714 75.0076 20.2041 75.2263 21.7853L75.6468 24.9309ZM85.286 24.6954C85.5215 24.6954 85.6729 24.9141 85.6729 25.116C85.6729 25.2337 85.6225 25.3683 85.5047 25.5365C84.916 26.4112 83.4188 27.3196 81.6694 27.3196C79.2134 27.3196 77.2789 25.6543 77.2789 22.8787C77.2789 20.1536 79.3312 18.3369 81.6862 18.3369C83.9067 18.3369 85.3365 19.9854 85.3365 21.6339C85.3365 22.0544 85.2019 22.1554 84.916 22.2395L79.6844 23.8207C80.1891 25.0319 81.2152 25.9234 82.5273 25.9234C83.4357 25.9234 84.2094 25.5365 84.7982 24.9814C85.0169 24.7795 85.1346 24.6954 85.286 24.6954ZM81.4002 19.4639C80.2227 19.4639 79.348 20.49 79.348 22.1049C79.348 22.3572 79.3648 22.5927 79.3985 22.8282L82.8133 21.7516C83.0992 21.6675 83.2002 21.5666 83.2002 21.2638C83.2002 20.4564 82.46 19.4639 81.4002 19.4639ZM95.7642 14.9557C99.3136 14.9557 101.214 16.5369 101.214 19.1275C101.214 21.4657 99.7005 23.1647 95.7306 23.1647C94.2839 23.1647 94.1661 23.0133 94.1661 23.4002V25.1664C94.1661 26.3271 95.5119 25.8898 95.5119 26.6467C95.5119 26.8486 95.3773 27.0505 95.0072 27.0505C94.553 27.0505 93.9138 27 93.0391 27C92.2485 27 91.7775 27.0505 91.3738 27.0505C91.0037 27.0505 90.8691 26.8486 90.8691 26.6467C90.8691 25.9571 91.9457 26.344 91.9457 25.1833V16.8734C91.9457 15.7127 90.8691 16.0996 90.8691 15.4099C90.8691 15.208 91.0373 15.0062 91.4074 15.0062C91.8111 15.0062 92.2485 15.0566 93.0391 15.0566C93.7288 15.0566 94.8727 14.9557 95.7642 14.9557ZM95.4951 22.0376C97.7996 22.0376 98.7585 20.9442 98.7585 19.1275C98.7585 17.1089 97.5641 16.0996 95.5792 16.0996C94.1661 16.0996 94.1661 16.6042 94.1661 16.9238V21.3479C94.1661 21.8694 94.6035 22.0376 95.4951 22.0376ZM102.439 27.0505C102.086 27.0505 101.951 26.8486 101.951 26.6467C101.951 25.9907 102.977 26.4112 102.977 25.116V16.9575C102.977 15.9145 101.817 16.436 101.817 15.7295C101.817 15.4099 102.187 15.208 103.213 14.7202C104.189 14.266 104.39 14.2156 104.559 14.2156C104.895 14.2156 104.996 14.5015 104.996 14.9221V25.116C104.996 26.4112 106.039 25.9907 106.039 26.6467C106.039 26.8318 105.888 27.0505 105.568 27.0505C105.181 27.0505 104.71 27 103.987 27C103.263 27 102.809 27.0505 102.439 27.0505ZM116.047 25.7888C116.232 25.8225 116.333 25.9234 116.333 26.0916C116.333 26.4785 115.627 27.1346 114.567 27.1346C113.844 27.1346 113.204 26.7309 112.885 25.9234C112.246 26.6131 111.152 27.185 109.806 27.185C108.007 27.185 106.863 26.1421 106.863 24.645C106.863 23.1478 108.141 21.9535 110.345 21.9535C111.102 21.9535 111.741 22.0713 112.313 22.2395L112.279 22.0376C112.044 20.3891 111.388 19.834 110.345 19.834C109.605 19.834 108.949 20.1872 108.393 20.6414C108.175 20.776 108.007 20.8601 107.855 20.8601C107.67 20.8601 107.468 20.7087 107.468 20.4564C107.468 20.2209 107.67 19.9854 107.872 19.7667C108.478 19.0434 109.672 18.4546 111.018 18.4546C113.154 18.4546 113.961 19.7331 114.214 21.4825L114.601 24.2749C114.769 25.4692 115.156 25.6206 116.047 25.7888ZM110.597 25.9571C111.438 25.9571 112.246 25.4692 112.666 24.9309L112.447 23.232C111.96 23.0469 111.455 22.9628 110.917 22.9628C109.689 22.9628 108.982 23.5011 108.982 24.4431C108.982 25.3515 109.638 25.9571 110.597 25.9571ZM125.689 24.9309C125.891 26.4785 126.85 25.9739 126.85 26.6467C126.85 26.8991 126.631 27.0505 126.328 27.0505C125.891 27.0505 125.538 27 124.764 27C123.956 27 123.637 27.0505 123.183 27.0505C122.812 27.0505 122.627 26.8654 122.627 26.6299C122.627 26.0243 123.687 26.344 123.687 25.3683C123.687 25.2169 123.654 24.9814 123.62 24.7291L123.267 22.2227C123.115 21.2134 122.762 20.0695 121.635 20.0695C120.76 20.0695 119.801 20.7592 119.801 22.4582V25.116C119.801 26.4112 120.844 25.9907 120.844 26.6467C120.844 26.8318 120.693 27.0505 120.373 27.0505C119.986 27.0505 119.515 27 118.792 27C118.069 27 117.615 27.0505 117.228 27.0505C116.891 27.0505 116.757 26.8486 116.757 26.6467C116.757 25.9907 117.783 26.4112 117.783 25.116V21.2806C117.783 20.2209 116.622 20.7424 116.622 20.0358C116.622 19.7331 116.975 19.5144 118.018 19.0434C118.994 18.5892 119.196 18.5387 119.347 18.5387C119.684 18.5387 119.801 18.8079 119.801 19.2284V20.1199C120.34 19.2452 121.248 18.4714 122.543 18.4714C124.411 18.4714 125.05 20.2041 125.252 21.7853L125.689 24.9309ZM139.917 20.49C141.498 20.9106 142.642 21.9535 142.642 23.6189C142.642 25.6879 140.994 27.0673 137.663 27.0673C136.115 27.0673 134.618 27 133.861 27C133.104 27 132.549 27.0505 132.229 27.0505C131.826 27.0505 131.691 26.8654 131.691 26.6299C131.691 25.9571 132.768 26.344 132.768 25.1833V16.8734C132.768 15.7127 131.691 16.0996 131.691 15.4267C131.691 15.1912 131.826 15.0062 132.229 15.0062C132.549 15.0062 133.104 15.0566 133.861 15.0566C134.82 15.0566 135.812 14.9725 137.141 14.9725C139.85 14.9725 141.717 16.0323 141.717 18.0341C141.717 19.1107 141.128 20.0358 139.917 20.49ZM134.988 16.9407V19.6658C134.988 19.9517 135.089 20.0695 135.51 20.0695H136.956C138.47 20.0695 139.295 19.4303 139.295 18.1686C139.295 16.8734 138.403 16.0996 136.687 16.0996H136.368C135.341 16.0996 134.988 16.3014 134.988 16.9407ZM137.175 25.9402C139.025 25.9402 140.186 25.0992 140.186 23.6525C140.186 22.1217 139.126 21.1461 136.956 21.1461H135.493C135.106 21.1461 134.988 21.2638 134.988 21.6003V24.9309C134.988 25.772 135.308 25.9402 136.519 25.9402H137.175ZM151.702 24.6954C151.937 24.6954 152.089 24.9141 152.089 25.116C152.089 25.2337 152.038 25.3683 151.921 25.5365C151.332 26.4112 149.835 27.3196 148.085 27.3196C145.629 27.3196 143.695 25.6543 143.695 22.8787C143.695 20.1536 145.747 18.3369 148.102 18.3369C150.323 18.3369 151.752 19.9854 151.752 21.6339C151.752 22.0544 151.618 22.1554 151.332 22.2395L146.1 23.8207C146.605 25.0319 147.631 25.9234 148.943 25.9234C149.852 25.9234 150.625 25.5365 151.214 24.9814C151.433 24.7795 151.551 24.6954 151.702 24.6954ZM147.816 19.4639C146.639 19.4639 145.764 20.49 145.764 22.1049C145.764 22.3572 145.781 22.5927 145.814 22.8282L149.229 21.7516C149.515 21.6675 149.616 21.5666 149.616 21.2638C149.616 20.4564 148.876 19.4639 147.816 19.4639ZM161.561 18.606C161.83 18.606 162.032 18.7406 162.032 18.9929C162.032 19.548 161.191 19.3798 160.703 20.5405L157.709 27.5888C157.003 29.2709 155.993 30.2298 154.648 30.2298C154.076 30.2298 153.554 30.0784 153.386 29.8429C153.1 29.4896 152.78 28.3457 152.78 27.8074C152.78 27.5046 152.949 27.2691 153.184 27.2691C153.369 27.2691 153.487 27.3533 153.638 27.5719C154.21 28.3962 154.614 28.7663 155.102 28.7663C155.674 28.7663 156.145 28.127 156.548 27.1346L156.582 27.0673L153.554 20.5573C152.999 19.3798 152.208 19.548 152.208 18.9929C152.208 18.7406 152.41 18.606 152.679 18.606C153.117 18.606 153.605 18.6565 154.429 18.6565C155.169 18.6565 155.674 18.606 156.077 18.606C156.414 18.606 156.616 18.7406 156.616 19.0097C156.616 19.5985 155.707 19.3966 155.707 20.1704C155.707 20.3723 155.791 20.7087 155.976 21.1629L157.642 24.9814L159.206 21.1629C159.391 20.6751 159.492 20.3891 159.492 20.1199C159.492 19.4471 158.55 19.5985 158.55 19.0097C158.55 18.7406 158.735 18.606 159.072 18.606C159.425 18.606 159.862 18.6565 160.3 18.6565C160.754 18.6565 161.174 18.606 161.561 18.606ZM166.785 27.3196C163.992 27.3196 162.176 25.4524 162.176 22.9123C162.176 20.2882 164.228 18.3369 167.037 18.3369C169.813 18.3369 171.629 20.2041 171.629 22.7609C171.629 25.4019 169.544 27.3196 166.785 27.3196ZM167.188 26.2262C168.618 26.2262 169.459 25.0823 169.459 23.4002C169.459 21.4993 168.332 19.4303 166.633 19.4303C165.204 19.4303 164.362 20.5741 164.362 22.2731C164.362 24.1571 165.473 26.2262 167.188 26.2262ZM181.706 24.9309C181.908 26.4785 182.867 25.9739 182.867 26.6467C182.867 26.8991 182.648 27.0505 182.346 27.0505C181.908 27.0505 181.555 27 180.781 27C179.974 27 179.654 27.0505 179.2 27.0505C178.83 27.0505 178.645 26.8654 178.645 26.6299C178.645 26.0243 179.705 26.344 179.705 25.3683C179.705 25.2169 179.671 24.9814 179.637 24.7291L179.284 22.2227C179.133 21.2134 178.779 20.0695 177.652 20.0695C176.778 20.0695 175.819 20.7592 175.819 22.4582V25.116C175.819 26.4112 176.862 25.9907 176.862 26.6467C176.862 26.8318 176.71 27.0505 176.391 27.0505C176.004 27.0505 175.533 27 174.809 27C174.086 27 173.632 27.0505 173.245 27.0505C172.909 27.0505 172.774 26.8486 172.774 26.6467C172.774 25.9907 173.8 26.4112 173.8 25.116V21.2806C173.8 20.2209 172.639 20.7424 172.639 20.0358C172.639 19.7331 172.993 19.5144 174.036 19.0434C175.011 18.5892 175.213 18.5387 175.365 18.5387C175.701 18.5387 175.819 18.8079 175.819 19.2284V20.1199C176.357 19.2452 177.265 18.4714 178.561 18.4714C180.428 18.4714 181.067 20.2041 181.269 21.7853L181.706 24.9309ZM192.282 24.544C192.282 25.587 193.477 25.2337 193.477 25.9066C193.477 26.2598 193.124 26.4449 192.013 26.815C191.071 27.1514 190.836 27.2019 190.701 27.2019C190.281 27.2019 190.264 26.7645 190.264 26.4954V25.6206C189.641 26.5458 188.615 27.2355 187.202 27.2355C185.133 27.2355 183.384 25.6543 183.384 22.9628C183.384 20.305 185.268 18.421 187.724 18.421C188.817 18.421 189.658 18.7742 190.264 19.3293V16.9238C190.264 15.8809 188.935 16.436 188.935 15.679C188.935 15.3762 189.305 15.1744 190.432 14.6866C191.391 14.2828 191.694 14.2156 191.845 14.2156C192.198 14.2156 192.282 14.552 192.282 14.9221V24.544ZM188.077 25.7888C189.17 25.7888 190.264 24.9141 190.264 23.3329V22.4918C190.264 20.6919 189.002 19.4807 187.757 19.4807C186.378 19.4807 185.52 20.6582 185.52 22.3572C185.52 24.4936 186.799 25.7888 188.077 25.7888Z" fill="#2B2A29"/>
<path d="M21.6473 7.28068e-05C20.1269 0.0145614 18.5685 0.182672 16.9777 0.499054C7.26764 2.61249 0 11.2124 0 21.501C0 25.3265 1.00692 28.9168 2.76782 32.0299L2.84558 32.1764L4.01704 31.7642C7.21875 30.7499 10.4711 30.9597 13.7126 31.7461C16.1171 32.33 18.3678 33.3894 20.7271 34.1235C23.2781 34.9153 25.8651 35.5155 28.5461 35.5462C31.1187 35.5751 33.6082 35.1105 35.9891 34.1126C36.4771 33.9084 36.9725 33.7185 37.4697 33.5215C37.5347 33.4944 37.7806 33.3931 37.9018 33.3642C37.9018 33.3642 37.6848 33.5757 37.5258 33.7222C37.5004 33.7476 37.4751 33.7691 37.4516 33.7908C37.4461 33.7963 37.4389 33.8035 37.4335 33.8072C37.4299 33.809 37.4281 33.8108 37.4263 33.8126C37.2835 33.9409 37.1388 34.0657 36.9925 34.1886L36.9671 34.2103V34.2102C35.1267 35.7396 33.0097 36.7538 30.6397 37.1931C26.2556 38.0048 22.016 37.3179 17.8834 35.7685C15.5458 34.8917 13.3222 33.6967 10.7984 33.3406C8.81879 33.0603 6.86091 33.0766 4.9138 33.4599C4.30819 33.5973 3.87787 33.7854 3.87787 33.7854C7.75756 39.3174 14.1863 42.9493 21.472 43C22.3958 42.9892 23.3359 42.9222 24.294 42.7976C26.0097 42.5716 27.6332 42.192 29.1607 41.6604C37.3883 38.6197 43.2512 30.7409 43.2512 21.501C43.2476 9.63405 33.5792 0.0127048 21.6473 0V7.28068e-05Z" fill="#007C6A"/>
<path d="M30.3867 7.65272C29.9763 6.82469 29.9817 6.80482 29.152 7.25502C26.3299 8.7935 23.6091 10.4965 21.2444 12.6877C18.7821 14.9691 16.8296 17.5708 16.374 21.0455C16.1625 22.6526 16.3415 24.1477 16.8513 25.5416L16.8494 25.5415C16.8494 25.5415 17.6684 27.964 19.366 29.573C19.5938 29.8207 19.8505 30.0467 20.1724 30.222C20.129 29.6543 20.0602 29.1427 20.053 28.6293C19.997 24.2164 21.633 20.4885 24.692 17.3627C25.3898 16.6487 26.0822 15.9056 27.0295 15.4934C26.4927 16.1804 25.943 16.8584 25.4187 17.5562C22.8768 20.926 21.2244 24.596 21.6276 28.9458C21.7198 29.94 21.8807 30.9199 22.3381 31.907C22.9654 30.2872 24.5166 28.7848 24.5166 28.7848V28.7885C24.9342 28.3402 25.3826 27.9152 25.8616 27.5139C27.0005 26.5594 28.1558 25.6156 29.1048 24.4532C31.2616 21.8066 32.0101 18.6934 32.1077 15.3705C32.1872 12.6569 31.5961 10.0844 30.3866 7.65269H30.3868L30.3867 7.65272Z" fill="#FAF6EC"/>
</svg>
