<svg width="20" height="20" viewBox="0 0 20 20" fill="none" xmlns="http://www.w3.org/2000/svg">
<path fill-rule="evenodd" clip-rule="evenodd" d="M3.93141 2.57642C4.95323 1.50064 6.64341 1.70219 7.48807 2.89684L8.5389 4.38308C9.21451 5.33864 9.15744 6.66711 8.35113 7.51601L8.14708 7.73083C8.14651 7.73231 8.14592 7.73392 8.1453 7.73566C8.13452 7.76596 8.10725 7.86245 8.13408 8.04557C8.18971 8.42519 8.48275 9.19659 9.67246 10.4491C10.8659 11.7056 11.5898 12.0018 11.9253 12.0562C12.07 12.0797 12.1457 12.0593 12.1698 12.0508L12.5103 11.6923C13.2385 10.9257 14.3738 10.7747 15.2892 11.3016L16.8813 12.218C18.242 13.0012 18.5587 14.9172 17.4713 16.0621L16.2875 17.3084C15.918 17.6974 15.4142 18.0294 14.7917 18.0909C13.2718 18.2409 9.75082 18.0455 6.05967 14.1594C2.61537 10.5332 1.96105 7.37911 1.87834 5.8381L2.43342 5.8083L1.87834 5.83809C1.83747 5.0767 2.17687 4.42363 2.62341 3.9535L3.93141 2.57642ZM6.46742 3.61848C6.04046 3.01461 5.27343 2.97858 4.83774 3.43728L3.52974 4.81436C3.25358 5.1051 3.10868 5.43835 3.12654 5.7711C3.19407 7.02928 3.73589 9.89785 6.96599 13.2985C10.3528 16.8642 13.473 16.965 14.6689 16.8469C14.9053 16.8236 15.1486 16.6924 15.3811 16.4476L16.5649 15.2012C17.0756 14.6636 16.9417 13.695 16.2577 13.3013L14.6656 12.3849C14.2384 12.139 13.7379 12.215 13.4167 12.5532L13.0371 12.9527L12.5978 12.5355C13.0371 12.9528 13.0365 12.9534 13.036 12.954L13.0348 12.9552L13.0323 12.9578L13.027 12.9631L13.0151 12.9749C13.0065 12.9832 12.9966 12.9924 12.9854 13.0022C12.963 13.0218 12.9353 13.0442 12.902 13.0679C12.8352 13.1152 12.7463 13.1673 12.6338 13.2116C12.4038 13.3023 12.1001 13.351 11.7249 13.2901C10.9936 13.1713 10.0352 12.6461 8.76614 11.31C7.49335 9.96999 7.00622 8.97022 6.89729 8.22679C6.84185 7.8484 6.88622 7.5454 6.96764 7.3166C7.00768 7.20407 7.05495 7.11435 7.09855 7.04622C7.12029 7.01225 7.14101 6.9838 7.15933 6.96065C7.16849 6.94908 7.17705 6.93882 7.18485 6.92986L7.19595 6.91737L7.20104 6.91184L7.20346 6.90925L7.20463 6.908C7.20521 6.9074 7.20578 6.90679 7.64884 7.32761L7.20579 6.90678L7.4448 6.65515C7.81608 6.26426 7.87003 5.60227 7.51824 5.10472L6.46742 3.61848Z" fill="white"/>
<path d="M11.0497 1.56685C11.1048 1.22611 11.4269 0.994965 11.7677 1.05013C11.7888 1.05417 11.8566 1.06685 11.8922 1.07477C11.9633 1.09061 12.0625 1.11499 12.1862 1.15101C12.4335 1.22304 12.779 1.34171 13.1937 1.53183C14.0239 1.91246 15.1287 2.57829 16.2752 3.72479C17.4217 4.87129 18.0876 5.97614 18.4682 6.80637C18.6583 7.22105 18.777 7.56655 18.849 7.81387C18.885 7.93754 18.9094 8.03673 18.9253 8.10784C18.9332 8.14339 18.939 8.17194 18.943 8.19304L18.9478 8.21903C19.003 8.55977 18.7739 8.8952 18.4332 8.95037C18.0934 9.00538 17.7733 8.77535 17.7168 8.4362C17.7151 8.4271 17.7103 8.40263 17.7051 8.37956C17.6949 8.33341 17.6771 8.26022 17.6489 8.16343C17.5925 7.96982 17.4945 7.68204 17.3319 7.32731C17.0071 6.61872 16.4229 5.64023 15.3913 4.60868C14.3598 3.57713 13.3813 2.99296 12.6727 2.6681C12.318 2.50547 12.0302 2.40753 11.8366 2.35114C11.7398 2.32294 11.6181 2.29502 11.572 2.28474C11.2328 2.22822 10.9946 1.90662 11.0497 1.56685Z" fill="white"/>
<path fill-rule="evenodd" clip-rule="evenodd" d="M11.2383 4.44174C11.3331 4.10984 11.6791 3.91766 12.011 4.01249L11.8393 4.61344C12.011 4.01249 12.0113 4.01257 12.0116 4.01266L12.0122 4.01283L12.0134 4.0132L12.0162 4.01401L12.0227 4.01594L12.0392 4.02108C12.0517 4.0251 12.0674 4.03033 12.0861 4.03697C12.1236 4.05025 12.173 4.06914 12.2337 4.09514C12.3551 4.14717 12.521 4.22752 12.7248 4.34811C13.1326 4.58951 13.6895 4.9905 14.3436 5.64464C14.9978 6.29878 15.3987 6.85561 15.6401 7.26349C15.7607 7.46725 15.8411 7.63314 15.8931 7.75454C15.9191 7.81521 15.938 7.86468 15.9513 7.90211C15.9579 7.92081 15.9632 7.93651 15.9672 7.94907L15.9723 7.96556L15.9742 7.97202L15.975 7.9748L15.9754 7.97607L15.9756 7.97668C15.9757 7.97698 15.9758 7.97727 15.3748 8.14898L15.9758 7.97727C16.0706 8.30917 15.8784 8.6551 15.5465 8.74993C15.2174 8.84395 14.8746 8.65582 14.7763 8.3291L14.7732 8.32012C14.7688 8.30759 14.7596 8.28294 14.7442 8.24694C14.7133 8.17499 14.6574 8.0573 14.5644 7.90014C14.3786 7.58619 14.043 7.11182 13.4597 6.52852C12.8764 5.94523 12.4021 5.60964 12.0881 5.42383C11.9309 5.33082 11.8133 5.27491 11.7413 5.24407C11.7053 5.22864 11.6807 5.21945 11.6681 5.215L11.6591 5.21192C11.3324 5.11369 11.1443 4.77082 11.2383 4.44174Z" fill="white"/>
</svg>
