<svg width="191" height="40" viewBox="0 0 191 40" fill="none" xmlns="http://www.w3.org/2000/svg">
<path d="M54.2587 26.283C53.9054 26.283 53.7708 26.0811 53.7708 25.8625C53.7708 25.1223 55.0997 25.5597 55.0997 24.4158V16.1227C55.0997 15.6181 54.9315 15.3826 54.4269 15.3826H53.939C52.8288 15.3826 52.0382 16.0555 50.928 17.3339C50.6925 17.603 50.5411 17.7544 50.3056 17.7544C50.0869 17.7544 49.9019 17.5862 49.9019 17.2834C49.9019 17.0143 50.0196 16.7115 50.2719 16.1227L50.8439 14.7602C51.0962 14.1378 51.2981 13.9191 51.6345 13.9191C52.0382 13.9191 52.1055 14.2892 52.6774 14.2892H59.7425C60.3313 14.2892 60.3986 13.9191 60.8023 13.9191C61.1387 13.9191 61.3237 14.1378 61.5929 14.7602L62.1648 16.1227C62.4003 16.7115 62.5349 17.0143 62.5349 17.2834C62.5349 17.5862 62.333 17.7544 62.1144 17.7544C61.8957 17.7544 61.7443 17.603 61.5088 17.3339C60.3986 16.0555 59.5911 15.3826 58.4809 15.3826H58.0099C57.5052 15.3826 57.337 15.6181 57.337 16.1227V24.4158C57.337 25.5597 58.6659 25.1223 58.6659 25.8625C58.6659 26.0811 58.5314 26.283 58.1613 26.283C57.6735 26.283 57.0679 26.2325 56.21 26.2325C55.3689 26.2325 54.7465 26.283 54.2587 26.283ZM71.9042 24.1635C72.106 25.7111 73.0817 25.2064 73.0817 25.8961C73.0817 26.1316 72.863 26.283 72.5434 26.283C72.106 26.283 71.7528 26.2325 70.979 26.2325C70.1715 26.2325 69.8519 26.283 69.4146 26.283C69.0445 26.283 68.8426 26.098 68.8426 25.8625C68.8426 25.2569 69.9024 25.5597 69.9024 24.6513C69.9024 24.4663 69.8856 24.2981 69.8687 24.1635L69.4818 21.4552C69.3305 20.4459 68.9772 19.302 67.8501 19.302C66.9754 19.302 66.0166 19.9917 66.0166 21.6907V24.3485C66.0166 25.6438 67.0595 25.2232 67.0595 25.8793C67.0595 26.0643 66.9081 26.283 66.5885 26.283C66.2016 26.283 65.7306 26.2325 65.0073 26.2325C64.284 26.2325 63.8298 26.283 63.4597 26.283C63.1064 26.283 62.9719 26.0811 62.9719 25.8793C62.9719 25.2232 63.998 25.6438 63.998 24.3485V16.19C63.998 15.1471 62.8373 15.6686 62.8373 14.962C62.8373 14.6424 63.2074 14.4406 64.2335 13.9527C65.2092 13.4986 65.411 13.4481 65.596 13.4481C65.9157 13.4481 66.0166 13.7172 66.0166 14.0369V19.3525C66.5549 18.4778 67.4633 17.704 68.7585 17.704C70.6425 17.704 71.2649 19.4366 71.4836 21.0178L71.9042 24.1635ZM81.5434 23.928C81.7789 23.928 81.9303 24.1467 81.9303 24.3485C81.9303 24.4663 81.8798 24.6008 81.762 24.7691C81.1733 25.6438 79.6762 26.5522 77.9267 26.5522C75.4707 26.5522 73.5363 24.8868 73.5363 22.1112C73.5363 19.3861 75.5885 17.5694 77.9435 17.5694C80.164 17.5694 81.5938 19.2179 81.5938 20.8664C81.5938 21.287 81.4593 21.3879 81.1733 21.472L75.9418 23.0533C76.4464 24.2644 77.4725 25.156 78.7846 25.156C79.693 25.156 80.4668 24.7691 81.0555 24.2139C81.2742 24.0121 81.392 23.928 81.5434 23.928ZM77.6576 18.6964C76.48 18.6964 75.6053 19.7226 75.6053 21.3374C75.6053 21.5898 75.6221 21.8253 75.6558 22.0608L79.0706 20.9842C79.3565 20.9001 79.4575 20.7992 79.4575 20.4964C79.4575 19.6889 78.7173 18.6964 77.6576 18.6964ZM92.0215 14.1883C95.5709 14.1883 97.4717 15.7695 97.4717 18.36C97.4717 20.6982 95.9578 22.3972 91.9879 22.3972C90.5412 22.3972 90.4235 22.2458 90.4235 22.6327V24.399C90.4235 25.5597 91.7692 25.1223 91.7692 25.8793C91.7692 26.0811 91.6346 26.283 91.2646 26.283C90.8104 26.283 90.1711 26.2325 89.2964 26.2325C88.5058 26.2325 88.0348 26.283 87.6311 26.283C87.261 26.283 87.1264 26.0811 87.1264 25.8793C87.1264 25.1896 88.203 25.5765 88.203 24.4158V16.1059C88.203 14.9452 87.1264 15.3321 87.1264 14.6424C87.1264 14.4406 87.2946 14.2387 87.6647 14.2387C88.0684 14.2387 88.5058 14.2892 89.2964 14.2892C89.9861 14.2892 91.13 14.1883 92.0215 14.1883ZM91.7524 21.2702C94.0569 21.2702 95.0158 20.1768 95.0158 18.36C95.0158 16.3414 93.8214 15.3321 91.8365 15.3321C90.4235 15.3321 90.4235 15.8368 90.4235 16.1564V20.5805C90.4235 21.1019 90.8608 21.2702 91.7524 21.2702ZM98.6964 26.283C98.3432 26.283 98.2086 26.0811 98.2086 25.8793C98.2086 25.2232 99.2347 25.6438 99.2347 24.3485V16.19C99.2347 15.1471 98.074 15.6686 98.074 14.962C98.074 14.6424 98.4441 14.4406 99.4702 13.9527C100.446 13.4986 100.648 13.4481 100.816 13.4481C101.152 13.4481 101.253 13.7341 101.253 14.1546V24.3485C101.253 25.6438 102.296 25.2232 102.296 25.8793C102.296 26.0643 102.145 26.283 101.825 26.283C101.438 26.283 100.967 26.2325 100.244 26.2325C99.5207 26.2325 99.0665 26.283 98.6964 26.283ZM112.305 25.0214C112.49 25.055 112.591 25.156 112.591 25.3242C112.591 25.7111 111.884 26.3671 110.824 26.3671C110.101 26.3671 109.462 25.9634 109.142 25.156C108.503 25.8456 107.41 26.4176 106.064 26.4176C104.264 26.4176 103.12 25.3746 103.12 23.8775C103.12 22.3804 104.398 21.1861 106.602 21.1861C107.359 21.1861 107.998 21.3038 108.57 21.472L108.537 21.2702C108.301 19.6216 107.645 19.0665 106.602 19.0665C105.862 19.0665 105.206 19.4198 104.651 19.874C104.432 20.0085 104.264 20.0926 104.112 20.0926C103.927 20.0926 103.726 19.9413 103.726 19.6889C103.726 19.4534 103.927 19.2179 104.129 18.9992C104.735 18.2759 105.929 17.6872 107.275 17.6872C109.411 17.6872 110.219 18.9656 110.471 20.715L110.858 23.5074C111.026 24.7018 111.413 24.8532 112.305 25.0214ZM106.854 25.1896C107.695 25.1896 108.503 24.7018 108.923 24.1635L108.705 22.4645C108.217 22.2795 107.712 22.1954 107.174 22.1954C105.946 22.1954 105.24 22.7336 105.24 23.6757C105.24 24.584 105.896 25.1896 106.854 25.1896ZM121.946 24.1635C122.148 25.7111 123.107 25.2064 123.107 25.8793C123.107 26.1316 122.888 26.283 122.586 26.283C122.148 26.283 121.795 26.2325 121.021 26.2325C120.214 26.2325 119.894 26.283 119.44 26.283C119.07 26.283 118.885 26.098 118.885 25.8625C118.885 25.2569 119.945 25.5765 119.945 24.6008C119.945 24.4495 119.911 24.2139 119.877 23.9616L119.524 21.4552C119.373 20.4459 119.019 19.302 117.892 19.302C117.018 19.302 116.059 19.9917 116.059 21.6907V24.3485C116.059 25.6438 117.102 25.2232 117.102 25.8793C117.102 26.0643 116.95 26.283 116.631 26.283C116.244 26.283 115.773 26.2325 115.049 26.2325C114.326 26.2325 113.872 26.283 113.485 26.283C113.149 26.283 113.014 26.0811 113.014 25.8793C113.014 25.2232 114.04 25.6438 114.04 24.3485V20.5132C114.04 19.4534 112.879 19.9749 112.879 19.2684C112.879 18.9656 113.233 18.7469 114.276 18.2759C115.251 17.8217 115.453 17.7713 115.605 17.7713C115.941 17.7713 116.059 18.0404 116.059 18.4609V19.3525C116.597 18.4778 117.505 17.704 118.801 17.704C120.668 17.704 121.307 19.4366 121.509 21.0178L121.946 24.1635ZM136.174 19.7226C137.755 20.1431 138.899 21.1861 138.899 22.8514C138.899 24.9205 137.251 26.2998 133.92 26.2998C132.373 26.2998 130.875 26.2325 130.118 26.2325C129.361 26.2325 128.806 26.283 128.487 26.283C128.083 26.283 127.948 26.098 127.948 25.8625C127.948 25.1896 129.025 25.5765 129.025 24.4158V16.1059C129.025 14.9452 127.948 15.3321 127.948 14.6593C127.948 14.4238 128.083 14.2387 128.487 14.2387C128.806 14.2387 129.361 14.2892 130.118 14.2892C131.077 14.2892 132.07 14.2051 133.399 14.2051C136.107 14.2051 137.974 15.2648 137.974 17.2666C137.974 18.3432 137.385 19.2684 136.174 19.7226ZM131.246 16.1732V18.8983C131.246 19.1843 131.346 19.302 131.767 19.302H133.214C134.728 19.302 135.552 18.6628 135.552 17.4012C135.552 16.1059 134.66 15.3321 132.945 15.3321H132.625C131.599 15.3321 131.246 15.534 131.246 16.1732ZM133.432 25.1728C135.283 25.1728 136.443 24.3317 136.443 22.885C136.443 21.3543 135.384 20.3786 133.214 20.3786H131.75C131.363 20.3786 131.246 20.4964 131.246 20.8328V24.1635C131.246 25.0046 131.565 25.1728 132.776 25.1728H133.432ZM147.959 23.928C148.195 23.928 148.346 24.1467 148.346 24.3485C148.346 24.4663 148.296 24.6008 148.178 24.7691C147.589 25.6438 146.092 26.5522 144.343 26.5522C141.887 26.5522 139.952 24.8868 139.952 22.1112C139.952 19.3861 142.004 17.5694 144.359 17.5694C146.58 17.5694 148.01 19.2179 148.01 20.8664C148.01 21.287 147.875 21.3879 147.589 21.472L142.358 23.0533C142.862 24.2644 143.888 25.156 145.201 25.156C146.109 25.156 146.883 24.7691 147.471 24.2139C147.69 24.0121 147.808 23.928 147.959 23.928ZM144.073 18.6964C142.896 18.6964 142.021 19.7226 142.021 21.3374C142.021 21.5898 142.038 21.8253 142.072 22.0608L145.486 20.9842C145.772 20.9001 145.873 20.7992 145.873 20.4964C145.873 19.6889 145.133 18.6964 144.073 18.6964ZM157.819 17.8385C158.088 17.8385 158.29 17.9731 158.29 18.2254C158.29 18.7806 157.449 18.6123 156.961 19.773L153.966 26.8213C153.26 28.5035 152.251 29.4623 150.905 29.4623C150.333 29.4623 149.811 29.3109 149.643 29.0754C149.357 28.7221 149.038 27.5783 149.038 27.04C149.038 26.7372 149.206 26.5017 149.441 26.5017C149.626 26.5017 149.744 26.5858 149.896 26.8045C150.468 27.6287 150.871 27.9988 151.359 27.9988C151.931 27.9988 152.402 27.3596 152.806 26.3671L152.839 26.2998L149.811 19.7899C149.256 18.6123 148.466 18.7806 148.466 18.2254C148.466 17.9731 148.668 17.8385 148.937 17.8385C149.374 17.8385 149.862 17.889 150.686 17.889C151.426 17.889 151.931 17.8385 152.335 17.8385C152.671 17.8385 152.873 17.9731 152.873 18.2423C152.873 18.831 151.965 18.6292 151.965 19.403C151.965 19.6048 152.049 19.9413 152.234 20.3954L153.899 24.2139L155.464 20.3954C155.649 19.9076 155.75 19.6216 155.75 19.3525C155.75 18.6796 154.808 18.831 154.808 18.2423C154.808 17.9731 154.993 17.8385 155.329 17.8385C155.682 17.8385 156.12 17.889 156.557 17.889C157.011 17.889 157.432 17.8385 157.819 17.8385ZM163.042 26.5522C160.25 26.5522 158.433 24.685 158.433 22.1449C158.433 19.5207 160.485 17.5694 163.294 17.5694C166.07 17.5694 167.887 19.4366 167.887 21.9935C167.887 24.6345 165.801 26.5522 163.042 26.5522ZM163.446 25.4587C164.876 25.4587 165.717 24.3149 165.717 22.6327C165.717 20.7319 164.59 18.6628 162.891 18.6628C161.461 18.6628 160.62 19.8067 160.62 21.5057C160.62 23.3897 161.73 25.4587 163.446 25.4587ZM177.964 24.1635C178.166 25.7111 179.124 25.2064 179.124 25.8793C179.124 26.1316 178.906 26.283 178.603 26.283C178.166 26.283 177.812 26.2325 177.038 26.2325C176.231 26.2325 175.911 26.283 175.457 26.283C175.087 26.283 174.902 26.098 174.902 25.8625C174.902 25.2569 175.962 25.5765 175.962 24.6008C175.962 24.4495 175.928 24.2139 175.895 23.9616L175.541 21.4552C175.39 20.4459 175.037 19.302 173.91 19.302C173.035 19.302 172.076 19.9917 172.076 21.6907V24.3485C172.076 25.6438 173.119 25.2232 173.119 25.8793C173.119 26.0643 172.968 26.283 172.648 26.283C172.261 26.283 171.79 26.2325 171.067 26.2325C170.343 26.2325 169.889 26.283 169.502 26.283C169.166 26.283 169.031 26.0811 169.031 25.8793C169.031 25.2232 170.058 25.6438 170.058 24.3485V20.5132C170.058 19.4534 168.897 19.9749 168.897 19.2684C168.897 18.9656 169.25 18.7469 170.293 18.2759C171.269 17.8217 171.471 17.7713 171.622 17.7713C171.958 17.7713 172.076 18.0404 172.076 18.4609V19.3525C172.614 18.4778 173.523 17.704 174.818 17.704C176.685 17.704 177.324 19.4366 177.526 21.0178L177.964 24.1635ZM188.54 23.7766C188.54 24.8195 189.734 24.4663 189.734 25.1391C189.734 25.4924 189.381 25.6774 188.271 26.0475C187.329 26.3839 187.093 26.4344 186.959 26.4344C186.538 26.4344 186.521 25.997 186.521 25.7279V24.8532C185.899 25.7784 184.873 26.468 183.46 26.468C181.391 26.468 179.641 24.8868 179.641 22.1954C179.641 19.5375 181.525 17.6535 183.981 17.6535C185.074 17.6535 185.916 18.0068 186.521 18.5619V16.1564C186.521 15.1134 185.192 15.6686 185.192 14.9116C185.192 14.6088 185.562 14.4069 186.689 13.9191C187.648 13.5154 187.951 13.4481 188.102 13.4481C188.456 13.4481 188.54 13.7845 188.54 14.1546V23.7766ZM184.334 25.0214C185.428 25.0214 186.521 24.1467 186.521 22.5654V21.7243C186.521 19.9244 185.26 18.7133 184.015 18.7133C182.635 18.7133 181.777 19.8908 181.777 21.5898C181.777 23.7261 183.056 25.0214 184.334 25.0214Z" fill="#007C6A"/>
<path d="M20.137 6.77272e-05C18.7227 0.0135454 17.273 0.169928 15.7932 0.464236C6.7606 2.43022 0 10.4301 0 20.001C0 23.5595 0.936668 26.8994 2.57472 29.7953L2.64705 29.9315L3.73678 29.5481C6.71512 28.6046 9.7406 28.7997 12.7559 29.5312C14.9926 30.0744 17.0864 31.0599 19.2811 31.7428C21.654 32.4794 24.0605 33.0377 26.5545 33.0663C28.9477 33.0931 31.2634 32.6609 33.4782 31.7326C33.9322 31.5427 34.393 31.366 34.8555 31.1828C34.916 31.1576 35.1448 31.0634 35.2575 31.0365C35.2575 31.0365 35.0556 31.2333 34.9077 31.3695C34.8841 31.3931 34.8606 31.4131 34.8387 31.4333C34.8336 31.4384 34.8269 31.4451 34.8219 31.4486C34.8185 31.4502 34.8169 31.4519 34.8152 31.4536C34.6823 31.5729 34.5478 31.689 34.4117 31.8033L34.388 31.8235V31.8234C32.676 33.2461 30.7067 34.1896 28.502 34.5982C24.4238 35.3533 20.48 34.7143 16.6357 33.273C14.4613 32.4574 12.3927 31.3458 10.045 31.0145C8.20353 30.7538 6.38224 30.7689 4.57098 31.1255C4.00762 31.2533 3.60732 31.4282 3.60732 31.4282C7.21634 36.5743 13.1965 39.9529 19.974 40C20.8333 39.99 21.7079 39.9277 22.5991 39.8117C24.1951 39.6015 25.7053 39.2484 27.1263 38.7539C34.7799 35.9253 40.2337 28.5962 40.2337 20.0009C40.2303 8.9619 31.2365 0.0118184 20.137 0V6.77272e-05Z" fill="#007C6A"/>
<path d="M28.2668 7.11869C27.885 6.34843 27.89 6.32994 27.1182 6.74873C24.493 8.17987 21.962 9.76408 19.7623 11.8024C17.4718 13.9247 15.6555 16.3448 15.2317 19.577C15.0349 21.0721 15.2015 22.4629 15.6757 23.7595L15.6739 23.7594C15.6739 23.7594 16.4358 26.0129 18.015 27.5096C18.2269 27.74 18.4656 27.9503 18.7651 28.1133C18.7247 27.5853 18.6607 27.1094 18.654 26.6318C18.6019 22.5267 20.1238 19.0589 22.9694 16.1513C23.6185 15.487 24.2626 14.7958 25.1438 14.4123C24.6444 15.0514 24.1331 15.6821 23.6453 16.3312C21.2808 19.4659 19.7437 22.8799 20.1188 26.9262C20.2045 27.8511 20.3542 28.7625 20.7797 29.6808C21.3632 28.174 22.8062 26.7765 22.8062 26.7765V26.7798C23.1947 26.3628 23.6118 25.9675 24.0573 25.5942C25.1169 24.7063 26.1915 23.8283 27.0743 22.7471C29.0807 20.2851 29.7769 17.3891 29.8676 14.298C29.9417 11.7737 29.3918 9.38071 28.2667 7.11865H28.2668L28.2668 7.11869Z" fill="#FAF6EC"/>
</svg>
