<svg width="32" height="32" viewBox="0 0 32 32" fill="none" xmlns="http://www.w3.org/2000/svg">
<path d="M12.5838 8.09005C14.1038 5.36335 14.8638 4 16 4C17.1362 4 17.8962 5.36335 19.4162 8.09005L19.8094 8.79548C20.2414 9.57032 20.4573 9.95774 20.7941 10.2134C21.1308 10.469 21.5502 10.5639 22.3889 10.7537L23.1526 10.9264C26.1042 11.5943 27.58 11.9282 27.9311 13.0573C28.2822 14.1864 27.2761 15.3629 25.2639 17.7159L24.7433 18.3247C24.1715 18.9933 23.8856 19.3277 23.757 19.7413C23.6283 20.1549 23.6716 20.6009 23.758 21.4931L23.8367 22.3053C24.1409 25.4447 24.2931 27.0144 23.3738 27.7123C22.4546 28.4101 21.0728 27.7739 18.3092 26.5014L17.5942 26.1722C16.8089 25.8106 16.4162 25.6298 16 25.6298C15.5838 25.6298 15.1911 25.8106 14.4058 26.1722L13.6908 26.5014C10.9272 27.7739 9.54541 28.4101 8.62618 27.7123C7.70695 27.0144 7.85906 25.4447 8.16328 22.3053L8.24198 21.4931C8.32843 20.6009 8.37166 20.1549 8.24304 19.7413C8.11442 19.3277 7.82851 18.9933 7.2567 18.3247L6.73612 17.7159C4.7239 15.3629 3.71779 14.1864 4.06891 13.0573C4.42002 11.9282 5.89583 11.5943 8.84744 10.9264L9.61106 10.7537C10.4498 10.5639 10.8692 10.469 11.2059 10.2134C11.5427 9.95774 11.7586 9.57032 12.1906 8.79548L12.5838 8.09005Z" stroke="#007C6A" stroke-width="2"/>
</svg>
