<svg width="24" height="24" viewBox="0 0 24 24" fill="none" xmlns="http://www.w3.org/2000/svg">
<circle cx="12" cy="12" r="10" stroke="#007C6A" stroke-width="1.5"/>
<path d="M15.8231 9.78922H14.3832C14.2577 9.31476 14.0359 8.8712 13.7316 8.48613H15.8231C15.9959 8.48613 16.1616 8.41749 16.2838 8.2953C16.406 8.17311 16.4746 8.00739 16.4746 7.83459C16.4746 7.66179 16.406 7.49607 16.2838 7.37388C16.1616 7.25169 15.9959 7.18304 15.8231 7.18304H8.6561C8.4833 7.18304 8.31757 7.25169 8.19539 7.37388C8.0732 7.49607 8.00455 7.66179 8.00455 7.83459C8.00455 8.00739 8.0732 8.17311 8.19539 8.2953C8.31757 8.41749 8.4833 8.48613 8.6561 8.48613H10.9365C11.3667 8.48764 11.7877 8.6108 12.1508 8.84138C12.514 9.07196 12.8045 9.40055 12.9889 9.78922H8.6561C8.4833 9.78922 8.31757 9.85787 8.19539 9.98006C8.0732 10.1022 8.00455 10.268 8.00455 10.4408C8.00455 10.6136 8.0732 10.7793 8.19539 10.9015C8.31757 11.0237 8.4833 11.0923 8.6561 11.0923H13.2169C13.1388 11.6335 12.8688 12.1286 12.4562 12.4874C12.0436 12.8461 11.5159 13.0447 10.9691 13.0469H8.6561C8.62577 13.0439 8.59521 13.0439 8.56488 13.0469C8.52171 13.0402 8.47775 13.0402 8.43457 13.0469C8.39016 13.0621 8.34839 13.0841 8.31078 13.1121L8.23259 13.1577C8.1969 13.1899 8.16617 13.2273 8.14138 13.2685C8.11956 13.2974 8.09995 13.3278 8.08274 13.3597C8.07694 13.3986 8.07694 13.4381 8.08274 13.477C8.03631 13.542 8.0092 13.6188 8.00455 13.6985C8.00151 13.7288 8.00151 13.7594 8.00455 13.7897C7.99783 13.8329 7.99783 13.8768 8.00455 13.92C8.01968 13.9644 8.04166 14.0062 8.06971 14.0438C8.06971 14.0438 8.06971 14.0959 8.11532 14.122L12.0246 18.6828C12.1369 18.8141 12.2968 18.8955 12.4691 18.9089C12.6414 18.9223 12.8119 18.8668 12.9433 18.7545C13.0746 18.6422 13.1559 18.4823 13.1694 18.31C13.1828 18.1377 13.1272 17.9671 13.0149 17.8358L10.0765 14.35H10.9365C11.8331 14.3537 12.6984 14.0212 13.3619 13.4181C14.0253 12.815 14.4385 11.9852 14.52 11.0923H15.8231C15.9959 11.0923 16.1616 11.0237 16.2838 10.9015C16.406 10.7793 16.4746 10.6136 16.4746 10.4408C16.4746 10.268 16.406 10.1022 16.2838 9.98006C16.1616 9.85787 15.9959 9.78922 15.8231 9.78922Z" fill="#007C6A"/>
</svg>
