<svg width="24" height="24" viewBox="0 0 24 24" fill="none" xmlns="http://www.w3.org/2000/svg">
<path d="M13.5002 2.00018C13.5002 2.00018 15.8336 2.21231 18.8035 5.18216C21.7733 8.15201 21.9855 10.4855 21.9855 10.4855" stroke="#007C6A" stroke-width="1.5" stroke-linecap="round"/>
<path d="M14.2071 5.53577C14.2071 5.53577 15.1971 5.81861 16.682 7.30353C18.1669 8.78846 18.4498 9.77841 18.4498 9.77841" stroke="#007C6A" stroke-width="1.5" stroke-linecap="round"/>
<path d="M15.1008 15.0273L14.557 14.5108L15.1008 15.0273ZM15.5563 14.5478L16.1001 15.0643H16.1001L15.5563 14.5478ZM17.9729 14.2124L17.5988 14.8625H17.5988L17.9729 14.2124ZM19.8834 15.3121L19.5093 15.9621L19.8834 15.3121ZM20.4218 18.7586L20.9656 19.2751L20.4218 18.7586ZM19.0012 20.2541L18.4574 19.7376L19.0012 20.2541ZM17.6764 20.9632L17.7501 21.7096L17.6764 20.9632ZM7.81547 16.4753L8.35926 15.9588L7.81547 16.4753ZM3.00299 6.96606L2.25407 7.00626L2.25407 7.00626L3.00299 6.96606ZM9.47763 8.50323L10.0214 9.01975H10.0214L9.47763 8.50323ZM9.63435 5.69322L10.2467 5.26024L9.63435 5.69322ZM8.37336 3.90974L7.76097 4.34272V4.34272L8.37336 3.90974ZM5.26156 3.60876L5.80535 4.12528L5.26156 3.60876ZM3.69196 5.26126L3.14816 4.74474L3.14816 4.74474L3.69196 5.26126ZM11.0632 13.056L11.607 12.5395L11.0632 13.056ZM15.1008 15.0273L15.6446 15.5438L16.1001 15.0643L15.5563 14.5478L15.0125 14.0313L14.557 14.5108L15.1008 15.0273ZM17.9729 14.2124L17.5988 14.8625L19.5093 15.9621L19.8834 15.3121L20.2576 14.6621L18.3471 13.5624L17.9729 14.2124ZM20.4218 18.7586L19.878 18.242L18.4574 19.7376L19.0012 20.2541L19.545 20.7706L20.9656 19.2751L20.4218 18.7586ZM17.6764 20.9632L17.6027 20.2168C16.1677 20.3585 12.4234 20.2376 8.35926 15.9588L7.81547 16.4753L7.27167 16.9918C11.7011 21.6551 15.9262 21.8896 17.7501 21.7096L17.6764 20.9632ZM7.81547 16.4753L8.35926 15.9588C4.48314 11.878 3.83296 8.43568 3.75192 6.92586L3.00299 6.96606L2.25407 7.00626C2.35333 8.85548 3.13851 12.6404 7.27167 16.9918L7.81547 16.4753ZM9.19081 8.8052L9.7346 9.32171L10.0214 9.01975L9.47763 8.50323L8.93383 7.98672L8.64702 8.28868L9.19081 8.8052ZM9.63435 5.69322L10.2467 5.26024L8.98576 3.47675L8.37336 3.90974L7.76097 4.34272L9.02196 6.12621L9.63435 5.69322ZM5.26156 3.60876L4.71776 3.09225L3.14816 4.74474L3.69196 5.26126L4.23575 5.77777L5.80535 4.12528L5.26156 3.60876ZM9.19081 8.8052C8.64702 8.28868 8.64632 8.28941 8.64563 8.29015C8.64539 8.2904 8.64469 8.29114 8.64422 8.29165C8.64326 8.29266 8.6423 8.29369 8.64131 8.29475C8.63934 8.29687 8.63731 8.29908 8.63521 8.30139C8.63101 8.306 8.62657 8.311 8.62189 8.31637C8.61253 8.32713 8.60226 8.33943 8.59127 8.35332C8.56928 8.3811 8.54442 8.41524 8.51833 8.45601C8.46601 8.53777 8.40928 8.64543 8.36123 8.78046C8.26353 9.05502 8.21029 9.41862 8.27682 9.87269C8.40753 10.7648 8.99208 11.9645 10.5194 13.5725L11.0632 13.056L11.607 12.5395C10.1794 11.0365 9.82771 10.1108 9.76097 9.65523C9.72877 9.43548 9.76149 9.31969 9.77443 9.28333C9.7817 9.2629 9.78646 9.25721 9.7818 9.26449C9.77954 9.26801 9.77505 9.27463 9.76748 9.28419C9.7637 9.28897 9.75914 9.2945 9.7537 9.30075C9.75098 9.30388 9.74804 9.30719 9.74486 9.31068C9.74327 9.31243 9.74163 9.31422 9.73992 9.31606C9.73906 9.31698 9.73819 9.31791 9.73731 9.31885C9.73687 9.31932 9.73619 9.32004 9.73597 9.32027C9.73529 9.32099 9.7346 9.32171 9.19081 8.8052ZM11.0632 13.056L10.5194 13.5725C12.0423 15.1758 13.1924 15.8061 14.0699 15.9486C14.5202 16.0218 14.8847 15.9634 15.1607 15.8545C15.2956 15.8013 15.4023 15.7388 15.4824 15.682C15.5224 15.6536 15.5557 15.6267 15.5825 15.6032C15.596 15.5914 15.6078 15.5804 15.6182 15.5705C15.6233 15.5655 15.6281 15.5608 15.6325 15.5563C15.6347 15.5541 15.6368 15.5519 15.6388 15.5499C15.6398 15.5488 15.6408 15.5478 15.6418 15.5468C15.6423 15.5463 15.643 15.5456 15.6432 15.5453C15.6439 15.5446 15.6446 15.5438 15.1008 15.0273C14.557 14.5108 14.5577 14.5101 14.5584 14.5094C14.5586 14.5091 14.5593 14.5084 14.5597 14.508C14.5606 14.507 14.5615 14.5061 14.5624 14.5052C14.5642 14.5034 14.5659 14.5017 14.5675 14.5C14.5709 14.4966 14.5741 14.4935 14.5771 14.4905C14.5831 14.4847 14.5886 14.4798 14.5934 14.4755C14.6029 14.4672 14.6101 14.4617 14.6146 14.4585C14.624 14.4518 14.623 14.4541 14.6103 14.4591C14.591 14.4667 14.5001 14.4988 14.3104 14.468C13.9078 14.4026 13.0392 14.0473 11.607 12.5395L11.0632 13.056ZM8.37336 3.90974L8.98576 3.47675C7.97217 2.04317 5.94395 1.80131 4.71776 3.09225L5.26156 3.60876L5.80535 4.12528C6.32818 3.57483 7.24862 3.61807 7.76097 4.34272L8.37336 3.90974ZM3.00299 6.96606L3.75192 6.92586C3.73048 6.52656 3.90436 6.12667 4.23575 5.77777L3.69196 5.26126L3.14816 4.74474C2.61231 5.30889 2.20503 6.09259 2.25407 7.00626L3.00299 6.96606ZM19.0012 20.2541L18.4574 19.7376C18.1784 20.0314 17.8865 20.1888 17.6027 20.2168L17.6764 20.9632L17.7501 21.7096C18.4971 21.6359 19.1017 21.2374 19.545 20.7706L19.0012 20.2541ZM9.47763 8.50323L10.0214 9.01975C10.989 8.00108 11.0575 6.40691 10.2467 5.26024L9.63435 5.69322L9.02196 6.12621C9.4441 6.72327 9.37937 7.51765 8.93383 7.98672L9.47763 8.50323ZM19.8834 15.3121L19.5093 15.9621C20.3301 16.4346 20.4908 17.5969 19.878 18.242L20.4218 18.7586L20.9656 19.2751C22.2706 17.9012 21.8905 15.602 20.2576 14.6621L19.8834 15.3121ZM15.5563 14.5478L16.1001 15.0643C16.4855 14.6585 17.0861 14.5674 17.5988 14.8625L17.9729 14.2124L18.3471 13.5624C17.2486 12.9302 15.8862 13.1114 15.0125 14.0313L15.5563 14.5478Z" fill="#007C6A"/>
</svg>
