<svg width="24" height="24" viewBox="0 0 24 24" fill="none" xmlns="http://www.w3.org/2000/svg">
<circle cx="11.8394" cy="11.6128" r="11.6128" fill="white"/>
<path d="M6.02879 7.00609C6.02401 7.01263 6.41158 7.49446 6.88767 8.07439C7.36376 8.65433 8.37575 9.88832 9.13654 10.8149L10.5194 12.5002L10.4308 12.5918C10.3806 12.6419 9.36382 13.6426 8.1724 14.8156C6.98097 15.9907 6.00247 16.9587 6.00008 16.9696C5.9953 16.9805 6.20344 16.9893 6.50249 16.9871L7.01207 16.9849L7.17954 16.817C7.27285 16.7255 8.1389 15.873 9.10544 14.9202C10.072 13.9675 10.8902 13.1608 10.9237 13.1259L10.9835 13.0627L11.462 13.647C11.7251 13.9675 12.45 14.8527 13.0721 15.6114L14.2061 16.9893H15.9406C17.3832 16.9893 17.6727 16.9849 17.6631 16.9609C17.6559 16.9435 17.2157 16.4028 16.6846 15.7553C16.1535 15.1099 15.5458 14.3686 15.3353 14.1114C15.1224 13.8541 14.498 13.0889 13.9429 12.4152C13.3879 11.7393 12.9333 11.1768 12.9333 11.1681C12.9333 11.1528 15.8664 8.25099 16.8641 7.2808L17.1488 7.00391H16.6248L16.1033 7.00609L15.4932 7.60783C15.1583 7.93922 14.3377 8.75026 13.6678 9.4065L12.4548 10.6013L10.9835 8.80912L9.50976 7.01481L7.77526 7.00391C6.82068 6.99737 6.03357 6.99955 6.02879 7.00609ZM10.139 8.93775C10.706 9.63106 11.5816 10.6972 12.084 11.3098C12.5864 11.9203 13.7013 13.2807 14.5625 14.3294C15.4238 15.3803 16.1368 16.2502 16.1487 16.2654C16.1631 16.2851 15.9932 16.2916 15.3736 16.2916H14.5817L13.0123 14.3774C9.39014 9.96681 7.56233 7.73864 7.5408 7.70594C7.52644 7.68632 7.68913 7.67978 8.31355 7.67978H9.10544L10.139 8.93775Z" fill="#121826"/>
</svg>
