<svg width="32" height="32" viewBox="0 0 32 32" fill="none" xmlns="http://www.w3.org/2000/svg">
<path d="M2.66666 15.3334C2.66666 10.9501 2.66666 8.75841 3.87728 7.28328C4.0989 7.01323 4.34652 6.76561 4.61657 6.54398C6.0917 5.33337 8.28335 5.33337 12.6667 5.33337C17.05 5.33337 19.2416 5.33337 20.7168 6.54398C20.9868 6.76561 21.2344 7.01323 21.4561 7.28328C22.6667 8.75841 22.6667 10.9501 22.6667 15.3334V16.6667C22.6667 21.05 22.6667 23.2417 21.4561 24.7168C21.2344 24.9869 20.9868 25.2345 20.7168 25.4561C19.2416 26.6667 17.05 26.6667 12.6667 26.6667C8.28335 26.6667 6.0917 26.6667 4.61657 25.4561C4.34652 25.2345 4.0989 24.9869 3.87728 24.7168C2.66666 23.2417 2.66666 21.05 2.66666 16.6667V15.3334Z" stroke="#007C6A" stroke-width="2"/>
<path d="M22.6667 12.6666L23.5445 12.2277C26.139 10.9305 27.4363 10.2818 28.3848 10.8681C29.3333 11.4543 29.3333 12.9047 29.3333 15.8054V16.1945C29.3333 19.0953 29.3333 20.5456 28.3848 21.1319C27.4363 21.7181 26.139 21.0695 23.5445 19.7722L22.6667 19.3333V12.6666Z" stroke="#007C6A" stroke-width="2"/>
</svg>
