<svg width="24" height="24" viewBox="0 0 24 24" fill="none" xmlns="http://www.w3.org/2000/svg">
<path d="M18.3017 3.52881C18.2141 3.52903 18.128 3.50572 18.0524 3.46131C15.9721 2.34756 14.1735 1.87506 12.0172 1.87506C9.87174 1.87506 7.83455 2.40381 5.98158 3.46131C5.71955 3.60943 5.39658 3.50631 5.24471 3.23443C5.17692 3.10321 5.16162 2.9511 5.20194 2.80901C5.24225 2.66692 5.33514 2.5455 5.46174 2.46943C7.46019 1.33598 9.71971 0.743354 12.0172 0.750056C14.3249 0.750056 16.3405 1.27881 18.5511 2.46006C18.6801 2.53097 18.7761 2.64961 18.8186 2.79053C18.8611 2.93144 18.8467 3.0834 18.7785 3.21381C18.7374 3.30639 18.6707 3.38527 18.5862 3.4411C18.5017 3.49693 18.403 3.52737 18.3017 3.52881ZM2.79596 9.43506C2.68337 9.43426 2.57375 9.39891 2.48189 9.33381C2.36239 9.24499 2.28202 9.11327 2.25771 8.96637C2.2334 8.81948 2.26706 8.66888 2.35158 8.54631C3.42455 6.97131 4.78908 5.73381 6.41518 4.86756C9.81736 3.04693 14.1735 3.03381 17.5864 4.85631C19.2121 5.72256 20.5771 6.94881 21.65 8.51256C21.7342 8.63524 21.7676 8.78574 21.7434 8.93253C21.7191 9.07932 21.6389 9.21102 21.5197 9.30006C21.4619 9.34328 21.3958 9.37418 21.3255 9.39085C21.2553 9.40751 21.1823 9.40957 21.1112 9.39692C21.0401 9.38427 20.9724 9.35716 20.9122 9.31728C20.852 9.2774 20.8006 9.22559 20.7613 9.16506C19.7863 7.74756 18.5511 6.63381 17.0881 5.85756C13.9785 4.20381 10.0016 4.20381 6.90268 5.86881C5.42893 6.65631 4.19377 7.78131 3.21877 9.19693C3.17673 9.27142 3.1151 9.33299 3.04057 9.37496C2.96605 9.41694 2.88145 9.43772 2.79596 9.43506ZM9.56799 23.0157C9.49638 23.0164 9.42546 23.0017 9.36003 22.9725C9.2946 22.9434 9.2362 22.9006 9.18877 22.8469C8.24611 21.8663 7.73518 21.2344 7.01096 19.8751C6.26096 18.4913 5.8733 16.8038 5.8733 14.9926C5.8733 11.6513 8.62533 8.92881 12.0064 8.92881C15.3875 8.92881 18.1414 11.6513 18.1414 14.9926C18.1436 15.065 18.1311 15.1372 18.1049 15.2048C18.0786 15.2723 18.039 15.334 17.9885 15.386C17.938 15.438 17.8776 15.4793 17.8108 15.5076C17.7441 15.5358 17.6723 15.5504 17.5998 15.5504C17.5273 15.5504 17.4555 15.5358 17.3887 15.5076C17.322 15.4793 17.2615 15.438 17.211 15.386C17.1605 15.334 17.121 15.2723 17.0947 15.2048C17.0684 15.1372 17.056 15.065 17.0581 14.9926C17.0581 12.2701 14.7931 10.0538 12.0088 10.0538C9.2244 10.0538 6.95705 12.2701 6.95705 14.9926C6.95705 16.6126 7.30346 18.1088 7.9644 19.3238C8.65814 20.6176 9.13627 21.1688 9.96924 22.0463C10.068 22.1555 10.1227 22.2975 10.1227 22.4447C10.1227 22.592 10.068 22.734 9.96924 22.8432C9.86289 22.9505 9.71904 23.0123 9.56799 23.0157ZM17.3375 20.9344C16.048 20.9344 14.9103 20.5969 13.9785 19.9332C13.1845 19.3767 12.5359 18.6376 12.0873 17.7781C11.6386 16.9187 11.403 15.964 11.4003 14.9944C11.3973 14.9214 11.4091 14.8485 11.4349 14.7801C11.4608 14.7117 11.5002 14.6492 11.5508 14.5964C11.6014 14.5437 11.6622 14.5017 11.7295 14.473C11.7967 14.4443 11.8691 14.4295 11.9422 14.4295C12.0153 14.4295 12.0877 14.4443 12.155 14.473C12.2222 14.5017 12.283 14.5437 12.3336 14.5964C12.3842 14.6492 12.4236 14.7117 12.4495 14.7801C12.4754 14.8485 12.4871 14.9214 12.4841 14.9944C12.4859 15.7819 12.678 16.5573 13.0439 17.2547C13.4099 17.952 13.9389 18.5505 14.586 18.9994C15.3552 19.5394 16.2547 19.7963 17.3385 19.7963C17.7159 19.7896 18.0922 19.752 18.4635 19.6838C18.756 19.6276 19.0377 19.8301 19.0916 20.1451C19.119 20.2904 19.0877 20.4408 19.0045 20.5631C18.9213 20.6854 18.793 20.7697 18.6477 20.7976C18.2161 20.8828 17.7775 20.928 17.3375 20.9326V20.9344ZM15.1592 23.2501C15.1116 23.2481 15.0644 23.2405 15.0186 23.2276C13.2955 22.7326 12.1686 22.0688 10.9874 20.8651C9.47002 19.3013 8.63611 17.2201 8.63611 14.9926C8.63611 13.1701 10.1314 11.6851 11.9731 11.6851C13.8149 11.6851 15.3106 13.1701 15.3106 14.9926C15.3106 16.1963 16.3185 17.1751 17.5644 17.1751C18.8103 17.1751 19.8181 16.1963 19.8181 14.9926C19.8181 10.7513 16.2964 7.30881 11.9624 7.30881C8.88502 7.30881 6.06783 9.08631 4.80033 11.8426C4.37846 12.7538 4.16096 13.8226 4.16096 14.9926C4.16096 15.8701 4.23643 17.2538 4.88658 19.0538C4.99533 19.3463 4.85424 19.6726 4.57252 19.7738C4.50557 19.7993 4.43415 19.811 4.36257 19.8082C4.29098 19.8054 4.2207 19.7882 4.15594 19.7575C4.09119 19.7269 4.03329 19.6834 3.98574 19.6299C3.93819 19.5763 3.90197 19.5136 3.87924 19.4457C3.35643 18.0192 3.0886 16.5118 3.08799 14.9926C3.08799 13.6426 3.33736 12.4144 3.82486 11.3476C5.26627 8.20693 8.46268 6.17256 11.9624 6.17256C16.8927 6.17256 20.9019 10.1213 20.9019 14.9813C20.9019 16.8038 19.4066 18.2888 17.5644 18.2888C15.7222 18.2888 14.2269 16.8038 14.2269 14.9813C14.2274 13.7776 13.2196 12.7969 11.9736 12.7969C10.7277 12.7969 9.71986 13.7757 9.71986 14.9794C9.71986 16.9013 10.4352 18.7032 11.7463 20.0532C12.7775 21.1107 13.7619 21.6938 15.2896 22.1344C15.5821 22.2132 15.7447 22.5282 15.6688 22.8207C15.6451 22.9394 15.5818 23.0466 15.4892 23.1246C15.3966 23.2026 15.2803 23.2469 15.1592 23.2501Z" fill="#6B7483"/>
</svg>
