<svg width="1172" height="1040" viewBox="0 0 1172 1040" fill="none" xmlns="http://www.w3.org/2000/svg">
<path d="M513.5 70H31C14.4315 70 1 83.4315 1 100V340C1 356.569 14.4314 370 31 370H877" stroke="#5848DB"/>
<path d="M215.995 670H31C14.4315 670 1 683.431 1 700V940C1 956.569 14.4315 970 31 970H511" stroke="#5848DB"/>
<path d="M688.686 370H1141C1157.57 370 1171 383.431 1171 400V640C1171 656.569 1157.57 670 1141 670H94" stroke="#5848DB"/>
<path d="M676 0V40C676 56.5685 662.569 70 646 70H501" stroke="#5848DB"/>
<path d="M676 1040V1000C676 983.431 662.569 970 646 970H501" stroke="#5848DB"/>
</svg>
