<svg width="235" height="227" viewBox="0 0 235 227" fill="none" xmlns="http://www.w3.org/2000/svg">
<path d="M20.2861 227H208.549C208.624 227 208.697 226.97 208.751 226.916C208.804 226.862 208.835 226.789 208.835 226.713C208.835 226.636 208.804 226.563 208.751 226.509C208.697 226.456 208.624 226.425 208.549 226.425H20.2861C20.2102 226.425 20.1374 226.456 20.0838 226.509C20.0301 226.563 20 226.636 20 226.713C20 226.789 20.0301 226.862 20.0838 226.916C20.1374 226.97 20.2102 227 20.2861 227Z" fill="#262626"/>
<path d="M46.2861 227H234.549C234.624 227 234.697 226.97 234.751 226.916C234.804 226.862 234.835 226.789 234.835 226.713C234.835 226.636 234.804 226.563 234.751 226.509C234.697 226.456 234.624 226.425 234.549 226.425H46.2861C46.2102 226.425 46.1374 226.456 46.0838 226.509C46.0301 226.563 46 226.636 46 226.713C46 226.789 46.0301 226.862 46.0838 226.916C46.1374 226.97 46.2102 227 46.2861 227Z" fill="#262626"/>
<path d="M35.7603 66.8376H77.8174V12.243L35.7603 12.243L35.7603 66.8376Z" fill="#F4F4F4"/>
<path d="M35.7601 12.2429H34.3958V66.8376H35.7601V12.2429Z" fill="#F4F4F4"/>
<path opacity="0.05" d="M35.7601 12.2429H34.3958V66.8376H35.7601V12.2429Z" fill="#292A2E"/>
<path opacity="0.05" d="M43.4216 56.8923H70.156V22.1878H43.4216V56.8923Z" fill="#292A2E"/>
<path opacity="0.03" d="M43.4215 56.8923H44.8147L44.8147 22.1878H43.4215L43.4215 56.8923Z" fill="#292A2E"/>
<path d="M1.36437 80.2634H0V114.882H1.36437V80.2634Z" fill="#F4F4F4"/>
<path d="M196.055 114.532C182.619 114.532 171.726 118.188 171.726 122.697V132.418H220.384V122.697C220.384 118.188 209.492 114.532 196.055 114.532Z" fill="#007C6A"/>
<path opacity="0.49" d="M196.055 114.532C182.619 114.532 171.726 118.188 171.726 122.697V132.418H220.384V122.697C220.384 118.188 209.492 114.532 196.055 114.532Z" fill="white"/>
<path opacity="0.49" d="M213.756 122.698V132.418H171.725V122.698C171.725 118.565 180.873 115.149 192.741 114.61C204.609 115.149 213.756 118.565 213.756 122.698Z" fill="white"/>
<path d="M220.384 226.874H221.2L220.384 131.556L219.574 132.37L220.151 198.952L191.328 199.441L190.746 132.363L189.937 132.37L190.519 199.454L173.119 199.749L172.535 132.363L171.725 131.563L172.542 226.874L173.344 226.867L173.126 200.557L190.525 200.262L190.746 226.874L191.556 226.867L191.335 200.248L220.158 199.76L220.384 226.874Z" fill="#292A2E"/>
<path d="M146.999 212.604C146.999 212.604 145.552 220.083 138.529 220.5C131.507 220.917 133.03 226.496 133.03 226.496H159.865V213.125L146.999 212.604Z" fill="#007C6A"/>
<path d="M162.309 190.106C162.309 190.106 164.321 197.454 158.205 200.92C152.089 204.385 155.924 208.721 155.924 208.721L180.003 196.907L174.085 184.909L162.309 190.106Z" fill="#007C6A"/>
<path d="M159.762 194.963L141.618 126.689C140.242 119.146 142.314 115.877 145.506 112.701C151.115 107.121 174.358 95.2456 174.358 95.2456L202.242 95.1697C209.635 95.1697 216.903 102.441 216.903 109.814C216.903 117.187 209.387 123.441 201.994 123.441L167.657 126.859L176.965 189.372L159.762 194.963Z" fill="#262626"/>
<path d="M176.964 189.372L173.3 164.761L154.737 176.054L159.761 194.963L176.964 189.372Z" fill="#0C0C0C"/>
<path d="M181.172 109.062C181.172 109.062 169.451 111.667 157.842 123.244C150.803 130.264 151.38 142.967 152.436 167.399L163.966 150.414L176.613 127.667L181.172 109.062Z" fill="#0C0C0C"/>
<path d="M221.757 95.1621L202.821 95.073L202.814 95.3217H197.08C197.08 95.3217 182.716 108.502 171.153 116.808C162.742 122.849 157.61 128.609 157.167 134.887C156.084 150.189 143.877 215.453 143.877 215.453L162.249 218.228L178.371 140.232C178.371 140.232 203.581 128.641 209.412 124.608C214.903 120.81 218.782 119.342 220.599 115.197C223.737 108.038 221.757 95.1621 221.757 95.1621Z" fill="#262626"/>
<path d="M200.513 99.9186L169.793 100.324L187.025 110.589L201.364 103.204C201.71 103.019 201.983 102.724 202.14 102.366C202.297 102.007 202.329 101.607 202.231 101.228C202.133 100.85 201.911 100.515 201.599 100.277C201.287 100.04 200.905 99.9135 200.513 99.9186Z" fill="#292A2E"/>
<path opacity="0.2" d="M200.513 99.9186L169.793 100.324L187.025 110.589L201.364 103.204C201.71 103.019 201.983 102.724 202.14 102.366C202.297 102.007 202.329 101.607 202.231 101.228C202.133 100.85 201.911 100.515 201.599 100.277C201.287 100.04 200.905 99.9135 200.513 99.9186Z" fill="white"/>
<path d="M169.969 44.9556L161.28 73.0335L143.875 95.7588L154.042 107.398L174.747 84.3504C175.701 83.5986 176.448 82.6168 176.916 81.4977L177.238 80.7191L189.198 51.8599L169.969 44.9556Z" fill="#007C6A"/>
<path d="M183.354 15.1517C183.354 15.1517 179.853 12.5143 178.985 6.44825C178.313 1.75124 182.658 4.79421 182.658 4.79421C182.658 4.79421 182.207 1.4073 184.682 1.74343C187.156 2.07957 188.541 5.63738 188.541 5.63738" fill="#0C0C0C"/>
<path d="M197.47 2.13989C197.47 2.13989 209.747 3.45241 205.309 20.0433L204.223 20.116L202.018 20.2635" fill="#0C0C0C"/>
<path d="M185.41 37.3699C185.464 37.3629 186.063 47.2736 197.608 46.4106C205.601 45.8134 208.451 37.3559 208.634 37.3559C207.772 37.1732 206.707 36.896 206.284 36.801C205.361 36.5875 204.526 36.0989 203.889 35.4003C203.251 34.7017 202.843 33.8261 202.716 32.8901C202.483 31.4852 202.878 24.2975 202.757 22.876L190.489 25.607C190.661 28.6094 191.861 35.5692 187.656 36.801C186.956 37.0044 186.202 37.1928 185.41 37.3699Z" fill="#E98862"/>
<path opacity="0.52" d="M190.317 33.9565C190.509 33.3388 190.633 32.7019 190.686 32.0573C190.821 30.5864 190.794 29.1052 190.605 27.6402C193.099 27.305 195.449 26.2789 197.387 24.6785C197.615 25.5176 198.868 29.1841 198.52 29.9802C197.865 31.4873 194.784 33.9565 190.317 33.9565Z" fill="#0C0C0C"/>
<path d="M192.85 31.995C197.69 31.562 203.483 28.512 203.567 21.9591L203.642 16.0465C203.726 9.49387 200.343 4.13804 194.156 4.05946C187.97 3.98114 183.278 9.23443 183.194 15.7873L183.161 18.4048C183.165 19.3038 183.231 20.2014 183.358 21.0915C183.675 23.4463 184.167 27.0265 185.77 29.4483C187.283 31.7348 189.757 32.2714 192.85 31.995Z" fill="#E98862"/>
<path opacity="0.52" d="M190.604 26.0055C189.605 26.0506 188.609 25.861 187.697 25.4519C187.66 25.4351 187.631 25.4045 187.616 25.3665C187.601 25.3285 187.602 25.2863 187.618 25.2488C187.634 25.2113 187.664 25.1816 187.702 25.166C187.74 25.1504 187.782 25.1501 187.82 25.1653C189.785 26.0009 191.569 25.8787 192.979 24.8117C193.007 24.7892 193.037 24.7683 193.067 24.749C193.103 24.7323 193.143 24.7296 193.181 24.7413C193.218 24.753 193.25 24.7783 193.269 24.8122C193.289 24.8461 193.295 24.886 193.286 24.9242C193.278 24.9623 193.255 24.9958 193.223 25.0181C193.211 25.0251 193.193 25.0393 193.169 25.0587C192.427 25.622 191.534 25.9516 190.604 26.0055Z" fill="#0C0C0C"/>
<path opacity="0.52" d="M190.649 27.4815C190.469 27.4926 190.288 27.4883 190.108 27.4686C190.088 27.4664 190.068 27.4603 190.05 27.4505C190.032 27.4408 190.016 27.4276 190.003 27.4117C189.99 27.3958 189.981 27.3775 189.975 27.3579C189.969 27.3383 189.967 27.3177 189.969 27.2974C189.972 27.2771 189.978 27.2574 189.987 27.2395C189.997 27.2215 190.011 27.2057 190.026 27.1928C190.042 27.18 190.061 27.1704 190.08 27.1646C190.1 27.1588 190.121 27.1569 190.141 27.1591C191.222 27.2735 191.738 26.7796 191.76 26.7584C191.789 26.7291 191.829 26.7127 191.87 26.7126C191.912 26.7126 191.952 26.7289 191.981 26.7581C192.01 26.7873 192.027 26.8268 192.027 26.8681C192.027 26.9094 192.01 26.949 191.981 26.9782C191.609 27.2944 191.138 27.4722 190.649 27.4815Z" fill="#0C0C0C"/>
<path d="M185.237 19.665C185.658 19.665 185.999 19.3248 185.999 18.905C185.999 18.4853 185.658 18.145 185.237 18.145C184.817 18.145 184.475 18.4853 184.475 18.905C184.475 19.3248 184.817 19.665 185.237 19.665Z" fill="#0C0C0C"/>
<path d="M192.682 19.199C193.103 19.199 193.444 18.8587 193.444 18.439C193.444 18.0192 193.103 17.679 192.682 17.679C192.261 17.679 191.92 18.0192 191.92 18.439C191.92 18.8587 192.261 19.199 192.682 19.199Z" fill="#0C0C0C"/>
<path d="M203.157 23.9521C205.037 23.976 206.587 21.9894 206.611 20.1144C206.636 18.2394 205.124 17.186 203.244 17.1624L202.26 18.4062L201.542 23.9316L203.157 23.9521Z" fill="#E98862"/>
<path d="M201.287 20.938C201.287 20.938 200.652 11.6659 197.833 11.0932C195.955 10.7118 191.402 13.3681 187.184 12.5658C185.339 12.2159 183.588 12.6702 183.41 13.5395C183.339 13.8837 182.19 8.93748 185.079 5.18482C187.379 2.19755 194.907 1.3525 198.332 2.33211C207.816 5.04541 203.631 17.5691 203.631 17.5691L203.208 20.7657L201.287 20.938Z" fill="#0C0C0C"/>
<g opacity="0.52">
<path d="M189.467 23.8176C189.463 23.8178 189.459 23.8178 189.455 23.8176C188.849 23.8117 187.834 23.7339 187.838 23.282C187.842 22.9074 188.911 18.8751 189.033 18.4165C189.043 18.3771 189.069 18.3434 189.104 18.3228C189.14 18.3023 189.182 18.2967 189.221 18.3071C189.261 18.3176 189.295 18.3433 189.315 18.3786C189.336 18.4139 189.341 18.4559 189.331 18.4954C188.856 20.2813 188.149 23.0307 188.146 23.2858C188.205 23.3934 188.831 23.5043 189.458 23.5108C189.497 23.5116 189.535 23.5276 189.563 23.5554C189.591 23.5832 189.608 23.6206 189.609 23.6601C189.61 23.6995 189.596 23.7379 189.57 23.7673C189.543 23.7967 189.506 23.8149 189.467 23.8181V23.8176Z" fill="#0C0C0C"/>
</g>
<path d="M187.401 14.7839C186.764 14.6091 186.091 14.6091 185.455 14.7839C185.142 14.8678 184.844 14.9981 184.57 15.1704C184.299 15.3391 184.05 15.5413 183.83 15.7721C183.79 15.8133 183.767 15.8684 183.766 15.9261C183.765 15.9838 183.787 16.0396 183.826 16.0819C183.865 16.1241 183.919 16.1497 183.977 16.1531C184.035 16.1566 184.092 16.1377 184.136 16.1005L184.15 16.0886C184.353 15.9004 184.58 15.7387 184.824 15.6072C185.064 15.4762 185.322 15.3822 185.59 15.3284C186.117 15.2181 186.664 15.2487 187.176 15.4169L187.197 15.4244C187.281 15.4514 187.372 15.4446 187.451 15.4057C187.529 15.3668 187.59 15.2987 187.619 15.216C187.649 15.1333 187.644 15.0424 187.608 14.9627C187.571 14.883 187.504 14.8208 187.422 14.7893L187.401 14.7839Z" fill="#0C0C0C"/>
<path d="M191.909 15.1654C192.393 14.9307 192.932 14.8277 193.469 14.867C193.741 14.8846 194.01 14.9434 194.265 15.0414C194.524 15.1395 194.77 15.2697 194.997 15.4289L195.011 15.4386C195.06 15.4699 195.119 15.4812 195.176 15.4702C195.233 15.4592 195.283 15.4268 195.317 15.3796C195.35 15.3324 195.364 15.2742 195.355 15.217C195.347 15.1599 195.316 15.1082 195.271 15.0729C195.022 14.8733 194.749 14.7059 194.458 14.5747C194.163 14.4404 193.85 14.3509 193.529 14.3094C192.874 14.2204 192.208 14.3094 191.6 14.5669C191.56 14.5846 191.523 14.6101 191.492 14.642C191.461 14.6738 191.437 14.7115 191.421 14.7527C191.404 14.7939 191.396 14.838 191.397 14.8823C191.398 14.9266 191.407 14.9703 191.425 15.011C191.461 15.0931 191.528 15.1576 191.611 15.1904C191.653 15.2066 191.697 15.2146 191.741 15.2138C191.786 15.2131 191.83 15.2036 191.87 15.1859L191.889 15.177L191.909 15.1654Z" fill="#0C0C0C"/>
<path d="M191.6 5.22715C192.028 3.18445 191.247 1.29345 189.855 1.00349C188.463 0.713527 186.988 2.13441 186.56 4.17711C186.133 6.21981 186.914 8.11079 188.305 8.40075C189.697 8.69071 191.172 7.26984 191.6 5.22715Z" fill="#0C0C0C"/>
<path d="M171.066 59.1533C171.429 63.4141 174.007 89.9976 174.358 95.246H221.737C222.009 90.5124 223.231 69.8138 224.263 60.556C225.249 51.7228 226.63 47.7032 225.495 44.9584C223.493 40.1169 217.122 37.955 212.807 37.3724C210.172 37.0166 206.209 36.7617 206.209 36.7617C206.209 36.7617 205.874 43.531 197.873 43.9078C186.982 44.4191 187.71 36.7617 187.656 36.7617C185.891 36.7617 176.287 38.0414 173.886 39.6023C170.494 41.807 169.492 44.8117 169.452 47.5721C169.407 50.7513 170.654 54.3201 171.066 59.1533Z" fill="#007C6A"/>
<path d="M173.468 84.7703C173.434 84.7704 173.401 84.7579 173.376 84.7352C173.351 84.7124 173.336 84.6812 173.333 84.6476L171.538 64.1727C171.535 64.1371 171.546 64.1018 171.569 64.0744C171.592 64.0471 171.625 64.03 171.66 64.0268C171.678 64.025 171.696 64.0268 171.713 64.032C171.73 64.0372 171.746 64.0458 171.759 64.0572C171.773 64.0686 171.784 64.0826 171.792 64.0985C171.801 64.1143 171.805 64.1316 171.807 64.1493L173.602 84.6242C173.605 84.6597 173.594 84.6949 173.571 84.7222C173.548 84.7495 173.515 84.7666 173.479 84.7698C173.475 84.7702 173.472 84.7704 173.468 84.7703Z" fill="#0C0C0C"/>
<path d="M176.903 96.6632L183.409 91.3994L182.314 91.7081C181.959 91.8006 181.581 91.7552 181.258 91.5809C180.935 91.4067 180.691 91.1166 180.574 90.7694C180.52 90.5881 180.503 90.3976 180.525 90.2098C180.547 90.0219 180.608 89.8405 180.703 89.6766C180.797 89.5128 180.925 89.3699 181.077 89.2567C181.228 89.1435 181.402 89.0623 181.586 89.0182L195.253 85.7031L196.429 90.0446C196.795 91.393 196.748 92.8194 196.295 94.1411C195.842 95.4628 195.004 96.6195 193.888 97.463L188.824 101.274C188.565 101.477 188.243 101.585 187.914 101.578C187.584 101.572 187.267 101.452 187.016 101.24C186.793 101.043 186.639 100.78 186.576 100.489C186.514 100.199 186.546 99.896 186.669 99.6251C186.647 99.6187 186.627 99.6064 186.611 99.5896C186.598 99.5733 186.588 99.5539 186.584 99.5331C186.58 99.5123 186.581 99.4908 186.587 99.4704L185.654 100.175C185.366 100.402 185.002 100.511 184.636 100.481C184.27 100.451 183.929 100.283 183.682 100.012C183.47 99.7614 183.353 99.4447 183.352 99.1172C183.352 98.7896 183.466 98.4722 183.677 98.2209C183.662 98.2186 183.648 98.2138 183.635 98.2066L183.252 98.4962C182.993 98.699 182.671 98.8064 182.342 98.8001C182.012 98.7938 181.695 98.6743 181.444 98.4617C181.173 98.2228 181.006 97.8887 180.977 97.5295C180.948 97.1703 181.06 96.8139 181.289 96.5351C181.284 96.5273 181.279 96.5189 181.276 96.51L178.566 98.7021C178.432 98.8107 178.278 98.8919 178.112 98.9411C177.946 98.9902 177.772 99.0063 177.6 98.9884C177.428 98.9705 177.261 98.919 177.109 98.8368C176.957 98.7547 176.823 98.6434 176.714 98.5095C176.605 98.3756 176.523 98.2215 176.474 98.0562C176.425 97.8909 176.409 97.7175 176.427 97.5459C176.445 97.3744 176.496 97.208 176.579 97.0564C176.661 96.9047 176.773 96.7708 176.907 96.6621L176.903 96.6632Z" fill="#E98862"/>
<path opacity="0.2" d="M181.437 96.5884C181.452 96.5834 181.465 96.5758 181.477 96.5661L184.084 94.4064C184.097 94.3954 184.108 94.3819 184.116 94.3667C184.124 94.3515 184.129 94.3349 184.13 94.3177C184.132 94.3006 184.13 94.2834 184.125 94.267C184.12 94.2506 184.111 94.2354 184.1 94.2222C184.089 94.209 184.076 94.1981 184.061 94.1901C184.045 94.1821 184.029 94.1772 184.012 94.1756C183.994 94.174 183.977 94.1759 183.961 94.181C183.944 94.1861 183.929 94.1943 183.916 94.2053L181.309 96.3648C181.286 96.3844 181.27 96.4118 181.264 96.4421C181.259 96.4723 181.264 96.5035 181.279 96.5302C181.295 96.5569 181.319 96.5774 181.348 96.588C181.377 96.5987 181.408 96.5988 181.437 96.5884Z" fill="#0A0A0A"/>
<path opacity="0.2" d="M183.735 98.2199C183.749 98.2149 183.762 98.2075 183.773 98.1981L185.835 96.5166C185.862 96.4946 185.879 96.4629 185.883 96.4284C185.886 96.3939 185.876 96.3594 185.854 96.3325C185.832 96.3056 185.8 96.2886 185.765 96.2851C185.731 96.2816 185.696 96.292 185.669 96.3139L183.607 97.9954C183.583 98.0149 183.567 98.0423 183.561 98.0726C183.555 98.103 183.561 98.1344 183.576 98.1613C183.591 98.1882 183.615 98.2088 183.644 98.2195C183.674 98.2302 183.705 98.2304 183.735 98.2199Z" fill="#0A0A0A"/>
<path opacity="0.2" d="M186.752 99.6296C186.767 99.6241 186.781 99.616 186.794 99.6057L187.749 98.7889C187.762 98.7777 187.772 98.7641 187.78 98.7488C187.788 98.7335 187.793 98.7168 187.794 98.6997C187.795 98.6826 187.793 98.6654 187.788 98.6491C187.783 98.6328 187.774 98.6177 187.763 98.6047C187.752 98.5917 187.738 98.581 187.723 98.5732C187.707 98.5654 187.691 98.5608 187.673 98.5595C187.656 98.5582 187.639 98.5602 187.623 98.5656C187.606 98.5709 187.591 98.5794 187.578 98.5906L186.623 99.4073C186.6 99.4273 186.584 99.4546 186.579 99.4847C186.574 99.5148 186.58 99.5457 186.595 99.5721C186.611 99.5985 186.635 99.6187 186.663 99.6292C186.692 99.6397 186.724 99.6398 186.752 99.6296Z" fill="#0A0A0A"/>
<path d="M234.401 83.7701L234.351 83.5492L225.703 45.4031L208.595 49.2602L215.344 79.0357L188.306 85.6618L191.633 100.878L227.666 94.0235C227.746 94.0076 227.867 93.9834 227.949 93.9648C229.043 93.718 230.079 93.2585 230.996 92.6125C231.913 91.9666 232.693 91.1469 233.292 90.2002C233.891 89.2536 234.297 88.1985 234.488 87.0952C234.678 85.9919 234.649 84.862 234.401 83.7701Z" fill="#007C6A"/>
<path d="M188.174 85.6908C188.166 85.6567 188.173 85.6211 188.191 85.5916C188.21 85.562 188.239 85.5409 188.273 85.5325L215.192 78.939L210.815 59.6601C210.81 59.6425 210.809 59.6242 210.811 59.6061C210.813 59.588 210.819 59.5706 210.829 59.5549C210.838 59.5393 210.851 59.5257 210.865 59.515C210.88 59.5042 210.897 59.4966 210.915 59.4926C210.933 59.4886 210.951 59.4882 210.969 59.4915C210.987 59.4948 211.004 59.5017 211.019 59.5118C211.035 59.5219 211.048 59.535 211.058 59.5503C211.068 59.5655 211.074 59.5827 211.078 59.6006L215.484 79.0085C215.492 79.043 215.486 79.0793 215.467 79.1096C215.449 79.1398 215.419 79.1615 215.384 79.1699L188.464 85.7635C188.464 85.7635 188.645 86.5482 188.696 86.813C188.7 86.8475 188.69 86.8822 188.668 86.9094C188.647 86.9366 188.615 86.9541 188.58 86.9581C188.546 86.9621 188.511 86.9522 188.484 86.9307C188.457 86.9091 188.439 86.8777 188.435 86.8432C188.373 86.5528 188.174 85.6908 188.174 85.6908Z" fill="#0C0C0C"/>
<path d="M189.229 106.938L178.833 75.0678C178.65 74.5077 178.295 74.0196 177.817 73.6735C177.339 73.3274 176.764 73.1411 176.173 73.1411H133.819C133.378 73.1411 132.942 73.2453 132.549 73.4452C132.156 73.6451 131.815 73.9351 131.556 74.2914C131.296 74.6476 131.125 75.0601 131.056 75.495C130.987 75.9299 131.023 76.3749 131.159 76.7937L141.555 108.664C141.738 109.224 142.094 109.712 142.572 110.058C143.05 110.404 143.625 110.591 144.215 110.591H186.569C187.011 110.591 187.446 110.486 187.839 110.286C188.232 110.087 188.573 109.797 188.832 109.44C189.092 109.084 189.263 108.672 189.332 108.237C189.401 107.802 189.365 107.357 189.229 106.938Z" fill="#292A2E"/>
<path opacity="0.2" d="M189.229 106.938L178.833 75.0678C178.65 74.5077 178.295 74.0196 177.817 73.6735C177.339 73.3274 176.764 73.1411 176.173 73.1411H133.819C133.378 73.1411 132.942 73.2453 132.549 73.4452C132.156 73.6451 131.815 73.9351 131.556 74.2914C131.296 74.6476 131.125 75.0601 131.056 75.495C130.987 75.9299 131.023 76.3749 131.159 76.7937L141.555 108.664C141.738 109.224 142.094 109.712 142.572 110.058C143.05 110.404 143.625 110.591 144.215 110.591H186.569C187.011 110.591 187.446 110.486 187.839 110.286C188.232 110.087 188.573 109.797 188.832 109.44C189.092 109.084 189.263 108.672 189.332 108.237C189.401 107.802 189.365 107.357 189.229 106.938Z" fill="white"/>
<path d="M158.974 96.2956C161.427 96.2956 163.416 94.3122 163.416 91.8656C163.416 89.4189 161.427 87.4355 158.974 87.4355C156.52 87.4355 154.532 89.4189 154.532 91.8656C154.532 94.3122 156.52 96.2956 158.974 96.2956Z" fill="white"/>
<path d="M117.157 3.36792H33.0949C29.2005 3.36792 26.0435 6.51646 26.0435 10.4004V112.175C26.0435 116.059 29.2005 119.207 33.0949 119.207H117.157C121.051 119.207 124.208 116.059 124.208 112.175V10.4004C124.208 6.51646 121.051 3.36792 117.157 3.36792Z" fill="#292A2E"/>
<path d="M120.264 0.269043H36.2023C32.3079 0.269043 29.1509 3.41758 29.1509 7.30151V109.076C29.1509 112.96 32.3079 116.108 36.2023 116.108H120.264C124.159 116.108 127.316 112.96 127.316 109.076V7.30151C127.316 3.41758 124.159 0.269043 120.264 0.269043Z" fill="white"/>
<path d="M120.264 116.378H36.2022C34.2611 116.375 32.4001 115.605 31.0275 114.237C29.6549 112.868 28.8829 111.012 28.8809 109.076V7.30159C28.883 5.36574 29.655 3.5098 31.0276 2.14095C32.4001 0.772095 34.2611 0.00213701 36.2022 0L120.264 0C122.205 0.00220823 124.066 0.772198 125.439 2.14104C126.811 3.50988 127.583 5.36579 127.585 7.30159V109.076C127.583 111.012 126.811 112.868 125.439 114.236C124.066 115.605 122.205 116.375 120.264 116.378ZM36.2022 0.538247C34.4042 0.540241 32.6804 1.25345 31.4091 2.52139C30.1377 3.78933 29.4226 5.50845 29.4206 7.30159V109.076C29.4226 110.869 30.1377 112.588 31.4091 113.856C32.6804 115.124 34.4042 115.837 36.2022 115.839H120.264C122.062 115.837 123.786 115.124 125.057 113.856C126.329 112.588 127.044 110.869 127.046 109.076V7.30159C127.044 5.50847 126.329 3.78935 125.057 2.5214C123.786 1.25345 122.062 0.540241 120.264 0.538247H36.2022Z" fill="#292A2E"/>
<path d="M112.924 58.0696H43.5433C41.8871 58.0696 40.5444 59.4086 40.5444 61.0604V70.7606C40.5444 72.4124 41.8871 73.7514 43.5433 73.7514H112.924C114.58 73.7514 115.923 72.4124 115.923 70.7606V61.0604C115.923 59.4086 114.58 58.0696 112.924 58.0696Z" fill="white"/>
<path d="M112.923 74.0204H43.5431C42.6765 74.0194 41.8457 73.6756 41.2329 73.0645C40.6201 72.4533 40.2754 71.6247 40.2744 70.7605V61.0605C40.2754 60.1962 40.6201 59.3675 41.2329 58.7564C41.8457 58.1452 42.6765 57.8014 43.5431 57.8003H112.923C113.79 57.8013 114.621 58.1451 115.234 58.7563C115.847 59.3675 116.191 60.1961 116.192 61.0605V70.7605C116.191 71.6248 115.847 72.4534 115.234 73.0646C114.621 73.6757 113.79 74.0194 112.923 74.0204ZM43.5431 58.3385C42.8195 58.3393 42.1258 58.6264 41.6142 59.1366C41.1026 59.6469 40.8148 60.3388 40.8141 61.0605V70.7605C40.8149 71.482 41.1027 72.1739 41.6143 72.6841C42.1259 73.1943 42.8196 73.4813 43.5431 73.4821H112.923C113.647 73.4813 114.341 73.1943 114.852 72.6841C115.364 72.1739 115.652 71.4821 115.653 70.7605V61.0605C115.652 60.3388 115.364 59.6469 114.852 59.1366C114.341 58.6263 113.647 58.3393 112.923 58.3385H43.5431Z" fill="#292A2E"/>
<path d="M112.924 80.4807H43.5433C41.8871 80.4807 40.5444 81.8197 40.5444 83.4715V93.1718C40.5444 94.8235 41.8871 96.1625 43.5433 96.1625H112.924C114.58 96.1625 115.923 94.8235 115.923 93.1718V83.4715C115.923 81.8197 114.58 80.4807 112.924 80.4807Z" fill="white"/>
<path d="M112.923 96.4315H43.5431C42.6764 96.4305 41.8454 96.0866 41.2326 95.4753C40.6198 94.864 40.2752 94.0352 40.2744 93.1708V83.4716C40.2754 82.6073 40.6201 81.7787 41.2329 81.1676C41.8457 80.5564 42.6765 80.2127 43.5431 80.2117H112.923C113.79 80.2126 114.621 80.5563 115.234 81.1675C115.847 81.7786 116.191 82.6072 116.192 83.4716V93.1708C116.192 94.0352 115.847 94.8641 115.234 95.4754C114.621 96.0867 113.79 96.4305 112.923 96.4315ZM43.5431 80.7499C42.8196 80.7507 42.1259 81.0377 41.6143 81.5479C41.1027 82.0582 40.8149 82.75 40.8141 83.4716V93.1708C40.8149 93.8924 41.1027 94.5842 41.6143 95.0944C42.1259 95.6046 42.8196 95.8916 43.5431 95.8924H112.923C113.647 95.8917 114.341 95.6047 114.852 95.0945C115.364 94.5843 115.652 93.8924 115.653 93.1708V83.4716C115.652 82.7499 115.364 82.0581 114.852 81.5478C114.341 81.0376 113.647 80.7506 112.923 80.7499H43.5431Z" fill="#292A2E"/>
<path d="M78.2335 46.405C87.1299 46.405 94.3419 39.2124 94.3419 30.34C94.3419 21.4675 87.1299 14.2749 78.2335 14.2749C69.337 14.2749 62.125 21.4675 62.125 30.34C62.125 39.2124 69.337 46.405 78.2335 46.405Z" fill="white"/>
<path d="M78.2331 46.6742C74.9937 46.6742 71.8272 45.7162 69.1338 43.9214C66.4404 42.1266 64.3411 39.5755 63.1015 36.5909C61.8618 33.6062 61.5375 30.3219 62.1694 27.1534C62.8014 23.9849 64.3613 21.0744 66.6518 18.79C68.9424 16.5057 71.8607 14.95 75.0378 14.3197C78.2149 13.6895 81.508 14.0129 84.5008 15.2492C87.4935 16.4855 90.0515 18.5791 91.8511 21.2653C93.6508 23.9514 94.6114 27.1094 94.6114 30.34C94.6065 34.6706 92.8794 38.8225 89.8089 41.8847C86.7384 44.9469 82.5754 46.6694 78.2331 46.6742ZM78.2331 14.5441C75.1005 14.5441 72.0382 15.4705 69.4336 17.2062C66.8289 18.9419 64.7989 21.4089 63.6001 24.2952C62.4013 27.1815 62.0876 30.3576 62.6988 33.4217C63.3099 36.4858 64.8184 39.3004 67.0335 41.5095C69.2485 43.7186 72.0707 45.223 75.1431 45.8325C78.2155 46.4419 81.4001 46.1291 84.2942 44.9336C87.1884 43.738 89.662 41.7134 91.4024 39.1158C93.1428 36.5182 94.0717 33.4642 94.0717 30.34C94.067 26.1521 92.3968 22.1371 89.4275 19.1758C86.4582 16.2145 82.4323 14.5488 78.2331 14.5441Z" fill="#292A2E"/>
<path opacity="0.5" d="M93.9839 30.3399C93.9885 34.0583 92.6655 37.6569 90.2518 40.491C88.7652 38.7626 86.9214 37.3753 84.8467 36.4243C82.772 35.4733 80.5156 34.9811 78.2322 34.9816C75.9489 34.982 73.6927 35.4749 71.6183 36.4267C69.544 37.3784 67.7006 38.7663 66.2146 40.4953C64.5756 38.5661 63.4278 36.2708 62.8687 33.8045C62.3096 31.3382 62.3557 28.7738 63.0031 26.3291C63.6505 23.8843 64.8801 21.6316 66.5874 19.7623C68.2947 17.8929 70.4292 16.4622 72.8096 15.5917C75.1899 14.7212 77.7459 14.4366 80.2601 14.7621C82.7744 15.0876 85.1728 16.0136 87.2514 17.4614C89.33 18.9091 91.0275 20.836 92.1996 23.0781C93.3717 25.3202 93.9838 27.8114 93.9839 30.3399Z" fill="#007C6A"/>
<path d="M90.2518 40.4906C88.7735 42.2317 86.9326 43.6307 84.8573 44.5904C82.7819 45.5501 80.5218 46.0474 78.2342 46.0478C75.9466 46.0482 73.6864 45.5517 71.6107 44.5927C69.5349 43.6338 67.6936 42.2354 66.2146 40.4949C67.7006 38.766 69.544 37.378 71.6183 36.4263C73.6927 35.4746 75.9489 34.9816 78.2322 34.9812C80.5156 34.9808 82.772 35.473 84.8467 36.4239C86.9213 37.3749 88.7652 38.7622 90.2518 40.4906Z" fill="white"/>
<path d="M78.2338 32.0507C81.7499 32.0507 84.6004 29.2079 84.6004 25.7012C84.6004 22.1945 81.7499 19.3518 78.2338 19.3518C74.7176 19.3518 71.8672 22.1945 71.8672 25.7012C71.8672 29.2079 74.7176 32.0507 78.2338 32.0507Z" fill="white"/>
<g opacity="0.4">
<path d="M46.3843 90.231C47.4419 90.231 48.2992 89.376 48.2992 88.3213C48.2992 87.2666 47.4419 86.4116 46.3843 86.4116C45.3268 86.4116 44.4695 87.2666 44.4695 88.3213C44.4695 89.376 45.3268 90.231 46.3843 90.231Z" fill="#292A2E"/>
<path d="M52.3746 90.231C53.4321 90.231 54.2894 89.376 54.2894 88.3213C54.2894 87.2666 53.4321 86.4116 52.3746 86.4116C51.317 86.4116 50.4597 87.2666 50.4597 88.3213C50.4597 89.376 51.317 90.231 52.3746 90.231Z" fill="#292A2E"/>
<path d="M58.3643 90.231C59.4219 90.231 60.2792 89.376 60.2792 88.3213C60.2792 87.2666 59.4219 86.4116 58.3643 86.4116C57.3068 86.4116 56.4495 87.2666 56.4495 88.3213C56.4495 89.376 57.3068 90.231 58.3643 90.231Z" fill="#292A2E"/>
<path d="M64.3543 90.231C65.4119 90.231 66.2692 89.376 66.2692 88.3213C66.2692 87.2666 65.4119 86.4116 64.3543 86.4116C63.2968 86.4116 62.4395 87.2666 62.4395 88.3213C62.4395 89.376 63.2968 90.231 64.3543 90.231Z" fill="#292A2E"/>
<path d="M70.3436 90.231C71.4011 90.231 72.2584 89.376 72.2584 88.3213C72.2584 87.2666 71.4011 86.4116 70.3436 86.4116C69.286 86.4116 68.4287 87.2666 68.4287 88.3213C68.4287 89.376 69.286 90.231 70.3436 90.231Z" fill="#292A2E"/>
<path d="M76.3338 90.231C77.3913 90.231 78.2487 89.376 78.2487 88.3213C78.2487 87.2666 77.3913 86.4116 76.3338 86.4116C75.2763 86.4116 74.4189 87.2666 74.4189 88.3213C74.4189 89.376 75.2763 90.231 76.3338 90.231Z" fill="#292A2E"/>
<path d="M82.3236 90.231C83.3811 90.231 84.2384 89.376 84.2384 88.3213C84.2384 87.2666 83.3811 86.4116 82.3236 86.4116C81.266 86.4116 80.4087 87.2666 80.4087 88.3213C80.4087 89.376 81.266 90.231 82.3236 90.231Z" fill="#292A2E"/>
</g>
<g opacity="0.3">
<path d="M48.2834 65.7952V66.4411H45.8242V65.7952H48.2834Z" fill="#DEE8F5"/>
<path d="M51.3398 65.7952V66.4411H48.8806V65.7952H51.3398Z" fill="#DEE8F5"/>
<path d="M54.3954 65.7952V66.4411H51.9363V65.7952H54.3954Z" fill="#DEE8F5"/>
<path d="M57.4513 65.7952V66.4411H54.9922V65.7952H57.4513Z" fill="#DEE8F5"/>
<path d="M60.5078 65.7952V66.4411H58.0483V65.7952H60.5078Z" fill="#DEE8F5"/>
<path d="M66.0226 69.4396C65.4756 69.7198 64.8662 69.8568 64.2516 69.8376C62.6187 69.8376 61.2346 68.6459 61.2346 66.7395C61.2346 64.6941 62.6586 62.9265 64.8687 62.9265C66.6011 62.9265 67.7661 64.1376 67.7661 65.7962C67.7661 67.2858 66.9296 68.1593 65.9937 68.1593C65.5957 68.1593 65.2273 67.8902 65.257 67.2858H65.2171C65.0883 67.5476 64.8887 67.7681 64.6406 67.9225C64.3926 68.0769 64.1062 68.159 63.8139 68.1593C63.2364 68.1593 62.7385 67.6927 62.7385 66.9085C62.7374 66.5991 62.7977 66.2926 62.9159 66.0065C63.0341 65.7205 63.2079 65.4606 63.4272 65.2418C63.6466 65.0231 63.9072 64.8498 64.194 64.7319C64.4808 64.614 64.7881 64.5539 65.0983 64.555C65.4642 64.5497 65.8271 64.6207 66.1637 64.7635L65.8251 66.5608C65.6758 67.3143 65.7954 67.6642 66.1238 67.673C66.6316 67.6827 67.1991 67.0075 67.1991 65.8559C67.1991 64.4161 66.3329 63.3835 64.7896 63.3835C63.1667 63.3835 61.8027 64.6642 61.8027 66.68C61.8027 68.3383 62.888 69.361 64.3616 69.361C64.8841 69.3731 65.4011 69.2536 65.865 69.0135L66.0226 69.4396ZM65.4751 65.15C65.3134 65.1026 65.1457 65.0793 64.9772 65.0806C64.101 65.0806 63.3942 65.9046 63.3942 66.8678C63.3942 67.3046 63.6134 67.6214 64.0513 67.6214C64.6288 67.6214 65.1564 66.8867 65.2657 66.2709L65.4751 65.15Z" fill="#DEE8F5"/>
<path d="M70.8998 65.7952V66.4411H68.4407V65.7952H70.8998Z" fill="#DEE8F5"/>
<path d="M73.956 65.7952V66.4411H71.4966V65.7952H73.956Z" fill="#DEE8F5"/>
<path d="M77.0119 65.7952V66.4411H74.5527V65.7952H77.0119Z" fill="#DEE8F5"/>
</g>
<path d="M50.5323 167.185L50.0212 167.24L56.3312 224.903L56.8423 224.847L50.5323 167.185Z" fill="#292A2E"/>
<path d="M66.8752 192.358L63.771 223.068L64.2825 223.119L67.3867 192.41L66.8752 192.358Z" fill="#292A2E"/>
<path d="M72.2133 219.355H49.1797V226.831H72.2133V219.355Z" fill="#292A2E"/>
<path opacity="0.2" d="M72.2133 219.355H49.1797V226.831H72.2133V219.355Z" fill="white"/>
<path d="M86.0993 205.591C90.4627 199.792 88.3826 190.864 81.4533 185.65C74.5239 180.437 65.3694 180.912 61.0059 186.711C56.6425 192.51 58.7226 201.438 65.6519 206.652C72.5812 211.865 81.7358 211.391 86.0993 205.591Z" fill="#007C6A"/>
<path opacity="0.2" d="M86.0993 205.591C90.4627 199.792 88.3826 190.864 81.4533 185.65C74.5239 180.437 65.3694 180.912 61.0059 186.711C56.6425 192.51 58.7226 201.438 65.6519 206.652C72.5812 211.865 81.7358 211.391 86.0993 205.591Z" fill="white"/>
<path opacity="0.5" d="M86.0982 205.592C85.8052 205.984 85.4855 206.354 85.1413 206.701C80.338 209.77 73.2483 209.287 67.624 205.054C60.6952 199.842 58.6156 190.914 62.9796 185.115C63.273 184.724 63.5919 184.354 63.9342 184.006C68.7398 180.935 75.8272 181.42 81.4539 185.651C88.3824 190.866 90.4619 199.793 86.0982 205.592Z" fill="white"/>
<path d="M53.9534 183.589C60.8179 178.29 62.6836 169.202 58.1205 163.291C53.5575 157.38 44.2937 156.883 37.4292 162.182C30.5648 167.481 28.6991 176.568 33.2621 182.48C37.8251 188.391 47.0889 188.888 53.9534 183.589Z" fill="#007C6A"/>
<path opacity="0.2" d="M51.7807 182.069C46.4645 186.175 39.7083 186.801 34.8109 184.128C34.2441 183.629 33.7264 183.076 33.265 182.478C28.6997 176.569 30.5653 167.48 37.4295 162.182C42.7457 158.078 49.5019 157.45 54.3969 160.121C54.9649 160.621 55.4833 161.174 55.9449 161.773C60.509 167.682 58.6434 176.771 51.7807 182.069Z" fill="white"/>
</svg>
