<svg width="394" height="249" viewBox="0 0 394 249" fill="none" xmlns="http://www.w3.org/2000/svg">
<g clip-path="url(#clip0_1295_4706)">
<path d="M338.072 161.683L337.333 161.764L346.46 245.211L347.199 245.13L338.072 161.683Z" fill="#292A2E"/>
<path d="M361.71 198.112L357.22 242.554L357.96 242.629L362.45 198.187L361.71 198.112Z" fill="#292A2E"/>
<path d="M369.431 237.182H336.115V248H369.431V237.182Z" fill="#292A2E"/>
<path opacity="0.2" d="M369.431 237.182H336.115V248H369.431V237.182Z" fill="white"/>
<path d="M389.515 217.264C395.826 208.871 392.817 195.951 382.795 188.406C372.772 180.861 359.53 181.548 353.219 189.94C346.908 198.333 349.917 211.253 359.939 218.798C369.962 226.343 383.204 225.656 389.515 217.264Z" fill="#0CBC8B"/>
<path opacity="0.2" d="M389.515 217.264C395.826 208.871 392.817 195.951 382.795 188.406C372.772 180.861 359.53 181.548 353.219 189.94C346.908 198.333 349.917 211.253 359.939 218.798C369.962 226.343 383.204 225.656 389.515 217.264Z" fill="white"/>
<path opacity="0.5" d="M389.514 217.265C389.09 217.831 388.627 218.367 388.129 218.87C381.182 223.311 370.927 222.611 362.792 216.486C352.77 208.943 349.762 196.023 356.074 187.631C356.499 187.066 356.96 186.53 357.455 186.026C364.407 181.582 374.657 182.284 382.796 188.407C392.817 195.953 395.825 208.873 389.514 217.265Z" fill="white"/>
<path d="M343.022 185.424C352.951 177.756 355.649 164.605 349.049 156.05C342.449 147.496 329.05 146.777 319.121 154.445C309.191 162.113 306.493 175.265 313.093 183.819C319.693 192.374 333.093 193.093 343.022 185.424Z" fill="#0CBC8B"/>
<path opacity="0.2" d="M339.874 183.223C332.185 189.165 322.413 190.071 315.329 186.202C314.509 185.48 313.76 184.681 313.093 183.816C306.492 175.264 309.189 162.111 319.118 154.444C326.808 148.505 336.58 147.596 343.661 151.461C344.482 152.184 345.232 152.984 345.9 153.851C352.501 162.404 349.803 175.556 339.874 183.223Z" fill="white"/>
<path d="M326.97 18.6216H76.1425C69.9829 18.6216 64.9895 23.6175 64.9895 29.7803V213.517C64.9895 219.68 69.9829 224.676 76.1425 224.676H326.97C333.129 224.676 338.123 219.68 338.123 213.517V29.7803C338.123 23.6175 333.129 18.6216 326.97 18.6216Z" fill="white"/>
<path opacity="0.1" d="M130.81 94.6193C141.75 94.6193 150.619 85.7502 150.619 74.8097C150.619 63.8691 141.75 55 130.81 55C119.869 55 111 63.8691 111 74.8097C111 85.7502 119.869 94.6193 130.81 94.6193Z" fill="#367CFF"/>
<path opacity="0.2" d="M130.81 73.9573C134.61 73.9573 137.69 70.8768 137.69 67.0768C137.69 63.2768 134.61 60.1963 130.81 60.1963C127.01 60.1963 123.929 63.2768 123.929 67.0768C123.929 70.8768 127.01 73.9573 130.81 73.9573Z" fill="#367CFF"/>
<path opacity="0.2" d="M145.702 87.8723C143.843 89.9922 141.553 91.6907 138.984 92.8542C136.416 94.0177 133.628 94.6195 130.809 94.6192C127.989 94.619 125.202 94.0167 122.634 92.8527C120.066 91.6887 117.776 89.9898 115.917 87.8697C116.869 84.6586 118.834 81.8414 121.518 79.838C124.202 77.8346 127.461 76.7524 130.81 76.7527C134.16 76.753 137.419 77.8358 140.103 79.8397C142.786 81.8436 144.75 84.6612 145.702 87.8723Z" fill="#367CFF"/>
<path opacity="0.2" d="M140.166 108.133H113.316C112.347 108.133 111.561 108.919 111.561 109.888C111.561 110.857 112.347 111.642 113.316 111.642H140.166C141.135 111.642 141.921 110.857 141.921 109.888C141.921 108.919 141.135 108.133 140.166 108.133Z" fill="#367CFF"/>
<path opacity="0.1" d="M223.799 55.9714H163.018C160.749 55.9714 158.909 57.2901 158.909 58.9169V65.026C158.909 66.6527 160.749 67.9714 163.018 67.9714H223.799C226.069 67.9714 227.909 66.6527 227.909 65.026V58.9169C227.909 57.2901 226.069 55.9714 223.799 55.9714Z" fill="#367CFF"/>
<path opacity="0.2" d="M252.943 73.9714H160.874C159.789 73.9714 158.909 74.643 158.909 75.4714C158.909 76.2999 159.789 76.9714 160.874 76.9714H252.943C254.029 76.9714 254.909 76.2999 254.909 75.4714C254.909 74.643 254.029 73.9714 252.943 73.9714Z" fill="#367CFF"/>
<path opacity="0.2" d="M247.066 81.9714H160.751C159.734 81.9714 158.909 82.643 158.909 83.4714C158.909 84.2999 159.734 84.9714 160.751 84.9714H247.066C248.084 84.9714 248.909 84.2999 248.909 83.4714C248.909 82.643 248.084 81.9714 247.066 81.9714Z" fill="#367CFF"/>
<path opacity="0.2" d="M212.715 90.5884H160.259C159.513 90.5884 158.909 91.193 158.909 91.9388C158.909 92.6847 159.513 93.2893 160.259 93.2893H212.715C213.46 93.2893 214.065 92.6847 214.065 91.9388C214.065 91.193 213.46 90.5884 212.715 90.5884Z" fill="#367CFF"/>
<path opacity="0.1" d="M180.041 116.704H114.098C112.697 116.704 111.561 117.839 111.561 119.24V125.507C111.561 126.907 112.697 128.043 114.098 128.043H180.041C181.442 128.043 182.578 126.907 182.578 125.507V119.24C182.578 117.839 181.442 116.704 180.041 116.704Z" fill="#367CFF"/>
<path opacity="0.2" d="M221.019 108.133H194.169C193.2 108.133 192.414 108.919 192.414 109.888C192.414 110.857 193.2 111.642 194.169 111.642H221.019C221.988 111.642 222.774 110.857 222.774 109.888C222.774 108.919 221.988 108.133 221.019 108.133Z" fill="#367CFF"/>
<path opacity="0.1" d="M306.23 116.971H210.588C208.556 116.971 206.909 118.073 206.909 119.432V125.511C206.909 126.87 208.556 127.971 210.588 127.971H306.23C308.262 127.971 309.909 126.87 309.909 125.511V119.432C309.909 118.073 308.262 116.971 306.23 116.971Z" fill="#367CFF"/>
<path opacity="0.2" d="M140.166 137.418H113.316C112.347 137.418 111.561 138.203 111.561 139.172C111.561 140.141 112.347 140.927 113.316 140.927H140.166C141.135 140.927 141.921 140.141 141.921 139.172C141.921 138.203 141.135 137.418 140.166 137.418Z" fill="#367CFF"/>
<path opacity="0.1" d="M180.041 145.988H114.098C112.697 145.988 111.561 147.124 111.561 148.525V154.791C111.561 156.192 112.697 157.328 114.098 157.328H180.041C181.442 157.328 182.578 156.192 182.578 154.791V148.525C182.578 147.124 181.442 145.988 180.041 145.988Z" fill="#367CFF"/>
<path opacity="0.2" d="M221.019 137.418H194.169C193.2 137.418 192.414 138.203 192.414 139.172C192.414 140.141 193.2 140.927 194.169 140.927H221.019C221.988 140.927 222.774 140.141 222.774 139.172C222.774 138.203 221.988 137.418 221.019 137.418Z" fill="#367CFF"/>
<path opacity="0.1" d="M306.23 145.971H210.588C208.556 145.971 206.909 147.073 206.909 148.432V154.511C206.909 155.87 208.556 156.971 210.588 156.971H306.23C308.262 156.971 309.909 155.87 309.909 154.511V148.432C309.909 147.073 308.262 145.971 306.23 145.971Z" fill="#367CFF"/>
<path opacity="0.2" d="M140.166 166.703H113.316C112.347 166.703 111.561 167.488 111.561 168.457C111.561 169.426 112.347 170.212 113.316 170.212H140.166C141.135 170.212 141.921 169.426 141.921 168.457C141.921 167.488 141.135 166.703 140.166 166.703Z" fill="#367CFF"/>
<path opacity="0.1" d="M180.041 175.273H114.098C112.697 175.273 111.561 176.409 111.561 177.809V184.076C111.561 185.477 112.697 186.612 114.098 186.612H180.041C181.442 186.612 182.578 185.477 182.578 184.076V177.809C182.578 176.409 181.442 175.273 180.041 175.273Z" fill="#367CFF"/>
<path opacity="0.2" d="M221.019 166.703H194.169C193.2 166.703 192.414 167.488 192.414 168.457C192.414 169.426 193.2 170.212 194.169 170.212H221.019C221.988 170.212 222.774 169.426 222.774 168.457C222.774 167.488 221.988 166.703 221.019 166.703Z" fill="#367CFF"/>
<path opacity="0.1" d="M306.23 174.971H210.588C208.556 174.971 206.909 176.173 206.909 177.656V184.287C206.909 185.77 208.556 186.971 210.588 186.971H306.23C308.262 186.971 309.909 185.77 309.909 184.287V177.656C309.909 176.173 308.262 174.971 306.23 174.971Z" fill="#367CFF"/>
<path opacity="0.2" d="M208.547 195.447H167.328C165.665 195.447 164.317 196.796 164.317 198.459V204.018C164.317 205.681 165.665 207.03 167.328 207.03H208.547C210.211 207.03 211.559 205.681 211.559 204.018V198.459C211.559 196.796 210.211 195.447 208.547 195.447Z" fill="#367CFF"/>
<path d="M326.969 225.048H76.1427C73.0872 225.044 70.1579 223.828 67.9974 221.667C65.8368 219.505 64.6215 216.574 64.6179 213.517V29.7804C64.6214 26.7233 65.8367 23.7925 67.9973 21.6308C70.1578 19.4691 73.0872 18.2532 76.1427 18.2498H326.969C330.025 18.2531 332.954 19.469 335.115 21.6307C337.275 23.7924 338.491 26.7233 338.494 29.7804V213.517C338.49 216.574 337.275 219.505 335.115 221.667C332.954 223.828 330.025 225.044 326.969 225.048ZM76.1427 18.9937C73.2843 18.9968 70.5439 20.1343 68.5227 22.1565C66.5015 24.1787 65.3646 26.9205 65.3615 29.7804V213.517C65.3646 216.377 66.5015 219.119 68.5227 221.141C70.5439 223.163 73.2843 224.301 76.1427 224.304H326.969C329.828 224.301 332.568 223.163 334.589 221.141C336.61 219.119 337.747 216.377 337.75 213.517V29.7804C337.747 26.9205 336.61 24.1787 334.589 22.1565C332.568 20.1343 329.828 18.9968 326.969 18.9937H76.1427Z" fill="#292A2E"/>
<path d="M193.076 144.848C192.751 144.849 192.428 144.783 192.129 144.655C191.829 144.527 191.559 144.34 191.334 144.104L178.132 130.358C177.908 130.13 177.731 129.86 177.612 129.563C177.493 129.266 177.435 128.949 177.439 128.629C177.444 128.309 177.512 127.994 177.639 127.7C177.766 127.407 177.951 127.142 178.181 126.92C178.412 126.699 178.684 126.525 178.982 126.409C179.28 126.294 179.597 126.239 179.917 126.247C180.236 126.255 180.551 126.326 180.843 126.457C181.135 126.588 181.397 126.775 181.616 127.008L193.201 139.07L223.486 111.887C223.722 111.672 223.998 111.505 224.298 111.397C224.599 111.289 224.917 111.241 225.236 111.257C225.555 111.273 225.868 111.351 226.156 111.489C226.444 111.626 226.703 111.819 226.916 112.057C227.129 112.295 227.293 112.573 227.398 112.874C227.504 113.176 227.548 113.495 227.529 113.814C227.511 114.133 227.429 114.445 227.289 114.732C227.149 115.019 226.953 115.275 226.714 115.486L194.69 144.229C194.247 144.628 193.672 144.849 193.076 144.848Z" fill="white"/>
<path d="M338.123 29.7788V41.007H64.9915V29.7788C64.9915 26.8193 66.1665 23.9811 68.2581 21.8884C70.3497 19.7958 73.1865 18.6201 76.1445 18.6201H326.97C329.928 18.6201 332.764 19.7958 334.856 21.8884C336.948 23.9811 338.123 26.8193 338.123 29.7788Z" fill="#292A2E"/>
<path d="M8.46308 248.372H380.097C380.196 248.372 380.29 248.333 380.36 248.263C380.43 248.193 380.469 248.099 380.469 248C380.469 247.901 380.43 247.807 380.36 247.737C380.29 247.667 380.196 247.628 380.097 247.628H8.46308C8.36448 247.628 8.26992 247.667 8.2002 247.737C8.13048 247.807 8.09131 247.901 8.09131 248C8.09131 248.099 8.13048 248.193 8.2002 248.263C8.26992 248.333 8.36448 248.372 8.46308 248.372Z" fill="#292A2E"/>
<path d="M245.634 86.7841C230.642 86.8085 216.051 81.9407 204.076 72.9197C192.101 81.9408 177.51 86.8086 162.518 86.7841C161.287 86.7841 160.056 86.7542 158.84 86.6861V112.751C158.856 136.18 168.18 157.767 188.65 169.161L204.076 177.723L219.501 169.161C239.971 157.767 249.296 136.18 249.311 112.751V86.6861C248.094 86.7542 246.863 86.7841 245.634 86.7841Z" fill="white"/>
<path d="M245.635 84.519C231.131 84.5649 217.011 79.8554 205.439 71.1118L204.077 70.0862L202.715 71.1118C191.143 79.8558 177.023 84.5653 162.519 84.519C161.282 84.519 160.086 84.4876 158.968 84.4247L156.576 84.2907V112.752C156.593 138.912 167.883 160.193 187.552 171.142L204.077 180.316L220.604 171.142C240.271 160.195 251.561 138.913 251.58 112.752V84.2907L249.188 84.4247C248.066 84.4876 246.872 84.519 245.635 84.519ZM247.047 112.749C247.031 137.218 236.59 157.058 218.403 167.18L204.075 175.133L189.751 167.182C171.562 157.058 161.121 137.218 161.105 112.751V89.0361C161.568 89.0446 162.039 89.0491 162.517 89.0495C177.426 89.0966 191.97 84.436 204.075 75.7319C216.18 84.4362 230.725 89.0968 245.635 89.0495C246.112 89.0495 246.583 89.045 247.047 89.0361V112.749Z" fill="#007C6A"/>
<path d="M204.075 181.942L186.86 172.386C166.726 161.18 155.169 139.444 155.152 112.753V82.7852L159.047 83.0032C160.137 83.064 161.305 83.0955 162.517 83.0955C176.713 83.1409 190.532 78.5319 201.858 69.9743L204.074 68.3049L206.291 69.9743C217.618 78.5326 231.438 83.1417 245.634 83.0955C246.848 83.0955 248.015 83.064 249.105 83.0032L253.001 82.7852V112.751C252.983 139.444 241.428 161.179 221.296 172.383L204.075 181.942ZM157.998 85.7962V112.752C158.016 138.379 169.038 159.21 188.243 169.897L204.075 178.685L219.911 169.895C239.111 159.208 250.135 138.379 250.151 112.75V85.7942L249.263 85.8457C248.121 85.9096 246.899 85.9426 245.633 85.9426C230.82 85.9892 216.4 81.1789 204.581 72.2483L204.075 71.8679L203.569 72.2483C191.75 81.1792 177.33 85.9896 162.516 85.9426C161.25 85.9426 160.029 85.9096 158.886 85.8457L157.998 85.7962ZM204.075 176.761L189.06 168.426C170.406 158.043 159.698 137.751 159.682 112.752V87.5872L161.131 87.6125C161.587 87.6207 162.05 87.6254 162.518 87.6254C177.129 87.666 191.38 83.0994 203.247 74.5748L204.076 73.98L204.906 74.5748C216.772 83.0993 231.024 87.6659 245.634 87.6254C246.102 87.6254 246.565 87.6211 247.021 87.6125L248.47 87.5872V112.75C248.454 137.75 237.747 158.042 219.095 168.424L204.075 176.761ZM162.528 90.473V112.751C162.544 136.686 172.719 156.072 190.443 165.937L204.075 173.504L217.71 165.935C235.429 156.071 245.606 136.687 245.621 112.748V90.473C230.766 90.5115 216.259 85.9732 204.075 77.4755C191.89 85.9734 177.383 90.5117 162.528 90.473Z" fill="#007C6A"/>
<path d="M194.83 146.287C194.337 146.288 193.849 146.191 193.393 146.002C192.938 145.814 192.525 145.537 192.176 145.188L177.704 130.714C177 130.01 176.605 129.055 176.605 128.06C176.605 127.064 177 126.11 177.704 125.406C178.408 124.702 179.363 124.306 180.359 124.306C181.354 124.306 182.309 124.702 183.013 125.406L194.833 137.226L225.143 105.454C225.492 105.105 225.906 104.829 226.361 104.64C226.817 104.451 227.305 104.354 227.798 104.354C228.291 104.354 228.779 104.451 229.234 104.64C229.69 104.829 230.103 105.105 230.452 105.454C230.801 105.802 231.077 106.216 231.266 106.672C231.454 107.127 231.551 107.615 231.551 108.108C231.551 108.601 231.454 109.089 231.266 109.545C231.077 110 230.801 110.414 230.452 110.762L197.488 145.187C197.139 145.536 196.725 145.814 196.269 146.003C195.813 146.191 195.324 146.288 194.83 146.287Z" fill="#262626"/>
<path d="M13.9391 226.022C11.6932 226.021 9.48058 225.478 7.48962 224.438C5.49867 223.398 3.78829 221.893 2.50405 220.049C1.21981 218.206 0.399728 216.079 0.113601 213.85C-0.172525 211.622 0.0837725 209.357 0.860682 207.248C1.6492 205.108 21.8748 152.871 25.3973 143.793L49.7373 157.964C47.7577 163.069 40.5848 182.419 34.8224 198.006L44.3958 196.964L47.409 222.466L15.4496 225.942C14.9479 225.996 14.4437 226.023 13.9391 226.022Z" fill="#007C6A"/>
<path d="M30.6454 226.829L26.3943 248H108.963L104.207 226.427L30.6454 226.829Z" fill="#262626"/>
<path d="M93.5508 132.93C93.4653 132.919 91.1232 141.738 72.8434 140.365C60.1884 139.417 57.1027 130.798 56.8127 130.798C58.1771 130.508 60.3929 130.207 60.9988 129.883C62.9915 128.812 64.4429 127.508 65.1738 124.709C65.7452 122.521 66.0363 114.096 66.0363 109.868L85.5095 114.246C85.2381 119.015 83.3384 130.069 89.9967 132.026C91.1046 132.349 92.298 132.647 93.5508 132.93Z" fill="#E98862"/>
<path d="M84.8364 123.621C77.1598 124.228 67.2983 120.984 65.4249 110.737L63.7349 101.491C61.8616 91.2435 65.7227 81.9521 75.3664 80.1875C85.0097 78.423 93.7365 85.4109 95.6095 95.6583L96.3579 99.752C97.0754 103.684 98.5323 122.54 84.8364 123.621Z" fill="#E98862"/>
<path d="M48.4984 132.217C41.5999 132.729 34.5657 133.477 29.4896 138.178C23.3763 143.841 22.2684 150.804 26.1686 169.965C29.5242 186.452 28.1932 193.656 30.438 224.079C30.5042 224.976 30.6458 226.829 30.6458 226.829L104.442 226.707C104.442 226.707 111.357 186.343 115.174 167.726C118.077 153.573 125.703 136.391 93.5507 132.929C93.466 132.919 67.6791 130.793 48.4984 132.217Z" fill="#007C6A"/>
<path d="M30.647 227.015C30.5989 227.015 30.5526 226.997 30.518 226.963C30.4833 226.93 30.4629 226.885 30.4611 226.836L28.1483 166.775C28.1465 166.726 28.1643 166.678 28.1979 166.641C28.2314 166.605 28.2779 166.584 28.3271 166.582C28.3518 166.58 28.3765 166.583 28.3999 166.591C28.4232 166.599 28.4447 166.612 28.4628 166.629C28.4809 166.646 28.4954 166.666 28.5053 166.689C28.5151 166.711 28.5202 166.736 28.5201 166.761L30.8329 226.822C30.8347 226.872 30.8168 226.92 30.7833 226.956C30.7498 226.992 30.7033 227.013 30.654 227.015L30.647 227.015Z" fill="#0C0C0C"/>
<path d="M149.06 153.662L154.244 142.026C154.358 141.77 154.524 141.541 154.732 141.353C154.939 141.165 155.183 141.022 155.449 140.934C155.714 140.846 155.995 140.814 156.274 140.84C156.552 140.866 156.822 140.95 157.067 141.086C157.51 141.352 157.839 141.773 157.99 142.268C158.141 142.763 158.102 143.296 157.882 143.765L156.771 146.259L163.866 140.019C164.643 139.312 166.048 138.94 166.785 139.864C167.091 140.201 167.274 140.632 167.304 141.087C167.334 141.541 167.209 141.993 166.95 142.367C166.959 142.373 166.966 142.379 166.973 142.387C166.978 142.393 166.982 142.4 166.985 142.407L168.183 141.316C168.405 141.114 168.669 140.964 168.956 140.877C169.244 140.79 169.547 140.769 169.843 140.814C170.14 140.859 170.423 140.97 170.671 141.138C170.92 141.306 171.127 141.528 171.279 141.787C171.51 142.199 171.593 142.679 171.513 143.145C171.433 143.611 171.196 144.035 170.841 144.347L170.331 144.812C170.337 144.833 170.34 144.854 170.339 144.876C170.756 144.643 171.243 144.565 171.712 144.657C172.181 144.75 172.602 145.006 172.9 145.38C173.213 145.8 173.357 146.322 173.303 146.842C173.249 147.363 173 147.844 172.607 148.19L171.343 149.343C171.373 149.339 171.402 149.343 171.43 149.353C171.458 149.363 171.483 149.38 171.503 149.402C171.526 149.428 171.54 149.461 171.544 149.496C171.974 149.392 172.425 149.431 172.83 149.608C173.235 149.785 173.571 150.09 173.785 150.476C174.003 150.887 174.075 151.359 173.991 151.816C173.906 152.273 173.67 152.688 173.321 152.994L162.638 162.724C161.144 164.086 159.277 164.969 157.277 165.262C155.277 165.555 153.236 165.244 151.414 164.368C149.843 163.613 148.628 162.275 148.028 160.639C147.427 159.002 147.488 157.195 148.198 155.603L149.06 153.662Z" fill="#E98862"/>
<g opacity="0.2">
<path d="M159.958 148.578C159.991 148.614 160.037 148.635 160.085 148.638C160.134 148.64 160.182 148.624 160.218 148.591L166.959 142.648C166.977 142.632 166.992 142.612 167.003 142.59C167.013 142.568 167.02 142.544 167.021 142.52C167.023 142.496 167.019 142.471 167.012 142.448C167.004 142.425 166.991 142.404 166.975 142.385C166.959 142.367 166.939 142.352 166.917 142.341C166.895 142.33 166.872 142.324 166.847 142.323C166.823 142.321 166.798 142.324 166.775 142.332C166.752 142.34 166.731 142.353 166.713 142.369L159.973 148.312C159.955 148.328 159.94 148.348 159.929 148.37C159.918 148.392 159.912 148.415 159.91 148.44C159.909 148.464 159.912 148.489 159.92 148.512C159.928 148.535 159.94 148.556 159.956 148.575L159.958 148.578Z" fill="#0C0C0C"/>
</g>
<g opacity="0.2">
<path d="M162.496 151.625C162.529 151.661 162.575 151.682 162.623 151.684C162.672 151.687 162.72 151.67 162.756 151.638L170.279 145.005C170.297 144.989 170.312 144.969 170.323 144.947C170.333 144.925 170.34 144.901 170.341 144.877C170.343 144.853 170.339 144.828 170.331 144.805C170.323 144.782 170.311 144.761 170.295 144.742C170.261 144.707 170.216 144.685 170.167 144.682C170.118 144.679 170.07 144.695 170.032 144.726L162.51 151.359C162.492 151.375 162.477 151.395 162.466 151.416C162.455 151.438 162.449 151.462 162.448 151.487C162.446 151.511 162.449 151.535 162.457 151.559C162.465 151.582 162.478 151.603 162.494 151.621L162.496 151.625Z" fill="#0C0C0C"/>
</g>
<g opacity="0.2">
<path d="M165.224 154.94C165.257 154.976 165.302 154.997 165.351 155C165.4 155.002 165.447 154.986 165.484 154.953L171.484 149.663C171.521 149.63 171.544 149.584 171.547 149.535C171.55 149.485 171.533 149.437 171.501 149.4C171.468 149.363 171.422 149.34 171.373 149.337C171.324 149.334 171.275 149.351 171.238 149.383L165.238 154.674C165.22 154.69 165.205 154.71 165.194 154.732C165.183 154.754 165.177 154.778 165.175 154.802C165.174 154.827 165.177 154.851 165.185 154.874C165.193 154.897 165.205 154.919 165.221 154.937L165.224 154.94Z" fill="#0C0C0C"/>
</g>
<path d="M91.9533 114.213C90.5756 107.286 89.9436 102.664 90.0168 97.788C91.9578 94.3816 91.4474 90.4724 91.0061 88.783C92.9084 89.8215 93.704 89.936 95.4944 89.936C95.4944 89.936 92.2846 77.0474 81.3747 73.5792C79.3672 72.7981 74.2464 71.8113 67.4453 72.7446C61.6606 73.5383 47.4011 77.8657 45.3623 93.9275V93.9368C45.2947 94.4694 43.9258 109.268 41.1963 116.368C37.5266 125.913 32.3754 128.879 32.5058 139.891C32.6739 154.057 58.7028 155.943 74.4041 154.881C90.1053 153.819 98.8664 148.657 98.9809 138.448C99.1073 127.01 94.7104 128.072 91.9533 114.213Z" fill="#0A0A0A"/>
<path d="M91.9579 108.406C89.0273 108.942 86.078 106.24 85.5423 103.308C85.0066 100.377 87.0863 98.3241 90.0169 97.7881L91.9579 108.406Z" fill="#E98862"/>
<path d="M123.479 223.91C120.531 223.91 117.659 222.975 115.275 221.24C112.891 219.505 111.118 217.059 110.21 214.253L90.8413 154.318L117.371 145.735L127.558 177.26L145.162 149.25L168.766 164.1L135.278 217.386C134.023 219.383 132.282 221.029 130.219 222.17C128.155 223.31 125.836 223.909 123.479 223.91Z" fill="#007C6A"/>
<path d="M107.849 207.362C107.837 207.362 107.826 207.361 107.815 207.359C107.766 207.35 107.723 207.322 107.695 207.282C107.668 207.241 107.657 207.191 107.666 207.142L114.25 171.382C114.259 171.334 114.287 171.291 114.328 171.263C114.368 171.235 114.418 171.224 114.467 171.233C114.515 171.242 114.558 171.27 114.586 171.31C114.614 171.351 114.625 171.401 114.616 171.449L108.032 207.21C108.024 207.253 108.001 207.291 107.968 207.319C107.934 207.347 107.892 207.362 107.849 207.362Z" fill="#0C0C0C"/>
<path d="M129.928 185.701C129.887 185.701 129.847 185.688 129.814 185.663C129.782 185.637 129.758 185.602 129.748 185.562L127.555 177.109C127.548 177.085 127.547 177.061 127.55 177.037C127.554 177.012 127.562 176.989 127.574 176.968C127.587 176.947 127.603 176.929 127.623 176.914C127.642 176.899 127.664 176.889 127.688 176.882C127.711 176.876 127.736 176.875 127.76 176.878C127.784 176.882 127.808 176.89 127.829 176.902C127.85 176.915 127.868 176.931 127.883 176.95C127.898 176.97 127.908 176.992 127.914 177.016L130.108 185.469C130.12 185.517 130.113 185.567 130.088 185.61C130.063 185.652 130.022 185.683 129.974 185.695C129.959 185.699 129.944 185.701 129.928 185.701Z" fill="#0C0C0C"/>
</g>
<defs>
<clipPath id="clip0_1295_4706">
<rect width="394" height="248.372" fill="white"/>
</clipPath>
</defs>
</svg>
