<svg width="353" height="227" viewBox="0 0 353 227" fill="none" xmlns="http://www.w3.org/2000/svg">
<g clip-path="url(#clip0_1183_9501)">
<path d="M99.0688 85.3325C98.3691 85.0063 97.6764 84.669 97.0107 84.3306C96.9242 84.2866 96.8238 84.2787 96.7314 84.3087C96.6391 84.3387 96.5625 84.4041 96.5184 84.4905C96.4743 84.5769 96.4664 84.6772 96.4965 84.7695C96.5265 84.8617 96.5919 84.9382 96.6785 84.9823C97.3514 85.3247 98.0514 85.6652 98.7586 85.9955C98.8464 86.0344 98.9459 86.0375 99.0358 86.0039C99.1257 85.9703 99.1988 85.9028 99.2394 85.8159C99.28 85.7291 99.2849 85.6297 99.2529 85.5393C99.2209 85.4489 99.1547 85.3746 99.0685 85.3325H99.0688Z" fill="#292A2E"/>
<path d="M109.771 89.397L109.719 89.3811C109 89.1611 108.283 88.9326 107.587 88.7013C107.495 88.6707 107.395 88.6779 107.308 88.7213C107.221 88.7647 107.155 88.8408 107.124 88.9328C107.094 89.0249 107.101 89.1253 107.144 89.212C107.188 89.2988 107.264 89.3647 107.356 89.3954C108.058 89.6285 108.78 89.8589 109.502 90.0794L109.559 90.0969L109.577 90.1018C109.67 90.1259 109.768 90.1125 109.852 90.0645C109.935 90.0165 109.996 89.9377 110.022 89.8452C110.047 89.7526 110.035 89.6538 109.988 89.5699C109.942 89.486 109.864 89.4239 109.771 89.397Z" fill="#292A2E"/>
<path d="M93.9926 82.6956C93.3281 82.3116 92.6689 81.913 92.0348 81.5134C91.9942 81.4863 91.9485 81.4675 91.9004 81.4583C91.8524 81.449 91.803 81.4495 91.7552 81.4596C91.7073 81.4697 91.662 81.4893 91.6219 81.5173C91.5817 81.5452 91.5476 81.5808 91.5215 81.6221C91.4953 81.6634 91.4778 81.7095 91.4698 81.7577C91.4618 81.8059 91.4635 81.8552 91.4749 81.9027C91.4863 81.9503 91.5071 81.995 91.5361 82.0344C91.565 82.0737 91.6016 82.1069 91.6436 82.1319C92.2861 82.5366 92.9531 82.9414 93.6258 83.3289C93.6555 83.3459 93.6874 83.3587 93.7206 83.3672C93.8062 83.3884 93.8966 83.378 93.9752 83.338C94.0538 83.298 94.1153 83.231 94.1484 83.1493C94.1815 83.0676 94.1839 82.9767 94.1553 82.8934C94.1267 82.81 94.0689 82.7398 93.9926 82.6956Z" fill="#292A2E"/>
<path d="M115.288 91.0314C114.543 90.8155 113.807 90.6007 113.078 90.387C113.032 90.3725 112.984 90.3674 112.935 90.372C112.887 90.3767 112.841 90.3909 112.798 90.414C112.756 90.4371 112.718 90.4685 112.688 90.5063C112.658 90.5441 112.636 90.5876 112.623 90.6342C112.596 90.7273 112.607 90.8274 112.653 90.9126C112.699 90.9978 112.778 91.0611 112.871 91.0886C113.6 91.3034 114.338 91.5185 115.085 91.7341L115.098 91.7376C115.191 91.7597 115.289 91.7447 115.371 91.696C115.452 91.6472 115.512 91.5684 115.537 91.4764C115.561 91.3844 115.549 91.2864 115.503 91.2033C115.456 91.1202 115.379 91.0585 115.287 91.0314H115.288Z" fill="#292A2E"/>
<path d="M89.1949 79.5944C88.5735 79.1451 87.9624 78.6807 87.3756 78.2131C87.2997 78.1526 87.2029 78.1247 87.1064 78.1356C87.0099 78.1465 86.9217 78.1951 86.8611 78.271C86.8006 78.3468 86.7727 78.4435 86.7836 78.5399C86.7944 78.6363 86.8432 78.7244 86.9191 78.7849C87.5148 79.2595 88.1348 79.7309 88.765 80.1867C88.803 80.2141 88.8458 80.234 88.8912 80.2455C88.9737 80.266 89.0608 80.2571 89.1375 80.2205C89.2141 80.184 89.2757 80.1219 89.3116 80.0449C89.3475 79.9679 89.3555 79.8809 89.3342 79.7987C89.3129 79.7165 89.2636 79.6443 89.1949 79.5944Z" fill="#292A2E"/>
<path d="M104.347 87.5519C103.633 87.282 102.915 86.9995 102.215 86.7113C102.171 86.6931 102.123 86.6837 102.075 86.6838C102.027 86.684 101.98 86.6935 101.935 86.712C101.891 86.7305 101.85 86.7576 101.817 86.7916C101.783 86.8257 101.756 86.866 101.737 86.9105C101.719 86.9549 101.71 87.0025 101.71 87.0505C101.71 87.0985 101.72 87.1461 101.738 87.1904C101.757 87.2347 101.784 87.2749 101.818 87.3088C101.852 87.3427 101.892 87.3695 101.937 87.3878C102.644 87.6784 103.369 87.9639 104.088 88.2359C104.101 88.241 104.115 88.2453 104.129 88.2486C104.22 88.271 104.315 88.2581 104.397 88.2124C104.478 88.1667 104.539 88.0917 104.567 88.0028C104.595 87.9138 104.587 87.8176 104.547 87.7338C104.506 87.65 104.434 87.5849 104.347 87.5519Z" fill="#292A2E"/>
<path d="M84.7801 75.9833C84.2195 75.4631 83.6724 74.9264 83.151 74.388C83.1176 74.3535 83.0778 74.3259 83.0337 74.3067C82.9896 74.2875 82.9421 74.2773 82.894 74.2764C82.846 74.2756 82.7982 74.2842 82.7535 74.3018C82.7087 74.3194 82.6679 74.3456 82.6333 74.379C82.5987 74.4124 82.571 74.4522 82.5519 74.4962C82.5327 74.5403 82.5224 74.5877 82.5215 74.6357C82.5207 74.6837 82.5293 74.7314 82.547 74.7761C82.5646 74.8208 82.5908 74.8616 82.6242 74.8961C83.1535 75.4439 83.7113 75.9901 84.2816 76.5192C84.3169 76.5519 84.3582 76.5773 84.4033 76.5941C84.4483 76.6108 84.4963 76.6185 84.5443 76.6167C84.5924 76.615 84.6396 76.6038 84.6833 76.5838C84.7271 76.5638 84.7664 76.5354 84.7991 76.5002C84.8319 76.465 84.8573 76.4237 84.8741 76.3787C84.8908 76.3337 84.8985 76.2858 84.8968 76.2378C84.895 76.1898 84.8838 76.1426 84.8638 76.099C84.8437 76.0553 84.8153 76.016 84.7801 75.9833Z" fill="#292A2E"/>
<path d="M84.7576 31.1185C85.3033 30.6025 85.8749 30.0896 86.456 29.5942C86.4926 29.563 86.5227 29.5249 86.5445 29.4821C86.5664 29.4393 86.5796 29.3927 86.5834 29.3448C86.5871 29.2969 86.5815 29.2487 86.5666 29.203C86.5518 29.1574 86.5281 29.115 86.4968 29.0785C86.4656 29.042 86.4275 29.0119 86.3847 28.9901C86.3418 28.9683 86.2951 28.9551 86.2471 28.9513C86.1992 28.9475 86.151 28.9532 86.1053 28.9681C86.0595 28.9829 86.0171 29.0066 85.9806 29.0378C85.39 29.5413 84.8092 30.0631 84.254 30.5874C84.2191 30.6205 84.191 30.66 84.1714 30.7039C84.1518 30.7477 84.1411 30.795 84.1398 30.843C84.1385 30.891 84.1467 30.9388 84.1638 30.9837C84.181 31.0285 84.2069 31.0696 84.24 31.1044C84.273 31.1393 84.3126 31.1673 84.3565 31.1869C84.4005 31.2065 84.4478 31.2172 84.4959 31.2185C84.5439 31.2198 84.5918 31.2117 84.6367 31.1945C84.6816 31.1773 84.7227 31.1515 84.7576 31.1185Z" fill="#292A2E"/>
<path d="M74.9852 45.4561C74.9938 45.4591 75.0025 45.4615 75.0122 45.4637C75.1018 45.486 75.1966 45.4736 75.2775 45.429C75.3584 45.3844 75.4194 45.3109 75.4482 45.2233C75.6824 44.5139 75.9499 43.798 76.2436 43.0959C76.281 43.0064 76.2814 42.9057 76.2446 42.816C76.2077 42.7263 76.1367 42.6549 76.0472 42.6174C75.9576 42.58 75.8568 42.5797 75.767 42.6164C75.6772 42.6532 75.6056 42.7242 75.5682 42.8136C75.2672 43.5333 74.993 44.267 74.7528 44.9944C74.7224 45.0864 74.7298 45.1867 74.7734 45.2733C74.8169 45.3599 74.8931 45.4256 74.9852 45.4561Z" fill="#292A2E"/>
<path d="M74.232 50.7536C74.3149 50.0102 74.4317 49.2568 74.5789 48.514C74.5882 48.4669 74.5882 48.4184 74.5788 48.3713C74.5694 48.3242 74.5508 48.2794 74.524 48.2395C74.4973 48.1996 74.4629 48.1653 74.4229 48.1386C74.3829 48.112 74.3381 48.0935 74.2909 48.0841C74.2437 48.0748 74.1952 48.0748 74.148 48.0842C74.1009 48.0936 74.056 48.1122 74.0161 48.1389C73.9761 48.1656 73.9418 48.1999 73.9151 48.2399C73.8884 48.2798 73.8699 48.3247 73.8605 48.3718C73.7093 49.1354 73.5904 49.9098 73.5042 50.6732C73.4944 50.7611 73.5168 50.8496 73.5673 50.9222C73.6177 50.9949 73.6928 51.0469 73.7787 51.0685C73.7947 51.0726 73.8111 51.0755 73.8276 51.0772C73.8754 51.0825 73.9238 51.0784 73.9701 51.065C74.0163 51.0516 74.0595 51.0293 74.097 50.9992C74.1346 50.9692 74.1659 50.932 74.189 50.8899C74.2122 50.8477 74.2268 50.8014 74.232 50.7536Z" fill="#292A2E"/>
<path d="M78.7961 37.574C78.7146 37.5214 78.6155 37.5032 78.5206 37.5234C78.4257 37.5437 78.3427 37.6007 78.2898 37.6819C77.8654 38.3368 77.4623 39.0071 77.0917 39.6749C77.0447 39.7598 77.0333 39.8599 77.0601 39.9531C77.0869 40.0464 77.1497 40.1252 77.2346 40.1722C77.2626 40.1876 77.2925 40.1993 77.3235 40.2073C77.4017 40.2267 77.4842 40.2198 77.5582 40.1877C77.6321 40.1556 77.6934 40.0999 77.7325 40.0295C78.0947 39.3762 78.4889 38.7203 78.9041 38.0794C78.9568 37.998 78.975 37.8991 78.9547 37.8044C78.9344 37.7096 78.8774 37.6268 78.7961 37.574Z" fill="#292A2E"/>
<path d="M74.0742 54.1487C74.0705 54.053 74.0294 53.9626 73.9597 53.8968C73.89 53.831 73.7972 53.7952 73.7014 53.7969C73.6055 53.7987 73.5141 53.8379 73.4469 53.9062C73.3797 53.9745 73.3419 54.0664 73.3418 54.1622C73.3561 54.935 73.405 55.7176 73.4866 56.4885C73.4917 56.5362 73.5061 56.5825 73.529 56.6247C73.552 56.6669 73.5831 56.7041 73.6204 56.7343C73.6578 56.7645 73.7008 56.7871 73.7469 56.8007C73.793 56.8143 73.8413 56.8187 73.8891 56.8136C73.9369 56.8086 73.9833 56.7942 74.0255 56.7712C74.0677 56.7483 74.105 56.7173 74.1353 56.68C74.1655 56.6426 74.1881 56.5997 74.2017 56.5537C74.2153 56.5076 74.2197 56.4593 74.2147 56.4116C74.1355 55.6617 74.088 54.9005 74.0742 54.1487Z" fill="#292A2E"/>
<path d="M80.3849 35.3676C80.4255 35.4002 80.4727 35.4236 80.5232 35.4362C80.5915 35.4532 80.6633 35.4502 80.7299 35.4276C80.7965 35.405 80.8552 35.3636 80.899 35.3085C81.3639 34.7238 81.8586 34.1377 82.3697 33.567C82.4314 33.4943 82.4622 33.4003 82.4556 33.3052C82.449 33.2101 82.4055 33.1213 82.3344 33.0577C82.2632 32.9942 82.17 32.9609 82.0746 32.9649C81.9793 32.969 81.8892 33.0101 81.8237 33.0794C81.3031 33.6609 80.799 34.2578 80.3254 34.8541C80.2955 34.8917 80.2733 34.9348 80.2601 34.981C80.2469 35.0272 80.243 35.0755 80.2485 35.1232C80.254 35.1709 80.2689 35.217 80.2923 35.259C80.3157 35.3009 80.3472 35.3378 80.3849 35.3676Z" fill="#292A2E"/>
<path d="M76.6593 65.109C76.6184 65.021 76.5442 64.9529 76.453 64.9195C76.3618 64.8862 76.2611 64.8904 76.173 64.9312C76.0849 64.972 76.0166 65.0461 75.9833 65.1372C75.9499 65.2283 75.9541 65.3289 75.995 65.4169C76.3175 66.1101 76.6741 66.8066 77.055 67.4876C77.1037 67.5699 77.1827 67.6299 77.275 67.6548C77.3674 67.6797 77.4659 67.6675 77.5493 67.6208C77.6328 67.5742 77.6947 67.4967 77.7218 67.4051C77.7489 67.3134 77.739 67.2148 77.6942 67.1304C77.3222 66.4658 76.9753 65.7863 76.6593 65.109Z" fill="#292A2E"/>
<path d="M91.1127 25.6462C91.0586 25.5657 90.9746 25.51 90.8793 25.4913C90.784 25.4725 90.6852 25.4924 90.6045 25.5464C89.9586 25.9781 89.3205 26.4272 88.7075 26.8783C88.6688 26.9068 88.6361 26.9426 88.6113 26.9838C88.5864 27.0249 88.5699 27.0705 88.5627 27.118C88.5555 27.1654 88.5578 27.2139 88.5693 27.2605C88.5808 27.3071 88.6015 27.351 88.63 27.3897C88.6585 27.4283 88.6944 27.461 88.7355 27.4858C88.7767 27.5106 88.8224 27.5271 88.8699 27.5343C88.9174 27.5415 88.9659 27.5392 89.0126 27.5277C89.0593 27.5162 89.1032 27.4956 89.1419 27.4671C89.7463 27.0224 90.3757 26.5804 91.0125 26.1535C91.0931 26.0995 91.149 26.0158 91.1678 25.9206C91.1866 25.8255 91.1668 25.7268 91.1127 25.6462Z" fill="#292A2E"/>
<path d="M80.8864 71.829C80.4072 71.2354 79.9455 70.6245 79.5146 70.0136C79.4874 69.973 79.4524 69.9383 79.4116 69.9114C79.3708 69.8846 79.325 69.8661 79.277 69.8572C79.229 69.8483 79.1796 69.8491 79.1319 69.8595C79.0841 69.8699 79.039 69.8898 78.999 69.9179C78.9591 69.946 78.9252 69.9818 78.8993 70.0232C78.8734 70.0646 78.8561 70.1108 78.8484 70.159C78.8406 70.2072 78.8426 70.2564 78.8542 70.3039C78.8658 70.3513 78.8868 70.3959 78.9159 70.4351C79.3557 71.0587 79.8269 71.6823 80.3167 72.2886C80.3463 72.3275 80.3834 72.3602 80.4259 72.3845C80.4683 72.4089 80.5153 72.4245 80.5639 72.4304C80.6125 72.4364 80.6618 72.4325 80.7089 72.419C80.756 72.4056 80.7999 72.3829 80.838 72.3522C80.8761 72.3215 80.9077 72.2834 80.9308 72.2403C80.954 72.1972 80.9682 72.1499 80.9728 72.1012C80.9773 72.0525 80.972 72.0034 80.9571 71.9568C80.9423 71.9102 80.9183 71.867 80.8864 71.8298V71.829Z" fill="#292A2E"/>
<path d="M74.7897 59.7622C74.7672 59.6678 74.7081 59.5863 74.6254 59.5354C74.5427 59.4846 74.4432 59.4687 74.3487 59.4912C74.2542 59.5136 74.1726 59.5727 74.1217 59.6553C74.0708 59.7379 74.0548 59.8373 74.0773 59.9317C74.2559 60.6807 74.4691 61.4344 74.7109 62.1713C74.7411 62.2635 74.8068 62.3399 74.8934 62.3837C74.98 62.4275 75.0805 62.4352 75.1728 62.405C75.2651 62.3748 75.3416 62.3092 75.3855 62.2227C75.4293 62.1361 75.437 62.0357 75.4068 61.9436C75.1712 61.2261 74.9637 60.4916 74.7897 59.7622Z" fill="#292A2E"/>
<path d="M96.0689 22.7263C96.0231 22.6407 95.9453 22.5768 95.8523 22.5486C95.7594 22.5203 95.6591 22.5301 95.5734 22.5757C94.8902 22.9397 94.2094 23.3194 93.5505 23.7039C93.509 23.7281 93.4727 23.7603 93.4436 23.7986C93.4145 23.8368 93.3933 23.8804 93.3811 23.9269C93.3689 23.9733 93.366 24.0217 93.3725 24.0693C93.3791 24.1169 93.3949 24.1627 93.4192 24.2042C93.4435 24.2456 93.4757 24.2819 93.514 24.3109C93.5523 24.34 93.5959 24.3612 93.6424 24.3734C93.6889 24.3855 93.7374 24.3884 93.785 24.3819C93.8327 24.3754 93.8785 24.3596 93.9201 24.3353C94.5709 23.9557 95.2438 23.5798 95.9192 23.2212C96.0047 23.1753 96.0685 23.0974 96.0965 23.0046C96.1246 22.9119 96.1146 22.8118 96.0689 22.7263Z" fill="#292A2E"/>
<path d="M99.7703 20.5327C99.4133 20.6914 99.0596 20.852 98.7091 21.0147C98.6655 21.0349 98.6263 21.0635 98.5937 21.0988C98.5612 21.1342 98.5359 21.1756 98.5194 21.2207C98.5029 21.2658 98.4954 21.3137 98.4974 21.3617C98.4994 21.4097 98.5108 21.4568 98.5311 21.5004C98.5513 21.5439 98.58 21.5831 98.6154 21.6156C98.6507 21.6481 98.6922 21.6734 98.7374 21.6899C98.7825 21.7064 98.8305 21.7139 98.8785 21.7119C98.9266 21.7098 98.9737 21.6984 99.0174 21.6782C99.3646 21.5163 99.7148 21.3573 100.068 21.2011C100.153 21.1596 100.219 21.0866 100.252 20.9976C100.284 20.9085 100.281 20.8104 100.242 20.7237C100.204 20.6371 100.133 20.5688 100.045 20.5332C99.9572 20.4976 99.8589 20.4974 99.7708 20.5327H99.7703Z" fill="#292A2E"/>
<path d="M261.634 212.89C260.913 213.03 260.511 213.093 260.507 213.093C260.459 213.101 260.414 213.117 260.373 213.142C260.332 213.167 260.296 213.2 260.268 213.239C260.21 213.317 260.187 213.415 260.202 213.511C260.217 213.607 260.269 213.693 260.348 213.75C260.426 213.807 260.524 213.831 260.62 213.816C260.637 213.814 261.038 213.751 261.773 213.608C261.821 213.599 261.867 213.581 261.907 213.555C261.948 213.529 261.983 213.495 262.01 213.455C262.038 213.415 262.057 213.37 262.067 213.322C262.076 213.275 262.077 213.226 262.068 213.178C262.058 213.131 262.04 213.086 262.013 213.045C261.986 213.005 261.951 212.971 261.911 212.944C261.871 212.917 261.825 212.898 261.778 212.889C261.73 212.88 261.681 212.88 261.634 212.89Z" fill="#292A2E"/>
<path d="M316.548 162.567C316.486 163.325 316.406 164.089 316.31 164.838C316.298 164.927 316.32 165.016 316.37 165.09C316.421 165.164 316.497 165.217 316.584 165.239C316.598 165.243 316.612 165.245 316.626 165.247C316.674 165.253 316.722 165.25 316.769 165.237C316.815 165.224 316.859 165.203 316.897 165.173C316.935 165.144 316.967 165.108 316.991 165.066C317.015 165.024 317.03 164.978 317.036 164.931C317.133 164.171 317.215 163.396 317.279 162.627C317.283 162.533 317.25 162.441 317.187 162.371C317.125 162.3 317.037 162.257 316.943 162.249C316.849 162.241 316.756 162.27 316.683 162.329C316.609 162.388 316.562 162.473 316.55 162.567H316.548Z" fill="#292A2E"/>
<path d="M316.723 159.145C316.721 159.228 316.747 159.309 316.798 159.374C316.848 159.44 316.919 159.487 316.999 159.507C317.026 159.513 317.053 159.517 317.08 159.518C317.129 159.519 317.176 159.51 317.221 159.493C317.266 159.475 317.307 159.449 317.341 159.416C317.376 159.382 317.404 159.342 317.423 159.298C317.442 159.254 317.453 159.207 317.454 159.159C317.468 158.4 317.468 157.621 317.452 156.845C317.45 156.748 317.409 156.656 317.339 156.588C317.269 156.521 317.176 156.485 317.078 156.487C316.981 156.489 316.889 156.529 316.822 156.599C316.755 156.669 316.718 156.763 316.72 156.86C316.737 157.626 316.737 158.394 316.723 159.145Z" fill="#292A2E"/>
<path d="M316.141 148.055C316.2 148.069 316.262 148.069 316.321 148.054C316.379 148.039 316.434 148.01 316.478 147.969C316.523 147.928 316.556 147.877 316.576 147.819C316.596 147.762 316.601 147.701 316.592 147.641C316.469 146.887 316.332 146.121 316.184 145.366C316.165 145.272 316.109 145.189 316.029 145.136C315.949 145.082 315.851 145.063 315.756 145.081C315.662 145.1 315.578 145.154 315.524 145.234C315.47 145.313 315.449 145.411 315.466 145.505C315.611 146.253 315.747 147.012 315.869 147.759C315.88 147.829 315.912 147.895 315.961 147.948C316.009 148 316.072 148.037 316.141 148.055Z" fill="#292A2E"/>
<path d="M302.737 192.833C302.703 192.798 302.663 192.771 302.619 192.752C302.575 192.733 302.527 192.723 302.479 192.723C302.431 192.722 302.383 192.732 302.339 192.75C302.294 192.768 302.254 192.794 302.219 192.828C301.679 193.358 301.118 193.886 300.555 194.396C300.483 194.461 300.44 194.552 300.435 194.649C300.43 194.746 300.464 194.841 300.529 194.913C300.595 194.985 300.686 195.028 300.783 195.033C300.88 195.037 300.975 195.003 301.047 194.938C301.617 194.422 302.184 193.887 302.732 193.35C302.767 193.316 302.794 193.276 302.813 193.232C302.832 193.188 302.841 193.14 302.842 193.092C302.842 193.044 302.833 192.997 302.815 192.952C302.797 192.908 302.771 192.867 302.737 192.833Z" fill="#292A2E"/>
<path d="M293.334 200.015C292.705 200.436 292.058 200.856 291.41 201.261C291.328 201.312 291.269 201.394 291.248 201.489C291.226 201.583 291.243 201.683 291.294 201.765C291.346 201.847 291.428 201.906 291.523 201.928C291.617 201.949 291.717 201.933 291.799 201.881C292.453 201.472 293.107 201.048 293.742 200.622C293.782 200.596 293.816 200.561 293.843 200.521C293.869 200.481 293.888 200.436 293.897 200.389C293.906 200.342 293.906 200.294 293.897 200.247C293.887 200.2 293.868 200.155 293.842 200.115C293.815 200.075 293.78 200.041 293.74 200.014C293.7 199.988 293.655 199.969 293.608 199.96C293.561 199.951 293.513 199.951 293.465 199.96C293.418 199.97 293.373 199.988 293.334 200.015V200.015Z" fill="#292A2E"/>
<path d="M314.736 142.15C314.746 142.198 314.766 142.243 314.794 142.283C314.822 142.323 314.858 142.357 314.899 142.383C314.94 142.409 314.986 142.427 315.035 142.435C315.083 142.443 315.132 142.441 315.18 142.43C315.227 142.418 315.272 142.397 315.311 142.369C315.351 142.34 315.384 142.303 315.409 142.261C315.434 142.219 315.45 142.173 315.457 142.125C315.464 142.076 315.461 142.027 315.449 141.98C315.271 141.24 315.08 140.486 314.881 139.74C314.856 139.647 314.794 139.568 314.711 139.52C314.627 139.471 314.527 139.458 314.434 139.483C314.34 139.508 314.26 139.569 314.212 139.653C314.163 139.736 314.15 139.836 314.174 139.929C314.371 140.668 314.56 141.415 314.736 142.15Z" fill="#292A2E"/>
<path d="M310.12 129.223C310.093 129.183 310.059 129.149 310.019 129.123C309.979 129.096 309.934 129.078 309.887 129.068C309.84 129.059 309.791 129.059 309.744 129.069C309.697 129.078 309.652 129.097 309.612 129.124C309.572 129.15 309.538 129.185 309.511 129.225C309.485 129.265 309.466 129.31 309.457 129.357C309.448 129.404 309.448 129.452 309.457 129.5C309.467 129.547 309.486 129.591 309.512 129.631C309.938 130.265 310.345 130.913 310.721 131.557C310.744 131.6 310.776 131.637 310.815 131.667C310.853 131.697 310.897 131.719 310.944 131.732C310.991 131.745 311.04 131.749 311.088 131.742C311.137 131.736 311.183 131.72 311.225 131.696C311.267 131.671 311.304 131.639 311.333 131.6C311.363 131.561 311.384 131.516 311.396 131.469C311.408 131.422 311.41 131.373 311.403 131.325C311.396 131.277 311.379 131.231 311.353 131.189C310.97 130.531 310.555 129.87 310.12 129.223Z" fill="#292A2E"/>
<path d="M298.46 196.679C298.399 196.604 298.31 196.556 298.213 196.546C298.117 196.536 298.02 196.564 297.945 196.625C297.359 197.098 296.75 197.57 296.137 198.028C296.062 198.088 296.013 198.174 296.001 198.268C295.989 198.363 296.014 198.458 296.071 198.535C296.128 198.611 296.213 198.662 296.307 198.677C296.402 198.692 296.498 198.669 296.576 198.614C297.197 198.15 297.812 197.672 298.405 197.194C298.442 197.164 298.473 197.126 298.496 197.084C298.519 197.042 298.534 196.996 298.539 196.948C298.544 196.9 298.54 196.852 298.526 196.806C298.513 196.76 298.49 196.717 298.46 196.679Z" fill="#292A2E"/>
<path d="M312.951 134.275C312.911 134.187 312.838 134.118 312.747 134.084C312.656 134.05 312.555 134.053 312.467 134.093C312.378 134.133 312.309 134.207 312.275 134.298C312.241 134.388 312.245 134.489 312.285 134.577C312.598 135.267 312.89 135.974 313.152 136.679C313.188 136.767 313.257 136.838 313.344 136.877C313.432 136.915 313.53 136.918 313.62 136.885C313.709 136.852 313.782 136.785 313.823 136.699C313.864 136.612 313.87 136.514 313.839 136.424C313.571 135.703 313.272 134.98 312.951 134.275Z" fill="#292A2E"/>
<path d="M314.772 173.498C314.726 173.483 314.678 173.477 314.63 173.481C314.582 173.484 314.535 173.497 314.492 173.519C314.449 173.54 314.411 173.57 314.38 173.607C314.348 173.643 314.325 173.685 314.309 173.731C314.071 174.451 313.813 175.174 313.541 175.877C313.506 175.968 313.509 176.068 313.548 176.157C313.587 176.246 313.66 176.315 313.751 176.35C313.765 176.355 313.78 176.36 313.794 176.364C313.881 176.385 313.972 176.374 314.052 176.333C314.131 176.292 314.192 176.224 314.224 176.141C314.501 175.426 314.763 174.692 315.005 173.96C315.02 173.914 315.026 173.866 315.022 173.818C315.019 173.77 315.006 173.723 314.984 173.68C314.962 173.638 314.932 173.599 314.896 173.568C314.86 173.537 314.817 173.513 314.772 173.498Z" fill="#292A2E"/>
<path d="M316.478 168.36C316.488 168.313 316.489 168.264 316.48 168.216C316.471 168.169 316.453 168.123 316.426 168.083C316.399 168.043 316.364 168.009 316.324 167.982C316.283 167.956 316.238 167.938 316.19 167.93C316.095 167.911 315.996 167.931 315.915 167.985C315.835 168.038 315.779 168.122 315.76 168.217C315.611 168.964 315.443 169.713 315.26 170.444C315.248 170.491 315.245 170.54 315.251 170.588C315.258 170.636 315.274 170.683 315.299 170.724C315.323 170.766 315.356 170.803 315.395 170.832C315.434 170.861 315.478 170.882 315.525 170.893C315.573 170.905 315.622 170.907 315.67 170.9C315.718 170.893 315.764 170.876 315.805 170.851C315.847 170.825 315.883 170.792 315.911 170.753C315.939 170.713 315.96 170.668 315.971 170.621C316.156 169.879 316.327 169.118 316.478 168.36Z" fill="#292A2E"/>
<path d="M312.678 178.844C312.635 178.824 312.588 178.812 312.54 178.809C312.492 178.807 312.444 178.814 312.398 178.83C312.353 178.846 312.311 178.871 312.276 178.903C312.24 178.935 312.211 178.974 312.19 179.017C311.866 179.699 311.519 180.383 311.159 181.051C311.136 181.093 311.122 181.14 311.117 181.188C311.112 181.235 311.117 181.284 311.131 181.33C311.145 181.376 311.167 181.419 311.198 181.456C311.228 181.493 311.265 181.524 311.308 181.547C311.35 181.569 311.397 181.584 311.444 181.588C311.492 181.593 311.541 181.589 311.587 181.575C311.633 181.561 311.676 181.538 311.713 181.508C311.75 181.478 311.781 181.44 311.804 181.398C312.17 180.719 312.522 180.024 312.852 179.332C312.894 179.244 312.899 179.143 312.866 179.052C312.834 178.961 312.766 178.886 312.678 178.844Z" fill="#292A2E"/>
<path d="M316.829 153.762C316.885 153.775 316.944 153.776 317 153.763C317.056 153.749 317.109 153.723 317.153 153.686C317.197 153.648 317.232 153.601 317.255 153.548C317.277 153.494 317.287 153.436 317.282 153.379C317.224 152.621 317.151 151.846 317.064 151.076C317.052 150.981 317.003 150.894 316.927 150.835C316.852 150.776 316.756 150.748 316.66 150.759C316.565 150.77 316.478 150.817 316.417 150.892C316.356 150.966 316.327 151.062 316.337 151.157C316.422 151.919 316.495 152.685 316.553 153.434C316.558 153.51 316.588 153.583 316.638 153.642C316.687 153.701 316.754 153.743 316.829 153.762Z" fill="#292A2E"/>
<path d="M306.589 188.564C306.552 188.534 306.509 188.511 306.463 188.497C306.417 188.483 306.369 188.479 306.321 188.484C306.273 188.488 306.227 188.502 306.185 188.525C306.142 188.548 306.105 188.579 306.074 188.616C305.596 189.2 305.096 189.784 304.588 190.35C304.556 190.386 304.532 190.428 304.516 190.473C304.5 190.519 304.493 190.567 304.496 190.615C304.498 190.663 304.51 190.709 304.531 190.753C304.552 190.796 304.581 190.835 304.617 190.867C304.653 190.899 304.695 190.924 304.74 190.939C304.785 190.955 304.834 190.962 304.882 190.96C304.93 190.957 304.977 190.945 305.02 190.924C305.063 190.903 305.102 190.874 305.134 190.838C305.649 190.263 306.156 189.672 306.642 189.079C306.672 189.042 306.695 188.999 306.709 188.953C306.723 188.907 306.727 188.859 306.722 188.811C306.718 188.763 306.703 188.717 306.68 188.674C306.658 188.632 306.627 188.595 306.589 188.564Z" fill="#292A2E"/>
<path d="M309.93 183.889C309.889 183.863 309.844 183.845 309.797 183.837C309.749 183.828 309.701 183.829 309.654 183.84C309.607 183.85 309.562 183.87 309.523 183.897C309.483 183.925 309.45 183.96 309.424 184.001C309.019 184.635 308.591 185.272 308.15 185.893C308.121 185.933 308.101 185.977 308.089 186.024C308.078 186.072 308.076 186.121 308.084 186.168C308.092 186.216 308.109 186.262 308.135 186.304C308.16 186.345 308.194 186.38 308.234 186.408C308.273 186.437 308.318 186.456 308.366 186.467C308.413 186.478 308.462 186.479 308.51 186.47C308.558 186.461 308.604 186.443 308.645 186.417C308.685 186.391 308.72 186.356 308.748 186.316C309.195 185.685 309.631 185.038 310.042 184.394C310.094 184.312 310.111 184.213 310.09 184.118C310.07 184.023 310.012 183.941 309.93 183.889Z" fill="#292A2E"/>
<path d="M267.218 211.583C266.474 211.783 265.725 211.975 264.992 212.153C264.945 212.164 264.901 212.185 264.862 212.213C264.823 212.241 264.79 212.277 264.765 212.318C264.74 212.359 264.724 212.405 264.716 212.452C264.709 212.499 264.711 212.548 264.722 212.595C264.734 212.641 264.754 212.685 264.782 212.724C264.811 212.763 264.847 212.796 264.888 212.821C264.929 212.846 264.974 212.862 265.022 212.87C265.069 212.877 265.118 212.875 265.165 212.864C265.904 212.684 266.659 212.491 267.409 212.289C267.455 212.277 267.499 212.255 267.537 212.226C267.575 212.197 267.607 212.16 267.631 212.119C267.655 212.077 267.67 212.031 267.677 211.983C267.683 211.936 267.68 211.887 267.667 211.841C267.655 211.795 267.633 211.751 267.604 211.713C267.574 211.675 267.538 211.643 267.496 211.619C267.454 211.595 267.408 211.58 267.361 211.574C267.313 211.567 267.265 211.571 267.218 211.583Z" fill="#292A2E"/>
<path d="M294.701 115.743C294.786 115.764 294.874 115.755 294.952 115.716C295.03 115.678 295.091 115.613 295.126 115.534C295.16 115.455 295.166 115.366 295.141 115.283C295.116 115.2 295.062 115.128 294.989 115.081C294.352 114.669 293.693 114.256 293.029 113.853C292.946 113.803 292.846 113.787 292.752 113.81C292.658 113.833 292.576 113.893 292.526 113.976C292.475 114.059 292.46 114.158 292.483 114.253C292.506 114.347 292.566 114.428 292.649 114.478C293.307 114.878 293.96 115.288 294.591 115.695C294.625 115.717 294.662 115.733 294.701 115.743Z" fill="#292A2E"/>
<path d="M272.716 209.927C271.995 210.168 271.259 210.403 270.528 210.629C270.482 210.643 270.439 210.666 270.402 210.697C270.365 210.728 270.334 210.765 270.312 210.808C270.289 210.85 270.276 210.897 270.271 210.944C270.267 210.992 270.272 211.04 270.286 211.086C270.3 211.132 270.323 211.175 270.354 211.212C270.385 211.249 270.422 211.279 270.465 211.302C270.507 211.324 270.554 211.338 270.602 211.343C270.65 211.347 270.698 211.342 270.744 211.328C271.481 211.101 272.222 210.864 272.948 210.622C273.04 210.591 273.116 210.525 273.16 210.439C273.203 210.352 273.21 210.251 273.179 210.159C273.149 210.067 273.083 209.991 272.996 209.948C272.909 209.905 272.808 209.898 272.716 209.928L272.716 209.927Z" fill="#292A2E"/>
<path d="M283.364 205.656C282.678 205.982 281.977 206.305 281.279 206.615C281.194 206.656 281.128 206.729 281.095 206.818C281.063 206.907 281.066 207.005 281.105 207.092C281.143 207.179 281.214 207.247 281.302 207.283C281.39 207.318 281.488 207.318 281.576 207.283C282.279 206.97 282.987 206.645 283.678 206.316C283.766 206.274 283.833 206.199 283.866 206.108C283.898 206.017 283.893 205.916 283.851 205.829C283.81 205.741 283.735 205.674 283.643 205.641C283.552 205.609 283.451 205.614 283.364 205.656H283.364Z" fill="#292A2E"/>
<path d="M288.454 203.017C287.796 203.388 287.119 203.758 286.441 204.115C286.355 204.16 286.29 204.238 286.262 204.33C286.233 204.423 286.242 204.523 286.287 204.609C286.333 204.695 286.41 204.76 286.503 204.788C286.596 204.817 286.696 204.808 286.782 204.763C287.467 204.402 288.15 204.029 288.814 203.655C288.899 203.607 288.961 203.528 288.987 203.434C289.013 203.341 289.001 203.241 288.953 203.156C288.905 203.072 288.826 203.01 288.732 202.984C288.639 202.958 288.538 202.97 288.454 203.018V203.017Z" fill="#292A2E"/>
<path d="M307.677 127.012C307.751 127.031 307.83 127.026 307.901 126.997C307.972 126.969 308.033 126.919 308.074 126.854C308.116 126.79 308.136 126.714 308.131 126.637C308.127 126.561 308.099 126.487 308.05 126.428C307.573 125.838 307.065 125.245 306.542 124.666C306.476 124.597 306.386 124.557 306.29 124.553C306.195 124.55 306.102 124.583 306.031 124.647C305.96 124.711 305.917 124.8 305.911 124.895C305.905 124.99 305.936 125.084 305.998 125.157C306.513 125.726 307.012 126.308 307.481 126.887C307.531 126.949 307.6 126.993 307.677 127.012Z" fill="#292A2E"/>
<path d="M278.106 207.953C277.406 208.234 276.685 208.512 275.964 208.781C275.875 208.817 275.804 208.885 275.766 208.973C275.727 209.06 275.724 209.159 275.757 209.248C275.791 209.338 275.858 209.411 275.944 209.451C276.031 209.492 276.13 209.498 276.22 209.466C276.947 209.197 277.673 208.915 278.378 208.632C278.424 208.615 278.466 208.589 278.502 208.556C278.537 208.522 278.566 208.482 278.586 208.437C278.605 208.392 278.616 208.344 278.617 208.296C278.618 208.247 278.609 208.198 278.59 208.153C278.572 208.108 278.545 208.066 278.511 208.032C278.476 207.997 278.435 207.97 278.39 207.951C278.345 207.932 278.296 207.923 278.248 207.923C278.199 207.924 278.15 207.934 278.106 207.953Z" fill="#292A2E"/>
<path d="M303.773 122.798C303.852 122.818 303.935 122.812 304.009 122.779C304.084 122.747 304.145 122.691 304.185 122.62C304.224 122.549 304.238 122.467 304.226 122.387C304.213 122.307 304.174 122.233 304.115 122.178C303.568 121.656 302.992 121.131 302.403 120.617C302.33 120.553 302.234 120.521 302.137 120.527C302.04 120.534 301.95 120.579 301.886 120.652C301.822 120.725 301.79 120.82 301.797 120.917C301.803 121.014 301.848 121.104 301.921 121.168C302.502 121.674 303.07 122.192 303.609 122.706C303.655 122.75 303.711 122.782 303.773 122.798Z" fill="#292A2E"/>
<path d="M299.404 119.06C299.485 119.08 299.571 119.072 299.647 119.036C299.723 119 299.785 118.94 299.822 118.864C299.858 118.789 299.868 118.703 299.849 118.621C299.83 118.54 299.783 118.467 299.717 118.416C299.119 117.953 298.493 117.488 297.859 117.034C297.82 117.003 297.776 116.981 297.728 116.968C297.68 116.955 297.63 116.952 297.581 116.958C297.532 116.965 297.485 116.982 297.443 117.008C297.4 117.033 297.363 117.067 297.334 117.107C297.306 117.147 297.285 117.193 297.274 117.241C297.264 117.29 297.263 117.339 297.272 117.388C297.281 117.437 297.3 117.483 297.327 117.524C297.355 117.565 297.391 117.6 297.432 117.627C298.059 118.077 298.677 118.536 299.269 118.993C299.309 119.024 299.355 119.047 299.404 119.06Z" fill="#292A2E"/>
<path d="M98.3525 11.0926L98.53 22.8877L141.987 0.313965L98.3525 11.0926Z" fill="#0CBC8B"/>
<path opacity="0.2" d="M98.3525 11.0926L98.53 22.8877L141.987 0.313965L98.3525 11.0926Z" fill="#0A0A0A"/>
<path d="M100.608 14.5765L98.5293 22.8878L131.778 4.96631L100.608 14.5765Z" fill="#0CBC8B"/>
<path opacity="0.1" d="M100.608 14.5765L98.5293 22.8878L131.778 4.96631L100.608 14.5765Z" fill="#0A0A0A"/>
<path d="M94.3027 4.71605L141.987 0.314209L108.516 28.912L100.609 14.5767L141.987 0.314209L98.3521 11.0928L94.3027 4.71605Z" fill="#0CBC8B"/>
<path d="M91.4717 96.3222L195.787 162.617L300.103 96.3222L195.751 0L91.4717 96.3222Z" fill="#292A2E"/>
<path d="M279.888 14.0686H111.687V197.684H279.888V14.0686Z" fill="white"/>
<path d="M280.158 197.954H111.416V13.7986H280.158V197.954ZM111.957 197.414H279.618V14.3383H111.956L111.957 197.414Z" fill="#292A2E"/>
<path d="M162.38 30.5344H127.873V65.0012H162.38V30.5344Z" fill="white"/>
<path d="M162.651 65.2709H127.603V30.2642H162.651V65.2709ZM128.143 64.7312H162.11V30.8038H128.143L128.143 64.7312Z" fill="#292A2E"/>
<path d="M264.346 78.511H127.873V79.0507H264.346V78.511Z" fill="#292A2E"/>
<path d="M264.346 91.4414H127.873V91.9811H264.346V91.4414Z" fill="#292A2E"/>
<path d="M264.346 104.372H127.873V104.911H264.346V104.372Z" fill="#292A2E"/>
<path d="M264.346 117.302H127.873V117.842H264.346V117.302Z" fill="#292A2E"/>
<path d="M264.346 130.233H127.873V130.773H264.346V130.233Z" fill="#292A2E"/>
<path d="M264.346 143.164H127.873V143.703H264.346V143.164Z" fill="#292A2E"/>
<path d="M300.103 226.165H91.4717V96.3223L195.787 159.919L300.103 96.3223V226.165Z" fill="#007C6A"/>
<path opacity="0.83" d="M300.103 226.165H91.4717V96.3223L195.787 159.919L300.103 96.3223V226.165Z" fill="white"/>
<path d="M36.0925 220.672L35.5085 224.369C35.4452 224.769 35.2418 225.134 34.9346 225.399C34.6273 225.664 34.2361 225.811 33.8303 225.815L18.9526 225.959C18.7389 225.961 18.5308 225.891 18.3627 225.759C18.1945 225.627 18.0762 225.442 18.0271 225.235C17.978 225.027 18.0012 224.809 18.0927 224.616C18.1843 224.423 18.3388 224.267 18.5308 224.173L27.463 219.827L36.0925 220.672Z" fill="#E98862"/>
<path d="M53.4961 201.829C53.4961 201.829 53.3956 223.636 69.1956 225.655L84.0706 212.057L93.2929 193.684L58.7739 197.489L53.4961 201.829Z" fill="#262626"/>
<path d="M53.0701 200.641L53.0231 200.653C53.0231 200.653 52.8693 199.729 53.0701 200.641Z" fill="#333333"/>
<path d="M112.931 137.48C112.928 137.471 112.918 137.466 112.913 137.458L113.062 137.157C113.166 136.956 113.198 136.725 113.151 136.503C113.105 136.281 112.983 136.082 112.806 135.939C112.693 135.852 112.563 135.791 112.424 135.761C112.285 135.73 112.141 135.731 112.002 135.762C111.863 135.794 111.733 135.856 111.621 135.944C111.509 136.032 111.418 136.144 111.355 136.272L111.01 136.966C111.007 136.963 111.007 136.959 111.003 136.957C110.999 136.954 110.992 136.957 110.987 136.957C111.039 136.745 111.017 136.522 110.925 136.325C110.833 136.128 110.676 135.968 110.481 135.871C109.995 135.588 109.433 135.996 109.212 136.445L107.138 140.444L107.2 139.149C107.217 138.897 107.137 138.648 106.978 138.452C106.818 138.256 106.59 138.128 106.339 138.093C106.209 138.08 106.078 138.093 105.954 138.132C105.829 138.172 105.714 138.236 105.615 138.321C105.516 138.406 105.435 138.51 105.378 138.628C105.32 138.745 105.288 138.873 105.281 139.003L104.944 146.076C104.905 146.906 105.19 147.719 105.741 148.341C106.292 148.964 107.064 149.347 107.893 149.411C108.855 149.484 109.817 149.268 110.655 148.792C111.494 148.316 112.17 147.6 112.599 146.737C112.599 146.737 113.233 137.112 112.931 137.48Z" fill="#E98862"/>
<path d="M106.94 125.841L105.055 126.159C104.335 126.281 103.851 126.962 103.972 127.681L106.659 143.537C106.78 144.256 107.463 144.74 108.182 144.619L110.068 144.3C110.787 144.178 111.272 143.497 111.15 142.778L108.464 126.922C108.342 126.203 107.66 125.719 106.94 125.841Z" fill="#292A2E"/>
<path d="M101.76 119.172L101.184 119.269C97.616 119.872 95.213 123.25 95.8168 126.813C96.4205 130.377 99.8022 132.777 103.37 132.174L103.946 132.077C107.514 131.474 109.917 128.096 109.313 124.532C108.709 120.969 105.328 118.569 101.76 119.172Z" fill="#0CBC8B"/>
<path d="M123.755 126.14L122.526 126.729L121.128 118.478L122.44 118.524C122.548 119.698 122.707 120.934 122.923 122.205C123.157 123.588 123.439 124.91 123.755 126.14Z" fill="#007C6A"/>
<path d="M127.392 121.451C127.667 123.07 127.551 124.442 127.133 124.512C127.084 124.516 127.035 124.508 126.99 124.489C126.944 124.47 126.904 124.441 126.871 124.404C126.505 124.068 126.102 123.004 125.882 121.707C125.678 120.503 125.69 119.437 125.882 118.94C125.948 118.769 126.035 118.665 126.142 118.647C126.557 118.575 127.118 119.831 127.392 121.451Z" fill="#007C6A"/>
<path d="M122.929 122.232C122.927 122.223 122.926 122.214 122.924 122.205C122.033 116.943 122.74 111.242 123.576 109.073C120.304 112.385 115.542 115.763 111.069 117.134C109.265 117.687 107.057 118.191 103.703 118.753L105.918 131.834C109.271 131.264 111.521 131.014 113.408 130.944C118.081 130.768 123.691 132.393 127.871 134.447C126.368 132.672 123.822 127.52 122.931 122.26L122.929 122.232Z" fill="#0CBC8B"/>
<path d="M108.095 117.309L101.155 118.482C100.893 118.526 100.717 118.774 100.761 119.035L103.039 132.482C103.083 132.743 103.331 132.919 103.593 132.875L110.533 131.702C110.795 131.658 110.971 131.41 110.927 131.149L108.649 117.702C108.605 117.44 108.357 117.264 108.095 117.309Z" fill="#292A2E"/>
<path opacity="0.1" d="M108.095 117.309L101.155 118.482C100.893 118.526 100.717 118.774 100.761 119.035L103.039 132.482C103.083 132.743 103.331 132.919 103.593 132.875L110.533 131.702C110.795 131.658 110.971 131.41 110.927 131.149L108.649 117.702C108.605 117.44 108.357 117.264 108.095 117.309Z" fill="white"/>
<path d="M129.524 121.089C130.723 128.165 130.215 134.149 128.393 134.457C128.03 134.519 127.643 134.351 127.248 133.985C127.246 133.985 127.246 133.984 127.244 133.985C125.643 132.518 123.882 127.871 122.921 122.206C122.03 116.945 122.082 112.289 122.917 110.12C123.204 109.372 123.584 108.92 124.052 108.841C125.875 108.531 128.325 114.016 129.524 121.089Z" fill="#0CBC8B"/>
<path opacity="0.3" d="M129.524 121.089C130.723 128.165 130.215 134.149 128.393 134.457C128.03 134.519 127.643 134.351 127.248 133.985C127.246 133.985 127.246 133.984 127.244 133.985C125.643 132.518 123.882 127.871 122.921 122.206C122.03 116.945 122.082 112.289 122.917 110.12C123.204 109.372 123.584 108.92 124.052 108.841C125.875 108.531 128.325 114.016 129.524 121.089Z" fill="#0C0C0C"/>
<path opacity="0.6" d="M126.141 118.653L127.135 124.519L123.756 126.138C123.439 124.908 123.158 123.586 122.923 122.204C122.707 120.932 122.548 119.697 122.44 118.522L126.141 118.653Z" fill="white"/>
<path d="M127.392 121.451C127.667 123.07 127.551 124.442 127.133 124.512C127.084 124.516 127.035 124.508 126.99 124.489C126.944 124.47 126.904 124.441 126.871 124.404C126.505 124.068 126.102 123.004 125.882 121.707C125.678 120.503 125.69 119.437 125.882 118.94C125.948 118.769 126.035 118.665 126.142 118.647C126.557 118.575 127.118 119.831 127.392 121.451Z" fill="white"/>
<path d="M107.549 140.005C107.629 139.824 107.763 139.671 107.933 139.568C108.103 139.466 108.301 139.419 108.499 139.434C108.497 139.422 108.497 139.41 108.501 139.398C108.504 139.387 108.51 139.376 108.519 139.368C108.527 139.359 108.537 139.353 108.549 139.349C108.56 139.345 108.572 139.344 108.584 139.346L107.894 138.908C107.688 138.783 107.534 138.588 107.46 138.359C107.387 138.13 107.399 137.882 107.495 137.661C107.596 137.446 107.774 137.276 107.994 137.184C108.213 137.093 108.459 137.086 108.684 137.165C108.681 137.155 108.687 137.146 108.688 137.136L108.404 136.956C108.211 136.838 108.064 136.656 107.989 136.442C107.914 136.228 107.915 135.995 107.992 135.782C108.043 135.649 108.124 135.529 108.227 135.431C108.33 135.333 108.454 135.259 108.589 135.215C108.724 135.17 108.868 135.156 109.009 135.174C109.15 135.191 109.286 135.24 109.406 135.316L110.06 135.732C110.062 135.728 110.061 135.724 110.062 135.72C110.064 135.716 110.072 135.715 110.075 135.711C109.921 135.556 109.825 135.355 109.801 135.138C109.778 134.922 109.828 134.704 109.945 134.52C110.215 134.027 110.907 134.086 111.33 134.355L112.597 135.304C112.793 135.451 112.949 135.644 113.052 135.865C113.155 136.087 113.201 136.33 113.187 136.574C113.068 138.684 112.623 144.187 111.273 143.33L107.948 141.218C107.754 141.09 107.61 140.901 107.537 140.681C107.465 140.461 107.469 140.223 107.549 140.005Z" fill="#E98862"/>
<path d="M102.392 144.151L97.9853 167.967L86.7215 150.628L78.1162 160.725L96.0634 185.211L96.2158 185.353C97.1398 186.192 98.2626 186.783 99.4783 187.069C100.694 187.355 101.963 187.327 103.165 186.988C104.367 186.649 105.463 186.01 106.349 185.131C107.235 184.252 107.883 183.162 108.231 181.964L115.623 146.27L102.392 144.151Z" fill="#007C6A"/>
<path d="M97.3733 170.309C97.3611 170.309 97.3489 170.308 97.3371 170.304C97.3027 170.295 97.2735 170.272 97.2558 170.241C97.2382 170.21 97.2336 170.173 97.2431 170.139L97.8542 167.931C97.8637 167.896 97.8866 167.867 97.9177 167.849C97.9489 167.832 97.9858 167.827 98.0203 167.837C98.0549 167.846 98.0842 167.869 98.1019 167.9C98.1196 167.931 98.1241 167.968 98.1146 168.003L97.5033 170.21C97.4955 170.239 97.4785 170.264 97.455 170.282C97.4316 170.3 97.4029 170.309 97.3733 170.309Z" fill="#0C0C0C"/>
<path d="M48.4474 130.833C48.4474 130.833 48.596 137.21 47.3757 139.638C43.8621 146.629 43.3426 154.182 47.808 157.705C52.2733 161.227 78.534 158.919 79.7162 149.79C80.7115 142.104 77.0452 141.617 75.6099 135.48C74.9615 132.703 73.3406 126.904 73.3406 126.904" fill="#0A0A0A"/>
<path d="M73.6686 147.787C73.623 147.79 74.81 156.09 65.1285 157.327C58.4259 158.184 54.637 151.67 54.4844 151.701C55.1652 151.405 56.2871 150.895 56.6002 150.706C57.7849 149.991 58.692 149.092 58.6134 147.007C58.5683 145.806 57.0195 139.928 56.8807 138.731L67.4767 138.916C67.8446 141.428 68.0345 147.388 71.7167 147.696C72.3305 147.746 72.9848 147.773 73.6686 147.787Z" fill="#E98862"/>
<path opacity="0.52" d="M69.0368 145.793C68.7734 145.314 68.5631 144.808 68.4098 144.284C68.0489 143.09 67.8198 141.861 67.7266 140.617C65.6102 140.762 63.4958 140.31 61.6235 139.314C61.5779 140.047 61.1642 143.291 61.587 143.892C62.3845 145.027 65.3481 146.548 69.0368 145.793Z" fill="#0C0C0C"/>
<path d="M66.8591 144.112C62.8338 144.87 57.4307 143.72 55.8562 138.415L54.4344 133.629C52.8588 128.325 54.3709 123.198 59.3712 121.716C64.3715 120.235 69.3861 123.427 70.9608 128.732L71.5903 130.851C72.1957 132.886 74.0425 142.76 66.8591 144.112Z" fill="#E98862"/>
<path opacity="0.52" d="M67.708 136.449L67.7177 136.446C67.9202 136.385 68.1191 136.312 68.3134 136.229C68.6033 136.102 68.9799 135.903 68.901 135.638C68.8116 135.335 67.014 132.319 66.8092 131.977C66.7913 131.947 66.7622 131.926 66.7283 131.917C66.6945 131.909 66.6586 131.914 66.6286 131.932C66.5986 131.95 66.577 131.979 66.5684 132.012C66.5599 132.046 66.5652 132.082 66.5831 132.112C67.3495 133.396 68.5884 135.509 68.6487 135.713C68.6246 135.812 68.1457 136.046 67.6429 136.195C67.6109 136.205 67.584 136.227 67.5677 136.256C67.5514 136.286 67.547 136.32 67.5553 136.353C67.5636 136.385 67.5841 136.413 67.6124 136.431C67.6408 136.449 67.675 136.456 67.708 136.449V136.449Z" fill="#0C0C0C"/>
<path opacity="0.52" d="M67.1903 138.861C68.011 138.669 68.775 138.286 69.4207 137.745C69.4341 137.734 69.4453 137.721 69.4536 137.706C69.4618 137.69 69.467 137.674 69.4689 137.657C69.4707 137.639 69.4691 137.622 69.4642 137.606C69.4593 137.589 69.4513 137.574 69.4404 137.56C69.4295 137.547 69.4161 137.536 69.401 137.527C69.3858 137.519 69.3691 137.514 69.3519 137.512C69.3348 137.51 69.3174 137.512 69.3008 137.517C69.2842 137.521 69.2688 137.53 69.2553 137.54C67.8538 138.669 66.3785 138.979 64.9891 138.435C64.9609 138.424 64.9321 138.413 64.9029 138.405C64.869 138.396 64.8332 138.402 64.8032 138.419C64.7733 138.437 64.7517 138.466 64.7432 138.5C64.7347 138.534 64.74 138.57 64.758 138.6C64.7759 138.63 64.805 138.651 64.8388 138.66C64.8497 138.663 64.8678 138.67 64.8929 138.68C65.6236 138.968 66.4236 139.031 67.1903 138.861Z" fill="#0C0C0C"/>
<path d="M50.5275 135.744L55.0121 134.443C58.3309 132.692 58.7672 126.601 58.7672 126.601C58.7672 126.601 63.3869 130.267 73.3399 126.904C73.3399 126.904 69.8517 112.919 55.2196 118.575C50.5016 120.399 47.5156 125.638 48.6146 132.123C49.3872 136.667 50.5275 135.744 50.5275 135.744Z" fill="#0A0A0A"/>
<path d="M56.6463 139.939C55.1267 140.39 53.4125 139.13 52.9616 137.613C52.5108 136.096 53.4941 134.893 55.0148 134.443L56.0998 135.228L57.9538 139.552L56.6463 139.939Z" fill="#E98862"/>
<path d="M67.4792 129.296C67.9015 128.958 68.4069 128.741 68.9424 128.665C69.2058 128.627 69.4736 128.628 69.7367 128.669C69.9968 128.708 70.2509 128.78 70.4931 128.883C70.5271 128.895 70.5547 128.921 70.57 128.954C70.5852 128.987 70.5868 129.024 70.5745 129.058C70.5621 129.092 70.5368 129.12 70.504 129.136C70.4712 129.151 70.4336 129.153 70.3994 129.141L70.3891 129.137C70.1662 129.055 69.9339 129 69.6975 128.976C69.4637 128.95 69.2273 128.96 68.9964 129.005C68.5382 129.09 68.1107 129.295 67.7572 129.598L67.7459 129.609C67.7258 129.628 67.7021 129.643 67.6762 129.652C67.6503 129.662 67.6226 129.667 67.5949 129.666C67.5672 129.664 67.54 129.658 67.5149 129.646C67.4898 129.634 67.4674 129.617 67.4489 129.597C67.4305 129.576 67.4164 129.552 67.4075 129.526C67.3985 129.499 67.395 129.472 67.397 129.444C67.3991 129.416 67.4067 129.389 67.4194 129.365C67.4321 129.34 67.4496 129.318 67.4709 129.301L67.4792 129.296Z" fill="#0C0C0C"/>
<path d="M63.6727 130.727C63.2109 130.663 62.7402 130.722 62.3084 130.898C62.09 130.985 61.886 131.104 61.7033 131.252C61.5181 131.401 61.3523 131.573 61.2097 131.763L61.2032 131.771C61.1806 131.798 61.1483 131.815 61.1131 131.819C61.0779 131.823 61.0425 131.814 61.0143 131.792C60.9861 131.771 60.9672 131.739 60.9617 131.705C60.9561 131.67 60.9642 131.634 60.9844 131.605C61.1324 131.387 61.3073 131.189 61.505 131.015C61.7041 130.839 61.9286 130.693 62.1709 130.583C62.6618 130.357 63.2047 130.266 63.7427 130.321C63.7958 130.329 63.844 130.357 63.8769 130.399C63.9098 130.442 63.9249 130.495 63.919 130.548C63.9131 130.602 63.8867 130.651 63.8453 130.685C63.8039 130.719 63.7508 130.736 63.6973 130.732H63.6887L63.6727 130.727Z" fill="#0C0C0C"/>
<path opacity="0.52" d="M67.4932 140.07C67.6421 140.037 67.788 139.992 67.9292 139.935C67.9466 139.93 67.9628 139.921 67.9766 139.909C67.9904 139.897 68.0015 139.882 68.0094 139.866C68.0172 139.849 68.0216 139.832 68.0221 139.813C68.0227 139.795 68.0194 139.777 68.0126 139.76C68.0058 139.743 67.9956 139.728 67.9825 139.715C67.9695 139.703 67.9539 139.693 67.9369 139.686C67.9198 139.68 67.9016 139.677 67.8834 139.678C67.8652 139.679 67.8474 139.684 67.8312 139.692C66.9807 140.033 66.4482 139.75 66.4264 139.738C66.3959 139.721 66.3599 139.716 66.3263 139.726C66.2927 139.735 66.2643 139.758 66.2472 139.788C66.2302 139.819 66.2259 139.855 66.2354 139.888C66.2449 139.922 66.2673 139.95 66.2978 139.967C66.6724 140.138 67.0948 140.174 67.4932 140.07Z" fill="#0C0C0C"/>
<path d="M55.0183 134.384L54.96 134.262C60.5419 131.597 58.5455 126.065 58.5247 126.011L58.6511 125.964C58.6724 126.02 60.7107 131.666 55.0183 134.384Z" fill="#0C0C0C"/>
<path opacity="0.1" d="M63.6393 137.265C64.3006 137.125 64.7534 136.619 64.6507 136.135C64.5481 135.65 63.9288 135.371 63.2676 135.51C62.6064 135.65 62.1535 136.156 62.2562 136.641C62.3588 137.125 62.9781 137.405 63.6393 137.265Z" fill="#0C0C0C"/>
<path opacity="0.1" d="M70.5252 134.673C70.6292 135.157 71.2481 135.436 71.9095 135.297C72.0237 135.272 72.1352 135.236 72.242 135.189C72.2204 134.603 72.1718 134.042 72.1069 133.524C71.9171 133.495 71.7234 133.501 71.5358 133.542C70.8756 133.681 70.4228 134.187 70.5252 134.673Z" fill="#0C0C0C"/>
<path d="M70.2577 130.946C70.6125 130.946 70.9001 130.658 70.9001 130.304C70.9001 129.95 70.6125 129.662 70.2577 129.662C69.9029 129.662 69.6152 129.95 69.6152 130.304C69.6152 130.658 69.9029 130.946 70.2577 130.946Z" fill="#0C0C0C"/>
<path d="M63.9256 132.687C64.2804 132.687 64.5681 132.399 64.5681 132.045C64.5681 131.691 64.2804 131.403 63.9256 131.403C63.5708 131.403 63.2832 131.691 63.2832 132.045C63.2832 132.399 63.5708 132.687 63.9256 132.687Z" fill="#0C0C0C"/>
<path d="M89.2185 163.411C89.641 166.997 92.691 189.283 93.2929 193.683L53.4962 201.828C52.468 197.959 47.9461 181.046 45.5228 173.564C43.2103 166.425 41.0247 162.793 41.5848 159.328C42.2388 155.283 47.5857 153.663 51.0502 152.452C53.1658 151.713 56.3952 150.833 56.3952 150.833C56.3952 150.833 57.8211 156.376 64.4923 155.335C73.5735 153.918 71.6733 147.706 71.7178 147.697C73.1751 147.4 80.4438 146.905 82.7277 147.694C88.9505 149.84 88.3237 155.812 89.2185 163.411Z" fill="#007C6A"/>
<path d="M89.6219 165.83L89.3545 165.869L91.3709 179.715L91.6384 179.676L89.6219 165.83Z" fill="#0C0C0C"/>
<path d="M38.1852 223.01L25.1719 219.392C31.1923 197.785 40.9662 162.247 41.563 158.871C41.5132 159.19 41.4917 159.513 41.4987 159.837L55.0051 159.646C55.024 160.975 55.0353 161.778 46.4895 192.958C42.3864 207.928 38.2266 222.86 38.1852 223.01Z" fill="#007C6A"/>
<path d="M51.4544 172.634L48.7266 184.906L48.9903 184.965L51.7182 172.692L51.4544 172.634Z" fill="#0C0C0C"/>
<path d="M80.4487 197.32C80.4487 197.32 115.934 179.009 125.763 175.622C128.309 174.745 132.962 173.937 136.95 176.266C148.846 183.214 180.262 211.504 180.262 211.504L172.63 222.894L131.129 193.208C131.129 193.208 111.244 207.377 93.2927 213.61L75.1729 211.471L80.4487 197.32Z" fill="#262626"/>
<path d="M184.927 214.799C184.927 214.799 191.283 213.767 191.809 207.867C192.336 201.967 197.012 203.387 197.012 203.387L196.346 225.973L185.048 225.641L184.927 214.799Z" fill="#007C6A"/>
<path d="M69.1946 225.654C69.1946 225.654 67.2967 225.527 71.606 225.669C87.6802 226.198 188.61 225.934 188.61 225.934L188.661 210.811L69.2289 202.347L69.1946 225.654Z" fill="#262626"/>
<path d="M112.129 205.471C112.123 205.472 112.118 205.472 112.112 205.471L100.34 203.989C100.322 203.987 100.305 203.982 100.29 203.973C100.274 203.964 100.261 203.952 100.25 203.938C100.239 203.924 100.231 203.908 100.226 203.891C100.222 203.874 100.221 203.856 100.223 203.839C100.225 203.821 100.23 203.804 100.239 203.788C100.248 203.773 100.259 203.759 100.273 203.748C100.288 203.737 100.304 203.729 100.321 203.725C100.338 203.72 100.356 203.719 100.374 203.722L112.146 205.204C112.182 205.206 112.215 205.222 112.239 205.249C112.263 205.276 112.275 205.311 112.272 205.347C112.27 205.383 112.254 205.416 112.227 205.44C112.2 205.464 112.165 205.476 112.129 205.474V205.471Z" fill="white"/>
<path d="M179.229 210.174H179.22L150.935 208.172C150.899 208.17 150.865 208.153 150.842 208.126C150.818 208.099 150.806 208.064 150.809 208.028C150.811 207.992 150.828 207.959 150.855 207.935C150.882 207.912 150.918 207.9 150.953 207.902L179.239 209.904C179.274 209.905 179.308 209.921 179.333 209.947C179.357 209.973 179.37 210.008 179.369 210.044C179.368 210.079 179.353 210.113 179.326 210.138C179.3 210.162 179.265 210.175 179.229 210.174Z" fill="white"/>
</g>
<path d="M0.286053 226.575H188.549C188.624 226.575 188.697 226.544 188.751 226.491C188.804 226.437 188.835 226.364 188.835 226.287C188.835 226.211 188.804 226.138 188.751 226.084C188.697 226.03 188.624 226 188.549 226H0.286053C0.210187 226 0.137428 226.03 0.0837829 226.084C0.0301376 226.138 0 226.211 0 226.287C0 226.364 0.0301376 226.437 0.0837829 226.491C0.137428 226.544 0.210187 226.575 0.286053 226.575Z" fill="#262626"/>
<path d="M164.286 226.575H352.549C352.624 226.575 352.697 226.544 352.751 226.491C352.804 226.437 352.835 226.364 352.835 226.287C352.835 226.211 352.804 226.138 352.751 226.084C352.697 226.03 352.624 226 352.549 226H164.286C164.21 226 164.137 226.03 164.084 226.084C164.03 226.138 164 226.211 164 226.287C164 226.364 164.03 226.437 164.084 226.491C164.137 226.544 164.21 226.575 164.286 226.575Z" fill="#262626"/>
<defs>
<clipPath id="clip0_1183_9501">
<rect width="320" height="227" fill="white" transform="translate(18)"/>
</clipPath>
</defs>
</svg>
