<svg width="226" height="227" viewBox="0 0 226 227" fill="none" xmlns="http://www.w3.org/2000/svg">
<g clip-path="url(#clip0_1295_5920)">
<path d="M38.0887 147.743L211.35 147.743C215.605 147.743 219.054 144.288 219.054 140.027L219.054 12.9735C219.054 8.71198 215.605 5.25732 211.35 5.25732L38.0887 5.25732C33.8339 5.25732 30.3847 8.71198 30.3847 12.9735L30.3847 140.027C30.3847 144.288 33.8339 147.743 38.0887 147.743Z" fill="white"/>
<path d="M30.1276 140.027V12.9734C30.1299 10.8594 30.9694 8.83276 32.4619 7.33798C33.9543 5.8432 35.9778 5.00238 38.0884 5H211.35C213.461 5.00238 215.484 5.8432 216.977 7.33798C218.469 8.83276 219.309 10.8594 219.311 12.9734V140.027C219.309 142.141 218.469 144.167 216.977 145.662C215.484 147.157 213.461 147.998 211.35 148H38.0884C35.9778 147.998 33.9543 147.157 32.4619 145.662C30.9694 144.167 30.1299 142.141 30.1276 140.027ZM38.0884 5.51441C36.114 5.51673 34.2211 6.30332 32.825 7.70165C31.4288 9.09998 30.6435 10.9958 30.6412 12.9734V140.027C30.6434 142.004 31.4288 143.9 32.8249 145.298C34.2211 146.697 36.114 147.483 38.0884 147.486H211.35C213.325 147.483 215.218 146.697 216.614 145.299C218.01 143.9 218.795 142.004 218.797 140.027V12.9734C218.795 10.9958 218.01 9.09992 216.614 7.70157C215.217 6.30323 213.324 5.51666 211.35 5.51441H38.0884Z" fill="#292A2E"/>
<path opacity="0.1" d="M69.396 57.1644C77.2733 57.1644 83.6591 50.7786 83.6591 42.9013C83.6591 35.024 77.2733 28.6382 69.396 28.6382C61.5187 28.6382 55.1329 35.024 55.1329 42.9013C55.1329 50.7786 61.5187 57.1644 69.396 57.1644Z" fill="#367CFF"/>
<path opacity="0.2" d="M69.396 42.2877C72.1321 42.2877 74.3501 40.0697 74.3501 37.3337C74.3501 34.5976 72.1321 32.3796 69.396 32.3796C66.66 32.3796 64.442 34.5976 64.442 37.3337C64.442 40.0697 66.66 42.2877 69.396 42.2877Z" fill="#367CFF"/>
<path opacity="0.2" d="M80.1187 52.3068C78.7801 53.8331 77.131 55.056 75.2817 55.8937C73.4324 56.7315 71.4256 57.1648 69.3954 57.1646C67.3653 57.1644 65.3585 56.7308 63.5094 55.8927C61.6603 55.0546 60.0114 53.8314 58.673 52.3048C59.3587 49.9929 60.7732 47.9644 62.7057 46.522C64.6382 45.0795 66.9851 44.3003 69.3966 44.3005C71.8081 44.3008 74.1549 45.0804 76.0871 46.5232C78.0194 47.966 79.4335 49.9947 80.1187 52.3068Z" fill="#367CFF"/>
<path opacity="0.2" d="M76.1329 66.8945H56.8002C56.1025 66.8945 55.537 67.4601 55.537 68.1578C55.537 68.8555 56.1025 69.421 56.8002 69.421H76.1329C76.8305 69.421 77.3961 68.8555 77.3961 68.1578C77.3961 67.4601 76.8305 66.8945 76.1329 66.8945Z" fill="#367CFF"/>
<path opacity="0.1" d="M136.349 29.3379H92.5864C90.9523 29.3379 89.6276 30.2874 89.6276 31.4586V35.8573C89.6276 37.0285 90.9523 37.978 92.5864 37.978H136.349C137.983 37.978 139.308 37.0285 139.308 35.8573V31.4586C139.308 30.2874 137.983 29.3379 136.349 29.3379Z" fill="#367CFF"/>
<path opacity="0.2" d="M157.333 42.2979H91.0427C90.2612 42.2979 89.6276 42.7814 89.6276 43.3779C89.6276 43.9743 90.2612 44.4579 91.0427 44.4579H157.333C158.115 44.4579 158.748 43.9743 158.748 43.3779C158.748 42.7814 158.115 42.2979 157.333 42.2979Z" fill="#367CFF"/>
<path opacity="0.2" d="M153.102 48.0579H90.9543C90.2216 48.0579 89.6276 48.5414 89.6276 49.1379C89.6276 49.7343 90.2216 50.2179 90.9543 50.2179H153.102C153.834 50.2179 154.428 49.7343 154.428 49.1379C154.428 48.5414 153.834 48.0579 153.102 48.0579Z" fill="#367CFF"/>
<path opacity="0.2" d="M128.368 54.262H90.5999C90.0629 54.262 89.6276 54.6973 89.6276 55.2343C89.6276 55.7713 90.0629 56.2066 90.5999 56.2066H128.368C128.905 56.2066 129.34 55.7713 129.34 55.2343C129.34 54.6973 128.905 54.262 128.368 54.262Z" fill="#367CFF"/>
<path opacity="0.1" d="M104.843 73.0654H57.3632C56.3546 73.0654 55.537 73.8831 55.537 74.8917V79.4037C55.537 80.4123 56.3546 81.2299 57.3632 81.2299H104.843C105.852 81.2299 106.669 80.4123 106.669 79.4037V74.8917C106.669 73.8831 105.852 73.0654 104.843 73.0654Z" fill="#367CFF"/>
<path opacity="0.2" d="M134.348 66.8945H115.015C114.317 66.8945 113.752 67.4601 113.752 68.1578C113.752 68.8555 114.317 69.421 115.015 69.421H134.348C135.045 69.421 135.611 68.8555 135.611 68.1578C135.611 67.4601 135.045 66.8945 134.348 66.8945Z" fill="#367CFF"/>
<path opacity="0.1" d="M195.7 73.2583H126.837C125.374 73.2583 124.188 74.0515 124.188 75.0299V79.4068C124.188 80.3852 125.374 81.1784 126.837 81.1784H195.7C197.163 81.1784 198.349 80.3852 198.349 79.4068V75.0299C198.349 74.0515 197.163 73.2583 195.7 73.2583Z" fill="#367CFF"/>
<path opacity="0.2" d="M76.1329 87.9797H56.8002C56.1025 87.9797 55.537 88.5453 55.537 89.243C55.537 89.9407 56.1025 90.5062 56.8002 90.5062H76.1329C76.8305 90.5062 77.3961 89.9407 77.3961 89.243C77.3961 88.5453 76.8305 87.9797 76.1329 87.9797Z" fill="#367CFF"/>
<path opacity="0.1" d="M104.843 94.1501H57.3632C56.3546 94.1501 55.537 94.9678 55.537 95.9764V100.488C55.537 101.497 56.3546 102.315 57.3632 102.315H104.843C105.852 102.315 106.669 101.497 106.669 100.488V95.9764C106.669 94.9678 105.852 94.1501 104.843 94.1501Z" fill="#367CFF"/>
<path opacity="0.2" d="M134.348 87.9797H115.015C114.317 87.9797 113.752 88.5453 113.752 89.243C113.752 89.9407 114.317 90.5062 115.015 90.5062H134.348C135.045 90.5062 135.611 89.9407 135.611 89.243C135.611 88.5453 135.045 87.9797 134.348 87.9797Z" fill="#367CFF"/>
<path opacity="0.1" d="M195.7 94.1384H126.837C125.374 94.1384 124.188 94.9316 124.188 95.91V100.287C124.188 101.265 125.374 102.059 126.837 102.059H195.7C197.163 102.059 198.349 101.265 198.349 100.287V95.91C198.349 94.9316 197.163 94.1384 195.7 94.1384Z" fill="#367CFF"/>
<path opacity="0.2" d="M76.1329 109.065H56.8002C56.1025 109.065 55.537 109.631 55.537 110.328C55.537 111.026 56.1025 111.591 56.8002 111.591H76.1329C76.8305 111.591 77.3961 111.026 77.3961 110.328C77.3961 109.631 76.8305 109.065 76.1329 109.065Z" fill="#367CFF"/>
<path opacity="0.1" d="M104.843 115.235H57.3632C56.3546 115.235 55.537 116.053 55.537 117.062V121.574C55.537 122.582 56.3546 123.4 57.3632 123.4H104.843C105.852 123.4 106.669 122.582 106.669 121.574V117.062C106.669 116.053 105.852 115.235 104.843 115.235Z" fill="#367CFF"/>
<path opacity="0.2" d="M134.348 109.065H115.015C114.317 109.065 113.752 109.631 113.752 110.328C113.752 111.026 114.317 111.591 115.015 111.591H134.348C135.045 111.591 135.611 111.026 135.611 110.328C135.611 109.631 135.045 109.065 134.348 109.065Z" fill="#367CFF"/>
<path opacity="0.1" d="M195.7 115.019H126.837C125.374 115.019 124.188 115.884 124.188 116.951V121.726C124.188 122.793 125.374 123.659 126.837 123.659H195.7C197.163 123.659 198.349 122.793 198.349 121.726V116.951C198.349 115.884 197.163 115.019 195.7 115.019Z" fill="#367CFF"/>
<path d="M30.3846 12.9728V20.737H219.053V12.9728C219.053 10.9263 218.242 8.96367 216.797 7.51661C215.352 6.06954 213.393 5.25659 211.349 5.25659H38.0887C36.0455 5.25659 34.0859 6.06954 32.6411 7.51661C31.1963 8.96367 30.3846 10.9263 30.3846 12.9728Z" fill="#292A2E"/>
<path d="M29.798 201.638C29.7727 201.638 29.7475 201.633 29.7241 201.623C29.7007 201.613 29.6794 201.599 29.6615 201.581C29.3893 201.308 28.946 196.309 27.7516 181.425C27.2628 175.334 26.8009 169.581 26.4641 166.085C26.4406 165.836 26.3434 165.806 26.3117 165.797C25.8505 165.658 24.448 166.765 23.6651 167.735C23.6491 167.755 23.6294 167.771 23.6071 167.784C23.5849 167.796 23.5604 167.803 23.5352 167.806C23.51 167.809 23.4845 167.806 23.4601 167.799C23.4358 167.792 23.4131 167.78 23.3934 167.764C23.3737 167.748 23.3573 167.728 23.3452 167.706C23.333 167.684 23.3254 167.659 23.3227 167.634C23.3201 167.609 23.3224 167.583 23.3296 167.559C23.3368 167.534 23.3487 167.512 23.3646 167.492C23.8814 166.851 25.5701 165.169 26.4228 165.426C26.551 165.47 26.6616 165.555 26.7383 165.667C26.815 165.779 26.8537 165.912 26.8486 166.048C27.1857 169.547 27.6473 175.301 28.1366 181.393C28.8624 190.439 29.6846 200.685 29.9549 201.331C29.9755 201.36 29.9877 201.394 29.9902 201.43C29.9927 201.465 29.9855 201.5 29.9693 201.532C29.9531 201.563 29.9286 201.59 29.8984 201.609C29.8682 201.627 29.8334 201.637 29.798 201.637V201.638Z" fill="#494949"/>
<path d="M25.9685 172.501C29.1727 169.928 30.2347 165.925 28.3405 163.558C26.4464 161.191 22.3134 161.358 19.1093 163.93C15.9051 166.503 14.8431 170.507 16.7372 172.873C18.6314 175.24 22.7643 175.073 25.9685 172.501Z" fill="#0CBC8B"/>
<path opacity="0.2" d="M25.9685 172.501C29.1727 169.928 30.2347 165.925 28.3405 163.558C26.4464 161.191 22.3134 161.358 19.1093 163.93C15.9051 166.503 14.8431 170.507 16.7372 172.873C18.6314 175.24 22.7643 175.073 25.9685 172.501Z" fill="white"/>
<path d="M17.635 173.475C17.6167 173.475 17.5987 173.47 17.5833 173.46C17.5679 173.45 17.5555 173.436 17.5477 173.419C17.54 173.403 17.5371 173.384 17.5394 173.366C17.5417 173.348 17.5491 173.331 17.5607 173.317L26.6924 162.287C26.7088 162.268 26.7323 162.255 26.7578 162.253C26.7833 162.25 26.8087 162.258 26.8284 162.275C26.8481 162.291 26.8606 162.315 26.8629 162.34C26.8653 162.366 26.8575 162.391 26.8411 162.411L17.7094 173.44C17.7004 173.451 17.689 173.46 17.6761 173.466C17.6632 173.472 17.6492 173.475 17.635 173.475Z" fill="white"/>
<path d="M31.7897 199.273C31.7589 199.273 31.7286 199.266 31.7013 199.252C31.6739 199.237 31.6504 199.217 31.6326 199.192C31.6147 199.167 31.6031 199.138 31.5988 199.107C31.5944 199.077 31.5974 199.045 31.6074 199.016L35.0369 189.136C35.1378 188.846 35.3099 188.586 35.5373 188.379C35.7647 188.173 36.0403 188.026 36.3387 187.954C36.6371 187.882 36.9488 187.886 37.2453 187.966C37.5417 188.046 37.8134 188.199 38.0354 188.411L39.8488 190.147C39.8848 190.182 39.9053 190.231 39.9059 190.281C39.9066 190.332 39.8874 190.381 39.8524 190.417C39.8175 190.454 39.7695 190.476 39.719 190.477C39.6684 190.479 39.6192 190.46 39.582 190.426L37.7686 188.691C37.5933 188.523 37.3789 188.403 37.1448 188.339C36.9108 188.276 36.6647 188.273 36.4291 188.33C36.1935 188.387 35.976 188.502 35.7964 188.665C35.6169 188.828 35.4811 189.034 35.4015 189.263L31.972 199.145C31.9586 199.182 31.9339 199.215 31.9013 199.238C31.8686 199.261 31.8297 199.273 31.7897 199.273Z" fill="#494949"/>
<path d="M44.9151 195.616C47.2897 193.734 47.1485 189.593 44.5999 186.368C42.0512 183.143 38.0601 182.055 35.6856 183.938C33.311 185.82 33.4521 189.961 36.0008 193.185C38.5494 196.41 42.5405 197.499 44.9151 195.616Z" fill="#0CBC8B"/>
<path d="M28.2397 201.008C28.1963 201.008 28.1541 200.993 28.12 200.966C28.0859 200.939 28.0619 200.901 28.0518 200.859L22.2968 176.753C22.2575 176.589 22.1738 176.438 22.0547 176.319C21.9357 176.199 21.786 176.114 21.622 176.074C21.4581 176.034 21.2863 176.04 21.1256 176.092C20.9648 176.143 20.8214 176.238 20.711 176.366L18.9365 178.419C18.9202 178.439 18.9 178.456 18.8772 178.468C18.8544 178.48 18.8294 178.487 18.8037 178.49C18.778 178.492 18.7521 178.489 18.7275 178.481C18.703 178.473 18.6803 178.46 18.6608 178.443C18.6412 178.426 18.6253 178.406 18.6139 178.383C18.6025 178.359 18.5958 178.334 18.5943 178.308C18.5928 178.282 18.5965 178.257 18.6051 178.232C18.6137 178.208 18.6272 178.186 18.6446 178.166L20.419 176.113C20.5759 175.931 20.7798 175.796 21.0082 175.723C21.2366 175.65 21.4807 175.642 21.7136 175.699C21.9465 175.756 22.1592 175.876 22.3284 176.046C22.4975 176.216 22.6165 176.43 22.6724 176.663L28.4274 200.769C28.4333 200.794 28.4343 200.82 28.4303 200.845C28.4263 200.87 28.4174 200.894 28.4042 200.915C28.3909 200.937 28.3735 200.956 28.353 200.971C28.3325 200.986 28.3092 200.996 28.2846 201.002C28.2699 201.006 28.2548 201.008 28.2397 201.008Z" fill="#494949"/>
<path d="M26.1158 183.776C26.8155 179.723 24.9636 176.019 21.9795 175.502C18.9953 174.985 16.009 177.851 15.3092 181.904C14.6095 185.957 16.4614 189.661 19.4455 190.178C22.4296 190.695 25.416 187.829 26.1158 183.776Z" fill="#0CBC8B"/>
<path d="M29.7983 201.638C29.7904 201.638 29.7826 201.637 29.7748 201.636C29.7239 201.63 29.6777 201.604 29.6462 201.563C29.6146 201.523 29.6004 201.472 29.6066 201.421L33.2823 171.53C33.3223 171.204 33.4554 170.897 33.6655 170.646C33.8756 170.394 34.1538 170.208 34.4667 170.111C34.7796 170.014 35.1139 170.01 35.4292 170.098C35.7446 170.187 36.0277 170.365 36.2446 170.611L40.4459 175.377C40.4627 175.396 40.4756 175.418 40.4839 175.442C40.4921 175.466 40.4956 175.491 40.494 175.517C40.4925 175.542 40.4859 175.567 40.4748 175.589C40.4637 175.612 40.4482 175.633 40.4292 175.65C40.4102 175.666 40.388 175.679 40.364 175.688C40.3401 175.696 40.3147 175.699 40.2894 175.698C40.2641 175.696 40.2393 175.69 40.2165 175.678C40.1937 175.667 40.1734 175.652 40.1566 175.633L35.9552 170.867C35.7876 170.677 35.5688 170.539 35.3251 170.471C35.0814 170.402 34.8231 170.406 34.5812 170.481C34.3394 170.556 34.1244 170.699 33.9619 170.894C33.7995 171.088 33.6966 171.325 33.6656 171.577L29.9897 201.468C29.984 201.515 29.9613 201.558 29.9261 201.589C29.8908 201.62 29.8454 201.638 29.7983 201.638Z" fill="#494949"/>
<path d="M44.7545 178.025C46.2204 175.371 44.4957 171.605 40.9023 169.615C37.3089 167.624 33.2076 168.162 31.7417 170.816C30.2758 173.47 32.0006 177.235 35.5939 179.226C39.1873 181.217 43.2887 180.679 44.7545 178.025Z" fill="#0CBC8B"/>
<path opacity="0.2" d="M44.9151 195.616C47.2897 193.734 47.1485 189.593 44.5999 186.368C42.0512 183.143 38.0601 182.055 35.6856 183.938C33.311 185.82 33.4521 189.961 36.0008 193.185C38.5494 196.41 42.5405 197.499 44.9151 195.616Z" fill="white"/>
<path opacity="0.5" d="M26.1158 183.776C26.8155 179.723 24.9636 176.019 21.9795 175.502C18.9953 174.985 16.009 177.851 15.3092 181.904C14.6095 185.957 16.4614 189.661 19.4455 190.178C22.4296 190.695 25.416 187.829 26.1158 183.776Z" fill="white"/>
<path opacity="0.5" d="M44.7545 178.025C46.2204 175.371 44.4957 171.605 40.9023 169.615C37.3089 167.624 33.2076 168.162 31.7417 170.816C30.2758 173.47 32.0006 177.235 35.5939 179.226C39.1873 181.217 43.2887 180.679 44.7545 178.025Z" fill="white"/>
<path d="M34.4995 227H25.0965L23.5384 196.868H36.0576L34.4995 227Z" fill="#292A2E"/>
<path opacity="0.3" d="M34.4995 227H25.0965L23.5384 196.868H36.0576L34.4995 227Z" fill="white"/>
<path d="M44.9161 195.712C44.9015 195.712 44.887 195.709 44.8739 195.703C44.8607 195.696 44.8492 195.687 44.8402 195.676L35.6106 183.997C35.6027 183.987 35.5968 183.976 35.5934 183.964C35.5899 183.951 35.5888 183.939 35.5903 183.926C35.5917 183.913 35.5956 183.901 35.6018 183.89C35.608 183.879 35.6163 183.869 35.6262 183.861C35.6361 183.853 35.6475 183.848 35.6597 183.844C35.6719 183.841 35.6847 183.84 35.6972 183.841C35.7098 183.842 35.722 183.846 35.7331 183.853C35.7442 183.859 35.754 183.867 35.7618 183.877L44.9917 195.556C45.0075 195.576 45.0148 195.601 45.0118 195.627C45.0088 195.652 44.9958 195.675 44.9757 195.691C44.9588 195.705 44.9377 195.712 44.9161 195.712Z" fill="white"/>
<path d="M44.1409 178.961C44.1205 178.961 44.1006 178.954 44.084 178.942L32.2734 170.305C32.2627 170.297 32.2537 170.288 32.2467 170.277C32.2397 170.266 32.235 170.254 32.2329 170.241C32.2307 170.228 32.2311 170.215 32.234 170.203C32.237 170.19 32.2424 170.178 32.25 170.168C32.2576 170.157 32.2672 170.149 32.2783 170.142C32.2893 170.135 32.3016 170.131 32.3144 170.129C32.3272 170.127 32.3402 170.128 32.3527 170.131C32.3651 170.135 32.3768 170.14 32.3871 170.148L44.198 178.786C44.2144 178.798 44.2267 178.815 44.2329 178.834C44.2392 178.854 44.2392 178.875 44.2328 178.894C44.2265 178.914 44.2142 178.93 44.1977 178.942C44.1811 178.954 44.1613 178.961 44.1409 178.961Z" fill="white"/>
<path d="M18.9666 190.052C18.9581 190.052 18.9497 190.051 18.9415 190.048C18.9169 190.042 18.8959 190.026 18.8831 190.004C18.8703 189.982 18.8667 189.955 18.8731 189.931L22.6329 175.822C22.6397 175.797 22.6558 175.777 22.6778 175.764C22.6997 175.751 22.7257 175.747 22.7504 175.753C22.775 175.76 22.796 175.776 22.8088 175.798C22.8216 175.82 22.8252 175.846 22.8187 175.871L19.0596 189.98C19.0542 190.001 19.0421 190.019 19.0253 190.032C19.0085 190.045 18.9879 190.052 18.9666 190.052Z" fill="white"/>
<path d="M226.822 227.027H18.1123C18.0651 227.027 18.0198 227.009 17.9864 226.975C17.953 226.942 17.9342 226.896 17.9342 226.849C17.9342 226.802 17.953 226.756 17.9864 226.723C18.0198 226.689 18.0651 226.671 18.1123 226.671H226.822C226.869 226.671 226.914 226.689 226.948 226.723C226.981 226.756 227 226.802 227 226.849C227 226.896 226.981 226.942 226.948 226.975C226.914 227.009 226.869 227.027 226.822 227.027Z" fill="#292A2E"/>
<path d="M67.128 216.442C67.128 216.442 68.1886 221.949 73.3352 222.257C78.4818 222.564 77.3663 226.67 77.3663 226.67H57.6969V216.827L67.128 216.442Z" fill="#007C6A"/>
<path d="M56.3629 116C56.3629 116 57.8338 114.345 57.8209 118.1C57.7723 132.105 56.8287 219.957 56.8287 219.957L69.7542 219.848L77.584 115.431L56.3629 116Z" fill="#262626"/>
<path d="M89.1993 216.442C89.1993 216.442 90.2599 221.949 95.4072 222.256C100.555 222.562 99.4383 226.669 99.4383 226.669H79.7681V216.827L89.1993 216.442Z" fill="#007C6A"/>
<path d="M91.6993 117.088C91.6993 117.088 93.314 164.954 93.1463 167.294L91.6279 219.593L78.9159 219.829L76.8662 165.401C76.8662 165.401 75.5226 150.388 71.9007 136.446C70.0476 129.291 68.9324 121.964 68.5726 114.581L91.6993 117.088Z" fill="#262626"/>
<path d="M74.9294 151.025L75.9893 134.789C75.9893 134.789 77.0781 141.539 77.0781 147.357C77.0781 150.2 76.4934 161.459 76.4934 161.459L74.9294 151.025Z" fill="#0A0A0A"/>
<path d="M56.2224 115.999L56.1801 116.001C56.1801 116.001 56.2111 115.185 56.2224 115.999Z" fill="#333333"/>
<path d="M56.2755 115.999L56.2332 116.001C56.2332 116.001 56.2638 115.185 56.2755 115.999Z" fill="#333333"/>
<path d="M127.103 77.1471C127.026 76.9926 126.902 76.8662 126.749 76.7852C126.596 76.7043 126.422 76.6728 126.251 76.6951C126.253 76.6799 126.249 76.6646 126.242 76.6514C126.234 76.6411 126.223 76.6331 126.211 76.6282C126.199 76.6233 126.186 76.6216 126.173 76.6234L126.751 76.2083C126.924 76.0898 127.049 75.9125 127.101 75.7092C127.154 75.5059 127.131 75.2904 127.037 75.1026C126.939 74.92 126.776 74.7806 126.581 74.7114C126.386 74.6423 126.171 74.6483 125.98 74.7283C125.982 74.72 125.976 74.7123 125.975 74.7048L126.213 74.5344C126.375 74.422 126.494 74.2568 126.549 74.0668C126.604 73.8768 126.591 73.6737 126.514 73.4917C126.463 73.3787 126.387 73.2784 126.293 73.1981C126.199 73.1178 126.088 73.0594 125.968 73.0272C125.849 72.995 125.723 72.9898 125.602 73.0119C125.48 73.034 125.364 73.0829 125.264 73.155L124.716 73.5487C124.714 73.5454 124.716 73.5416 124.714 73.5385C124.711 73.5355 124.705 73.5343 124.702 73.531C124.828 73.3892 124.902 73.2088 124.912 73.0193C124.922 72.8298 124.867 72.6426 124.757 72.4883C124.499 72.0714 123.901 72.1568 123.547 72.4111L120.321 74.6426L120.898 73.6705C121.014 73.4834 121.055 73.2592 121.012 73.0431C120.969 72.827 120.847 72.6352 120.668 72.5062C120.574 72.4429 120.468 72.3996 120.356 72.3789C120.244 72.3581 120.13 72.3604 120.019 72.3855C119.908 72.4106 119.803 72.4581 119.712 72.525C119.62 72.5919 119.542 72.6768 119.484 72.7746L116.337 78.0827C115.967 78.7054 115.855 79.4479 116.024 80.1522C116.192 80.8566 116.628 81.4675 117.239 81.855C117.948 82.3044 118.774 82.5316 119.613 82.5075C120.451 82.4834 121.263 82.2091 121.945 81.7197L126.816 78.2225C126.978 78.1019 127.094 77.9301 127.146 77.7349C127.199 77.5397 127.183 77.3325 127.103 77.1471Z" fill="#E98862"/>
<g opacity="0.25">
<path d="M121.524 75.7539C121.535 75.7703 121.553 75.7813 121.573 75.7847C121.593 75.7881 121.613 75.7836 121.63 75.772L124.695 73.6459C124.703 73.6401 124.71 73.6328 124.716 73.6242C124.721 73.6157 124.725 73.6062 124.727 73.5962C124.729 73.5862 124.728 73.576 124.726 73.5661C124.724 73.5561 124.72 73.5467 124.714 73.5384C124.708 73.5301 124.701 73.5229 124.693 73.5174C124.684 73.5119 124.675 73.5082 124.665 73.5064C124.655 73.5046 124.644 73.5047 124.634 73.5069C124.625 73.509 124.615 73.5131 124.607 73.5189L121.542 75.645C121.525 75.6567 121.514 75.6746 121.51 75.6947C121.506 75.7149 121.511 75.7356 121.522 75.7525L121.524 75.7539Z" fill="#0C0C0C"/>
</g>
<g opacity="0.25">
<path d="M122.423 77.1337C122.434 77.1501 122.452 77.1611 122.472 77.1644C122.492 77.1678 122.512 77.1632 122.529 77.1516L125.949 74.7789C125.966 74.7672 125.978 74.7493 125.981 74.7292C125.985 74.709 125.98 74.6883 125.969 74.6714C125.957 74.6552 125.939 74.6441 125.919 74.6404C125.899 74.6368 125.878 74.6409 125.861 74.6519L122.441 77.0246C122.424 77.0363 122.413 77.0542 122.409 77.0744C122.405 77.0946 122.41 77.1154 122.421 77.1323L122.423 77.1337Z" fill="#0C0C0C"/>
</g>
<g opacity="0.25">
<path d="M123.388 78.6336C123.399 78.6499 123.417 78.6609 123.437 78.6643C123.457 78.6677 123.477 78.6632 123.494 78.6517L126.222 76.759C126.239 76.7473 126.251 76.7294 126.254 76.7092C126.258 76.6891 126.253 76.6683 126.242 76.6514C126.23 76.6346 126.212 76.6231 126.192 76.6194C126.172 76.6157 126.151 76.6202 126.134 76.6319L123.406 78.5246C123.389 78.5363 123.378 78.5542 123.374 78.5744C123.37 78.5945 123.375 78.6153 123.386 78.6322L123.388 78.6336Z" fill="#0C0C0C"/>
</g>
<path d="M114.479 76.8735L105.234 92.644L93.9534 77.824L84.5845 86.2835L100.583 107.037L100.688 107.184C101.329 108.063 102.182 108.764 103.167 109.22C104.153 109.677 105.238 109.875 106.321 109.796C107.405 109.717 108.45 109.362 109.358 108.767C110.267 108.171 111.009 107.353 111.515 106.391L124.662 82.5454L114.479 76.8735Z" fill="#007C6A"/>
<path d="M104.328 94.5405C104.308 94.5405 104.288 94.5354 104.27 94.5255C104.253 94.5157 104.238 94.5015 104.227 94.4843C104.217 94.4671 104.211 94.4475 104.21 94.4273C104.209 94.4072 104.214 94.3872 104.223 94.3692L105.129 92.5904C105.144 92.5626 105.168 92.5416 105.198 92.532C105.228 92.5225 105.26 92.5251 105.287 92.5393C105.315 92.5535 105.336 92.5782 105.346 92.6079C105.355 92.6376 105.353 92.6699 105.338 92.6976L104.432 94.4763C104.422 94.4956 104.407 94.5118 104.389 94.5231C104.371 94.5345 104.349 94.5405 104.328 94.5405Z" fill="#0C0C0C"/>
<path d="M93.3022 92.5541L93.0199 97.5352L93.2544 97.5485L93.5367 92.5674L93.3022 92.5541Z" fill="#0C0C0C"/>
<path d="M63.5118 56.5057C63.5118 56.5057 63.0786 62.05 61.809 64.0486C58.1537 69.8022 57.0389 76.31 60.5927 79.7576C64.1465 83.2052 87.0648 83.5197 88.8916 75.7042C90.4295 69.1254 87.3008 68.3801 86.6004 62.9292C86.2835 60.4631 85.3932 55.2898 85.3932 55.2898" fill="#0A0A0A"/>
<path d="M83.0572 74.455C83.0177 74.4498 82.5785 81.7462 74.1155 81.1102C68.2567 80.6705 66.1675 74.4446 66.0334 74.4446C66.665 74.3103 67.7289 74.1153 68.0094 73.9647C68.9318 73.4683 70.0734 72.9516 70.3708 71.1573C70.5423 70.1221 70.2515 64.8319 70.341 63.7854L79.3343 65.796C79.2086 68.0059 78.3292 73.1293 81.4117 74.0362C81.9247 74.1861 82.4772 74.324 83.0572 74.455Z" fill="#E98862"/>
<path opacity="0.52" d="M79.4604 71.9423C79.3195 71.4876 79.2287 71.0188 79.1898 70.5444C79.0909 69.4616 79.1106 68.3712 79.2485 67.2927C77.4206 67.0456 75.6986 66.2899 74.2781 65.1116C74.1111 65.7294 73.1926 68.4288 73.447 69.0154C73.9276 70.1251 76.1864 71.9423 79.4604 71.9423Z" fill="#0C0C0C"/>
<path d="M78.2681 69.6459C74.7188 69.9482 70.1476 68.4747 69.2522 63.7348L68.4439 59.4579C67.5483 54.718 69.3079 50.4043 73.7639 49.5597C78.2197 48.7151 82.2764 51.9263 83.172 56.6662L83.5298 58.5596C83.8737 60.3782 84.6014 69.1062 78.2681 69.6459Z" fill="#E98862"/>
<path d="M82.2599 58.7661C82.5684 58.7661 82.8185 58.5157 82.8185 58.2067C82.8185 57.8977 82.5684 57.6472 82.2599 57.6472C81.9514 57.6472 81.7014 57.8977 81.7014 58.2067C81.7014 58.5157 81.9514 58.7661 82.2599 58.7661Z" fill="#0C0C0C"/>
<path d="M76.5376 59.5318C76.8461 59.5318 77.0962 59.2813 77.0962 58.9723C77.0962 58.6633 76.8461 58.4128 76.5376 58.4128C76.2291 58.4128 75.979 58.6633 75.979 58.9723C75.979 59.2813 76.2291 59.5318 76.5376 59.5318Z" fill="#0C0C0C"/>
<path opacity="0.52" d="M79.6775 63.075L79.6862 63.0736C79.8667 63.0381 80.0451 62.9927 80.2206 62.9374C80.4825 62.8529 80.8257 62.7134 80.781 62.4763C80.7301 62.2062 79.4407 59.4322 79.2939 59.1169C79.2876 59.1031 79.2787 59.0907 79.2676 59.0804C79.2566 59.0702 79.2436 59.0621 79.2294 59.0569C79.2153 59.0517 79.2002 59.0493 79.1851 59.0499C79.17 59.0505 79.1552 59.0541 79.1415 59.0605C79.1278 59.0669 79.1155 59.0759 79.1053 59.0871C79.0951 59.0983 79.0873 59.1113 79.0821 59.1256C79.077 59.1398 79.0748 59.1549 79.0755 59.17C79.0763 59.1851 79.08 59.1999 79.0865 59.2136C79.6364 60.3951 80.5217 62.337 80.556 62.5189C80.5266 62.6033 80.0916 62.7633 79.6436 62.8482C79.6142 62.8534 79.588 62.8698 79.5705 62.8941C79.5531 62.9183 79.5458 62.9485 79.5502 62.978C79.5546 63.0076 79.5704 63.0343 79.5942 63.0524C79.618 63.0704 79.6478 63.0785 79.6775 63.0748V63.075Z" fill="#0C0C0C"/>
<path opacity="0.52" d="M79.0181 65.1202C79.7449 65.0257 80.4394 64.7615 81.0455 64.3488C81.0709 64.3322 81.0887 64.3061 81.095 64.2764C81.1012 64.2467 81.0954 64.2156 81.0789 64.1902C81.0623 64.1647 81.0363 64.1469 81.0066 64.1406C80.9769 64.1344 80.946 64.1402 80.9206 64.1568C79.6089 65.0127 78.3054 65.1513 77.1514 64.5567C77.128 64.544 77.104 64.5326 77.0795 64.5224C77.0509 64.5121 77.0194 64.5135 76.992 64.5264C76.9645 64.5394 76.9432 64.5627 76.9329 64.5913C76.9226 64.6199 76.9241 64.6515 76.937 64.679C76.9499 64.7065 76.9732 64.7278 77.0017 64.7381C77.0107 64.7419 77.0252 64.7499 77.0466 64.7617C77.6535 65.075 78.34 65.1998 79.0181 65.1202Z" fill="#0C0C0C"/>
<path d="M64.8789 60.9484L68.8736 60.2151C71.8986 58.9889 72.8135 53.7438 72.8135 53.7438C72.8135 53.7438 76.488 57.3309 85.3928 55.2907C85.3928 55.2907 83.6075 42.8526 70.4518 46.4682C66.2098 47.6344 63.1653 51.9158 63.5447 57.6377C63.8108 61.6488 64.8789 60.9484 64.8789 60.9484Z" fill="#0A0A0A"/>
<path d="M69.8019 65.1265C68.4479 65.3832 67.0759 64.1403 66.8187 62.784C66.5614 61.4277 67.5189 60.4718 68.8731 60.2151L69.7422 60.9915L70.9651 64.9058L69.8019 65.1265Z" fill="#E98862"/>
<path d="M80.1104 56.8489C80.5053 56.5933 80.9616 56.4489 81.4314 56.4311C81.6627 56.4206 81.8943 56.4451 82.1183 56.5038C82.3402 56.5608 82.554 56.6456 82.7546 56.7562C82.7829 56.7701 82.8046 56.7947 82.8149 56.8246C82.8251 56.8545 82.8232 56.8872 82.8095 56.9156C82.7958 56.9441 82.7715 56.966 82.7417 56.9765C82.712 56.9871 82.6793 56.9854 82.6508 56.9719L82.6423 56.9679C82.4568 56.8766 82.2605 56.8091 82.0582 56.7668C81.8582 56.7238 81.6529 56.7115 81.4493 56.7301C81.0453 56.7639 80.6574 56.9043 80.3251 57.1369L80.3143 57.1449C80.2952 57.1588 80.2735 57.1688 80.2506 57.1743C80.2276 57.1798 80.2038 57.1808 80.1805 57.1771C80.1572 57.1734 80.1348 57.1651 80.1147 57.1528C80.0946 57.1404 80.0771 57.1242 80.0632 57.1051C80.0493 57.086 80.0393 57.0643 80.0338 57.0413C80.0283 57.0183 80.0273 56.9945 80.031 56.9711C80.0347 56.9478 80.0429 56.9254 80.0553 56.9052C80.0676 56.885 80.0838 56.8675 80.1029 56.8536L80.1104 56.8489Z" fill="#0C0C0C"/>
<path d="M76.5479 57.6889C76.1542 57.5922 75.7419 57.6017 75.353 57.7164C75.1563 57.7727 74.9692 57.8585 74.7981 57.9707C74.6248 58.0838 74.4662 58.2181 74.3262 58.3707L74.3199 58.377C74.298 58.399 74.2684 58.4117 74.2374 58.4122C74.2064 58.4128 74.1764 58.4012 74.1537 58.3801C74.131 58.3589 74.1174 58.3297 74.1158 58.2986C74.1142 58.2676 74.1247 58.2372 74.1451 58.2138C74.2923 58.038 74.4611 57.8815 74.6476 57.7482C74.8352 57.6124 75.0422 57.5057 75.2616 57.4317C75.7063 57.2786 76.1839 57.2481 76.6444 57.3433C76.6912 57.3533 76.732 57.3816 76.7579 57.4217C76.7839 57.4619 76.7928 57.5108 76.7828 57.5576C76.7728 57.6044 76.7446 57.6453 76.7045 57.6713C76.6643 57.6973 76.6155 57.7062 76.5688 57.6962L76.5615 57.6943L76.5479 57.6889Z" fill="#0C0C0C"/>
<path opacity="0.52" d="M79.1727 66.1965C79.3043 66.1814 79.4344 66.1552 79.5617 66.1182C79.5908 66.1098 79.6155 66.0901 79.6302 66.0635C79.6449 66.0369 79.6485 66.0055 79.6401 65.9763C79.6317 65.9471 79.6121 65.9224 79.5855 65.9076C79.559 65.8929 79.5277 65.8893 79.4985 65.8977C78.7325 66.1186 78.297 65.8271 78.2789 65.8135C78.254 65.796 78.2231 65.7892 78.1932 65.7945C78.1632 65.7998 78.1366 65.8168 78.1192 65.8417C78.1017 65.8667 78.0949 65.8976 78.1002 65.9276C78.1055 65.9576 78.1224 65.9842 78.1473 66.0017C78.4564 66.1834 78.8187 66.2522 79.1727 66.1965Z" fill="#0C0C0C"/>
<path d="M68.8827 60.1643L68.843 60.0535C73.9039 58.2339 72.6662 53.2597 72.6533 53.2096L72.7668 53.1797C72.7801 53.2307 74.046 58.3078 68.8827 60.1643Z" fill="#0C0C0C"/>
<path opacity="0.1" d="M76.0681 63.4045C76.6523 63.3415 77.0884 62.9426 77.0423 62.5134C76.9962 62.0842 76.4852 61.7873 75.9011 61.8503C75.3169 61.9133 74.8808 62.3123 74.9269 62.7415C74.973 63.1706 75.484 63.4675 76.0681 63.4045Z" fill="#0C0C0C"/>
<path opacity="0.1" d="M82.2715 61.7811C82.3184 62.2098 82.8296 62.5062 83.414 62.4441C83.515 62.4331 83.6146 62.4116 83.7111 62.3801C83.744 61.8701 83.7513 61.3793 83.7417 60.9245C83.5802 60.8821 83.4121 60.8703 83.2463 60.8897C82.6619 60.9516 82.2259 61.3506 82.2715 61.7811Z" fill="#0C0C0C"/>
<path d="M93.5719 90.5185C93.3053 93.6551 92.0087 113.224 91.7524 117.088H57.8397C57.64 113.603 55.3347 98.366 54.5781 91.552C53.8558 85.0497 52.4387 81.7943 53.4774 79.8719C55.1748 76.7302 59.8131 74.9146 62.9757 74.4857C64.9071 74.2241 67.8116 74.0364 67.8116 74.0364C67.8116 74.0364 68.0575 79.0193 73.922 79.2967C81.905 79.6731 81.372 74.0364 81.4115 74.0364C82.7048 74.0364 90.0928 74.8563 91.9004 75.9293C96.825 78.8506 94.1378 83.8727 93.5719 90.5185Z" fill="#007C6A"/>
<path d="M115.585 92.7096L112.316 108.623C112.25 108.946 112.075 109.236 111.821 109.446C111.567 109.656 111.248 109.772 110.919 109.775L88.4096 109.967C88.1948 109.969 87.9824 109.923 87.7879 109.832C87.5933 109.741 87.4216 109.607 87.2852 109.441C87.1488 109.275 87.0513 109.081 86.9997 108.872C86.9481 108.663 86.9438 108.445 86.987 108.235L90.2559 92.3212C90.3223 91.9981 90.4973 91.7075 90.7518 91.498C91.0062 91.2885 91.3246 91.1727 91.654 91.1698L114.163 90.9778C114.378 90.9762 114.59 91.0226 114.784 91.1137C114.979 91.2048 115.15 91.3382 115.286 91.5042C115.423 91.6701 115.52 91.8645 115.572 92.0731C115.623 92.2817 115.628 92.4991 115.585 92.7096Z" fill="#292A2E"/>
<path d="M94.5951 104.013C94.6071 104.223 94.5431 104.429 94.4149 104.595C94.2867 104.761 94.103 104.875 93.8975 104.917L93.2045 105.069C93.2169 105.074 93.2281 105.081 93.2371 105.09C93.2461 105.099 93.2527 105.111 93.2562 105.124C93.2579 105.138 93.2546 105.153 93.2468 105.166C93.4134 105.213 93.5613 105.31 93.6699 105.445C93.7785 105.58 93.8424 105.746 93.8528 105.919C93.8538 106.12 93.7869 106.316 93.6629 106.475C93.5388 106.634 93.3649 106.746 93.1693 106.794L87.318 108.095C87.0188 108.162 86.7132 108.196 86.4066 108.196C85.7236 108.196 85.0509 108.03 84.4465 107.711C83.8421 107.393 83.3241 106.932 82.9371 106.368C82.5268 105.772 82.3649 105.039 82.486 104.325C82.6071 103.611 83.0015 102.972 83.5855 102.545L88.5629 98.9007C88.6725 98.8204 88.7998 98.768 88.9341 98.7478L88.476 100.976L88.5982 100.948L88.624 100.943L92.4411 100.164C92.8663 100.07 93.4488 100.225 93.524 100.71C93.5643 100.895 93.5407 101.089 93.4571 101.26C93.3735 101.43 93.2348 101.567 93.0636 101.649C93.0659 101.651 93.0706 101.653 93.0706 101.658C93.0706 101.663 93.0683 101.665 93.0683 101.67L93.7284 101.524C93.8491 101.497 93.9743 101.497 94.0949 101.525C94.2155 101.552 94.3286 101.606 94.4259 101.683C94.5231 101.759 94.6023 101.857 94.6575 101.967C94.7128 102.078 94.7428 102.2 94.7455 102.324C94.7454 102.522 94.6771 102.713 94.5521 102.866C94.4271 103.019 94.2531 103.125 94.0596 103.164L93.7753 103.227C93.773 103.237 93.7753 103.246 93.7706 103.253C93.9777 103.255 94.1768 103.333 94.3292 103.474C94.4816 103.614 94.5764 103.807 94.5951 104.013Z" fill="#E98862"/>
<g opacity="0.25">
<path d="M89.2686 102.442C89.2731 102.462 89.2851 102.479 89.302 102.49C89.319 102.501 89.3395 102.505 89.3592 102.501L93.0114 101.75C93.0214 101.748 93.0308 101.744 93.0392 101.739C93.0475 101.733 93.0547 101.726 93.0603 101.717C93.0659 101.709 93.0697 101.699 93.0716 101.689C93.0736 101.679 93.0735 101.669 93.0715 101.659C93.0694 101.649 93.0655 101.64 93.0598 101.631C93.0541 101.623 93.0468 101.616 93.0384 101.61C93.0299 101.605 93.0205 101.601 93.0105 101.599C93.0006 101.597 92.9904 101.597 92.9804 101.599L89.3282 102.349C89.3082 102.353 89.2906 102.365 89.2793 102.382C89.268 102.399 89.264 102.42 89.2681 102.44L89.2686 102.442Z" fill="#0C0C0C"/>
</g>
<g opacity="0.25">
<path d="M89.5544 104.065C89.559 104.084 89.571 104.101 89.5879 104.112C89.6049 104.123 89.6254 104.127 89.6451 104.123L93.7211 103.286C93.7411 103.282 93.7586 103.27 93.7699 103.253C93.7812 103.236 93.7852 103.215 93.7812 103.195C93.7764 103.175 93.7644 103.158 93.7475 103.147C93.7305 103.135 93.71 103.131 93.6901 103.134L89.6136 103.972C89.6037 103.974 89.5943 103.978 89.5859 103.983C89.5775 103.989 89.5703 103.996 89.5647 104.005C89.5591 104.013 89.5553 104.023 89.5534 104.033C89.5514 104.043 89.5515 104.053 89.5535 104.063L89.5544 104.065Z" fill="#0C0C0C"/>
</g>
<g opacity="0.25">
<path d="M89.8539 105.823C89.8585 105.843 89.8705 105.86 89.8874 105.871C89.9044 105.881 89.9249 105.885 89.9446 105.881L93.1958 105.213C93.2057 105.211 93.2152 105.207 93.2235 105.202C93.2319 105.196 93.2391 105.189 93.2447 105.18C93.2503 105.172 93.2541 105.162 93.256 105.152C93.2579 105.142 93.2579 105.132 93.2558 105.122C93.2538 105.112 93.2498 105.103 93.2442 105.094C93.2385 105.086 93.2312 105.079 93.2228 105.073C93.2143 105.068 93.2048 105.064 93.1949 105.062C93.185 105.06 93.1747 105.06 93.1648 105.062L89.9136 105.73C89.8935 105.734 89.876 105.746 89.8647 105.763C89.8534 105.78 89.8494 105.801 89.8535 105.821L89.8539 105.823Z" fill="#0C0C0C"/>
</g>
<path d="M86.9558 110.414L55.2105 116.16C54.2199 116.267 53.218 116.144 52.2831 115.799C51.3483 115.454 50.506 114.896 49.8224 114.17C49.1387 113.444 48.6323 112.569 48.3429 111.615C48.0534 110.66 47.9888 109.651 48.1541 108.667L52.597 82.2092C52.7369 81.3722 53.0402 80.571 53.4894 79.8514C53.9386 79.1318 54.525 78.508 55.2151 78.0155C55.9052 77.523 56.6853 77.1716 57.5111 76.9812C58.3368 76.7909 59.1919 76.7654 60.0275 76.9062C60.8631 77.047 61.6628 77.3513 62.3809 77.8018C63.099 78.2523 63.7214 78.8401 64.2126 79.5316C64.7038 80.2231 65.0541 81.0048 65.2435 81.832C65.4329 82.6592 65.4577 83.5157 65.3165 84.3525L62.2863 102.566L85.5602 99.6382L86.9558 110.414Z" fill="#007C6A"/>
<path d="M55.2102 116.277C55.1809 116.277 55.1527 116.266 55.1311 116.246C55.1095 116.227 55.0961 116.199 55.0935 116.17C55.0909 116.141 55.0993 116.112 55.1171 116.088C55.1349 116.065 55.1607 116.049 55.1896 116.044L86.8249 110.318L85.4588 99.7696L62.3009 102.682C62.2827 102.685 62.2642 102.683 62.247 102.677C62.2297 102.671 62.2141 102.661 62.2015 102.647C62.1888 102.634 62.1794 102.618 62.1739 102.601C62.1685 102.583 62.1673 102.565 62.1703 102.546L64.0964 90.9059C64.0988 90.8906 64.1042 90.8759 64.1123 90.8627C64.1204 90.8495 64.131 90.8381 64.1436 90.829C64.1562 90.82 64.1705 90.8136 64.1856 90.8102C64.2006 90.8068 64.2163 90.8065 64.2315 90.8092C64.2467 90.8117 64.2613 90.8172 64.2744 90.8253C64.2875 90.8335 64.2989 90.8442 64.3079 90.8567C64.3169 90.8693 64.3233 90.8835 64.3268 90.8986C64.3303 90.9136 64.3308 90.9292 64.3283 90.9445L62.4275 102.429L85.5452 99.5214C85.576 99.5175 85.6071 99.526 85.6317 99.5451C85.6563 99.5641 85.6723 99.5921 85.6763 99.623L87.072 110.398C87.0759 110.428 87.0681 110.458 87.0503 110.483C87.0325 110.507 87.0061 110.524 86.9764 110.529L55.2314 116.275C55.2244 116.277 55.2173 116.277 55.2102 116.277Z" fill="#0C0C0C"/>
<path d="M62.2682 102.45L60.2262 102.777L60.2634 103.01L62.3054 102.682L62.2682 102.45Z" fill="#0C0C0C"/>
</g>
<defs>
<clipPath id="clip0_1295_5920">
<rect width="226" height="227" fill="white"/>
</clipPath>
</defs>
</svg>
