<svg width="294" height="227" viewBox="0 0 294 227" fill="none" xmlns="http://www.w3.org/2000/svg">
<path d="M212.417 3.41528H117.425C110.15 3.41528 104.253 9.31228 104.253 16.5866V210.413C104.253 217.687 110.15 223.584 117.425 223.584H212.417C219.692 223.584 225.589 217.687 225.589 210.413V16.5866C225.589 9.31228 219.692 3.41528 212.417 3.41528Z" fill="white"/>
<path d="M208.081 227H116.918C112.698 226.995 108.652 225.246 105.668 222.136C102.684 219.027 101.005 214.811 101 210.413V16.587C101.005 12.1894 102.684 7.97345 105.668 4.86389C108.652 1.75432 112.698 0.00512241 116.918 0H208.082C212.302 0.00512241 216.348 1.75432 219.332 4.86389C222.316 7.97345 223.995 12.1894 224 16.587V210.413C223.995 214.811 222.316 219.027 219.332 222.136C216.348 225.246 212.301 226.995 208.081 227ZM116.918 6.83068C114.436 6.83396 112.057 7.86275 110.302 9.69142C108.547 11.5201 107.56 13.9994 107.557 16.5855V210.413C107.56 212.999 108.547 215.478 110.302 217.307C112.057 219.136 114.436 220.165 116.918 220.168H208.082C210.564 220.165 212.943 219.136 214.698 217.307C216.453 215.478 217.44 212.999 217.443 210.413V16.587C217.44 14.0009 216.453 11.5216 214.698 9.69297C212.943 7.8643 210.564 6.83551 208.082 6.83223L116.918 6.83068Z" fill="#292A2E"/>
<path d="M142 3H184V9.86288C184 10.5375 183.842 11.2055 183.536 11.8288C183.229 12.452 182.78 13.0183 182.213 13.4954C181.647 13.9724 180.975 14.3508 180.235 14.609C179.495 14.8671 178.701 15 177.9 15H148.1C146.482 15 144.93 14.4588 143.787 13.4954C142.643 12.532 142 11.2253 142 9.86288L142 3Z" fill="#292A2E"/>
<path d="M39.3082 51.7101C39.2486 45.9544 41.5235 42.3877 44.6075 40.4294C47.6508 38.497 57.1943 36.815 60.8125 43.8296C63.1737 48.407 62.2416 50.0433 62.9105 57.3744C63.5794 64.7056 66.149 65.4752 68.7557 74.3613C70.7995 81.3318 59.3492 85.032 49.4354 84.7123C39.5215 84.3925 33.2354 82.1962 32.6602 75.8915C31.833 66.8416 39.4243 62.9893 39.3082 51.7101Z" fill="#1F1F2A"/>
<path d="M45.2158 67.6259C45.2158 67.6259 48.1941 66.0113 47.4513 57.8668L53.6247 56.6633C53.6247 56.6633 52.9968 63.9794 56.1466 66.2687L45.2158 67.6259Z" fill="#E98862"/>
<g opacity="0.15">
<path d="M54.8654 64.7502L49.6919 60.8672L53.7266 60.7898C53.8562 62.1693 54.2425 63.5125 54.8654 64.7502Z" fill="#1F1F2A"/>
</g>
<path d="M43.9129 54.7357C44.3639 57.2046 45.7346 59.5357 47.9232 60.3126C50.3096 61.2344 52.8852 61.5583 55.4255 61.2563C62.1904 60.6389 60.7101 45.2581 57.4686 42.2976C54.227 39.3371 44.8106 41.3171 43.7097 46.3284C43.1402 48.9215 43.484 52.3868 43.9129 54.7357Z" fill="#E98862"/>
<path d="M53.5746 52.7431C53.8843 52.7431 54.1355 52.492 54.1355 52.1822C54.1355 51.8725 53.8843 51.6213 53.5746 51.6213C53.2648 51.6213 53.0137 51.8725 53.0137 52.1822C53.0137 52.492 53.2648 52.7431 53.5746 52.7431Z" fill="#1F1F2A"/>
<path d="M57.9964 52.3393C58.3062 52.3393 58.5574 52.0882 58.5574 51.7784C58.5574 51.4687 58.3062 51.2175 57.9964 51.2175C57.6867 51.2175 57.4355 51.4687 57.4355 51.7784C57.4355 52.0882 57.6867 52.3393 57.9964 52.3393Z" fill="#1F1F2A"/>
<path d="M58.9545 50.5746C59.0244 50.5746 59.0915 50.5468 59.1409 50.4974C59.1904 50.4479 59.2181 50.3809 59.2181 50.311C59.2181 50.2411 59.1904 50.174 59.1409 50.1246C59.0915 50.0751 59.0244 50.0474 58.9545 50.0474L57.4688 50.0427C57.4007 50.0453 57.3363 50.0742 57.289 50.1233C57.2417 50.1725 57.2153 50.238 57.2153 50.3061C57.2153 50.3743 57.2417 50.4398 57.289 50.4889C57.3363 50.5381 57.4007 50.567 57.4688 50.5696L58.9545 50.5746Z" fill="#1F1F2A"/>
<path d="M52.3522 51.1764C52.3739 51.1765 52.3954 51.1739 52.4165 51.1687L53.8781 50.8029C53.9445 50.7846 54.001 50.7411 54.0357 50.6817C54.0704 50.6223 54.0805 50.5516 54.0638 50.4849C54.0471 50.4181 54.005 50.3605 53.9464 50.3244C53.8879 50.2883 53.8175 50.2765 53.7504 50.2915L52.2887 50.6577C52.2263 50.6732 52.1717 50.711 52.1353 50.7639C52.0988 50.8169 52.083 50.8814 52.0908 50.9452C52.0986 51.009 52.1295 51.0678 52.1777 51.1104C52.2258 51.153 52.2879 51.1765 52.3522 51.1764Z" fill="#1F1F2A"/>
<path d="M53.8745 56.5969C53.8745 56.5969 55.947 56.7963 57.3936 56.2756C57.3936 56.2756 57.3936 57.6394 55.7573 57.7888C54.1211 57.9382 53.8745 56.5969 53.8745 56.5969Z" fill="white"/>
<path d="M48.4096 48.2884C48.2626 59.4572 47.186 63.7958 47.186 63.7958C47.186 63.7958 41.8975 57.4053 41.0994 50.6346C40.3511 44.2897 44.997 40.4965 48.153 39.7603C60.1452 36.9631 60.9779 45.7103 60.9779 45.7103C60.2037 48.6945 47.1109 50.5459 47.1109 50.5459" fill="#1F1F2A"/>
<path d="M50.7648 54.6254C50.8193 55.2519 50.6233 55.8745 50.2199 56.3569C49.8164 56.8393 49.2383 57.1422 48.612 57.1994C47.9858 57.2565 47.3624 57.0633 46.8782 56.662C46.3941 56.2606 46.0886 55.6838 46.0287 55.0578C45.9949 54.7459 46.0243 54.4303 46.115 54.1299C46.2057 53.8296 46.3559 53.5505 46.5567 53.3094C46.7574 53.0683 47.0047 52.87 47.2837 52.7264C47.5627 52.5828 47.8677 52.4968 48.1806 52.4736C49.8749 52.4027 50.6452 53.3178 50.7648 54.6254Z" fill="#E98862"/>
<g opacity="0.15">
<path d="M56.0916 55.27C56.0455 55.2699 56.0009 55.2534 55.9659 55.2234C55.931 55.1933 55.9078 55.1518 55.9007 55.1063C55.8936 55.0607 55.903 55.0141 55.9272 54.9749C55.9514 54.9356 55.9889 54.9063 56.0327 54.8922L57.1704 54.5314L56.3575 52.7616C56.346 52.7384 56.3393 52.7132 56.3377 52.6874C56.3362 52.6615 56.3398 52.6356 56.3485 52.6112C56.3571 52.5868 56.3705 52.5644 56.388 52.5453C56.4054 52.5262 56.4265 52.5107 56.45 52.4999C56.4735 52.4891 56.499 52.4831 56.5248 52.4823C56.5507 52.4815 56.5765 52.4858 56.6006 52.4952C56.6248 52.5045 56.6468 52.5185 56.6654 52.5365C56.684 52.5545 56.6988 52.576 56.709 52.5998L57.6152 54.5686C57.6266 54.5934 57.6327 54.6204 57.633 54.6478C57.6332 54.6751 57.6277 54.7022 57.6167 54.7273C57.6057 54.7523 57.5896 54.7748 57.5693 54.7931C57.549 54.8115 57.5251 54.8253 57.4991 54.8338L56.1527 55.2596C56.1331 55.2663 56.1124 55.2698 56.0916 55.27Z" fill="#1F1F2A"/>
</g>
<path d="M96.064 85.1266C96.064 85.1266 98.3405 82.4251 100.762 81.9969C103.184 81.5688 102.579 82.962 101.14 84.0013C99.7019 85.0407 96.4565 87.1333 96.4565 87.1333" fill="#E98862"/>
<path d="M97.7305 84.3062C97.7305 84.3062 102.249 82.4687 104.186 83.2998C104.186 83.2998 105.874 84.9562 104.219 87.132C102.632 89.2188 98.4903 89.9938 98.4903 89.9938L97.7305 84.3062Z" fill="#E98862"/>
<path d="M71.6125 222.757L63.54 221.796C63.9035 218.741 64.3142 215.071 64.3421 214.469C64.3421 214.508 64.3421 214.54 64.3421 214.564H72.4711C72.4696 214.808 72.4696 215.549 71.6125 222.757Z" fill="#E98862"/>
<path d="M39.2218 223.728L31.0928 223.701C31.0928 223.701 31.1199 215.307 31.1199 214.566H39.2489C39.2489 215.31 39.2218 223.728 39.2218 223.728Z" fill="#E98862"/>
<path d="M60.2912 220.189L74.6138 219.945C74.0184 204.863 73.917 187.612 73.7571 172.001C73.7127 168.132 73.4205 164.27 72.8823 160.438C70.5783 143.9 69.0752 127.458 65.9734 111.014L65.8697 111.045L65.5673 108.981L36.1183 107.164L34.5854 126.403C34.5854 126.403 30.7493 192.963 29 219.726L43.2718 220.931C45.8433 194.692 49.8226 156.458 52.2702 128.893C55.0809 142.313 56.9928 156.209 59.4369 169.515C59.9235 186.172 60.3365 203.583 60.2912 220.189Z" fill="#262626"/>
<path d="M49.1041 226.871C49.3228 226.87 49.5388 226.824 49.7389 226.736C49.9389 226.648 50.1185 226.519 50.2667 226.358C50.4148 226.197 50.5281 226.008 50.5996 225.801C50.6711 225.595 50.6993 225.375 50.6823 225.158C50.6587 224.855 50.5493 224.566 50.3669 224.324C50.1846 224.082 49.9369 223.897 49.653 223.791L40.1913 220.622C40.008 220.562 39.8137 220.541 39.6218 220.563C39.43 220.584 39.245 220.647 39.0795 220.746C37.7787 221.649 36.2228 222.11 34.6403 222.062C33.4078 221.975 32.2247 221.542 31.2261 220.815C31.1383 220.743 31.0319 220.697 30.9192 220.683C30.8065 220.67 30.6922 220.688 30.5896 220.737C30.487 220.785 30.4004 220.862 30.3398 220.958C30.2793 221.054 30.2473 221.166 30.2476 221.279V225.906C30.2476 226.042 30.2745 226.177 30.3269 226.303C30.3792 226.43 30.456 226.544 30.5527 226.64C30.6494 226.737 30.7642 226.813 30.8904 226.865C31.0167 226.917 31.152 226.943 31.2885 226.942L49.1041 226.871Z" fill="#D4E9E6"/>
<path d="M81.5167 226.871C81.7353 226.87 81.9514 226.824 82.1514 226.736C82.3514 226.648 82.5311 226.519 82.6791 226.358C82.8272 226.197 82.9405 226.008 83.012 225.801C83.0835 225.595 83.1116 225.375 83.0945 225.158C83.071 224.855 82.9617 224.566 82.7793 224.324C82.5969 224.082 82.3492 223.897 82.0652 223.791L72.6039 220.622C72.4206 220.562 72.2263 220.541 72.0344 220.563C71.8426 220.584 71.6576 220.647 71.4921 220.746C70.1913 221.649 68.6354 222.11 67.0529 222.062C65.8203 221.975 64.6371 221.542 63.6384 220.815C63.5505 220.743 63.4441 220.697 63.3315 220.684C63.2188 220.67 63.1046 220.688 63.0021 220.737C62.8996 220.786 62.813 220.863 62.7525 220.959C62.692 221.055 62.6599 221.166 62.6602 221.279V225.906C62.6602 226.042 62.6871 226.177 62.7395 226.303C62.7918 226.43 62.8686 226.544 62.9653 226.64C63.062 226.737 63.1768 226.813 63.303 226.865C63.4293 226.917 63.5646 226.943 63.7011 226.942L81.5167 226.871Z" fill="#D4E9E6"/>
<path d="M76.1525 98.5693C75.4458 98.5694 74.7512 98.3852 74.1374 98.035C73.5236 97.6847 73.0118 97.1804 72.6523 96.5719L58.6558 72.884L65.6544 68.7483L77.9676 89.5872L97.4268 82.9311L100.059 90.6223L77.4686 98.3499C77.045 98.4951 76.6003 98.5693 76.1525 98.5693Z" fill="#007C6A"/>
<path d="M67.4769 110.283C65.855 114.011 33.9854 115.559 33.5596 109.002C33.2887 104.829 36.9661 101.187 36.9661 93.0536C36.9661 84.9208 29.4835 74.535 35.5803 68.4383C37.3493 66.6692 40.4035 65.5273 44.1273 65.5234C44.406 67.695 57.5905 67.7028 57.6912 65.5738C58.1944 65.5815 58.5853 65.5892 58.8292 65.6009C71.673 66.1544 66.0292 80.7711 65.9053 91.5091C65.7543 104.074 69.1492 106.443 67.4769 110.283Z" fill="#007C6A"/>
<path d="M87.5845 102.33C86.5969 102.33 85.6467 101.952 84.9283 101.275L66.1445 83.5502C65.7719 83.202 65.4718 82.7837 65.2614 82.3193C65.051 81.8548 64.9345 81.3533 64.9184 80.8437C64.9024 80.334 64.9872 79.8262 65.168 79.3495C65.3488 78.8727 65.622 78.4363 65.9719 78.0655C66.3218 77.6946 66.7416 77.3965 67.207 77.1883C67.6725 76.9801 68.1745 76.8659 68.6842 76.8524C69.1939 76.8388 69.7013 76.926 70.1772 77.1091C70.6531 77.2921 71.0882 77.5674 71.4574 77.9191L87.3709 92.9345L120.461 56.4702C120.801 56.0867 121.213 55.7745 121.675 55.5517C122.136 55.3288 122.637 55.1996 123.148 55.1718C123.66 55.1439 124.171 55.2178 124.654 55.3892C125.137 55.5606 125.581 55.8261 125.96 56.1703C126.339 56.5145 126.647 56.9306 126.864 57.3945C127.081 57.8583 127.205 58.3607 127.226 58.8724C127.248 59.3842 127.168 59.8952 126.991 60.3758C126.814 60.8565 126.543 61.2971 126.194 61.6723L90.4514 101.06C90.1055 101.441 89.6871 101.75 89.2207 101.967C88.7542 102.185 88.249 102.307 87.7347 102.327C87.6848 102.329 87.6345 102.33 87.5845 102.33Z" fill="#0CBC8B"/>
<path d="M57.6913 65.5738C57.5906 67.7028 56.4332 70.8344 52.8603 71.0705C48.099 71.3841 44.4061 67.6951 44.1274 65.5235H44.1391C48.8268 65.5231 54.9584 65.5308 57.6913 65.5738Z" fill="#E98862"/>
<path d="M68.5159 95.3764C68.5159 95.3764 67.6197 90.278 71.3053 89.8565C73.6305 89.5905 79.4765 86.3583 80.5855 89.0598C81.5474 91.4037 75.9647 94.1939 73.9662 94.7114C72.1751 95.1717 68.5159 95.3764 68.5159 95.3764Z" fill="#E98862"/>
<path d="M70.0483 90.2624C70.0483 90.2624 74.7976 87.658 76.0971 87.7188C77.2475 87.7726 75.2904 89.998 75.2904 89.998L70.0483 90.2624Z" fill="#E98862"/>
<path d="M49.3684 103.719C48.5533 103.719 47.7558 103.483 47.0721 103.04C46.3883 102.596 45.8477 101.964 45.5156 101.22L33.6895 74.7422L41.3961 71.2998L51.6994 94.3707L71.5361 88.2824L74.0135 96.3507L50.6071 103.533C50.2058 103.656 49.7882 103.719 49.3684 103.719Z" fill="#007C6A"/>
<path d="M106.495 84.1159C106.596 83.9695 106.645 83.793 106.632 83.6155C106.62 83.438 106.548 83.2699 106.427 83.1388C105.841 82.5044 104.751 81.4983 104.034 81.8703C103.012 82.4003 100.967 84.3694 101.535 85.3929C102.103 86.4164 103.277 87.5397 104.036 87.1991C104.609 86.9417 105.839 85.0697 106.495 84.1159Z" fill="#E98862"/>
<path d="M13.2861 227H201.549C201.624 227 201.697 226.97 201.751 226.916C201.804 226.862 201.835 226.789 201.835 226.713C201.835 226.636 201.804 226.563 201.751 226.509C201.697 226.456 201.624 226.425 201.549 226.425H13.2861C13.2102 226.425 13.1374 226.456 13.0838 226.509C13.0301 226.563 13 226.636 13 226.713C13 226.789 13.0301 226.862 13.0838 226.916C13.1374 226.97 13.2102 227 13.2861 227Z" fill="#262626"/>
<path d="M101.286 227H289.549C289.624 227 289.697 226.97 289.751 226.916C289.804 226.862 289.835 226.789 289.835 226.713C289.835 226.636 289.804 226.563 289.751 226.509C289.697 226.456 289.624 226.425 289.549 226.425H101.286C101.21 226.425 101.137 226.456 101.084 226.509C101.03 226.563 101 226.636 101 226.713C101 226.789 101.03 226.862 101.084 226.916C101.137 226.97 101.21 227 101.286 227Z" fill="#262626"/>
<path d="M204 149H122V165H204V149Z" fill="#007C6A"/>
<path d="M189.959 76.29C189.969 83.2817 187.259 90.0032 182.403 95.0331C178.757 86.8848 171.398 81.3222 162.924 81.3222C154.443 81.3222 147.085 86.8925 143.438 95.0409C140.369 91.8528 138.13 87.9604 136.916 83.705C135.702 79.4497 135.551 74.9615 136.477 70.6342C137.402 66.307 139.375 62.2729 142.223 58.886C145.071 55.4991 148.706 52.8629 152.81 51.2086C156.915 49.5544 161.362 48.9326 165.763 49.398C170.163 49.8633 174.382 51.4016 178.05 53.8777C181.717 56.3538 184.721 59.6921 186.797 63.5997C188.874 67.5074 189.959 71.8649 189.959 76.29Z" fill="#007C6A"/>
<path d="M162.92 79.0755C168.832 79.0755 173.625 74.2827 173.625 68.3704C173.625 62.4581 168.832 57.6653 162.92 57.6653C157.008 57.6653 152.215 62.4581 152.215 68.3704C152.215 74.2827 157.008 79.0755 162.92 79.0755Z" fill="#F3F5FD"/>
<path d="M182.403 95.0334C179.881 97.6558 176.856 99.7422 173.508 101.168C170.161 102.593 166.56 103.328 162.922 103.329C159.284 103.33 155.683 102.596 152.335 101.172C148.987 99.7477 145.961 97.6626 143.438 95.0412C147.084 86.8928 154.443 81.3225 162.924 81.3225C171.398 81.3225 178.757 86.8851 182.403 95.0334Z" fill="#F3F5FD"/>
<path d="M203.778 114.03H122.066V117.293H203.778V114.03Z" fill="#D4E9E6"/>
<path d="M203.778 122.913H122.066V126.176H203.778V122.913Z" fill="#D4E9E6"/>
<path d="M159.541 132.1H122.066V135.363H159.541V132.1Z" fill="#D4E9E6"/>
<path d="M263.062 202.331L266.981 226.954H240.033L244.861 202.331H263.062Z" fill="#262626"/>
<path opacity="0.2" d="M263.062 202.331L266.981 226.954H240.033L244.861 202.331H263.062Z" fill="white"/>
<path d="M254.192 202.409C254.178 202.409 254.164 202.408 254.15 202.405C254.084 202.394 254.024 202.357 253.985 202.302C253.945 202.247 253.929 202.179 253.94 202.112L261.362 157.331C261.375 157.265 261.412 157.207 261.467 157.169C261.521 157.131 261.589 157.116 261.654 157.126C261.72 157.137 261.779 157.173 261.818 157.227C261.858 157.281 261.875 157.348 261.865 157.414L254.444 202.195C254.434 202.255 254.403 202.309 254.357 202.348C254.311 202.387 254.253 202.409 254.192 202.409Z" fill="#494949"/>
<path d="M255.942 192.26C255.883 192.26 255.826 192.24 255.781 192.203C255.735 192.166 255.704 192.114 255.692 192.057C255.68 192 255.688 191.94 255.715 191.888C255.742 191.836 255.786 191.795 255.839 191.771L273.96 183.849C274.021 183.824 274.09 183.824 274.151 183.849C274.213 183.874 274.262 183.922 274.289 183.983C274.315 184.044 274.317 184.113 274.294 184.175C274.27 184.237 274.224 184.288 274.164 184.316L256.044 192.238C256.011 192.252 255.977 192.26 255.942 192.26Z" fill="#494949"/>
<path d="M256.839 184.591C256.805 184.584 256.773 184.57 256.745 184.549L244.521 175.817C244.492 175.798 244.468 175.774 244.448 175.746C244.429 175.717 244.416 175.685 244.409 175.651C244.403 175.617 244.403 175.582 244.411 175.549C244.418 175.515 244.432 175.483 244.452 175.455C244.472 175.427 244.497 175.403 244.527 175.385C244.556 175.367 244.589 175.356 244.623 175.351C244.657 175.346 244.692 175.348 244.725 175.356C244.758 175.365 244.789 175.381 244.817 175.402L257.04 184.134C257.088 184.168 257.122 184.218 257.137 184.274C257.153 184.331 257.148 184.391 257.124 184.444C257.101 184.498 257.059 184.542 257.007 184.568C256.955 184.595 256.896 184.603 256.838 184.591L256.839 184.591Z" fill="#494949"/>
<path d="M279.229 198.074C284.525 195.448 286.351 188.344 283.308 182.207C280.265 176.071 273.505 173.225 268.21 175.851C262.914 178.477 261.087 185.58 264.13 191.717C267.173 197.854 273.933 200.7 279.229 198.074Z" fill="#007C6A"/>
<path opacity="0.5" d="M280.557 196.298C275.262 198.924 268.501 196.078 265.459 189.941C263.395 185.779 263.571 181.174 265.552 177.82C266.313 177.009 267.213 176.34 268.21 175.847C273.506 173.221 280.266 176.067 283.309 182.204C285.374 186.366 285.198 190.973 283.216 194.325C282.455 195.136 281.554 195.805 280.557 196.298Z" fill="white"/>
<path d="M272.189 162.186C274.386 156.741 271.547 150.463 265.848 148.164C260.15 145.864 253.749 148.414 251.552 153.858C249.355 159.303 252.193 165.581 257.892 167.88C263.591 170.18 269.992 167.63 272.189 162.186Z" fill="#007C6A"/>
<path opacity="0.5" d="M272.187 162.184C272.104 162.389 272.015 162.59 271.919 162.787C269.104 166.755 263.674 168.373 258.765 166.392C253.067 164.092 250.228 157.814 252.425 152.369C252.508 152.163 252.597 151.963 252.693 151.765C255.508 147.797 260.938 146.179 265.847 148.161C271.545 150.461 274.384 156.739 272.187 162.184Z" fill="white"/>
<path d="M250.687 179.342C253.549 174.062 252.175 167.778 247.618 165.308C243.061 162.837 237.046 165.116 234.183 170.397C231.321 175.677 232.694 181.961 237.252 184.431C241.809 186.902 247.824 184.623 250.687 179.342Z" fill="#007C6A"/>
<path opacity="0.5" d="M236.144 182.835C240.701 185.306 246.717 183.027 249.579 177.746C251.52 174.165 251.513 170.123 249.885 167.121C249.243 166.385 248.476 165.771 247.618 165.307C243.061 162.836 237.045 165.115 234.183 170.396C232.241 173.979 232.248 178.021 233.878 181.022C234.519 181.757 235.287 182.371 236.144 182.835Z" fill="white"/>
</svg>
