<svg width="199" height="227" viewBox="0 0 199 227" fill="none" xmlns="http://www.w3.org/2000/svg">
<path d="M30.0043 32.0376C27.9463 32.023 25.9664 31.2448 24.4452 29.8524C22.924 28.4601 21.969 26.552 21.7638 24.4951C21.5585 22.4382 22.1176 20.3776 23.3335 18.7098C24.5494 17.0419 26.3362 15.8845 28.3503 15.46C27.8136 12.398 28.3946 9.24424 29.9865 6.57786C31.1419 4.6166 32.7968 3.00021 34.781 1.89521C36.7652 0.790208 39.0067 0.236557 41.2748 0.291297C43.5428 0.346036 45.7554 1.00719 47.6844 2.20663C49.6134 3.40608 51.1892 5.10045 52.2494 7.11518C53.4965 6.2546 55.0065 5.86506 56.5121 6.01552C58.0176 6.16598 59.4216 6.84673 60.4755 7.93725C61.4963 8.99205 62.1344 10.361 62.2873 11.824C64.197 11.9538 66.0306 12.6265 67.5739 13.7638C69.1172 14.901 70.3066 16.4558 71.0032 18.2465C71.6998 20.0373 71.8749 21.9902 71.508 23.8772C71.1411 25.7642 70.2474 27.5074 68.9312 28.9033C68.0286 29.8656 66.9443 30.6379 65.7416 31.1751C64.5388 31.7123 63.2417 32.0038 61.9257 32.0324L30.0043 32.0376Z" fill="#292A2E"/>
<path d="M27.6244 32.0375C25.5664 32.023 23.5865 31.2447 22.0653 29.8524C20.5441 28.46 19.5891 26.552 19.3839 24.495C19.1787 22.4381 19.7377 20.3776 20.9536 18.7097C22.1695 17.0419 23.9563 15.8844 25.9704 15.4599C25.4337 12.398 26.0145 9.24423 27.6064 6.57782C28.7617 4.61657 30.4167 3.00019 32.4009 1.89519C34.3851 0.790202 36.6267 0.236557 38.8948 0.291297C41.1628 0.346036 43.3754 1.00718 45.3044 2.20662C47.2335 3.40605 48.8093 5.10041 49.8696 7.11514C51.1166 6.25456 52.6266 5.86501 54.1322 6.01547C55.6378 6.16593 57.0418 6.84669 58.0956 7.93721C59.1163 8.99209 59.7544 10.361 59.9074 11.824C61.8171 11.9537 63.6507 12.6265 65.194 13.7637C66.7373 14.9009 67.9267 16.4557 68.6233 18.2465C69.32 20.0373 69.495 21.9902 69.1281 23.8772C68.7612 25.7641 67.8675 27.5073 66.5513 28.9032C65.6486 29.8655 64.5644 30.6378 63.3617 31.175C62.1589 31.7122 60.8618 32.0037 59.5459 32.0323L27.6244 32.0375Z" fill="white"/>
<path d="M27.6243 32.325C25.3464 32.3145 23.1656 31.3968 21.5605 29.7732C19.9553 28.1496 19.0568 25.9528 19.0622 23.6647C19.0382 21.7168 19.6779 19.8192 20.875 18.2866C22.0721 16.7539 23.7548 15.6784 25.644 15.2382C25.1811 12.1917 25.7879 9.07828 27.3603 6.43197C28.5277 4.44951 30.1947 2.81119 32.1933 1.68214C34.1919 0.55309 36.4516 -0.0267883 38.7444 0.000950438C41.0373 0.0286892 43.2823 0.663065 45.2533 1.84014C47.2243 3.01721 48.8515 4.69538 49.971 6.70551C51.2687 5.89827 52.8019 5.56061 54.3168 5.74848C55.8316 5.93634 57.2371 6.63846 58.3003 7.73848C59.3082 8.78025 59.9602 10.117 60.1619 11.5555C62.1022 11.7322 63.9538 12.4542 65.5047 13.6386C67.0556 14.8231 68.2432 16.4222 68.9315 18.253C69.6199 20.0838 69.7812 22.0723 69.3969 23.9909C69.0127 25.9095 68.0985 27.6806 66.7589 29.1016C65.8302 30.0914 64.7147 30.8856 63.4774 31.4381C62.2401 31.9906 60.9058 32.2903 59.5521 32.3198L27.6243 32.325ZM38.591 0.57606C36.7585 0.585581 34.9501 0.996714 33.2921 1.78076C31.6341 2.56481 30.1664 3.70288 28.9915 5.11553C27.8166 6.52818 26.9628 8.18138 26.4897 9.95973C26.0165 11.7381 25.9354 13.5987 26.2521 15.4118L26.2999 15.6876L26.0267 15.7428C24.2077 16.1051 22.5724 17.0958 21.4047 18.5429C20.237 19.99 19.6106 21.8021 19.6343 23.6647C19.6288 25.8004 20.4669 27.8512 21.9648 29.367C23.4627 30.8828 25.4981 31.74 27.6243 31.7503L59.5458 31.7463C60.823 31.7176 62.0817 31.434 63.2488 30.9121C64.4159 30.3902 65.4679 29.6404 66.3438 28.7063C67.6225 27.35 68.4907 25.6564 68.8472 23.8231C69.2037 21.9898 69.0336 20.0925 68.357 18.3526C67.6803 16.6127 66.5249 15.1021 65.0257 13.997C63.5265 12.8919 61.7452 12.2379 59.8899 12.1115L59.6479 12.0971L59.6227 11.8549C59.4762 10.4562 58.8662 9.14755 57.8907 8.13874C56.884 7.09681 55.5428 6.4463 54.1044 6.30242C52.6661 6.15853 51.2234 6.53055 50.032 7.35259L49.7676 7.53562L49.6169 7.25116C48.556 5.23746 46.9691 3.55209 45.0265 2.37605C43.0839 1.20002 40.8591 0.577741 38.591 0.57606Z" fill="#292A2E"/>
<path d="M44.4994 27.3846C44.4236 27.3846 44.3508 27.3543 44.2972 27.3005C44.2435 27.2466 44.2134 27.1735 44.2134 27.0973V10.4079C44.2134 10.3317 44.2435 10.2586 44.2972 10.2048C44.3508 10.1509 44.4236 10.1206 44.4994 10.1206C44.5753 10.1206 44.6481 10.1509 44.7017 10.2048C44.7553 10.2586 44.7855 10.3317 44.7855 10.4079V27.0973C44.7855 27.1735 44.7553 27.2466 44.7017 27.3005C44.6481 27.3543 44.5753 27.3846 44.4994 27.3846Z" fill="#292A2E"/>
<path d="M50.7743 16.998C50.7368 16.9981 50.6995 16.9907 50.6648 16.9762C50.6301 16.9618 50.5986 16.9406 50.5721 16.9138L44.4995 10.8142L38.4272 16.9138C38.3732 16.9661 38.301 16.9951 38.2259 16.9944C38.1509 16.9938 38.0792 16.9636 38.0262 16.9103C37.9731 16.857 37.943 16.7849 37.9424 16.7096C37.9417 16.6343 37.9706 16.5617 38.0227 16.5075L44.297 10.2048C44.3517 10.1529 44.4241 10.124 44.4993 10.124C44.5746 10.124 44.647 10.1529 44.7017 10.2048L50.9763 16.5075C51.0163 16.5477 51.0435 16.5989 51.0546 16.6546C51.0656 16.7103 51.0599 16.7681 51.0383 16.8206C51.0166 16.8731 50.98 16.918 50.9329 16.9495C50.8859 16.9811 50.8306 16.998 50.7741 16.998H50.7743Z" fill="#292A2E"/>
<path d="M171.935 192.631C171.866 192.631 171.8 192.604 171.751 192.555C171.385 192.187 170.789 185.442 169.182 165.358C168.524 157.14 167.903 149.378 167.449 144.66C167.417 144.324 167.287 144.284 167.244 144.271C166.624 144.083 164.737 145.578 163.684 146.886C163.64 146.938 163.577 146.971 163.51 146.977C163.442 146.983 163.375 146.963 163.322 146.92C163.269 146.877 163.235 146.815 163.227 146.748C163.219 146.68 163.238 146.612 163.279 146.558C163.976 145.693 166.247 143.424 167.394 143.771C167.625 143.84 167.912 144.042 167.966 144.609C168.419 149.331 169.041 157.095 169.699 165.315C170.675 177.52 171.781 191.346 172.145 192.217C172.173 192.256 172.189 192.302 172.193 192.35C172.196 192.398 172.187 192.446 172.165 192.488C172.143 192.531 172.11 192.567 172.069 192.592C172.029 192.617 171.982 192.63 171.934 192.63L171.935 192.631Z" fill="#494949"/>
<path d="M166.782 153.318C171.093 149.847 172.522 144.444 169.974 141.251C167.425 138.058 161.865 138.283 157.554 141.754C153.243 145.225 151.814 150.627 154.363 153.82C156.911 157.014 162.471 156.789 166.782 153.318Z" fill="#007C6A"/>
<path opacity="0.2" d="M166.782 153.318C171.093 149.847 172.522 144.444 169.974 141.251C167.425 138.058 161.865 138.283 157.554 141.754C153.243 145.225 151.814 150.627 154.363 153.82C156.911 157.014 162.471 156.789 166.782 153.318Z" fill="white"/>
<path d="M155.571 154.632C155.546 154.632 155.522 154.625 155.502 154.612C155.481 154.598 155.464 154.579 155.454 154.557C155.443 154.535 155.439 154.51 155.442 154.485C155.446 154.461 155.456 154.437 155.471 154.418L167.757 139.537C167.779 139.51 167.811 139.493 167.845 139.49C167.879 139.487 167.913 139.497 167.94 139.519C167.967 139.541 167.983 139.573 167.987 139.608C167.99 139.642 167.979 139.677 167.957 139.703L155.67 154.585C155.658 154.6 155.643 154.612 155.626 154.62C155.609 154.628 155.59 154.632 155.571 154.632Z" fill="white"/>
<path d="M174.615 189.442C174.585 189.442 174.556 189.437 174.529 189.427C174.464 189.405 174.41 189.357 174.38 189.295C174.35 189.232 174.346 189.161 174.369 189.095L178.983 175.765C179.119 175.373 179.35 175.022 179.656 174.743C179.962 174.465 180.333 174.268 180.735 174.171C181.136 174.074 181.555 174.079 181.954 174.187C182.353 174.295 182.718 174.501 183.017 174.788L185.456 177.129C185.481 177.153 185.501 177.181 185.515 177.212C185.528 177.244 185.536 177.277 185.537 177.312C185.537 177.346 185.531 177.38 185.519 177.412C185.507 177.444 185.488 177.473 185.465 177.498C185.441 177.523 185.413 177.542 185.382 177.556C185.35 177.57 185.317 177.578 185.283 177.578C185.249 177.579 185.215 177.573 185.183 177.561C185.151 177.548 185.122 177.53 185.097 177.506L182.658 175.165C182.422 174.939 182.133 174.776 181.818 174.691C181.504 174.606 181.173 174.601 180.856 174.678C180.539 174.755 180.246 174.91 180.004 175.131C179.763 175.351 179.58 175.628 179.473 175.937L174.858 189.27C174.84 189.32 174.807 189.364 174.764 189.394C174.72 189.425 174.668 189.442 174.615 189.442Z" fill="#494949"/>
<path d="M192.274 184.508C195.469 181.968 195.279 176.381 191.85 172.03C188.421 167.678 183.051 166.21 179.857 168.75C176.662 171.29 176.852 176.877 180.281 181.228C183.71 185.579 189.079 187.048 192.274 184.508Z" fill="#007C6A"/>
<path d="M169.838 191.782C169.78 191.782 169.723 191.762 169.677 191.726C169.632 191.689 169.6 191.638 169.586 191.581L161.842 159.055C161.789 158.833 161.676 158.63 161.516 158.468C161.356 158.307 161.155 158.193 160.934 158.139C160.713 158.084 160.482 158.093 160.266 158.162C160.05 158.231 159.857 158.359 159.708 158.532L157.321 161.303C157.276 161.355 157.212 161.387 157.143 161.392C157.075 161.397 157.007 161.375 156.955 161.329C156.902 161.284 156.87 161.22 156.865 161.151C156.86 161.082 156.883 161.014 156.928 160.961L159.315 158.19C159.526 157.945 159.801 157.763 160.108 157.665C160.415 157.566 160.744 157.554 161.057 157.631C161.371 157.708 161.657 157.87 161.885 158.1C162.112 158.33 162.272 158.618 162.347 158.933L170.092 191.46C170.101 191.498 170.101 191.538 170.093 191.576C170.084 191.615 170.067 191.651 170.043 191.682C170.018 191.713 169.987 191.738 169.952 191.755C169.917 191.772 169.878 191.781 169.839 191.781L169.838 191.782Z" fill="#494949"/>
<path d="M166.982 168.531C167.923 163.062 165.432 158.064 161.417 157.367C157.402 156.669 153.384 160.537 152.443 166.005C151.501 171.474 153.993 176.472 158.008 177.169C162.022 177.867 166.04 173.999 166.982 168.531Z" fill="#007C6A"/>
<path d="M171.936 192.632C171.925 192.632 171.914 192.631 171.903 192.629C171.835 192.621 171.773 192.586 171.73 192.531C171.688 192.477 171.669 192.407 171.677 192.339L176.622 152.007C176.677 151.568 176.856 151.153 177.139 150.814C177.421 150.475 177.796 150.224 178.216 150.093C178.637 149.962 179.087 149.956 179.511 150.076C179.935 150.195 180.316 150.435 180.608 150.767L186.26 157.197C186.284 157.223 186.303 157.253 186.315 157.286C186.326 157.318 186.332 157.353 186.33 157.388C186.328 157.423 186.32 157.457 186.305 157.488C186.29 157.52 186.268 157.548 186.242 157.571C186.216 157.594 186.186 157.612 186.153 157.623C186.12 157.634 186.085 157.638 186.05 157.635C186.016 157.633 185.982 157.623 185.951 157.607C185.92 157.591 185.893 157.569 185.871 157.542L180.218 151.111C179.993 150.855 179.699 150.669 179.371 150.577C179.043 150.485 178.695 150.489 178.37 150.59C178.045 150.692 177.755 150.885 177.537 151.148C177.318 151.41 177.18 151.73 177.138 152.07L172.193 192.403C172.185 192.466 172.155 192.524 172.107 192.566C172.06 192.608 171.999 192.631 171.936 192.632Z" fill="#494949"/>
<path d="M192.058 160.772C194.03 157.19 191.709 152.11 186.875 149.423C182.04 146.737 176.522 147.463 174.55 151.044C172.578 154.625 174.899 159.706 179.733 162.392C184.568 165.078 190.085 164.353 192.058 160.772Z" fill="#007C6A"/>
<path opacity="0.2" d="M192.274 184.508C195.469 181.968 195.279 176.381 191.85 172.03C188.421 167.678 183.051 166.21 179.857 168.75C176.662 171.29 176.852 176.877 180.281 181.228C183.71 185.579 189.079 187.048 192.274 184.508Z" fill="white"/>
<path opacity="0.5" d="M166.982 168.531C167.923 163.062 165.432 158.064 161.417 157.367C157.402 156.669 153.384 160.537 152.443 166.005C151.501 171.474 153.993 176.472 158.008 177.169C162.022 177.867 166.04 173.999 166.982 168.531Z" fill="white"/>
<path opacity="0.5" d="M192.058 160.772C194.03 157.19 191.709 152.11 186.875 149.423C182.04 146.737 176.522 147.463 174.55 151.044C172.578 154.625 174.899 159.706 179.733 162.392C184.568 165.078 190.085 164.353 192.058 160.772Z" fill="white"/>
<path d="M178.261 226.854H165.61L163.514 186.197H180.357L178.261 226.854Z" fill="#292A2E"/>
<path opacity="0.3" d="M178.261 226.854H165.61L163.514 186.197H180.357L178.261 226.854Z" fill="white"/>
<path d="M192.274 184.637C192.255 184.637 192.235 184.633 192.218 184.624C192.2 184.616 192.185 184.603 192.173 184.587L179.756 168.83C179.745 168.816 179.737 168.801 179.732 168.784C179.728 168.768 179.726 168.751 179.728 168.734C179.73 168.717 179.736 168.7 179.744 168.685C179.752 168.67 179.763 168.657 179.777 168.646C179.79 168.636 179.805 168.628 179.822 168.623C179.838 168.618 179.855 168.617 179.872 168.619C179.889 168.621 179.906 168.626 179.921 168.635C179.936 168.643 179.949 168.654 179.959 168.668L192.377 184.425C192.392 184.445 192.402 184.468 192.404 184.492C192.407 184.517 192.403 184.541 192.392 184.563C192.382 184.586 192.365 184.604 192.344 184.617C192.323 184.63 192.299 184.637 192.275 184.637H192.274Z" fill="white"/>
<path d="M191.232 162.034C191.204 162.034 191.178 162.025 191.155 162.009L175.265 150.354C175.251 150.344 175.239 150.331 175.23 150.317C175.221 150.302 175.216 150.286 175.213 150.269C175.21 150.252 175.211 150.235 175.215 150.218C175.219 150.201 175.226 150.186 175.236 150.172C175.247 150.158 175.259 150.146 175.274 150.137C175.288 150.129 175.305 150.123 175.321 150.12C175.338 150.117 175.355 150.118 175.372 150.122C175.389 150.126 175.404 150.133 175.418 150.144L191.308 161.798C191.33 161.814 191.347 161.837 191.355 161.864C191.364 161.89 191.364 161.918 191.355 161.944C191.347 161.97 191.33 161.993 191.308 162.009C191.285 162.026 191.259 162.034 191.231 162.034H191.232Z" fill="white"/>
<path d="M157.362 177C157.351 177 157.34 176.999 157.329 176.996C157.295 176.987 157.267 176.965 157.25 176.935C157.233 176.905 157.228 176.87 157.237 176.836L162.295 157.799C162.299 157.782 162.307 157.766 162.317 157.752C162.327 157.738 162.34 157.726 162.355 157.717C162.37 157.708 162.386 157.703 162.403 157.7C162.421 157.698 162.438 157.699 162.455 157.703C162.472 157.708 162.487 157.716 162.501 157.726C162.515 157.737 162.526 157.75 162.535 157.766C162.543 157.781 162.549 157.798 162.55 157.815C162.552 157.832 162.551 157.85 162.546 157.866L157.488 176.904C157.48 176.931 157.464 176.956 157.441 176.973C157.419 176.991 157.391 177 157.362 177Z" fill="white"/>
<path d="M143.449 13.5742H70.7857C64.7744 13.5742 59.9014 18.4692 59.9014 24.5074V196.088C59.9014 202.127 64.7744 207.021 70.7857 207.021H143.449C149.46 207.021 154.333 202.127 154.333 196.088V24.5074C154.333 18.4692 149.46 13.5742 143.449 13.5742Z" fill="#292A2E"/>
<path d="M143.415 16.988H70.8199C66.6923 16.988 63.3462 20.3491 63.3462 24.4953V195.845C63.3462 199.991 66.6923 203.352 70.8199 203.352H143.415C147.543 203.352 150.889 199.991 150.889 195.845V24.4953C150.889 20.3491 147.543 16.988 143.415 16.988Z" fill="white"/>
<path d="M89.188 15.5767H125.047V19.3037C125.046 20.3724 124.624 21.3973 123.871 22.1529C123.119 22.9085 122.098 23.333 121.034 23.333H93.2013C92.1371 23.333 91.1166 22.9084 90.3641 22.1525C89.6116 21.3967 89.1888 20.3715 89.1888 19.3025V15.5767H89.188Z" fill="#292A2E"/>
<path d="M121.046 52.1636H93.188C89.6154 52.1636 86.7192 55.0727 86.7192 58.6614V86.6447C86.7192 90.2334 89.6154 93.1426 93.188 93.1426H121.046C124.619 93.1426 127.515 90.2334 127.515 86.6447V58.6614C127.515 55.0727 124.619 52.1636 121.046 52.1636Z" fill="white"/>
<path d="M121.046 93.4299H93.188C91.3971 93.4279 89.6801 92.7124 88.4137 91.4404C87.1474 90.1683 86.4351 88.4437 86.4331 86.6447V58.6614C86.4351 56.8625 87.1475 55.1378 88.4138 53.8658C89.6802 52.5938 91.3971 51.8783 93.188 51.8762H121.046C122.837 51.8783 124.554 52.5938 125.82 53.8658C127.087 55.1378 127.799 56.8625 127.801 58.6614V86.6447C127.799 88.4437 127.087 90.1683 125.82 91.4404C124.554 92.7124 122.837 93.4279 121.046 93.4299ZM93.188 52.4509C91.5488 52.4528 89.9773 53.1077 88.8182 54.272C87.6591 55.4363 87.0071 57.0148 87.0052 58.6614V86.6447C87.0071 88.2913 87.6591 89.8698 88.8182 91.0341C89.9773 92.1984 91.5488 92.8533 93.188 92.8552H121.046C122.685 92.8534 124.257 92.1985 125.416 91.0342C126.575 89.8699 127.227 88.2913 127.229 86.6447V58.6614C127.227 57.0148 126.575 55.4362 125.416 54.2719C124.257 53.1076 122.685 52.4527 121.046 52.4509H93.188Z" fill="#292A2E"/>
<path opacity="0.6" d="M119.194 126.661V132.017H79.7964C79.0893 132.017 78.4112 131.735 77.9112 131.233C77.4113 130.73 77.1304 130.049 77.1304 129.339C77.1304 128.629 77.4113 127.948 77.9112 127.445C78.4112 126.943 79.0893 126.661 79.7964 126.661H119.194Z" fill="#007C6A"/>
<path d="M134.437 132.305H79.7971C79.407 132.309 79.0199 132.235 78.6583 132.088C78.2967 131.94 77.9678 131.722 77.6905 131.447C77.4133 131.171 77.1932 130.843 77.043 130.481C76.8928 130.119 76.8154 129.731 76.8154 129.339C76.8154 128.947 76.8928 128.559 77.043 128.197C77.1932 127.836 77.4133 127.507 77.6905 127.232C77.9678 126.956 78.2967 126.738 78.6583 126.591C79.0199 126.443 79.407 126.37 79.7971 126.373H134.437C135.216 126.381 135.959 126.697 136.507 127.252C137.054 127.808 137.361 128.558 137.361 129.339C137.361 130.121 137.054 130.871 136.507 131.426C135.959 131.981 135.216 132.297 134.437 132.305ZM79.7971 126.948C79.4823 126.945 79.17 127.004 78.8782 127.123C78.5863 127.241 78.3208 127.417 78.097 127.639C77.8732 127.861 77.6955 128.126 77.5742 128.418C77.4529 128.71 77.3905 129.023 77.3905 129.339C77.3905 129.655 77.4529 129.968 77.5742 130.26C77.6955 130.552 77.8732 130.817 78.097 131.039C78.3208 131.262 78.5863 131.437 78.8782 131.556C79.17 131.674 79.4823 131.734 79.7971 131.73H134.437C135.064 131.723 135.663 131.468 136.104 131.021C136.545 130.573 136.792 129.969 136.792 129.339C136.792 128.71 136.545 128.105 136.104 127.658C135.663 127.21 135.064 126.955 134.437 126.948H79.7971Z" fill="#292A2E"/>
<path opacity="0.8" d="M126.218 150.282H88.0164C85.7653 150.282 83.9404 152.115 83.9404 154.376V165.369C83.9404 167.63 85.7653 169.463 88.0164 169.463H126.218C128.47 169.463 130.294 167.63 130.294 165.369V154.376C130.294 152.115 128.47 150.282 126.218 150.282Z" fill="#007C6A"/>
<path d="M130.293 165.37V167.254C130.293 168.339 129.864 169.38 129.1 170.148C128.335 170.916 127.299 171.347 126.218 171.347H88.016C86.9352 171.347 85.8987 170.916 85.1345 170.148C84.3703 169.38 83.9409 168.339 83.9409 167.254V165.37C83.9409 166.456 84.3703 167.497 85.1345 168.264C85.8987 169.032 86.9352 169.463 88.016 169.463H126.218C127.299 169.463 128.335 169.032 129.1 168.264C129.864 167.497 130.293 166.455 130.293 165.37Z" fill="#007C6A"/>
<path d="M104.571 165.539C104.411 165.539 104.256 165.482 104.135 165.378L99.7623 161.613C99.6955 161.556 99.6406 161.486 99.6008 161.407C99.561 161.328 99.5371 161.242 99.5303 161.154C99.5235 161.066 99.5341 160.978 99.5614 160.894C99.5887 160.81 99.6323 160.732 99.6895 160.665C99.7467 160.598 99.8165 160.543 99.895 160.503C99.9734 160.463 100.059 160.439 100.147 160.432C100.234 160.425 100.322 160.436 100.406 160.463C100.49 160.49 100.567 160.534 100.634 160.592L104.514 163.932L113.542 154.009C113.602 153.944 113.673 153.891 113.753 153.854C113.832 153.816 113.919 153.795 114.007 153.791C114.094 153.787 114.182 153.801 114.265 153.831C114.348 153.861 114.424 153.907 114.488 153.967C114.553 154.026 114.606 154.098 114.643 154.178C114.68 154.258 114.702 154.345 114.706 154.433C114.71 154.521 114.696 154.609 114.666 154.692C114.636 154.776 114.59 154.852 114.531 154.917L105.065 165.321C105.002 165.39 104.926 165.445 104.841 165.483C104.756 165.52 104.664 165.539 104.571 165.539Z" fill="white"/>
<path d="M107.117 82.944C107.041 82.944 106.968 82.9137 106.915 82.8598C106.861 82.8059 106.831 82.7329 106.831 82.6566V62.6492C106.831 62.5729 106.861 62.4999 106.915 62.446C106.968 62.3921 107.041 62.3618 107.117 62.3618C107.193 62.3618 107.266 62.3921 107.319 62.446C107.373 62.4999 107.403 62.5729 107.403 62.6492V82.6566C107.403 82.7329 107.373 82.8059 107.319 82.8598C107.266 82.9137 107.193 82.944 107.117 82.944Z" fill="#292A2E"/>
<path d="M117.076 72.9404H97.1581C97.0823 72.9404 97.0095 72.9101 96.9558 72.8562C96.9022 72.8024 96.8721 72.7293 96.8721 72.6531C96.8721 72.5769 96.9022 72.5038 96.9558 72.4499C97.0095 72.396 97.0823 72.3657 97.1581 72.3657H117.076C117.152 72.3657 117.225 72.396 117.279 72.4499C117.332 72.5038 117.362 72.5769 117.362 72.6531C117.362 72.7293 117.332 72.8024 117.279 72.8562C117.225 72.9101 117.152 72.9404 117.076 72.9404Z" fill="#292A2E"/>
<path d="M48.8537 85.5309L52.0466 80.5419C52.1167 80.4322 52.2089 80.3385 52.3171 80.2666C52.4253 80.1946 52.5472 80.1462 52.6751 80.1242C52.803 80.1022 52.9341 80.1072 53.06 80.1389C53.1858 80.1706 53.3037 80.2283 53.4062 80.3083C53.5907 80.4619 53.7118 80.6788 53.7462 80.917C53.7805 81.1552 53.7256 81.3977 53.5921 81.5975L52.9076 82.6676L56.5977 80.2956C57.0033 80.0247 57.6735 79.9528 57.9461 80.4301C58.063 80.6069 58.1167 80.8182 58.0987 81.0296C58.0806 81.241 57.9917 81.44 57.8466 81.5941C57.85 81.5972 57.8531 81.6007 57.8557 81.6044C57.8575 81.6077 57.8588 81.6112 57.8597 81.6148L58.4856 81.197C58.6015 81.1197 58.7332 81.0693 58.8709 81.0495C59.0087 81.0298 59.1491 81.0412 59.2819 81.0829C59.4147 81.1245 59.5366 81.1955 59.6386 81.2905C59.7407 81.3855 59.8204 81.5022 59.8718 81.632C59.9488 81.8381 59.953 82.0646 59.8837 82.2734C59.8144 82.4823 59.6758 82.6609 59.4911 82.7794L59.2248 82.9572C59.2267 82.9673 59.2267 82.9776 59.2248 82.9877C59.4324 82.9095 59.6609 82.9081 59.8695 82.9836C60.078 83.0592 60.2531 83.2068 60.3633 83.4C60.4776 83.6151 60.5071 83.8655 60.4457 84.1014C60.3844 84.3372 60.2368 84.5412 60.0323 84.6726L59.371 85.114C59.3847 85.1143 59.3982 85.1179 59.4102 85.1246C59.4223 85.1312 59.4325 85.1407 59.4402 85.1522C59.4488 85.1661 59.4531 85.1823 59.4525 85.1987C59.6566 85.1807 59.861 85.2305 60.0341 85.3405C60.2073 85.4505 60.3397 85.6146 60.411 85.8076C60.4818 86.0119 60.4819 86.2342 60.4112 86.4385C60.3406 86.6428 60.2033 86.8172 60.0217 86.9334L54.442 90.6587C53.6614 91.1799 52.7436 91.4551 51.8063 91.4489C50.869 91.4427 49.9549 91.1554 49.1812 90.6239C48.5142 90.1655 48.0515 89.464 47.8913 88.6684C47.731 87.8728 47.8859 87.0457 48.323 86.363L48.8537 85.5309Z" fill="#E98862"/>
<g opacity="0.2">
<path d="M54.2068 83.9594C54.2193 83.9783 54.2387 83.9914 54.2609 83.996C54.283 84.0006 54.306 83.9962 54.3249 83.9838L57.8316 81.7236C57.8509 81.7112 57.8644 81.6916 57.8693 81.6692C57.8741 81.6467 57.8699 81.6233 57.8575 81.604C57.8452 81.5847 57.8257 81.5711 57.8033 81.5662C57.781 81.5613 57.7576 81.5655 57.7384 81.578L54.2317 83.8382C54.2221 83.8443 54.2139 83.8522 54.2074 83.8615C54.2009 83.8708 54.1963 83.8814 54.1939 83.8925C54.1915 83.9036 54.1912 83.9151 54.1933 83.9263C54.1953 83.9375 54.1995 83.9481 54.2056 83.9577L54.2068 83.9594Z" fill="#0C0C0C"/>
</g>
<g opacity="0.2">
<path d="M55.1555 85.5415C55.1681 85.5603 55.1875 85.5735 55.2096 85.578C55.2317 85.5826 55.2547 85.5783 55.2737 85.5659L59.1872 83.0416C59.1967 83.0355 59.205 83.0276 59.2116 83.0182C59.2181 83.0089 59.2227 82.9983 59.2251 82.9872C59.2275 82.9761 59.2277 82.9645 59.2257 82.9533C59.2236 82.9421 59.2194 82.9314 59.2132 82.9218C59.2002 82.9032 59.1807 82.8901 59.1586 82.8853C59.1365 82.8805 59.1134 82.8843 59.0939 82.896L55.1796 85.4191C55.17 85.4252 55.1617 85.4331 55.1552 85.4425C55.1486 85.4518 55.144 85.4624 55.1416 85.4735C55.1392 85.4847 55.139 85.4962 55.141 85.5074C55.1431 85.5186 55.1473 85.5293 55.1535 85.5389L55.1555 85.5415Z" fill="#0C0C0C"/>
</g>
<g opacity="0.2">
<path d="M56.1743 87.2589C56.1868 87.2777 56.2062 87.2908 56.2282 87.2953C56.2503 87.2999 56.2732 87.2956 56.2921 87.2833L59.4141 85.272C59.4333 85.2596 59.4469 85.24 59.4517 85.2175C59.4566 85.1951 59.4524 85.1716 59.44 85.1523C59.4276 85.133 59.4081 85.1194 59.3858 85.1145C59.3635 85.1096 59.3401 85.1139 59.3209 85.1263L56.1989 87.1377C56.1893 87.1438 56.181 87.1518 56.1746 87.1611C56.1681 87.1705 56.1635 87.181 56.1611 87.1922C56.1587 87.2033 56.1585 87.2148 56.1606 87.226C56.1627 87.2372 56.1669 87.2479 56.1731 87.2575L56.1743 87.2589Z" fill="#0C0C0C"/>
</g>
<path d="M21.2962 77.4385L36.0711 101.274L26.7896 99.7582L48.3883 82.9947L56.2587 93.2264L34.66 109.99C33.9916 110.509 33.2279 110.89 32.4127 111.113C31.5975 111.335 30.7466 111.394 29.9087 111.286C29.0709 111.178 28.2623 110.905 27.5293 110.484C26.7964 110.062 26.1533 109.499 25.6368 108.828C25.5986 108.777 25.5605 108.727 25.5224 108.676L25.3776 108.474L9.04199 85.6888L21.2962 77.4385Z" fill="#007C6A"/>
<path d="M17.1223 216.428C17.1223 216.428 18.1859 221.966 23.348 222.275C28.5101 222.583 27.3905 226.714 27.3905 226.714H7.66602V216.814L17.1223 216.428Z" fill="#007C6A"/>
<path d="M11.0381 115.407C11.0381 115.407 11.1002 113.743 11.087 117.519C11.0381 131.605 10.7947 147.694 10.2003 157.109C9.24456 172.244 6.79395 219.963 6.79395 219.963L19.7561 219.853L32.3196 114.835L11.0381 115.407Z" fill="#262626"/>
<path d="M25.6758 132.018C25.6758 132.018 26.213 142.24 26.3125 144.639C26.5431 150.189 26.6229 155.935 26.6229 162.45L28.6662 145.371C28.6662 145.371 27.171 140.02 25.6758 132.018Z" fill="#0A0A0A"/>
<path d="M40.1988 216.428C40.1988 216.428 41.2623 221.966 46.4241 222.275C51.586 222.583 50.4666 226.714 50.4666 226.714H30.7407V216.814L40.1988 216.428Z" fill="#007C6A"/>
<path d="M46.475 116.501C46.475 116.501 47.6232 164.643 47.455 166.996L42.6345 219.598L29.8865 219.834L31.1289 165.093C31.1289 165.093 30.2524 149.993 26.6204 135.972C24.762 128.775 23.6436 121.406 23.2827 113.981L46.475 116.501Z" fill="#262626"/>
<path d="M10.8983 115.406L10.856 115.408C10.856 115.408 10.8854 114.587 10.8983 115.406Z" fill="#333333"/>
<path d="M48.2995 89.7789C48.0324 92.9335 46.732 112.615 46.4748 116.501H11.0523C10.8521 112.996 9.95387 97.672 9.19497 90.8188C8.47068 84.279 8.37257 80.8942 9.41437 78.961C11.1167 75.8003 14.4446 74.0855 17.6164 73.6542C19.5532 73.391 22.4661 73.2022 22.4661 73.2022C22.4661 73.2022 22.7124 78.2142 28.5936 78.4926C36.5994 78.8719 36.0651 73.2019 36.1045 73.2019C37.4015 73.2019 43.9492 73.8151 45.6192 75.1058C49.188 77.8634 48.8671 83.0937 48.2995 89.7789Z" fill="#007C6A"/>
<path d="M39.3516 73.383C39.3144 73.3782 38.2932 77.2417 30.3157 76.6406C24.7935 76.2251 23.447 72.4492 23.3203 72.4492C23.9159 72.3222 24.8827 72.1906 25.147 72.0484C25.6039 71.837 26.006 71.5224 26.322 71.1293C26.6381 70.7362 26.8594 70.275 26.9689 69.7819C27.2184 68.823 27.3454 65.1319 27.3454 63.28L35.8423 65.198C35.7238 67.2869 34.8949 72.13 37.8006 72.9871C38.2843 73.1285 38.8049 73.2592 39.3516 73.383Z" fill="#E98862"/>
<path d="M35.5484 69.3048C32.1984 69.5703 27.8951 68.1497 27.0778 63.6604L26.3404 59.609C25.5228 55.1196 27.2077 51.0489 31.4158 50.276C35.6239 49.5028 39.4319 52.5644 40.2491 57.0537L40.5758 58.8472C40.8893 60.5718 41.5252 68.8313 35.5484 69.3048Z" fill="#E98862"/>
<path d="M38.6546 65.183C38.0538 62.1482 37.7775 60.1236 37.8096 57.9873C38.6566 56.4951 38.4337 54.7823 38.2412 54.0425C38.8245 54.4145 39.5103 54.5911 40.1998 54.5467C40.1998 54.5467 38.7982 48.9003 34.0385 47.3809C33.1632 47.0386 30.928 46.6065 27.9602 47.0154C25.4358 47.363 19.2136 49.2589 18.3245 56.2963V56.3003C18.2959 56.5337 17.6978 63.0171 16.5066 66.1272C14.9047 70.3088 12.6575 71.6082 12.7144 76.4328C12.7871 82.5832 27.675 83.2257 30.9966 83.0005C37.8476 82.5361 41.6718 80.2736 41.7213 75.8013C41.7763 70.7895 39.8577 71.255 38.6546 65.183Z" fill="#0A0A0A"/>
<path d="M96.0308 44.6321H50.0673C49.2845 44.6321 48.6499 45.2695 48.6499 46.0558V83.9014C48.6499 84.6877 49.2845 85.3252 50.0673 85.3252H96.0308C96.8136 85.3252 97.4482 84.6877 97.4482 83.9014V46.0558C97.4482 45.2695 96.8136 44.6321 96.0308 44.6321Z" fill="#007C6A"/>
<path opacity="0.3" d="M96.0308 44.6321H50.0673C49.2845 44.6321 48.6499 45.2695 48.6499 46.0558V83.9014C48.6499 84.6877 49.2845 85.3252 50.0673 85.3252H96.0308C96.8136 85.3252 97.4482 84.6877 97.4482 83.9014V46.0558C97.4482 45.2695 96.8136 44.6321 96.0308 44.6321Z" fill="white"/>
<path d="M96.0308 85.5415H50.0675C49.6353 85.5406 49.2211 85.3678 48.9155 85.0608C48.6099 84.7539 48.4378 84.3378 48.437 83.9036V46.0558C48.4375 45.6214 48.6095 45.205 48.9151 44.8977C49.2207 44.5905 49.6351 44.4174 50.0675 44.4165H96.0308C96.4634 44.417 96.8782 44.5899 97.1842 44.8972C97.4902 45.2045 97.6624 45.6211 97.663 46.0558V83.9014C97.6627 84.3361 97.4906 84.753 97.1846 85.0605C96.8786 85.368 96.4636 85.541 96.0308 85.5415ZM50.0675 44.8475C49.7489 44.8483 49.4435 44.9759 49.2183 45.2023C48.9931 45.4288 48.8665 45.7357 48.8661 46.0558V83.9014C48.8668 84.2212 48.9936 84.5278 49.2187 84.7539C49.4439 84.9801 49.7491 85.1075 50.0675 85.1082H96.0308C96.3495 85.1079 96.6551 84.9807 96.8806 84.7545C97.1061 84.5283 97.2331 84.2215 97.2339 83.9014V46.0558C97.2334 45.7354 97.1065 45.4283 96.881 45.2018C96.6554 44.9753 96.3497 44.8479 96.0308 44.8475H50.0675Z" fill="#292A2E"/>
<path d="M83.0002 65.2903C83.0039 67.8966 81.9939 70.4022 80.1836 72.2772C78.8243 69.2397 76.0812 67.1662 72.9225 67.1662C69.761 67.1662 67.0179 69.2426 65.6586 72.2801C64.5147 71.0917 63.6799 69.6407 63.2274 68.0544C62.775 66.4682 62.7187 64.7951 63.0636 63.182C63.4085 61.569 64.1441 60.0652 65.2056 58.8027C66.2672 57.5402 67.6224 56.5575 69.1524 55.9408C70.6823 55.3241 72.3402 55.0924 73.9805 55.2659C75.6209 55.4393 77.1937 56.0127 78.5608 56.9357C79.9279 57.8588 81.0476 59.1032 81.8216 60.5598C82.5956 62.0165 83.0003 63.6408 83.0002 65.2903Z" fill="#66B0A6"/>
<path d="M72.9207 66.3287C75.1246 66.3287 76.9112 64.5421 76.9112 62.3382C76.9112 60.1343 75.1246 58.3477 72.9207 58.3477C70.7168 58.3477 68.9302 60.1343 68.9302 62.3382C68.9302 64.5421 70.7168 66.3287 72.9207 66.3287Z" fill="#F3F5FD"/>
<path d="M80.1836 72.2773C79.2435 73.2548 78.1158 74.0325 76.868 74.5639C75.6202 75.0952 74.278 75.3692 72.9218 75.3695C71.5655 75.3698 70.2232 75.0963 68.9752 74.5654C67.7272 74.0346 66.5992 73.2573 65.6587 72.2801C67.018 69.2427 69.761 67.1663 72.9226 67.1663C76.0812 67.1663 78.8243 69.2398 80.1836 72.2773Z" fill="#F3F5FD"/>
<path d="M76.9047 85.5309L80.0976 80.5419C80.1678 80.4322 80.2599 80.3385 80.3682 80.2666C80.4764 80.1946 80.5983 80.1462 80.7262 80.1242C80.8541 80.1022 80.9852 80.1072 81.111 80.1389C81.2369 80.1706 81.3548 80.2283 81.4573 80.3083C81.6418 80.4618 81.763 80.6787 81.7974 80.9169C81.8318 81.1551 81.7769 81.3977 81.6435 81.5975L80.9587 82.6676L84.6487 80.2956C85.0544 80.0247 85.7249 79.9528 85.9972 80.4301C86.114 80.6069 86.1678 80.8182 86.1497 81.0296C86.1317 81.241 86.0428 81.44 85.8976 81.5941C85.9011 81.5973 85.9042 81.6007 85.9071 81.6044C85.9086 81.6078 85.9099 81.6112 85.9108 81.6148L86.5367 81.197C86.6526 81.1197 86.7842 81.0693 86.922 81.0495C87.0597 81.0298 87.2001 81.0412 87.333 81.0829C87.4658 81.1245 87.5877 81.1955 87.6897 81.2905C87.7918 81.3855 87.8714 81.5022 87.9229 81.632C87.9999 81.8381 88.0041 82.0646 87.9348 82.2734C87.8655 82.4823 87.7269 82.6609 87.5422 82.7794L87.2759 82.9572C87.2776 82.9673 87.2776 82.9776 87.2759 82.9877C87.4834 82.9096 87.7119 82.9081 87.9204 82.9837C88.1289 83.0592 88.3039 83.2068 88.4141 83.4C88.5284 83.6151 88.5578 83.8655 88.4965 84.1014C88.4351 84.3372 88.2875 84.5412 88.0831 84.6726L87.4217 85.114C87.4355 85.1143 87.4489 85.1179 87.461 85.1246C87.473 85.1312 87.4833 85.1407 87.491 85.1522C87.4996 85.1661 87.5039 85.1823 87.5033 85.1987C87.7074 85.1807 87.9117 85.2305 88.0849 85.3405C88.2581 85.4505 88.3905 85.6146 88.4618 85.8076C88.5327 86.0119 88.5328 86.2342 88.4621 86.4385C88.3915 86.6429 88.2542 86.8172 88.0725 86.9334L82.4928 90.6587C81.7122 91.1799 80.7944 91.4551 79.8571 91.4489C78.9198 91.4427 78.0057 91.1554 77.232 90.6239C76.565 90.1655 76.1023 89.464 75.942 88.6684C75.7818 87.8728 75.9367 87.0457 76.3738 86.363L76.9047 85.5309Z" fill="#E98862"/>
<g opacity="0.2">
<path d="M82.2566 83.9594C82.2691 83.9783 82.2885 83.9914 82.3107 83.996C82.3328 84.0006 82.3558 83.9962 82.3747 83.9838L85.8814 81.7236C85.891 81.7175 85.8992 81.7095 85.9056 81.7002C85.9121 81.6908 85.9167 81.6803 85.9191 81.6692C85.9215 81.6581 85.9217 81.6466 85.9197 81.6354C85.9176 81.6242 85.9135 81.6135 85.9073 81.604C85.9012 81.5944 85.8933 81.5861 85.884 81.5797C85.8747 81.5732 85.8642 81.5686 85.8531 81.5662C85.8421 81.5638 85.8306 81.5636 85.8195 81.5656C85.8083 81.5676 85.7977 81.5718 85.7882 81.578L82.2815 83.8382C82.2719 83.8443 82.2637 83.8522 82.2572 83.8615C82.2507 83.8708 82.2461 83.8814 82.2437 83.8925C82.2413 83.9036 82.2411 83.9151 82.2431 83.9263C82.2451 83.9375 82.2493 83.9481 82.2554 83.9577L82.2566 83.9594Z" fill="#0C0C0C"/>
</g>
<g opacity="0.2">
<path d="M83.2064 85.5415C83.219 85.5603 83.2384 85.5735 83.2605 85.578C83.2826 85.5826 83.3056 85.5783 83.3246 85.5659L87.238 83.0416C87.2476 83.0355 87.2559 83.0276 87.2624 83.0182C87.269 83.0089 87.2736 82.9983 87.276 82.9872C87.2784 82.9761 87.2786 82.9645 87.2766 82.9533C87.2745 82.9421 87.2703 82.9314 87.2641 82.9218C87.2511 82.9032 87.2316 82.8901 87.2095 82.8853C87.1874 82.8805 87.1643 82.8843 87.1448 82.896L83.2313 85.4182C83.2217 85.4243 83.2134 85.4323 83.2069 85.4416C83.2004 85.451 83.1958 85.4615 83.1934 85.4726C83.191 85.4838 83.1908 85.4953 83.1928 85.5065C83.1948 85.5178 83.1991 85.5285 83.2053 85.538L83.2064 85.5415Z" fill="#0C0C0C"/>
</g>
<g opacity="0.2">
<path d="M84.2255 87.2589C84.238 87.2777 84.2574 87.2908 84.2794 87.2953C84.3015 87.2999 84.3244 87.2956 84.3433 87.2833L87.4653 85.272C87.4845 85.2596 87.4981 85.24 87.5029 85.2175C87.5078 85.1951 87.5036 85.1716 87.4912 85.1523C87.4788 85.133 87.4593 85.1194 87.437 85.1145C87.4146 85.1096 87.3913 85.1139 87.3721 85.1263L84.2504 87.1377C84.2408 87.1438 84.2325 87.1517 84.226 87.1611C84.2194 87.1704 84.2148 87.181 84.2124 87.1921C84.21 87.2033 84.2098 87.2148 84.2119 87.226C84.2139 87.2372 84.2181 87.2479 84.2243 87.2575L84.2255 87.2589Z" fill="#0C0C0C"/>
</g>
<path d="M46.6648 76.3044L63.9258 100.995L54.8419 99.7582L76.4403 82.9948L84.3108 93.2265L62.7121 109.99C61.3777 111.026 59.6917 111.494 58.0171 111.294C56.3425 111.093 54.8133 110.24 53.7586 108.918L53.627 108.753L34.8643 85.1946L46.6648 76.3044Z" fill="#007C6A"/>
<path d="M0.286053 227.001H188.549C188.624 227.001 188.697 226.971 188.751 226.917C188.804 226.863 188.835 226.79 188.835 226.714C188.835 226.638 188.804 226.565 188.751 226.511C188.697 226.457 188.624 226.427 188.549 226.427H0.286053C0.210187 226.427 0.137428 226.457 0.0837829 226.511C0.0301376 226.565 0 226.638 0 226.714C0 226.79 0.0301376 226.863 0.0837829 226.917C0.137428 226.971 0.210187 227.001 0.286053 227.001Z" fill="#262626"/>
</svg>
