<svg width="294" height="227" viewBox="0 0 294 227" fill="none" xmlns="http://www.w3.org/2000/svg">
<path d="M212.418 3.41504H117.425C110.151 3.41504 104.254 9.31203 104.254 16.5863V210.413C104.254 217.687 110.151 223.584 117.425 223.584H212.418C219.692 223.584 225.589 217.687 225.589 210.413V16.5863C225.589 9.31203 219.692 3.41504 212.418 3.41504Z" fill="white"/>
<path d="M208.081 227H116.918C112.698 226.995 108.652 225.246 105.668 222.136C102.684 219.027 101.005 214.811 101 210.413V16.587C101.005 12.1894 102.684 7.97345 105.668 4.86389C108.652 1.75432 112.698 0.00512241 116.918 0H208.082C212.302 0.00512241 216.348 1.75432 219.332 4.86389C222.317 7.97345 223.995 12.1894 224 16.587V210.413C223.995 214.811 222.316 219.027 219.332 222.136C216.348 225.246 212.301 226.995 208.081 227ZM116.918 6.83068C114.437 6.83396 112.057 7.86275 110.302 9.69142C108.547 11.5201 107.56 13.9994 107.557 16.5855V210.413C107.56 212.999 108.547 215.478 110.302 217.307C112.057 219.136 114.437 220.165 116.918 220.168H208.082C210.564 220.165 212.943 219.136 214.698 217.307C216.453 215.478 217.44 212.999 217.443 210.413V16.587C217.44 14.0009 216.453 11.5216 214.698 9.69297C212.943 7.8643 210.564 6.83551 208.082 6.83223L116.918 6.83068Z" fill="#292A2E"/>
<path d="M142.001 3H184V9.86288C184 10.5375 183.842 11.2055 183.536 11.8288C183.229 12.452 182.78 13.0183 182.214 13.4954C181.647 13.9724 180.975 14.3508 180.235 14.609C179.495 14.8671 178.701 15 177.9 15H148.1C146.482 15 144.931 14.4588 143.787 13.4954C142.643 12.532 142 11.2253 142 9.86288L142.001 3Z" fill="#292A2E"/>
<path d="M39.3079 51.7098C39.2483 45.9541 41.5233 42.3874 44.6073 40.4291C47.6506 38.4967 57.194 36.8148 60.8122 43.8294C63.1735 48.4068 62.2414 50.043 62.9103 57.3742C63.5792 64.7054 66.1487 65.4749 68.7554 74.3611C70.7993 81.3315 59.349 85.0318 49.4351 84.712C39.5212 84.3923 33.2352 82.1959 32.6599 75.8913C31.8327 66.8414 39.4241 62.989 39.3079 51.7098Z" fill="#1F1F2A"/>
<path d="M45.2155 67.6256C45.2155 67.6256 48.1938 66.011 47.451 57.8666L53.6244 56.6631C53.6244 56.6631 52.9965 63.9792 56.1463 66.2685L45.2155 67.6256Z" fill="#E98862"/>
<g opacity="0.15">
<path d="M54.8654 64.7499L49.6919 60.867L53.7266 60.7896C53.8562 62.1691 54.2425 63.5122 54.8654 64.7499Z" fill="#1F1F2A"/>
</g>
<path d="M43.9128 54.7352C44.3638 57.2041 45.7345 59.5352 47.9231 60.3121C50.3095 61.2339 52.8851 61.5579 55.4254 61.2558C62.1903 60.6384 60.7101 45.2576 57.4685 42.2971C54.227 39.3366 44.8105 41.3166 43.7096 46.3279C43.1402 48.9211 43.4839 52.3863 43.9128 54.7352Z" fill="#E98862"/>
<path d="M53.5744 52.7429C53.8842 52.7429 54.1354 52.4918 54.1354 52.182C54.1354 51.8722 53.8842 51.6211 53.5744 51.6211C53.2647 51.6211 53.0135 51.8722 53.0135 52.182C53.0135 52.4918 53.2647 52.7429 53.5744 52.7429Z" fill="#1F1F2A"/>
<path d="M57.9961 52.3391C58.3059 52.3391 58.557 52.088 58.557 51.7782C58.557 51.4684 58.3059 51.2173 57.9961 51.2173C57.6863 51.2173 57.4352 51.4684 57.4352 51.7782C57.4352 52.088 57.6863 52.3391 57.9961 52.3391Z" fill="#1F1F2A"/>
<path d="M58.9543 50.5744C59.0242 50.5744 59.0912 50.5466 59.1407 50.4971C59.1901 50.4477 59.2179 50.3807 59.2179 50.3107C59.2179 50.2408 59.1901 50.1738 59.1407 50.1243C59.0912 50.0749 59.0242 50.0471 58.9543 50.0471L57.4686 50.0425C57.4005 50.0451 57.336 50.074 57.2888 50.1231C57.2415 50.1722 57.2151 50.2377 57.2151 50.3059C57.2151 50.3741 57.2415 50.4396 57.2888 50.4887C57.336 50.5378 57.4005 50.5667 57.4686 50.5693L58.9543 50.5744Z" fill="#1F1F2A"/>
<path d="M52.352 51.1759C52.3736 51.176 52.3952 51.1734 52.4162 51.1682L53.8779 50.8024C53.9442 50.7841 54.0008 50.7406 54.0354 50.6812C54.0701 50.6218 54.0802 50.5511 54.0635 50.4844C54.0469 50.4176 54.0047 50.3601 53.9462 50.3239C53.8876 50.2878 53.8173 50.276 53.7501 50.291L52.2885 50.6572C52.2261 50.6727 52.1715 50.7105 52.135 50.7635C52.0986 50.8164 52.0828 50.8809 52.0906 50.9447C52.0984 51.0085 52.1293 51.0673 52.1774 51.1099C52.2256 51.1525 52.2877 51.176 52.352 51.1759Z" fill="#1F1F2A"/>
<path d="M53.8744 56.5967C53.8744 56.5967 55.9469 56.796 57.3935 56.2754C57.3935 56.2754 57.3935 57.6391 55.7572 57.7885C54.121 57.938 53.8744 56.5967 53.8744 56.5967Z" fill="white"/>
<path d="M48.4094 48.2879C48.2623 59.4568 47.1858 63.7953 47.1858 63.7953C47.1858 63.7953 41.8973 57.4048 41.0991 50.6341C40.3509 44.2892 44.9968 40.4961 48.1528 39.7598C60.145 36.9627 60.9776 45.7098 60.9776 45.7098C60.2034 48.694 47.1107 50.5454 47.1107 50.5454" fill="#1F1F2A"/>
<path d="M50.7648 54.6249C50.8192 55.2515 50.6233 55.874 50.2198 56.3564C49.8164 56.8388 49.2382 57.1417 48.612 57.1989C47.9857 57.256 47.3623 57.0628 46.8782 56.6615C46.394 56.2601 46.0886 55.6833 46.0287 55.0573C45.9949 54.7454 46.0242 54.4298 46.1149 54.1294C46.2056 53.8291 46.3558 53.55 46.5566 53.3089C46.7574 53.0678 47.0046 52.8695 47.2836 52.7259C47.5626 52.5823 47.8676 52.4963 48.1805 52.4731C49.8749 52.4022 50.6452 53.3173 50.7648 54.6249Z" fill="#E98862"/>
<g opacity="0.15">
<path d="M56.0913 55.2698C56.0452 55.2697 56.0006 55.2531 55.9656 55.2231C55.9306 55.1931 55.9075 55.1516 55.9004 55.106C55.8933 55.0605 55.9027 55.0139 55.9269 54.9746C55.9511 54.9354 55.9886 54.9061 56.0324 54.892L57.1701 54.5312L56.3572 52.7614C56.3457 52.7382 56.339 52.7129 56.3374 52.6871C56.3359 52.6613 56.3395 52.6354 56.3482 52.611C56.3568 52.5866 56.3702 52.5642 56.3877 52.545C56.4051 52.5259 56.4262 52.5105 56.4497 52.4997C56.4732 52.4889 56.4987 52.4828 56.5245 52.482C56.5504 52.4812 56.5762 52.4856 56.6003 52.4949C56.6245 52.5042 56.6465 52.5183 56.6651 52.5363C56.6837 52.5543 56.6985 52.5758 56.7087 52.5996L57.6149 54.5684C57.6263 54.5932 57.6324 54.6202 57.6327 54.6475C57.6329 54.6749 57.6274 54.702 57.6164 54.727C57.6054 54.7521 57.5893 54.7745 57.569 54.7929C57.5487 54.8112 57.5248 54.8251 57.4988 54.8335L56.1524 55.2593C56.1327 55.2661 56.1121 55.2696 56.0913 55.2698Z" fill="#1F1F2A"/>
</g>
<path d="M96.0642 85.1266C96.0642 85.1266 98.3407 82.4251 100.762 81.9969C103.184 81.5688 102.579 82.962 101.141 84.0013C99.7021 85.0407 96.4567 87.1333 96.4567 87.1333" fill="#E98862"/>
<path d="M97.7307 84.3062C97.7307 84.3062 102.249 82.4687 104.186 83.2998C104.186 83.2998 105.874 84.9562 104.22 87.132C102.632 89.2188 98.4906 89.9938 98.4906 89.9938L97.7307 84.3062Z" fill="#E98862"/>
<path d="M71.6125 222.757L63.54 221.797C63.9035 218.742 64.3142 215.072 64.342 214.47C64.342 214.508 64.342 214.54 64.342 214.565H72.471C72.4695 214.808 72.4695 215.55 71.6125 222.757Z" fill="#E98862"/>
<path d="M39.2219 223.728L31.0929 223.702C31.0929 223.702 31.12 215.308 31.12 214.566H39.249C39.249 215.31 39.2219 223.728 39.2219 223.728Z" fill="#E98862"/>
<path d="M60.2912 220.189L74.6138 219.946C74.0184 204.863 73.917 187.612 73.7571 172.002C73.7127 168.133 73.4205 164.27 72.8823 160.439C70.5783 143.901 69.0752 127.458 65.9734 111.015L65.8697 111.045L65.5673 108.982L36.1183 107.165L34.5854 126.403C34.5854 126.403 30.7493 192.963 29 219.726L43.2718 220.932C45.8433 194.692 49.8226 156.459 52.2702 128.893C55.0809 142.314 56.9928 156.21 59.4369 169.516C59.9235 186.173 60.3365 203.584 60.2912 220.189Z" fill="#262626"/>
<path d="M49.104 226.872C49.3226 226.871 49.5387 226.825 49.7387 226.737C49.9388 226.648 50.1184 226.52 50.2665 226.359C50.4146 226.198 50.528 226.009 50.5995 225.802C50.671 225.595 50.6992 225.376 50.6822 225.158C50.6586 224.856 50.5491 224.567 50.3668 224.325C50.1845 224.083 49.9368 223.898 49.6529 223.792L40.1911 220.623C40.0079 220.562 39.8136 220.542 39.6217 220.563C39.4298 220.585 39.2448 220.647 39.0794 220.747C37.7786 221.649 36.2226 222.111 34.6402 222.063C33.4077 221.975 32.2246 221.543 31.226 220.815C31.1382 220.743 31.0318 220.698 30.9191 220.684C30.8064 220.67 30.6921 220.689 30.5895 220.737C30.4869 220.786 30.4003 220.863 30.3397 220.959C30.2792 221.055 30.2472 221.166 30.2474 221.28V225.907C30.2474 226.043 30.2744 226.178 30.3268 226.304C30.3791 226.43 30.4559 226.545 30.5526 226.641C30.6493 226.737 30.7641 226.814 30.8903 226.865C31.0166 226.917 31.1518 226.944 31.2883 226.943L49.104 226.872Z" fill="#D4E9E6"/>
<path d="M81.5167 226.872C81.7353 226.871 81.9514 226.825 82.1514 226.737C82.3514 226.648 82.5311 226.52 82.6791 226.359C82.8272 226.198 82.9405 226.009 83.012 225.802C83.0835 225.595 83.1116 225.376 83.0945 225.158C83.071 224.856 82.9617 224.567 82.7793 224.325C82.5969 224.083 82.3492 223.898 82.0652 223.792L72.6039 220.623C72.4206 220.562 72.2263 220.542 72.0344 220.563C71.8426 220.585 71.6576 220.647 71.4921 220.747C70.1913 221.649 68.6354 222.111 67.0529 222.063C65.8203 221.975 64.6371 221.543 63.6384 220.815C63.5505 220.744 63.4441 220.698 63.3315 220.684C63.2188 220.671 63.1046 220.689 63.0021 220.738C62.8996 220.787 62.813 220.863 62.7525 220.959C62.692 221.055 62.6599 221.166 62.6602 221.28V225.907C62.6602 226.043 62.6871 226.178 62.7395 226.304C62.7918 226.43 62.8686 226.545 62.9653 226.641C63.062 226.737 63.1768 226.814 63.303 226.865C63.4293 226.917 63.5646 226.944 63.7011 226.943L81.5167 226.872Z" fill="#D4E9E6"/>
<path d="M76.1527 98.5691C75.446 98.5692 74.7515 98.385 74.1377 98.0347C73.5239 97.6844 73.012 97.1802 72.6526 96.5717L58.656 72.8838L65.6547 68.748L77.9678 89.5869L97.4271 82.9308L100.059 90.622L77.4688 98.3496C77.0452 98.4949 76.6005 98.5691 76.1527 98.5691Z" fill="#007C6A"/>
<path d="M67.4768 110.283C65.8549 114.011 33.9853 115.559 33.5595 109.002C33.2885 104.829 36.966 101.187 36.966 93.0536C36.966 84.9208 29.4834 74.535 35.5802 68.4383C37.3492 66.6692 40.4034 65.5273 44.1272 65.5234C44.4059 67.695 57.5904 67.7028 57.691 65.5738C58.1943 65.5815 58.5852 65.5892 58.8291 65.6009C71.6729 66.1544 66.0291 80.7711 65.9052 91.5091C65.7542 104.074 69.1491 106.443 67.4768 110.283Z" fill="#007C6A"/>
<path d="M87.5844 102.33C86.5968 102.33 85.6466 101.952 84.9282 101.275L66.1444 83.5502C65.7718 83.202 65.4717 82.7837 65.2613 82.3193C65.0509 81.8548 64.9343 81.3533 64.9183 80.8437C64.9023 80.334 64.9871 79.8262 65.1679 79.3495C65.3486 78.8727 65.6218 78.4363 65.9718 78.0655C66.3217 77.6946 66.7414 77.3965 67.2069 77.1883C67.6724 76.9801 68.1744 76.8659 68.6841 76.8524C69.1938 76.8388 69.7012 76.926 70.1771 77.1091C70.653 77.2921 71.0881 77.5674 71.4573 77.9191L87.3707 92.9345L120.461 56.4702C120.801 56.0867 121.213 55.7745 121.674 55.5517C122.136 55.3288 122.636 55.1996 123.148 55.1718C123.659 55.1439 124.171 55.2178 124.654 55.3892C125.137 55.5606 125.581 55.8261 125.96 56.1703C126.339 56.5145 126.647 56.9306 126.864 57.3945C127.081 57.8583 127.204 58.3607 127.226 58.8724C127.248 59.3842 127.168 59.8952 126.991 60.3758C126.814 60.8565 126.543 61.2971 126.194 61.6723L90.4512 101.06C90.1054 101.441 89.687 101.75 89.2205 101.967C88.7541 102.185 88.2489 102.307 87.7346 102.327C87.6847 102.329 87.6343 102.33 87.5844 102.33Z" fill="#0CBC8B"/>
<path d="M57.6911 65.5738C57.5904 67.7028 56.433 70.8344 52.8601 71.0705C48.0989 71.3841 44.406 67.6951 44.1273 65.5235H44.1389C48.8266 65.5231 54.9582 65.5308 57.6911 65.5738Z" fill="#E98862"/>
<path d="M68.5156 95.3767C68.5156 95.3767 67.6195 90.2783 71.305 89.8567C73.6303 89.5908 79.4762 86.3585 80.5852 89.0601C81.5472 91.4039 75.9645 94.1941 73.9659 94.7117C72.1748 95.1719 68.5156 95.3767 68.5156 95.3767Z" fill="#E98862"/>
<path d="M70.0485 90.2629C70.0485 90.2629 74.7977 87.6585 76.0972 87.7193C77.2477 87.7731 75.2905 89.9985 75.2905 89.9985L70.0485 90.2629Z" fill="#E98862"/>
<path d="M49.3685 103.719C48.5535 103.719 47.7559 103.483 47.0722 103.04C46.3885 102.596 45.8479 101.964 45.5157 101.22L33.6896 74.7422L41.3963 71.2998L51.6996 94.3707L71.5363 88.2824L74.0137 96.3507L50.6072 103.533C50.2059 103.656 49.7884 103.719 49.3685 103.719Z" fill="#007C6A"/>
<path d="M106.495 84.1159C106.596 83.9695 106.645 83.793 106.632 83.6155C106.62 83.438 106.548 83.2699 106.427 83.1388C105.841 82.5044 104.751 81.4983 104.034 81.8703C103.012 82.4003 100.967 84.3694 101.535 85.3929C102.103 86.4164 103.277 87.5397 104.036 87.1991C104.609 86.9417 105.839 85.0697 106.495 84.1159Z" fill="#E98862"/>
<path d="M13.2861 227H201.549C201.624 227 201.697 226.97 201.751 226.916C201.804 226.862 201.835 226.789 201.835 226.713C201.835 226.636 201.804 226.563 201.751 226.509C201.697 226.456 201.624 226.425 201.549 226.425H13.2861C13.2102 226.425 13.1374 226.456 13.0838 226.509C13.0301 226.563 13 226.636 13 226.713C13 226.789 13.0301 226.862 13.0838 226.916C13.1374 226.97 13.2102 227 13.2861 227Z" fill="#262626"/>
<path d="M101.286 227H289.549C289.624 227 289.697 226.97 289.751 226.916C289.804 226.862 289.835 226.789 289.835 226.713C289.835 226.636 289.804 226.563 289.751 226.509C289.697 226.456 289.624 226.425 289.549 226.425H101.286C101.21 226.425 101.137 226.456 101.084 226.509C101.03 226.563 101 226.636 101 226.713C101 226.789 101.03 226.862 101.084 226.916C101.137 226.97 101.21 227 101.286 227Z" fill="#262626"/>
<path d="M204 149H122V165H204V149Z" fill="#007C6A"/>
<path d="M189.959 76.29C189.969 83.2817 187.259 90.0032 182.403 95.0331C178.757 86.8848 171.398 81.3222 162.924 81.3222C154.443 81.3222 147.085 86.8925 143.438 95.0409C140.369 91.8528 138.13 87.9604 136.916 83.705C135.702 79.4497 135.551 74.9615 136.477 70.6342C137.402 66.307 139.375 62.2729 142.223 58.886C145.071 55.4991 148.706 52.8629 152.81 51.2086C156.915 49.5544 161.362 48.9326 165.763 49.398C170.163 49.8633 174.382 51.4016 178.05 53.8777C181.717 56.3538 184.721 59.6921 186.797 63.5997C188.874 67.5074 189.959 71.8649 189.959 76.29Z" fill="#007C6A"/>
<path d="M162.92 79.0753C168.832 79.0753 173.625 74.2824 173.625 68.3702C173.625 62.4579 168.832 57.665 162.92 57.665C157.008 57.665 152.215 62.4579 152.215 68.3702C152.215 74.2824 157.008 79.0753 162.92 79.0753Z" fill="#F3F5FD"/>
<path d="M182.403 95.0332C179.881 97.6556 176.856 99.742 173.508 101.167C170.161 102.593 166.56 103.328 162.922 103.329C159.284 103.329 155.683 102.596 152.335 101.172C148.987 99.7475 145.961 97.6623 143.438 95.0409C147.084 86.8926 154.443 81.3223 162.924 81.3223C171.398 81.3223 178.756 86.8848 182.403 95.0332Z" fill="#F3F5FD"/>
<path d="M203.778 114.03H122.066V117.293H203.778V114.03Z" fill="#D4E9E6"/>
<path d="M203.778 122.913H122.067V126.176H203.778V122.913Z" fill="#D4E9E6"/>
<path d="M159.541 132.1H122.067V135.363H159.541V132.1Z" fill="#D4E9E6"/>
<path d="M263.062 202.331L266.981 226.954H240.033L244.861 202.331H263.062Z" fill="#262626"/>
<path opacity="0.2" d="M263.062 202.331L266.981 226.954H240.033L244.861 202.331H263.062Z" fill="white"/>
<path d="M254.193 202.409C254.179 202.409 254.165 202.408 254.151 202.405C254.084 202.394 254.024 202.357 253.985 202.302C253.946 202.247 253.93 202.179 253.941 202.112L261.362 157.331C261.375 157.265 261.412 157.207 261.467 157.169C261.522 157.131 261.589 157.116 261.655 157.126C261.72 157.137 261.779 157.173 261.819 157.227C261.858 157.281 261.875 157.348 261.866 157.414L254.444 202.195C254.434 202.255 254.403 202.309 254.357 202.348C254.311 202.387 254.253 202.409 254.193 202.409Z" fill="#494949"/>
<path d="M255.942 192.259C255.883 192.26 255.826 192.239 255.781 192.202C255.735 192.166 255.704 192.114 255.692 192.057C255.68 191.999 255.688 191.94 255.715 191.888C255.742 191.836 255.786 191.794 255.839 191.771L273.96 183.848C274.021 183.824 274.09 183.824 274.151 183.849C274.213 183.874 274.262 183.922 274.289 183.983C274.315 184.044 274.317 184.112 274.294 184.175C274.27 184.237 274.224 184.287 274.164 184.316L256.044 192.238C256.011 192.252 255.977 192.26 255.942 192.259Z" fill="#494949"/>
<path d="M256.84 184.592C256.806 184.584 256.773 184.57 256.745 184.55L244.521 175.817C244.493 175.799 244.468 175.774 244.449 175.746C244.429 175.717 244.416 175.685 244.41 175.651C244.403 175.617 244.404 175.583 244.411 175.549C244.418 175.515 244.432 175.483 244.452 175.455C244.472 175.427 244.498 175.404 244.527 175.386C244.556 175.368 244.589 175.356 244.623 175.351C244.657 175.346 244.692 175.348 244.725 175.357C244.759 175.365 244.79 175.381 244.817 175.402L257.041 184.134C257.088 184.169 257.122 184.218 257.138 184.275C257.153 184.331 257.148 184.391 257.125 184.445C257.101 184.498 257.06 184.542 257.008 184.568C256.955 184.595 256.896 184.603 256.839 184.591L256.84 184.592Z" fill="#494949"/>
<path d="M279.229 198.074C284.525 195.448 286.351 188.344 283.308 182.207C280.265 176.071 273.506 173.225 268.21 175.851C262.914 178.477 261.088 185.58 264.13 191.717C267.173 197.854 273.933 200.7 279.229 198.074Z" fill="#007C6A"/>
<path opacity="0.5" d="M280.557 196.298C275.262 198.924 268.501 196.077 265.459 189.941C263.395 185.779 263.571 181.174 265.552 177.82C266.313 177.008 267.213 176.34 268.21 175.847C273.506 173.221 280.266 176.067 283.309 182.203C285.374 186.366 285.198 190.973 283.216 194.325C282.455 195.136 281.554 195.804 280.557 196.298Z" fill="white"/>
<path d="M272.189 162.186C274.386 156.741 271.547 150.463 265.848 148.164C260.15 145.864 253.749 148.414 251.552 153.858C249.355 159.303 252.193 165.581 257.892 167.88C263.591 170.18 269.992 167.63 272.189 162.186Z" fill="#007C6A"/>
<path opacity="0.5" d="M272.188 162.184C272.105 162.39 272.015 162.59 271.919 162.788C269.105 166.756 263.674 168.373 258.766 166.392C253.067 164.092 250.228 157.814 252.425 152.369C252.508 152.164 252.598 151.963 252.694 151.765C255.508 147.797 260.938 146.18 265.847 148.161C271.546 150.461 274.385 156.739 272.188 162.184Z" fill="white"/>
<path d="M250.687 179.342C253.549 174.062 252.175 167.778 247.618 165.308C243.061 162.837 237.046 165.116 234.183 170.397C231.321 175.677 232.694 181.961 237.252 184.431C241.809 186.902 247.824 184.623 250.687 179.342Z" fill="#007C6A"/>
<path opacity="0.5" d="M236.145 182.836C240.702 185.306 246.717 183.027 249.579 177.747C251.521 174.166 251.513 170.124 249.885 167.121C249.244 166.386 248.476 165.771 247.618 165.307C243.061 162.836 237.046 165.116 234.183 170.396C232.241 173.979 232.248 178.021 233.878 181.022C234.519 181.757 235.287 182.371 236.145 182.836Z" fill="white"/>
</svg>
