<svg width="198" height="227" viewBox="0 0 198 227" fill="none" xmlns="http://www.w3.org/2000/svg">
<g clip-path="url(#clip0_1066_8799)">
<path d="M30.0044 32.0361C27.9464 32.0216 25.9665 31.2433 24.4453 29.851C22.9241 28.4586 21.9691 26.5505 21.7639 24.4936C21.5586 22.4367 22.1177 20.3762 23.3336 18.7083C24.5494 17.0404 26.3363 15.883 28.3504 15.4585C27.8137 12.3965 28.3947 9.24277 29.9866 6.5764C31.1419 4.61514 32.7969 2.99875 34.7811 1.89374C36.7653 0.788743 39.0068 0.235092 41.2749 0.289832C43.5429 0.344572 45.7554 1.00572 47.6845 2.20517C49.6135 3.40462 51.1893 5.09899 52.2495 7.11372C53.4966 6.25314 55.0066 5.86359 56.5122 6.01405C58.0177 6.16451 59.4217 6.84527 60.4756 7.93579C61.4964 8.99059 62.1345 10.3595 62.2874 11.8226C64.1971 11.9523 66.0306 12.6251 67.574 13.7623C69.1173 14.8995 70.3067 16.4543 71.0033 18.2451C71.6999 20.0359 71.875 21.9887 71.5081 23.8757C71.1412 25.7627 70.2475 27.5059 68.9313 28.9018C68.0286 29.8642 66.9444 30.6364 65.7417 31.1737C64.5389 31.7109 63.2418 32.0023 61.9258 32.0309L30.0044 32.0361Z" fill="#292A2E"/>
<path d="M27.6244 32.036C25.5665 32.0215 23.5865 31.2432 22.0653 29.8509C20.5441 28.4586 19.5891 26.5505 19.3839 24.4936C19.1787 22.4367 19.7378 20.3761 20.9536 18.7083C22.1695 17.0404 23.9563 15.8829 25.9704 15.4585C25.4337 12.3965 26.0145 9.24277 27.6064 6.57635C28.7617 4.6151 30.4168 2.99872 32.4009 1.89373C34.3851 0.788737 36.6267 0.235093 38.8948 0.289832C41.1628 0.344571 43.3754 1.00572 45.3044 2.20515C47.2335 3.40459 48.8093 5.09895 49.8696 7.11367C51.1166 6.2531 52.6266 5.86355 54.1322 6.01401C55.6378 6.16447 57.0418 6.84522 58.0956 7.93574C59.1163 8.99062 59.7544 10.3595 59.9075 11.8225C61.8171 11.9523 63.6507 12.625 65.194 13.7622C66.7373 14.8995 67.9267 16.4542 68.6233 18.245C69.32 20.0358 69.4951 21.9887 69.1282 23.8757C68.7613 25.7627 67.8675 27.5059 66.5513 28.9018C65.6487 29.8641 64.5644 30.6363 63.3617 31.1735C62.159 31.7108 60.8618 32.0022 59.5459 32.0309L27.6244 32.036Z" fill="white"/>
<path d="M27.6244 32.3235C25.3465 32.313 23.1657 31.3953 21.5606 29.7717C19.9554 28.1482 19.0569 25.9513 19.0623 23.6632C19.0383 21.7153 19.678 19.8177 20.8751 18.2851C22.0722 16.7525 23.7549 15.6769 25.6441 15.2368C25.1812 12.1902 25.788 9.07682 27.3604 6.4305C28.5278 4.44804 30.1948 2.80972 32.1934 1.68067C34.192 0.551625 36.4516 -0.0282532 38.7445 -0.000514405C41.0373 0.0272244 43.2824 0.6616 45.2534 1.83867C47.2244 3.01574 48.8516 4.69392 49.9711 6.70405C51.2688 5.89681 52.802 5.55915 54.3169 5.74701C55.8317 5.93488 57.2372 6.63699 58.3004 7.73702C59.3083 8.77879 59.9603 10.1155 60.162 11.554C62.1023 11.7308 63.9539 12.4527 65.5048 13.6372C67.0557 14.8216 68.2433 16.4208 68.9316 18.2516C69.62 20.0824 69.7812 22.0708 69.397 23.9894C69.0128 25.908 68.0986 27.6791 66.759 29.1002C65.8303 30.0899 64.7148 30.8842 63.4775 31.4367C62.2402 31.9892 60.9059 32.2889 59.5522 32.3183L27.6244 32.3235ZM38.5911 0.574595C36.7586 0.584116 34.9502 0.995249 33.2922 1.7793C31.6342 2.56334 30.1665 3.70141 28.9916 5.11407C27.8167 6.52672 26.9629 8.17992 26.4898 9.95826C26.0166 11.7366 25.9355 13.5973 26.2522 15.4103L26.3 15.6862L26.0268 15.7413C24.2078 16.1037 22.5725 17.0943 21.4048 18.5414C20.2371 19.9885 19.6107 21.8006 19.6344 23.6632C19.6289 25.799 20.467 27.8497 21.9649 29.3656C23.4628 30.8814 25.4982 31.7385 27.6244 31.7488L59.5459 31.7448C60.8231 31.7161 62.0818 31.4326 63.2489 30.9107C64.416 30.3888 65.468 29.6389 66.3439 28.7048C67.6226 27.3485 68.4908 25.6549 68.8473 23.8216C69.2037 21.9883 69.0337 20.091 68.3571 18.3511C67.6804 16.6112 66.525 15.1006 65.0258 13.9955C63.5266 12.8904 61.7453 12.2364 59.89 12.11L59.648 12.0956L59.6228 11.8534C59.4763 10.4548 58.8663 9.14608 57.8908 8.13728C56.8841 7.09534 55.5428 6.44484 54.1045 6.30095C52.6662 6.15707 51.2235 6.52908 50.0321 7.35113L49.7677 7.53416L49.617 7.2497C48.5561 5.236 46.9692 3.55063 45.0266 2.37459C43.084 1.19855 40.8592 0.576276 38.5911 0.574595Z" fill="#292A2E"/>
<path d="M44.4995 27.3831C44.4236 27.3831 44.3509 27.3529 44.2972 27.299C44.2436 27.2451 44.2135 27.172 44.2135 27.0958V10.4065C44.2135 10.3303 44.2436 10.2572 44.2972 10.2033C44.3509 10.1494 44.4236 10.1191 44.4995 10.1191C44.5754 10.1191 44.6481 10.1494 44.7018 10.2033C44.7554 10.2572 44.7856 10.3303 44.7856 10.4065V27.0958C44.7856 27.172 44.7554 27.2451 44.7018 27.299C44.6481 27.3529 44.5754 27.3831 44.4995 27.3831Z" fill="#292A2E"/>
<path d="M50.7744 16.9965C50.7368 16.9966 50.6996 16.9892 50.6648 16.9748C50.6301 16.9603 50.5986 16.9391 50.5721 16.9123L44.4995 10.8128L38.4272 16.9123C38.3732 16.9647 38.301 16.9936 38.226 16.993C38.151 16.9923 38.0792 16.9621 38.0262 16.9088C37.9731 16.8556 37.9431 16.7835 37.9424 16.7081C37.9418 16.6328 37.9706 16.5602 38.0227 16.506L44.297 10.2033C44.3517 10.1514 44.4241 10.1226 44.4994 10.1226C44.5746 10.1226 44.647 10.1514 44.7017 10.2033L50.9763 16.506C51.0163 16.5462 51.0435 16.5974 51.0546 16.6531C51.0656 16.7089 51.0599 16.7666 51.0383 16.8191C51.0166 16.8716 50.98 16.9165 50.933 16.9481C50.8859 16.9796 50.8306 16.9965 50.7741 16.9965H50.7744Z" fill="#292A2E"/>
<path d="M171.935 192.63C171.866 192.63 171.8 192.603 171.751 192.554C171.385 192.186 170.789 185.44 169.182 165.356C168.524 157.139 167.903 149.376 167.45 144.659C167.417 144.322 167.287 144.283 167.244 144.27C166.624 144.082 164.737 145.577 163.684 146.885C163.64 146.937 163.577 146.969 163.51 146.975C163.442 146.982 163.375 146.961 163.322 146.918C163.269 146.876 163.235 146.814 163.228 146.746C163.22 146.678 163.238 146.61 163.28 146.556C163.976 145.691 166.247 143.423 167.394 143.769C167.625 143.839 167.912 144.041 167.966 144.608C168.42 149.329 169.041 157.093 169.699 165.314C170.675 177.518 171.782 191.345 172.145 192.216C172.173 192.255 172.189 192.301 172.193 192.349C172.197 192.396 172.187 192.444 172.165 192.487C172.143 192.53 172.11 192.565 172.069 192.59C172.029 192.616 171.982 192.629 171.934 192.629L171.935 192.63Z" fill="#494949"/>
<path d="M166.782 153.316C171.093 149.845 172.522 144.443 169.973 141.249C167.425 138.056 161.865 138.281 157.554 141.752C153.243 145.223 151.814 150.625 154.363 153.819C156.911 157.012 162.471 156.787 166.782 153.316Z" fill="#007C6A"/>
<path opacity="0.2" d="M166.782 153.316C171.093 149.845 172.522 144.443 169.973 141.249C167.425 138.056 161.865 138.281 157.554 141.752C153.243 145.223 151.814 150.625 154.363 153.819C156.911 157.012 162.471 156.787 166.782 153.316Z" fill="white"/>
<path d="M155.571 154.631C155.546 154.631 155.522 154.624 155.501 154.61C155.481 154.597 155.464 154.578 155.454 154.556C155.443 154.533 155.439 154.508 155.442 154.484C155.445 154.459 155.455 154.436 155.471 154.417L167.757 139.535C167.779 139.508 167.81 139.492 167.845 139.488C167.879 139.485 167.913 139.496 167.94 139.518C167.966 139.54 167.983 139.572 167.986 139.606C167.99 139.641 167.979 139.675 167.957 139.702L155.67 154.584C155.658 154.598 155.643 154.61 155.626 154.618C155.609 154.626 155.59 154.631 155.571 154.631Z" fill="white"/>
<path d="M174.615 189.44C174.585 189.44 174.556 189.435 174.529 189.426C174.464 189.403 174.41 189.355 174.38 189.293C174.35 189.231 174.346 189.159 174.369 189.094L178.983 175.763C179.119 175.371 179.35 175.02 179.656 174.742C179.962 174.463 180.333 174.266 180.734 174.169C181.136 174.072 181.555 174.077 181.954 174.185C182.353 174.293 182.718 174.5 183.017 174.786L185.456 177.127C185.481 177.151 185.501 177.179 185.515 177.211C185.528 177.242 185.536 177.276 185.537 177.31C185.537 177.344 185.531 177.378 185.519 177.41C185.507 177.442 185.488 177.471 185.465 177.496C185.441 177.521 185.413 177.541 185.382 177.555C185.35 177.568 185.317 177.576 185.283 177.577C185.249 177.577 185.215 177.571 185.183 177.559C185.151 177.547 185.122 177.528 185.097 177.504L182.658 175.163C182.422 174.937 182.133 174.774 181.818 174.689C181.504 174.604 181.173 174.6 180.856 174.676C180.539 174.753 180.246 174.909 180.004 175.129C179.763 175.349 179.58 175.626 179.473 175.936L174.858 189.268C174.84 189.318 174.807 189.362 174.764 189.393C174.72 189.424 174.668 189.44 174.615 189.44Z" fill="#494949"/>
<path d="M192.274 184.506C195.469 181.966 195.279 176.38 191.85 172.028C188.421 167.677 183.052 166.208 179.857 168.748C176.662 171.289 176.852 176.875 180.281 181.227C183.71 185.578 189.079 187.046 192.274 184.506Z" fill="#007C6A"/>
<path d="M169.838 191.781C169.78 191.78 169.723 191.761 169.677 191.724C169.632 191.688 169.599 191.637 169.586 191.579L161.842 159.053C161.789 158.831 161.676 158.628 161.516 158.467C161.356 158.305 161.154 158.191 160.934 158.137C160.713 158.083 160.482 158.091 160.266 158.16C160.05 158.23 159.857 158.358 159.708 158.53L157.321 161.301C157.276 161.354 157.212 161.386 157.143 161.391C157.075 161.396 157.007 161.373 156.955 161.328C156.902 161.283 156.87 161.218 156.865 161.149C156.86 161.08 156.883 161.012 156.928 160.96L159.315 158.189C159.526 157.944 159.8 157.762 160.108 157.663C160.415 157.565 160.744 157.553 161.057 157.63C161.371 157.707 161.657 157.869 161.885 158.099C162.112 158.328 162.272 158.617 162.347 158.932L170.092 191.458C170.101 191.497 170.101 191.537 170.093 191.575C170.084 191.614 170.067 191.65 170.043 191.681C170.018 191.712 169.987 191.737 169.952 191.754C169.917 191.771 169.878 191.78 169.839 191.78L169.838 191.781Z" fill="#494949"/>
<path d="M166.982 168.529C167.923 163.061 165.432 158.062 161.417 157.365C157.402 156.668 153.384 160.535 152.443 166.004C151.502 171.472 153.993 176.471 158.008 177.168C162.023 177.865 166.04 173.998 166.982 168.529Z" fill="#007C6A"/>
<path d="M171.935 192.63C171.925 192.63 171.914 192.629 171.903 192.628C171.835 192.619 171.773 192.584 171.73 192.529C171.688 192.475 171.669 192.406 171.677 192.337L176.622 152.005C176.677 151.566 176.856 151.152 177.138 150.812C177.421 150.473 177.796 150.223 178.216 150.092C178.637 149.961 179.087 149.955 179.511 150.074C179.935 150.193 180.316 150.433 180.608 150.765L186.26 157.196C186.284 157.221 186.303 157.251 186.314 157.284C186.326 157.317 186.332 157.351 186.33 157.386C186.328 157.421 186.32 157.455 186.305 157.487C186.29 157.518 186.268 157.546 186.242 157.569C186.216 157.592 186.186 157.61 186.153 157.621C186.12 157.632 186.085 157.636 186.05 157.634C186.016 157.631 185.982 157.621 185.951 157.605C185.92 157.589 185.893 157.567 185.871 157.54L180.218 151.11C179.993 150.853 179.699 150.668 179.371 150.575C179.043 150.483 178.695 150.487 178.37 150.589C178.045 150.69 177.755 150.883 177.537 151.146C177.318 151.408 177.18 151.728 177.138 152.068L172.193 192.401C172.185 192.464 172.155 192.522 172.107 192.564C172.06 192.606 171.999 192.63 171.935 192.63Z" fill="#494949"/>
<path d="M192.058 160.77C194.03 157.189 191.709 152.108 186.875 149.422C182.04 146.736 176.523 147.462 174.55 151.043C172.578 154.624 174.899 159.705 179.733 162.391C184.568 165.077 190.086 164.352 192.058 160.77Z" fill="#007C6A"/>
<path opacity="0.2" d="M192.274 184.506C195.469 181.966 195.279 176.38 191.85 172.028C188.421 167.677 183.052 166.208 179.857 168.748C176.662 171.289 176.852 176.875 180.281 181.227C183.71 185.578 189.079 187.046 192.274 184.506Z" fill="white"/>
<path opacity="0.5" d="M166.982 168.529C167.923 163.061 165.432 158.062 161.417 157.365C157.402 156.668 153.384 160.535 152.443 166.004C151.502 171.472 153.993 176.471 158.008 177.168C162.023 177.865 166.04 173.998 166.982 168.529Z" fill="white"/>
<path opacity="0.5" d="M192.058 160.77C194.03 157.189 191.709 152.108 186.875 149.422C182.04 146.736 176.523 147.462 174.55 151.043C172.578 154.624 174.899 159.705 179.733 162.391C184.568 165.077 190.086 164.352 192.058 160.77Z" fill="white"/>
<path d="M178.26 226.852H165.61L163.513 186.195H180.357L178.26 226.852Z" fill="#292A2E"/>
<path opacity="0.3" d="M178.26 226.852H165.61L163.513 186.195H180.357L178.26 226.852Z" fill="white"/>
<path d="M192.274 184.636C192.255 184.636 192.235 184.631 192.218 184.623C192.2 184.614 192.185 184.602 192.173 184.586L179.756 168.828C179.745 168.815 179.737 168.799 179.732 168.783C179.728 168.766 179.726 168.749 179.728 168.732C179.73 168.715 179.736 168.699 179.744 168.684C179.752 168.669 179.763 168.656 179.777 168.645C179.79 168.634 179.805 168.626 179.822 168.622C179.838 168.617 179.855 168.616 179.872 168.618C179.889 168.62 179.906 168.625 179.921 168.633C179.936 168.642 179.949 168.653 179.959 168.666L192.377 184.424C192.392 184.443 192.402 184.466 192.404 184.491C192.407 184.515 192.403 184.54 192.392 184.562C192.382 184.584 192.365 184.603 192.344 184.616C192.323 184.629 192.299 184.636 192.275 184.636H192.274Z" fill="white"/>
<path d="M191.232 162.033C191.204 162.033 191.178 162.024 191.155 162.008L175.265 150.353C175.251 150.343 175.239 150.33 175.23 150.315C175.221 150.301 175.215 150.285 175.213 150.268C175.21 150.251 175.211 150.233 175.215 150.217C175.219 150.2 175.226 150.184 175.236 150.171C175.246 150.157 175.259 150.145 175.274 150.136C175.288 150.127 175.304 150.121 175.321 150.119C175.338 150.116 175.355 150.117 175.372 150.121C175.388 150.125 175.404 150.132 175.418 150.142L191.308 161.797C191.33 161.813 191.347 161.836 191.355 161.862C191.364 161.889 191.364 161.917 191.355 161.943C191.346 161.969 191.33 161.992 191.308 162.008C191.285 162.024 191.259 162.033 191.231 162.033H191.232Z" fill="white"/>
<path d="M157.362 176.999C157.351 176.999 157.34 176.998 157.329 176.995C157.295 176.986 157.267 176.964 157.25 176.934C157.233 176.904 157.228 176.868 157.237 176.835L162.295 157.798C162.299 157.781 162.307 157.765 162.317 157.751C162.327 157.737 162.34 157.725 162.355 157.716C162.37 157.707 162.386 157.701 162.404 157.699C162.421 157.697 162.438 157.698 162.455 157.702C162.472 157.707 162.487 157.714 162.501 157.725C162.515 157.736 162.526 157.749 162.535 157.764C162.543 157.78 162.549 157.796 162.551 157.814C162.552 157.831 162.551 157.848 162.546 157.865L157.488 176.902C157.48 176.93 157.464 176.955 157.441 176.972C157.419 176.99 157.391 176.999 157.362 176.999Z" fill="white"/>
<path d="M143.449 13.5728H70.7858C64.7746 13.5728 59.9015 18.4677 59.9015 24.5059V196.087C59.9015 202.125 64.7746 207.02 70.7858 207.02H143.449C149.46 207.02 154.333 202.125 154.333 196.087V24.5059C154.333 18.4677 149.46 13.5728 143.449 13.5728Z" fill="#292A2E"/>
<path d="M143.415 16.9868H70.8198C66.6922 16.9868 63.3461 20.3479 63.3461 24.494V195.844C63.3461 199.99 66.6922 203.351 70.8198 203.351H143.415C147.543 203.351 150.889 199.99 150.889 195.844V24.494C150.889 20.3479 147.543 16.9868 143.415 16.9868Z" fill="white"/>
<path d="M89.1881 15.5752H125.047V19.3022C125.047 20.371 124.624 21.3958 123.871 22.1515C123.119 22.9071 122.098 23.3315 121.034 23.3315H93.2015C92.1373 23.3315 91.1167 22.9069 90.3642 22.151C89.6117 21.3952 89.189 20.37 89.189 19.3011V15.5752H89.1881Z" fill="#292A2E"/>
<path d="M121.047 52.1616H93.1883C89.6157 52.1616 86.7195 55.0708 86.7195 58.6594V86.6428C86.7195 90.2314 89.6157 93.1406 93.1883 93.1406H121.047C124.619 93.1406 127.516 90.2314 127.516 86.6428V58.6594C127.516 55.0708 124.619 52.1616 121.047 52.1616Z" fill="white"/>
<path d="M121.046 93.4282H93.1883C91.3974 93.4262 89.6804 92.7107 88.4141 91.4387C87.1477 90.1666 86.4354 88.442 86.4335 86.643V58.6597C86.4355 56.8608 87.1478 55.1361 88.4142 53.8641C89.6805 52.5921 91.3974 51.8766 93.1883 51.8745H121.046C122.837 51.8766 124.554 52.5921 125.821 53.8641C127.087 55.1361 127.799 56.8608 127.801 58.6597V86.643C127.799 88.442 127.087 90.1666 125.821 91.4387C124.554 92.7107 122.837 93.4262 121.046 93.4282ZM93.1883 52.4492C91.5491 52.4511 89.9776 53.106 88.8185 54.2703C87.6595 55.4346 87.0075 57.0131 87.0056 58.6597V86.643C87.0075 88.2896 87.6595 89.8681 88.8185 91.0324C89.9776 92.1967 91.5491 92.8516 93.1883 92.8535H121.046C122.686 92.8517 124.257 92.1968 125.416 91.0325C126.575 89.8682 127.227 88.2896 127.229 86.643V58.6597C127.227 57.0131 126.575 55.4345 125.416 54.2702C124.257 53.1059 122.686 52.451 121.046 52.4492H93.1883Z" fill="#292A2E"/>
<path opacity="0.6" d="M119.195 126.66V132.016H79.7965C79.0894 132.016 78.4113 131.733 77.9113 131.231C77.4113 130.729 77.1304 130.048 77.1304 129.338C77.1304 128.627 77.4113 127.946 77.9113 127.444C78.4113 126.942 79.0894 126.66 79.7965 126.66H119.195Z" fill="#007C6A"/>
<path d="M134.438 132.303H79.7973C79.4072 132.307 79.0201 132.233 78.6585 132.086C78.2969 131.939 77.968 131.721 77.6907 131.445C77.4135 131.169 77.1934 130.841 77.0432 130.479C76.893 130.117 76.8156 129.729 76.8156 129.337C76.8156 128.946 76.893 128.557 77.0432 128.196C77.1934 127.834 77.4135 127.506 77.6907 127.23C77.968 126.954 78.2969 126.736 78.6585 126.589C79.0201 126.442 79.4072 126.368 79.7973 126.372H134.438C135.216 126.379 135.959 126.695 136.507 127.251C137.054 127.806 137.361 128.556 137.361 129.337C137.361 130.119 137.054 130.869 136.507 131.424C135.959 131.98 135.216 132.296 134.438 132.303ZM79.7973 126.946C79.4825 126.943 79.1702 127.002 78.8784 127.121C78.5865 127.239 78.321 127.415 78.0972 127.637C77.8734 127.86 77.6957 128.125 77.5744 128.416C77.4531 128.708 77.3907 129.021 77.3907 129.337C77.3907 129.654 77.4531 129.967 77.5744 130.259C77.6957 130.55 77.8734 130.815 78.0972 131.038C78.321 131.26 78.5865 131.435 78.8784 131.554C79.1702 131.673 79.4825 131.732 79.7973 131.729H134.438C135.064 131.722 135.663 131.467 136.104 131.019C136.545 130.571 136.792 129.967 136.792 129.337C136.792 128.708 136.545 128.104 136.104 127.656C135.663 127.208 135.064 126.953 134.438 126.946H79.7973Z" fill="#292A2E"/>
<path opacity="0.8" d="M126.219 150.281H88.0165C85.7654 150.281 83.9405 152.114 83.9405 154.375V165.368C83.9405 167.629 85.7654 169.462 88.0165 169.462H126.219C128.47 169.462 130.294 167.629 130.294 165.368V154.375C130.294 152.114 128.47 150.281 126.219 150.281Z" fill="#007C6A"/>
<path d="M130.293 165.369V167.252C130.293 168.338 129.864 169.379 129.1 170.147C128.336 170.915 127.299 171.346 126.218 171.346H88.0162C86.9354 171.346 85.8989 170.915 85.1347 170.147C84.3704 169.379 83.9411 168.338 83.9411 167.252V165.369C83.9411 166.454 84.3704 167.495 85.1347 168.263C85.8989 169.031 86.9354 169.462 88.0162 169.462H126.218C127.299 169.462 128.335 169.031 129.1 168.263C129.864 167.495 130.293 166.454 130.293 165.369Z" fill="#007C6A"/>
<path d="M104.571 165.538C104.411 165.538 104.256 165.481 104.135 165.376L99.7624 161.612C99.6956 161.554 99.6407 161.484 99.6009 161.406C99.5611 161.327 99.5371 161.241 99.5304 161.153C99.5236 161.065 99.5342 160.976 99.5615 160.892C99.5888 160.808 99.6323 160.73 99.6896 160.663C99.7468 160.596 99.8166 160.541 99.8951 160.501C99.9735 160.461 100.059 160.437 100.147 160.43C100.234 160.423 100.323 160.434 100.406 160.462C100.49 160.489 100.567 160.533 100.634 160.59L104.514 163.93L113.542 154.008C113.602 153.943 113.673 153.89 113.753 153.852C113.833 153.815 113.919 153.794 114.007 153.79C114.095 153.786 114.182 153.799 114.265 153.829C114.348 153.859 114.424 153.906 114.489 153.965C114.553 154.025 114.606 154.097 114.643 154.177C114.681 154.257 114.702 154.343 114.706 154.432C114.71 154.52 114.696 154.608 114.666 154.691C114.636 154.774 114.59 154.85 114.531 154.916L105.065 165.319C105.003 165.388 104.926 165.443 104.841 165.481C104.756 165.519 104.664 165.538 104.571 165.538Z" fill="white"/>
<path d="M107.117 82.9425C107.041 82.9425 106.969 82.9122 106.915 82.8584C106.861 82.8045 106.831 82.7314 106.831 82.6552V62.6477C106.831 62.5715 106.861 62.4984 106.915 62.4445C106.969 62.3906 107.041 62.3604 107.117 62.3604C107.193 62.3604 107.266 62.3906 107.32 62.4445C107.373 62.4984 107.403 62.5715 107.403 62.6477V82.6552C107.403 82.7314 107.373 82.8045 107.32 82.8584C107.266 82.9122 107.193 82.9425 107.117 82.9425Z" fill="#292A2E"/>
<path d="M117.077 72.9389H97.1584C97.0826 72.9389 97.0098 72.9087 96.9562 72.8548C96.9025 72.8009 96.8724 72.7278 96.8724 72.6516C96.8724 72.5754 96.9025 72.5023 96.9562 72.4484C97.0098 72.3945 97.0826 72.3643 97.1584 72.3643H117.077C117.152 72.3643 117.225 72.3945 117.279 72.4484C117.332 72.5023 117.363 72.5754 117.363 72.6516C117.363 72.7278 117.332 72.8009 117.279 72.8548C117.225 72.9087 117.152 72.9389 117.077 72.9389Z" fill="#292A2E"/>
<path d="M48.8538 85.5292L52.0467 80.5402C52.1169 80.4305 52.209 80.3368 52.3172 80.2648C52.4255 80.1929 52.5474 80.1444 52.6753 80.1225C52.8032 80.1005 52.9342 80.1055 53.0601 80.1372C53.186 80.1689 53.3039 80.2266 53.4063 80.3066C53.5908 80.4601 53.712 80.6771 53.7463 80.9153C53.7807 81.1535 53.7258 81.396 53.5923 81.5958L52.9077 82.6659L56.5978 80.2939C57.0035 80.023 57.6737 79.9511 57.9463 80.4284C58.0631 80.6051 58.1169 80.8165 58.0988 81.0278C58.0807 81.2392 57.9919 81.4382 57.8467 81.5924C57.8502 81.5955 57.8532 81.599 57.8559 81.6027C57.8576 81.606 57.859 81.6095 57.8599 81.6131L58.4858 81.1953C58.6017 81.118 58.7333 81.0676 58.8711 81.0478C59.0088 81.0281 59.1492 81.0395 59.282 81.0811C59.4149 81.1228 59.5367 81.1938 59.6388 81.2888C59.7409 81.3838 59.8205 81.5005 59.872 81.6303C59.949 81.8364 59.9532 82.0629 59.8839 82.2717C59.8146 82.4806 59.676 82.6592 59.4913 82.7777L59.2249 82.9555C59.2268 82.9656 59.2268 82.9759 59.2249 82.986C59.4326 82.9078 59.6611 82.9064 59.8696 82.9819C60.0782 83.0575 60.2532 83.2051 60.3634 83.3983C60.4778 83.6133 60.5072 83.8638 60.4459 84.0997C60.3845 84.3355 60.2369 84.5395 60.0325 84.6709L59.3711 85.1123C59.3849 85.1126 59.3983 85.1162 59.4104 85.1229C59.4224 85.1295 59.4327 85.139 59.4403 85.1505C59.449 85.1644 59.4533 85.1806 59.4526 85.197C59.6568 85.179 59.8611 85.2288 60.0343 85.3388C60.2075 85.4488 60.3399 85.6129 60.4112 85.8059C60.482 86.0102 60.482 86.2324 60.4114 86.4368C60.3407 86.6411 60.2035 86.8154 60.0219 86.9317L54.4421 90.657C53.6615 91.1782 52.7438 91.4534 51.8064 91.4472C50.8691 91.441 49.955 91.1537 49.1813 90.6222C48.5144 90.1638 48.0516 89.4623 47.8914 88.6667C47.7312 87.8711 47.8861 87.044 48.3232 86.3613L48.8538 85.5292Z" fill="#E98862"/>
<g opacity="0.2">
<path d="M54.207 83.9577C54.2195 83.9766 54.239 83.9897 54.2611 83.9943C54.2832 83.9988 54.3062 83.9945 54.3251 83.9821L57.8319 81.7219C57.8511 81.7095 57.8646 81.6899 57.8695 81.6675C57.8743 81.645 57.8701 81.6216 57.8577 81.6023C57.8454 81.5829 57.8259 81.5694 57.8035 81.5645C57.7812 81.5596 57.7578 81.5638 57.7386 81.5763L54.2319 83.8364C54.2223 83.8425 54.2141 83.8505 54.2076 83.8598C54.2011 83.8691 54.1965 83.8797 54.1941 83.8908C54.1917 83.9019 54.1915 83.9134 54.1935 83.9246C54.1955 83.9357 54.1997 83.9464 54.2059 83.956L54.207 83.9577Z" fill="#0C0C0C"/>
</g>
<g opacity="0.2">
<path d="M55.1556 85.54C55.1681 85.5589 55.1875 85.572 55.2096 85.5766C55.2317 85.5812 55.2548 85.5768 55.2737 85.5644L59.1872 83.0402C59.1968 83.0341 59.2051 83.0261 59.2116 83.0168C59.2181 83.0074 59.2227 82.9969 59.2251 82.9857C59.2275 82.9746 59.2277 82.9631 59.2257 82.9519C59.2236 82.9406 59.2194 82.9299 59.2132 82.9204C59.2003 82.9017 59.1808 82.8887 59.1586 82.8839C59.1365 82.8791 59.1134 82.8829 59.0939 82.8945L55.1796 85.4176C55.17 85.4237 55.1617 85.4317 55.1552 85.441C55.1487 85.4504 55.1441 85.4609 55.1417 85.472C55.1392 85.4832 55.139 85.4947 55.1411 85.5059C55.1431 85.5172 55.1474 85.5279 55.1536 85.5374L55.1556 85.54Z" fill="#0C0C0C"/>
</g>
<g opacity="0.2">
<path d="M56.1745 87.2572C56.187 87.276 56.2064 87.2891 56.2284 87.2936C56.2505 87.2982 56.2734 87.2939 56.2923 87.2816L59.4143 85.2703C59.4335 85.2579 59.4471 85.2383 59.4519 85.2158C59.4568 85.1934 59.4526 85.1699 59.4402 85.1506C59.4278 85.1313 59.4083 85.1177 59.386 85.1128C59.3636 85.1079 59.3403 85.1122 59.3211 85.1246L56.1991 87.136C56.1895 87.1421 56.1812 87.1501 56.1748 87.1594C56.1683 87.1688 56.1637 87.1793 56.1613 87.1905C56.1589 87.2016 56.1587 87.2131 56.1608 87.2243C56.1629 87.2355 56.1671 87.2462 56.1733 87.2558L56.1745 87.2572Z" fill="#0C0C0C"/>
</g>
<path d="M21.2963 77.437L36.0713 101.273L26.7897 99.7567L48.3884 82.9932L56.2589 93.225L34.6602 109.988C33.9917 110.507 33.2281 110.889 32.4129 111.111C31.5976 111.334 30.7468 111.392 29.9089 111.285C29.071 111.177 28.2625 110.904 27.5295 110.482C26.7965 110.06 26.1534 109.498 25.6369 108.826C25.5988 108.776 25.5606 108.725 25.5225 108.674L25.3777 108.473L9.04213 85.6873L21.2963 77.437Z" fill="#007C6A"/>
<path d="M17.1225 216.427C17.1225 216.427 18.1861 221.965 23.3482 222.274C28.5103 222.582 27.3907 226.713 27.3907 226.713H7.66621V216.813L17.1225 216.427Z" fill="#007C6A"/>
<path d="M11.0382 115.406C11.0382 115.406 11.1003 113.741 11.0871 117.518C11.0382 131.603 10.7948 147.693 10.2004 157.108C9.24465 172.243 6.79404 219.961 6.79404 219.961L19.7562 219.852L32.3197 114.833L11.0382 115.406Z" fill="#262626"/>
<path d="M25.6761 132.016C25.6761 132.016 26.2133 142.238 26.3128 144.638C26.5434 150.188 26.6232 155.934 26.6232 162.449L28.6665 145.37C28.6665 145.37 27.1713 140.019 25.6761 132.016Z" fill="#0A0A0A"/>
<path d="M40.199 216.427C40.199 216.427 41.2625 221.965 46.4243 222.274C51.5862 222.582 50.4668 226.713 50.4668 226.713H30.7409V216.813L40.199 216.427Z" fill="#007C6A"/>
<path d="M46.475 116.5C46.475 116.5 47.6232 164.642 47.455 166.995L42.6344 219.597L29.8865 219.833L31.1288 165.092C31.1288 165.092 30.2524 149.992 26.6203 135.97C24.762 128.774 23.6436 121.405 23.2827 113.979L46.475 116.5Z" fill="#262626"/>
<path d="M10.8986 115.404L10.8563 115.407C10.8563 115.407 10.8857 114.585 10.8986 115.404Z" fill="#333333"/>
<path d="M48.2997 89.7777C48.0326 92.9323 46.7322 112.614 46.475 116.5H11.0525C10.8523 112.994 9.95406 97.6708 9.19517 90.8175C8.47088 84.2778 8.37276 80.893 9.41457 78.9598C11.1169 75.7991 14.4448 74.0842 17.6166 73.6529C19.5534 73.3897 22.4663 73.201 22.4663 73.201C22.4663 73.201 22.7126 78.213 28.5938 78.4914C36.5996 78.8707 36.0653 73.2007 36.1047 73.2007C37.4017 73.2007 43.9494 73.8139 45.6194 75.1046C49.1882 77.8621 48.8673 83.0925 48.2997 89.7777Z" fill="#007C6A"/>
<path d="M39.3517 73.3813C39.3145 73.3765 38.2933 77.24 30.3159 76.6389C24.7936 76.2234 23.4472 72.4475 23.3204 72.4475C23.916 72.3205 24.8829 72.1889 25.1472 72.0467C25.6041 71.8352 26.0062 71.5207 26.3222 71.1276C26.6382 70.7344 26.8596 70.2733 26.9691 69.7802C27.2185 68.8213 27.3455 65.1302 27.3455 63.2783L35.8424 65.1963C35.724 67.2852 34.895 72.1283 37.8007 72.9854C38.2844 73.1268 38.8051 73.2575 39.3517 73.3813Z" fill="#E98862"/>
<path d="M35.5489 69.3036C32.199 69.5691 27.8956 68.1485 27.0783 63.6592L26.3409 59.6078C25.5233 55.1184 27.2082 51.0477 31.4163 50.2748C35.6244 49.5016 39.4324 52.5631 40.2496 57.0525L40.5763 58.846C40.8898 60.5706 41.5257 68.8301 35.5489 69.3036Z" fill="#E98862"/>
<path d="M38.6549 65.1816C38.0542 62.1467 37.7778 60.1222 37.8099 57.9858C38.6569 56.4937 38.434 54.7809 38.2415 54.041C38.8248 54.4131 39.5106 54.5896 40.2001 54.5453C40.2001 54.5453 38.7985 48.8988 34.0388 47.3794C33.1635 47.0372 30.9283 46.605 27.9605 47.0139C25.4361 47.3616 19.2139 49.2574 18.3248 56.2948V56.2989C18.2962 56.5322 17.6981 63.0156 16.507 66.1258C14.9051 70.3074 12.6578 71.6067 12.7148 76.4314C12.7874 82.5818 27.6753 83.2243 30.997 82.999C37.8479 82.5347 41.6722 80.2722 41.7216 75.7998C41.7766 70.7881 39.858 71.2536 38.6549 65.1816Z" fill="#0A0A0A"/>
<path d="M96.0311 44.6304H50.0675C49.2847 44.6304 48.6501 45.2678 48.6501 46.0541V83.8997C48.6501 84.686 49.2847 85.3235 50.0675 85.3235H96.0311C96.8139 85.3235 97.4484 84.686 97.4484 83.8997V46.0541C97.4484 45.2678 96.8139 44.6304 96.0311 44.6304Z" fill="#007C6A"/>
<path opacity="0.3" d="M96.0311 44.6304H50.0675C49.2847 44.6304 48.6501 45.2678 48.6501 46.0541V83.8997C48.6501 84.686 49.2847 85.3235 50.0675 85.3235H96.0311C96.8139 85.3235 97.4484 84.686 97.4484 83.8997V46.0541C97.4484 45.2678 96.8139 44.6304 96.0311 44.6304Z" fill="white"/>
<path d="M96.0308 85.54H50.0675C49.6354 85.5392 49.2211 85.3663 48.9155 85.0594C48.6099 84.7524 48.4379 84.3363 48.437 83.9022V46.0543C48.4376 45.6199 48.6095 45.2035 48.9151 44.8963C49.2207 44.589 49.6351 44.416 50.0675 44.415H96.0308C96.4634 44.4156 96.8783 44.5884 97.1842 44.8957C97.4902 45.203 97.6624 45.6197 97.663 46.0543V83.8999C97.6627 84.3347 97.4906 84.7516 97.1846 85.0591C96.8786 85.3666 96.4636 85.5395 96.0308 85.54ZM50.0675 44.846C49.7489 44.8468 49.4435 44.9744 49.2183 45.2009C48.9931 45.4273 48.8665 45.7342 48.8661 46.0543V83.8999C48.8668 84.2197 48.9936 84.5263 49.2187 84.7525C49.4439 84.9787 49.7491 85.106 50.0675 85.1067H96.0308C96.3495 85.1064 96.6551 84.9792 96.8806 84.753C97.1061 84.5268 97.2332 84.22 97.2339 83.8999V46.0543C97.2335 45.7339 97.1065 45.4268 96.881 45.2003C96.6555 44.9738 96.3497 44.8464 96.0308 44.846H50.0675Z" fill="#292A2E"/>
<path d="M83 65.2889C83.0037 67.8952 81.9936 70.4007 80.1833 72.2757C78.8241 69.2383 76.081 67.1647 72.9223 67.1647C69.7608 67.1647 67.0177 69.2411 65.6584 72.2786C64.5145 71.0902 63.6796 69.6392 63.2272 68.053C62.7747 66.4667 62.7185 64.7936 63.0634 63.1806C63.4083 61.5675 64.1438 60.0637 65.2054 58.8012C66.267 57.5387 67.6222 56.556 69.1521 55.9393C70.682 55.3227 72.3399 55.0909 73.9803 55.2644C75.6207 55.4379 77.1934 56.0113 78.5605 56.9343C79.9276 57.8573 81.0473 59.1017 81.8214 60.5583C82.5954 62.015 83.0001 63.6393 83 65.2889Z" fill="#66B0A6"/>
<path d="M72.9206 66.3272C75.1245 66.3272 76.9111 64.5406 76.9111 62.3367C76.9111 60.1328 75.1245 58.3462 72.9206 58.3462C70.7167 58.3462 68.9301 60.1328 68.9301 62.3367C68.9301 64.5406 70.7167 66.3272 72.9206 66.3272Z" fill="#F3F5FD"/>
<path d="M80.1832 72.2755C79.2432 73.2531 78.1154 74.0308 76.8676 74.5622C75.6198 75.0935 74.2776 75.3675 72.9214 75.3678C71.5652 75.3681 70.2228 75.0946 68.9748 74.5637C67.7268 74.0329 66.5988 73.2556 65.6583 72.2784C67.0176 69.241 69.7607 67.1646 72.9222 67.1646C76.0809 67.1646 78.824 69.2381 80.1832 72.2755Z" fill="#F3F5FD"/>
<path d="M76.905 85.5292L80.0979 80.5402C80.1681 80.4305 80.2602 80.3368 80.3684 80.2648C80.4766 80.1929 80.5986 80.1444 80.7265 80.1225C80.8544 80.1005 80.9854 80.1055 81.1113 80.1372C81.2372 80.1689 81.3551 80.2266 81.4575 80.3066C81.6421 80.4601 81.7633 80.677 81.7977 80.9152C81.8321 81.1534 81.7772 81.3959 81.6437 81.5958L80.9589 82.6659L84.649 80.2939C85.0546 80.023 85.7251 79.9511 85.9975 80.4284C86.1143 80.6051 86.1681 80.8165 86.15 81.0278C86.1319 81.2392 86.0431 81.4382 85.8979 81.5924C85.9014 81.5956 85.9045 81.599 85.9074 81.6027C85.9089 81.6061 85.9101 81.6095 85.9111 81.6131L86.537 81.1953C86.6529 81.118 86.7845 81.0676 86.9223 81.0478C87.06 81.0281 87.2004 81.0395 87.3332 81.0811C87.466 81.1228 87.5879 81.1938 87.69 81.2888C87.7921 81.3838 87.8717 81.5005 87.9232 81.6303C88.0002 81.8364 88.0044 82.0629 87.935 82.2717C87.8657 82.4806 87.7271 82.6592 87.5424 82.7777L87.2761 82.9555C87.2778 82.9656 87.2778 82.9759 87.2761 82.986C87.4837 82.9078 87.7122 82.9064 87.9207 82.982C88.1292 83.0575 88.3042 83.2051 88.4143 83.3983C88.5287 83.6133 88.5581 83.8638 88.4968 84.0997C88.4354 84.3355 88.2878 84.5395 88.0834 84.6709L87.422 85.1123C87.4358 85.1126 87.4492 85.1162 87.4613 85.1229C87.4733 85.1295 87.4836 85.139 87.4912 85.1505C87.4999 85.1644 87.5042 85.1806 87.5035 85.197C87.7077 85.179 87.912 85.2288 88.0852 85.3388C88.2584 85.4488 88.3908 85.6129 88.4621 85.8059C88.533 86.0102 88.5331 86.2325 88.4624 86.4368C88.3918 86.6411 88.2545 86.8155 88.0728 86.9317L82.493 90.657C81.7124 91.1782 80.7947 91.4534 79.8573 91.4472C78.92 91.441 78.0059 91.1537 77.2322 90.6222C76.5653 90.1638 76.1025 89.4623 75.9423 88.6667C75.7821 87.8711 75.937 87.044 76.3741 86.3613L76.905 85.5292Z" fill="#E98862"/>
<g opacity="0.2">
<path d="M82.257 83.9577C82.2696 83.9766 82.289 83.9897 82.3111 83.9943C82.3332 83.9988 82.3562 83.9945 82.3752 83.9821L85.8819 81.7219C85.8914 81.7158 85.8996 81.7078 85.9061 81.6985C85.9125 81.6891 85.9171 81.6786 85.9195 81.6675C85.9219 81.6564 85.9221 81.6449 85.9201 81.6337C85.9181 81.6225 85.9139 81.6118 85.9078 81.6023C85.9017 81.5927 85.8937 81.5844 85.8844 81.578C85.8751 81.5715 85.8646 81.5669 85.8536 81.5645C85.8425 81.5621 85.8311 81.5619 85.8199 81.5639C85.8088 81.5659 85.7982 81.5701 85.7886 81.5763L82.2819 83.8364C82.2724 83.8425 82.2641 83.8505 82.2576 83.8598C82.2511 83.8691 82.2465 83.8797 82.2441 83.8908C82.2417 83.9019 82.2415 83.9134 82.2435 83.9246C82.2455 83.9357 82.2497 83.9464 82.2559 83.956L82.257 83.9577Z" fill="#0C0C0C"/>
</g>
<g opacity="0.2">
<path d="M83.2067 85.54C83.2193 85.5589 83.2387 85.572 83.2608 85.5766C83.2829 85.5812 83.3059 85.5768 83.3249 85.5644L87.2384 83.0402C87.2479 83.0341 87.2562 83.0261 87.2628 83.0168C87.2693 83.0074 87.2739 82.9969 87.2763 82.9857C87.2787 82.9746 87.2789 82.9631 87.2769 82.9519C87.2748 82.9406 87.2706 82.9299 87.2644 82.9204C87.2514 82.9017 87.2319 82.8887 87.2098 82.8839C87.1877 82.8791 87.1646 82.8829 87.1451 82.8945L83.2316 85.4167C83.222 85.4228 83.2137 85.4308 83.2072 85.4401C83.2007 85.4495 83.1961 85.46 83.1937 85.4712C83.1913 85.4823 83.1911 85.4939 83.1931 85.5051C83.1952 85.5163 83.1994 85.527 83.2056 85.5366L83.2067 85.54Z" fill="#0C0C0C"/>
</g>
<g opacity="0.2">
<path d="M84.2257 87.2572C84.2382 87.276 84.2576 87.2891 84.2796 87.2936C84.3016 87.2982 84.3246 87.2939 84.3435 87.2816L87.4655 85.2703C87.4847 85.2579 87.4982 85.2383 87.5031 85.2158C87.508 85.1934 87.5037 85.1699 87.4914 85.1506C87.479 85.1313 87.4595 85.1177 87.4372 85.1128C87.4148 85.1079 87.3915 85.1122 87.3722 85.1246L84.2505 87.136C84.2409 87.1421 84.2327 87.15 84.2261 87.1594C84.2196 87.1687 84.215 87.1793 84.2126 87.1904C84.2102 87.2015 84.21 87.2131 84.212 87.2243C84.2141 87.2355 84.2183 87.2462 84.2245 87.2558L84.2257 87.2572Z" fill="#0C0C0C"/>
</g>
<path d="M46.6646 76.3032L63.9256 100.994L54.8417 99.757L76.4402 82.9936L84.3106 93.2253L62.7119 109.989C61.3775 111.025 59.6916 111.493 58.017 111.292C56.3424 111.092 54.8131 110.239 53.7585 108.917L53.6269 108.752L34.8641 85.1934L46.6646 76.3032Z" fill="#007C6A"/>
<path d="M0.286053 227H188.549C188.624 227 188.697 226.97 188.751 226.916C188.804 226.862 188.835 226.789 188.835 226.713C188.835 226.636 188.804 226.563 188.751 226.509C188.697 226.456 188.624 226.425 188.549 226.425H0.286053C0.210187 226.425 0.137428 226.456 0.0837829 226.509C0.0301376 226.563 0 226.636 0 226.713C0 226.789 0.0301376 226.862 0.0837829 226.916C0.137428 226.97 0.210187 227 0.286053 227Z" fill="#262626"/>
</g>
<defs>
<clipPath id="clip0_1066_8799">
<rect width="198" height="227" fill="white"/>
</clipPath>
</defs>
</svg>
