<svg width="141" height="129" viewBox="0 0 141 129" fill="none" xmlns="http://www.w3.org/2000/svg">
<path d="M8.09961 23.1C8.09961 16.4725 13.4722 11.1 20.0996 11.1H40.0986C53.5723 11.1 55.2565 23.1 72.0986 23.1H120.899C127.527 23.1 132.899 28.4726 132.899 35.1V105.5C132.899 112.127 127.527 117.5 120.899 117.5H20.0996C13.4722 117.5 8.09961 112.127 8.09961 105.5V23.1Z" fill="#039883"/>
<path d="M8.09961 23.1C8.09961 16.4725 13.4722 11.1 20.0996 11.1H40.0986C53.5723 11.1 55.2565 23.1 72.0986 23.1H120.899C127.527 23.1 132.899 28.4726 132.899 35.1V105.5C132.899 112.127 127.527 117.5 120.899 117.5H20.0996C13.4722 117.5 8.09961 112.127 8.09961 105.5V23.1Z" fill="url(#paint0_linear_1935_6372)" fill-opacity="0.2"/>
<g filter="url(#filter0_i_1935_6372)">
<path d="M6.50025 105.5C5.74971 99.4958 2.18269 58.2854 1.74443 53.2118C1.71482 52.8691 1.69661 52.5271 1.71117 52.1834C1.98175 45.7956 7.24592 40.7 13.7003 40.7H127.3C133.754 40.7 139.019 45.7956 139.289 52.1834C139.304 52.5271 139.286 52.8691 139.256 53.2118C138.818 58.2853 135.251 99.4957 134.5 105.5C133.7 111.9 129.128 117.5 122.5 117.5H18.5003C11.8729 117.5 7.30025 111.9 6.50025 105.5Z" fill="#007C6A"/>
<path d="M6.50025 105.5C5.74971 99.4958 2.18269 58.2854 1.74443 53.2118C1.71482 52.8691 1.69661 52.5271 1.71117 52.1834C1.98175 45.7956 7.24592 40.7 13.7003 40.7H127.3C133.754 40.7 139.019 45.7956 139.289 52.1834C139.304 52.5271 139.286 52.8691 139.256 53.2118C138.818 58.2853 135.251 99.4957 134.5 105.5C133.7 111.9 129.128 117.5 122.5 117.5H18.5003C11.8729 117.5 7.30025 111.9 6.50025 105.5Z" fill="url(#paint1_radial_1935_6372)" fill-opacity="0.16"/>
</g>
<defs>
<filter id="filter0_i_1935_6372" x="1.70605" y="32.7" width="137.588" height="84.8" filterUnits="userSpaceOnUse" color-interpolation-filters="sRGB">
<feFlood flood-opacity="0" result="BackgroundImageFix"/>
<feBlend mode="normal" in="SourceGraphic" in2="BackgroundImageFix" result="shape"/>
<feColorMatrix in="SourceAlpha" type="matrix" values="0 0 0 0 0 0 0 0 0 0 0 0 0 0 0 0 0 0 127 0" result="hardAlpha"/>
<feOffset dy="-8"/>
<feGaussianBlur stdDeviation="4"/>
<feComposite in2="hardAlpha" operator="arithmetic" k2="-1" k3="1"/>
<feColorMatrix type="matrix" values="0 0 0 0 0.00551356 0 0 0 0 0.461614 0 0 0 0 0.396456 0 0 0 1 0"/>
<feBlend mode="normal" in2="shape" result="effect1_innerShadow_1935_6372"/>
</filter>
<linearGradient id="paint0_linear_1935_6372" x1="70.4986" y1="29.5" x2="70.4986" y2="53.5" gradientUnits="userSpaceOnUse">
<stop stop-color="#52AFE0"/>
<stop offset="1" stop-color="#00529E" stop-opacity="0.1"/>
</linearGradient>
<radialGradient id="paint1_radial_1935_6372" cx="0" cy="0" r="1" gradientUnits="userSpaceOnUse" gradientTransform="translate(70.5003 53.5) rotate(90) scale(48 76.8002)">
<stop stop-color="white"/>
<stop offset="1" stop-color="white" stop-opacity="0"/>
</radialGradient>
</defs>
</svg>
