<svg width="20" height="20" viewBox="0 0 20 20" fill="none" xmlns="http://www.w3.org/2000/svg">
<path d="M7.91699 11.6667C9.2977 11.6667 10.417 12.786 10.417 14.1667C10.417 15.5474 9.2977 16.6667 7.91699 16.6667C6.53628 16.6667 5.41699 15.5474 5.41699 14.1667C5.41699 12.786 6.53628 11.6667 7.91699 11.6667Z" stroke="#4C5767" stroke-width="1.5"/>
<path d="M12.083 3.33329C10.7023 3.33329 9.58301 4.45258 9.58301 5.83329C9.58301 7.214 10.7023 8.33329 12.083 8.33329C13.4637 8.33329 14.583 7.214 14.583 5.83329C14.583 4.45258 13.4637 3.33329 12.083 3.33329Z" stroke="#4C5767" stroke-width="1.5"/>
<path d="M11 14.1321L18 14.1321" stroke="#4C5767" stroke-width="1.5" stroke-linecap="round"/>
<path d="M9 5.79877H2" stroke="#4C5767" stroke-width="1.5" stroke-linecap="round"/>
<path d="M1.66699 14.1321H5" stroke="#4C5767" stroke-width="1.5" stroke-linecap="round"/>
<path d="M18.333 5.79877L15.333 5.79877" stroke="#4C5767" stroke-width="1.5" stroke-linecap="round"/>
</svg>
