<svg width="22" height="22" viewBox="0 0 22 22" fill="none" xmlns="http://www.w3.org/2000/svg">
<g clip-path="url(#clip0_1944_225)">
<path d="M19.5086 7.86909H18.9804V5.32013C18.9804 5.30412 18.9779 5.28823 18.9758 5.27198C18.9749 5.17079 18.9426 5.07136 18.8734 4.99271L14.6317 0.147538C14.6304 0.146174 14.6292 0.145773 14.6283 0.144529C14.603 0.116281 14.5736 0.092688 14.5423 0.0724652C14.5331 0.0661656 14.5238 0.0609895 14.5142 0.0556529C14.4872 0.0410074 14.4585 0.0286891 14.4291 0.0198216C14.421 0.0177351 14.4139 0.0144449 14.4059 0.0122782C14.3739 0.00473471 14.3406 0 14.3069 0H3.88233C3.40634 0 3.01961 0.387163 3.01961 0.862761V7.86905H2.49141C1.81046 7.86905 1.2583 8.42101 1.2583 9.10208V15.5144C1.2583 16.1952 1.81046 16.7477 2.49141 16.7477H3.01961V21.1373C3.01961 21.6129 3.40634 22 3.88233 22H18.1176C18.5932 22 18.9803 21.6129 18.9803 21.1373V16.7477H19.5086C20.1894 16.7477 20.7416 16.1954 20.7416 15.5146V9.10244C20.7416 8.42105 20.1894 7.86909 19.5086 7.86909ZM3.88233 0.862761H13.8755V5.27672C13.8755 5.51506 14.0688 5.7081 14.3069 5.7081H18.1176V7.86925H3.88233V0.862761ZM12.617 14.2134C13.0166 14.2134 13.4587 14.127 13.7188 14.0224L13.9181 15.0549C13.6754 15.1764 13.1289 15.3063 12.418 15.3063C10.3963 15.3063 9.35558 14.0484 9.35558 12.3832C9.35558 10.3881 10.7781 9.27767 12.5481 9.27767C13.233 9.27767 13.7538 9.41634 13.9876 9.53756L13.7192 10.5874C13.4501 10.4746 13.0772 10.3709 12.609 10.3709C11.5594 10.3709 10.7441 11.0042 10.7441 12.3048C10.7437 13.4762 11.4377 14.2134 12.617 14.2134ZM3.68139 9.37329H5.13053L5.84142 11.8452C6.0412 12.5391 6.22321 13.207 6.36212 13.9358H6.38804C6.53558 13.2327 6.71738 12.5389 6.91716 11.8714L7.6634 9.37333H9.06833L7.09909 15.2194H5.55529L3.68139 9.37329ZM18.1176 20.9034H3.88233V16.7477H18.1176V20.9034H18.1176ZM18.3604 10.4573H16.1139V11.793H18.2132V12.8689H16.1139V15.2193H14.7871V9.37329H18.3605V10.4573H18.3604Z" fill="#007C6A"/>
</g>
<defs>
<clipPath id="clip0_1944_225">
<rect width="22" height="22" fill="white"/>
</clipPath>
</defs>
</svg>
