<svg width="21" height="21" viewBox="0 0 21 21" fill="none" xmlns="http://www.w3.org/2000/svg">
<path d="M5.54704 19.556C7.07368 20.388 8.79375 20.8212 10.5414 20.8212H10.5484C16.3095 20.8212 21 16.1523 21 10.4175C21 7.63949 19.9155 5.01965 17.9398 3.05305C15.9641 1.08644 13.3391 0 10.5414 0C4.78026 0 0.089803 4.66896 0.089803 10.4037C0.089803 12.2397 0.573356 14.0275 1.4852 15.609L0 21L5.54704 19.556ZM10.5484 1.76031C12.8694 1.76031 15.0523 2.6611 16.6895 4.29764C18.3266 5.93418 19.2316 8.10707 19.2316 10.4175C19.2316 15.1896 15.3286 19.0678 10.5414 19.0678H10.5345C8.97336 19.0678 7.44671 18.6483 6.11349 17.8644L5.79572 17.6788L2.50757 18.5383L3.38487 15.3477L3.17763 15.0177C2.30724 13.6424 1.85132 12.0472 1.85132 10.4175C1.85822 5.63851 5.75428 1.76031 10.5484 1.76031ZM10.7625 14.7083C11.3842 14.9764 11.8747 15.1346 12.2546 15.2583C12.8832 15.4578 13.4497 15.4303 13.8987 15.3615C14.403 15.2859 15.4461 14.7358 15.6602 14.1238C15.8813 13.5187 15.8813 12.9961 15.8122 12.8861C15.75 12.776 15.5704 12.7141 15.3148 12.5835C15.0523 12.4528 13.7674 11.8271 13.5326 11.7377C13.2908 11.6483 13.1181 11.6071 12.9454 11.8684C12.7727 12.1297 12.2684 12.7141 12.1164 12.8861C11.9645 13.058 11.8125 13.0786 11.55 12.9479C11.2875 12.8173 10.4447 12.5422 9.45 11.6552C8.67632 10.9676 8.15132 10.1149 7.99934 9.85363C7.84737 9.59234 7.98553 9.45481 8.11678 9.32417C8.23421 9.20727 8.37928 9.02161 8.51053 8.87033C8.64178 8.71906 8.68322 8.60904 8.77303 8.43713C8.86283 8.26523 8.81448 8.11395 8.7523 7.9833C8.69013 7.85265 8.16513 6.57367 7.94408 6.05108C7.72993 5.54224 7.51579 5.611 7.35691 5.60413C7.20494 5.59725 7.03224 5.59725 6.85954 5.59725C6.68684 5.59725 6.40362 5.65914 6.16184 5.92043C5.92007 6.18173 5.25 6.80747 5.25 8.08644C5.25 9.36542 6.18257 10.6031 6.31382 10.775C6.43125 10.9607 8.1375 13.5874 10.7625 14.7083Z" fill="white"/>
</svg>
