<svg width="25" height="24" viewBox="0 0 25 24" fill="none" xmlns="http://www.w3.org/2000/svg">
<path d="M3.5 10.4167C3.5 7.21907 3.5 5.62028 3.87752 5.08241C4.25503 4.54454 5.75832 4.02996 8.76491 3.00079L9.33772 2.80472C10.905 2.26824 11.6886 2 12.5 2C13.3114 2 14.095 2.26824 15.6623 2.80472L16.2351 3.00079C19.2417 4.02996 20.745 4.54454 21.1225 5.08241C21.5 5.62028 21.5 7.21907 21.5 10.4167C21.5 10.8996 21.5 11.4234 21.5 11.9914C21.5 17.6294 17.261 20.3655 14.6014 21.5273C13.88 21.8424 13.5193 22 12.5 22C11.4807 22 11.12 21.8424 10.3986 21.5273C7.73896 20.3655 3.5 17.6294 3.5 11.9914C3.5 11.4234 3.5 10.8996 3.5 10.4167Z" stroke="#007C6A" stroke-width="1.5"/>
<path d="M10 12.4L11.4286 14L15 10" stroke="#007C6A" stroke-width="1.5" stroke-linecap="round" stroke-linejoin="round"/>
</svg>
