<svg width="234" height="40" viewBox="0 0 234 40" fill="none" xmlns="http://www.w3.org/2000/svg">
<path d="M55.5927 28.0659C55.1313 28.0659 54.9555 27.8022 54.9555 27.5166C54.9555 26.5498 56.6913 27.1211 56.6913 25.627V14.7946C56.6913 14.1355 56.4716 13.8279 55.8124 13.8279H55.1752C53.7251 13.8279 52.6924 14.7067 51.2422 16.3766C50.9346 16.7282 50.7368 16.9259 50.4292 16.9259C50.1436 16.9259 49.9019 16.7062 49.9019 16.3107C49.9019 15.9592 50.0557 15.5637 50.3853 14.7946L51.1323 13.0149C51.4619 12.2019 51.7256 11.9163 52.165 11.9163C52.6924 11.9163 52.7803 12.3997 53.5273 12.3997H62.7557C63.5247 12.3997 63.6126 11.9163 64.14 11.9163C64.5794 11.9163 64.8211 12.2019 65.1727 13.0149L65.9197 14.7946C66.2273 15.5637 66.4031 15.9592 66.4031 16.3107C66.4031 16.7062 66.1394 16.9259 65.8538 16.9259C65.5682 16.9259 65.3704 16.7282 65.0628 16.3766C63.6126 14.7067 62.5579 13.8279 61.1078 13.8279H60.4925C59.8334 13.8279 59.6137 14.1355 59.6137 14.7946V25.627C59.6137 27.1211 61.3495 26.5498 61.3495 27.5166C61.3495 27.8022 61.1737 28.0659 60.6903 28.0659C60.0531 28.0659 59.2621 28 58.1415 28C57.0429 28 56.2299 28.0659 55.5927 28.0659ZM78.6412 25.2974C78.9048 27.3189 80.1792 26.6597 80.1792 27.5606C80.1792 27.8682 79.8936 28.0659 79.4761 28.0659C78.9048 28.0659 78.4434 28 77.4327 28C76.378 28 75.9605 28.0659 75.3893 28.0659C74.9059 28.0659 74.6422 27.8242 74.6422 27.5166C74.6422 26.7256 76.0265 27.1211 76.0265 25.9346C76.0265 25.6929 76.0045 25.4732 75.9825 25.2974L75.4772 21.7599C75.2794 20.4415 74.818 18.9474 73.3458 18.9474C72.2033 18.9474 70.9509 19.8483 70.9509 22.0675V25.5391C70.9509 27.231 72.3131 26.6817 72.3131 27.5386C72.3131 27.7803 72.1154 28.0659 71.6979 28.0659C71.1926 28.0659 70.5773 28 69.6325 28C68.6877 28 68.0945 28.0659 67.6111 28.0659C67.1496 28.0659 66.9739 27.8022 66.9739 27.5386C66.9739 26.6817 68.3142 27.231 68.3142 25.5391V14.8825C68.3142 13.5202 66.7981 14.2014 66.7981 13.2785C66.7981 12.8611 67.2815 12.5974 68.6218 11.9602C69.8962 11.367 70.1599 11.301 70.4015 11.301C70.819 11.301 70.9509 11.6526 70.9509 12.0701V19.0133C71.654 17.8708 72.8405 16.86 74.5323 16.86C76.9932 16.86 77.8062 19.1232 78.0919 21.1886L78.6412 25.2974ZM91.2318 24.9898C91.5394 24.9898 91.7372 25.2754 91.7372 25.5391C91.7372 25.6929 91.6713 25.8687 91.5175 26.0884C90.7484 27.231 88.7929 28.4175 86.5078 28.4175C83.2998 28.4175 80.773 26.2422 80.773 22.6168C80.773 19.0573 83.4536 16.6843 86.5297 16.6843C89.4301 16.6843 91.2977 18.8375 91.2977 20.9908C91.2977 21.5401 91.122 21.672 90.7484 21.7818L83.915 23.8472C84.5742 25.4292 85.9145 26.5938 87.6284 26.5938C88.8149 26.5938 89.8256 26.0884 90.5946 25.3633C90.8803 25.0997 91.0341 24.9898 91.2318 24.9898ZM86.1562 18.1564C84.6182 18.1564 83.4756 19.4967 83.4756 21.6061C83.4756 21.9356 83.4976 22.2433 83.5415 22.5509L88.0019 21.1446C88.3754 21.0348 88.5073 20.9029 88.5073 20.5074C88.5073 19.4528 87.5405 18.1564 86.1562 18.1564ZM104.918 12.2678C109.555 12.2678 112.037 14.3332 112.037 17.717C112.037 20.7711 110.06 22.9903 104.874 22.9903C102.985 22.9903 102.831 22.7926 102.831 23.2979V25.605C102.831 27.1211 104.589 26.5498 104.589 27.5386C104.589 27.8022 104.413 28.0659 103.93 28.0659C103.336 28.0659 102.501 28 101.359 28C100.326 28 99.7109 28.0659 99.1836 28.0659C98.7002 28.0659 98.5244 27.8022 98.5244 27.5386C98.5244 26.6377 99.9306 27.1431 99.9306 25.627V14.7727C99.9306 13.2566 98.5244 13.7619 98.5244 12.8611C98.5244 12.5974 98.7441 12.3337 99.2275 12.3337C99.7549 12.3337 100.326 12.3997 101.359 12.3997C102.26 12.3997 103.754 12.2678 104.918 12.2678ZM104.567 21.5182C107.577 21.5182 108.829 20.09 108.829 17.717C108.829 15.0803 107.269 13.7619 104.677 13.7619C102.831 13.7619 102.831 14.4211 102.831 14.8386V20.6173C102.831 21.2984 103.402 21.5182 104.567 21.5182ZM113.637 28.0659C113.176 28.0659 113 27.8022 113 27.5386C113 26.6817 114.34 27.231 114.34 25.5391V14.8825C114.34 13.5202 112.824 14.2014 112.824 13.2785C112.824 12.8611 113.307 12.5974 114.648 11.9602C115.922 11.367 116.186 11.301 116.406 11.301C116.845 11.301 116.977 11.6746 116.977 12.2239V25.5391C116.977 27.231 118.339 26.6817 118.339 27.5386C118.339 27.7803 118.141 28.0659 117.724 28.0659C117.219 28.0659 116.603 28 115.659 28C114.714 28 114.12 28.0659 113.637 28.0659ZM131.412 26.418C131.654 26.4619 131.786 26.5938 131.786 26.8135C131.786 27.3189 130.863 28.1758 129.478 28.1758C128.534 28.1758 127.699 27.6484 127.281 26.5938C126.446 27.4946 125.018 28.2417 123.26 28.2417C120.909 28.2417 119.415 26.8794 119.415 24.9239C119.415 22.9683 121.085 21.4083 123.963 21.4083C124.952 21.4083 125.787 21.5621 126.534 21.7818L126.49 21.5182C126.183 19.3649 125.326 18.6398 123.963 18.6398C122.997 18.6398 122.14 19.1012 121.415 19.6945C121.129 19.8702 120.909 19.9801 120.711 19.9801C120.47 19.9801 120.206 19.7824 120.206 19.4528C120.206 19.1452 120.47 18.8375 120.733 18.5519C121.524 17.6071 123.084 16.8381 124.842 16.8381C127.633 16.8381 128.687 18.508 129.017 20.7931L129.522 24.4405C129.742 26.0005 130.247 26.1983 131.412 26.418ZM124.293 26.6377C125.392 26.6377 126.446 26.0005 126.996 25.2974L126.71 23.0782C126.073 22.8365 125.414 22.7266 124.71 22.7266C123.106 22.7266 122.184 23.4298 122.184 24.6602C122.184 25.8467 123.041 26.6377 124.293 26.6377ZM144.006 25.2974C144.27 27.3189 145.522 26.6597 145.522 27.5386C145.522 27.8682 145.236 28.0659 144.841 28.0659C144.27 28.0659 143.808 28 142.797 28C141.743 28 141.325 28.0659 140.732 28.0659C140.249 28.0659 140.007 27.8242 140.007 27.5166C140.007 26.7256 141.391 27.1431 141.391 25.8687C141.391 25.6709 141.347 25.3633 141.303 25.0337L140.842 21.7599C140.644 20.4415 140.183 18.9474 138.711 18.9474C137.568 18.9474 136.316 19.8483 136.316 22.0675V25.5391C136.316 27.231 137.678 26.6817 137.678 27.5386C137.678 27.7803 137.48 28.0659 137.063 28.0659C136.557 28.0659 135.942 28 134.997 28C134.052 28 133.459 28.0659 132.954 28.0659C132.514 28.0659 132.339 27.8022 132.339 27.5386C132.339 26.6817 133.679 27.231 133.679 25.5391V20.5294C133.679 19.1452 132.163 19.8263 132.163 18.9035C132.163 18.508 132.624 18.2223 133.987 17.6071C135.261 17.0138 135.525 16.9479 135.722 16.9479C136.162 16.9479 136.316 17.2995 136.316 17.8488V19.0133C137.019 17.8708 138.205 16.86 139.897 16.86C142.336 16.86 143.171 19.1232 143.435 21.1886L144.006 25.2974ZM162.59 19.4967C164.656 20.046 166.15 21.4083 166.15 23.5836C166.15 26.2862 163.997 28.0879 159.646 28.0879C157.625 28.0879 155.669 28 154.68 28C153.692 28 152.966 28.0659 152.549 28.0659C152.022 28.0659 151.846 27.8242 151.846 27.5166C151.846 26.6377 153.252 27.1431 153.252 25.627V14.7727C153.252 13.2566 151.846 13.7619 151.846 12.883C151.846 12.5754 152.022 12.3337 152.549 12.3337C152.966 12.3337 153.692 12.3997 154.68 12.3997C155.933 12.3997 157.229 12.2898 158.965 12.2898C162.502 12.2898 164.941 13.674 164.941 16.2888C164.941 17.695 164.172 18.9035 162.59 19.4967ZM156.152 14.8606V18.4201C156.152 18.7936 156.284 18.9474 156.834 18.9474H158.723C160.701 18.9474 161.777 18.1125 161.777 16.4645C161.777 14.7727 160.613 13.7619 158.372 13.7619H157.954C156.614 13.7619 156.152 14.0256 156.152 14.8606ZM159.009 26.6157C161.426 26.6157 162.942 25.5171 162.942 23.6275C162.942 21.628 161.558 20.3536 158.723 20.3536H156.812C156.306 20.3536 156.152 20.5074 156.152 20.9469V25.2974C156.152 26.396 156.57 26.6157 158.152 26.6157H159.009ZM177.984 24.9898C178.291 24.9898 178.489 25.2754 178.489 25.5391C178.489 25.6929 178.423 25.8687 178.27 26.0884C177.5 27.231 175.545 28.4175 173.26 28.4175C170.052 28.4175 167.525 26.2422 167.525 22.6168C167.525 19.0573 170.206 16.6843 173.282 16.6843C176.182 16.6843 178.05 18.8375 178.05 20.9908C178.05 21.5401 177.874 21.672 177.5 21.7818L170.667 23.8472C171.326 25.4292 172.667 26.5938 174.38 26.5938C175.567 26.5938 176.578 26.0884 177.347 25.3633C177.632 25.0997 177.786 24.9898 177.984 24.9898ZM172.908 18.1564C171.37 18.1564 170.228 19.4967 170.228 21.6061C170.228 21.9356 170.25 22.2433 170.294 22.5509L174.754 21.1446C175.127 21.0348 175.259 20.9029 175.259 20.5074C175.259 19.4528 174.293 18.1564 172.908 18.1564ZM190.862 17.0358C191.214 17.0358 191.477 17.2116 191.477 17.5412C191.477 18.2663 190.379 18.0465 189.741 19.5626L185.83 28.769C184.908 30.9663 183.589 32.2187 181.831 32.2187C181.084 32.2187 180.403 32.0209 180.184 31.7133C179.81 31.2519 179.393 29.7578 179.393 29.0547C179.393 28.6592 179.612 28.3516 179.92 28.3516C180.162 28.3516 180.315 28.4614 180.513 28.7471C181.26 29.8237 181.787 30.3071 182.425 30.3071C183.172 30.3071 183.787 29.4721 184.314 28.1758L184.358 28.0879L180.403 19.5846C179.678 18.0465 178.645 18.2663 178.645 17.5412C178.645 17.2116 178.909 17.0358 179.261 17.0358C179.832 17.0358 180.469 17.1017 181.546 17.1017C182.513 17.1017 183.172 17.0358 183.699 17.0358C184.139 17.0358 184.402 17.2116 184.402 17.5631C184.402 18.3322 183.216 18.0685 183.216 19.0792C183.216 19.3429 183.326 19.7824 183.567 20.3756L185.743 25.3633L187.786 20.3756C188.028 19.7384 188.159 19.3649 188.159 19.0133C188.159 18.1344 186.929 18.3322 186.929 17.5631C186.929 17.2116 187.171 17.0358 187.61 17.0358C188.072 17.0358 188.643 17.1017 189.214 17.1017C189.807 17.1017 190.357 17.0358 190.862 17.0358ZM197.685 28.4175C194.038 28.4175 191.665 25.9785 191.665 22.6607C191.665 19.233 194.345 16.6843 198.015 16.6843C201.64 16.6843 204.013 19.1232 204.013 22.463C204.013 25.9126 201.288 28.4175 197.685 28.4175ZM198.212 26.9893C200.08 26.9893 201.179 25.4952 201.179 23.2979C201.179 20.8151 199.706 18.1125 197.487 18.1125C195.62 18.1125 194.521 19.6066 194.521 21.8258C194.521 24.2867 195.971 26.9893 198.212 26.9893ZM217.175 25.2974C217.439 27.3189 218.692 26.6597 218.692 27.5386C218.692 27.8682 218.406 28.0659 218.01 28.0659C217.439 28.0659 216.978 28 215.967 28C214.912 28 214.495 28.0659 213.902 28.0659C213.418 28.0659 213.176 27.8242 213.176 27.5166C213.176 26.7256 214.561 27.1431 214.561 25.8687C214.561 25.6709 214.517 25.3633 214.473 25.0337L214.011 21.7599C213.814 20.4415 213.352 18.9474 211.88 18.9474C210.738 18.9474 209.485 19.8483 209.485 22.0675V25.5391C209.485 27.231 210.847 26.6817 210.847 27.5386C210.847 27.7803 210.65 28.0659 210.232 28.0659C209.727 28.0659 209.112 28 208.167 28C207.222 28 206.629 28.0659 206.123 28.0659C205.684 28.0659 205.508 27.8022 205.508 27.5386C205.508 26.6817 206.848 27.231 206.848 25.5391V20.5294C206.848 19.1452 205.332 19.8263 205.332 18.9035C205.332 18.508 205.794 18.2223 207.156 17.6071C208.43 17.0138 208.694 16.9479 208.892 16.9479C209.331 16.9479 209.485 17.2995 209.485 17.8488V19.0133C210.188 17.8708 211.375 16.86 213.067 16.86C215.506 16.86 216.341 19.1232 216.604 21.1886L217.175 25.2974ZM230.99 24.792C230.99 26.1543 232.55 25.6929 232.55 26.5718C232.55 27.0332 232.088 27.2749 230.638 27.7583C229.408 28.1978 229.1 28.2637 228.924 28.2637C228.375 28.2637 228.353 27.6924 228.353 27.3408V26.1983C227.54 27.4067 226.2 28.3076 224.354 28.3076C221.652 28.3076 219.367 26.2422 219.367 22.7266C219.367 19.255 221.827 16.7941 225.035 16.7941C226.464 16.7941 227.562 17.2555 228.353 17.9806V14.8386C228.353 13.4763 226.617 14.2014 226.617 13.2126C226.617 12.8171 227.101 12.5535 228.573 11.9163C229.825 11.3889 230.221 11.301 230.419 11.301C230.88 11.301 230.99 11.7405 230.99 12.2239V24.792ZM225.497 26.418C226.925 26.418 228.353 25.2754 228.353 23.21V22.1114C228.353 19.7604 226.705 18.1784 225.079 18.1784C223.278 18.1784 222.157 19.7164 222.157 21.9356C222.157 24.7261 223.827 26.418 225.497 26.418Z" fill="#007C6A"/>
<path d="M20.137 6.77272e-05C18.7227 0.0135454 17.273 0.169928 15.7932 0.464236C6.7606 2.43022 0 10.4301 0 20.001C0 23.5595 0.936668 26.8994 2.57472 29.7953L2.64705 29.9315L3.73678 29.5481C6.71512 28.6046 9.7406 28.7997 12.7559 29.5312C14.9926 30.0744 17.0864 31.0599 19.2811 31.7428C21.654 32.4794 24.0605 33.0377 26.5545 33.0663C28.9477 33.0931 31.2634 32.6609 33.4782 31.7326C33.9322 31.5427 34.393 31.366 34.8555 31.1828C34.916 31.1576 35.1448 31.0634 35.2575 31.0365C35.2575 31.0365 35.0556 31.2333 34.9077 31.3695C34.8841 31.3931 34.8606 31.4131 34.8387 31.4333C34.8336 31.4384 34.8269 31.4451 34.8219 31.4486C34.8185 31.4502 34.8169 31.4519 34.8152 31.4536C34.6823 31.5729 34.5478 31.689 34.4117 31.8033L34.388 31.8235V31.8234C32.676 33.2461 30.7067 34.1896 28.502 34.5982C24.4238 35.3533 20.48 34.7143 16.6357 33.273C14.4613 32.4574 12.3927 31.3458 10.045 31.0145C8.20353 30.7538 6.38224 30.7689 4.57098 31.1255C4.00762 31.2533 3.60732 31.4282 3.60732 31.4282C7.21634 36.5743 13.1965 39.9529 19.974 40C20.8333 39.99 21.7079 39.9277 22.5991 39.8117C24.1951 39.6015 25.7053 39.2484 27.1263 38.7539C34.7799 35.9253 40.2337 28.5962 40.2337 20.0009C40.2303 8.9619 31.2365 0.0118184 20.137 0V6.77272e-05Z" fill="#007C6A"/>
<path d="M28.2667 7.11869C27.8849 6.34843 27.8899 6.32994 27.1181 6.74873C24.4929 8.17987 21.9619 9.76408 19.7623 11.8024C17.4717 13.9247 15.6554 16.3448 15.2316 19.577C15.0349 21.0721 15.2014 22.4629 15.6756 23.7595L15.6739 23.7594C15.6739 23.7594 16.4358 26.0129 18.0149 27.5096C18.2268 27.74 18.4656 27.9503 18.765 28.1133C18.7246 27.5853 18.6607 27.1094 18.654 26.6318C18.6018 22.5267 20.1237 19.0589 22.9693 16.1513C23.6184 15.487 24.2625 14.7958 25.1437 14.4123C24.6444 15.0514 24.1331 15.6821 23.6453 16.3312C21.2808 19.4659 19.7436 22.8799 20.1187 26.9262C20.2044 27.8511 20.3541 28.7625 20.7796 29.6808C21.3632 28.174 22.8061 26.7765 22.8061 26.7765V26.7798C23.1946 26.3628 23.6117 25.9675 24.0573 25.5942C25.1168 24.7063 26.1915 23.8283 27.0743 22.7471C29.0806 20.2851 29.7768 17.3891 29.8676 14.298C29.9416 11.7737 29.3918 9.38074 28.2667 7.11869Z" fill="#FAF6EC"/>
</svg>
