<svg width="48" height="48" viewBox="0 0 48 48" fill="none" xmlns="http://www.w3.org/2000/svg">
<path d="M12 0C10.35 0 9 1.35 9 3V45C9 46.65 10.35 48 12 48H42C43.65 48 45 46.65 45 45V12L33 0H12Z" fill="#E2E5E7"/>
<path d="M36 12H45L33 0V9C33 10.65 34.35 12 36 12Z" fill="#B0B7BD"/>
<path d="M45 21L36 12H45V21Z" fill="#CAD1D8"/>
<path d="M39 39C39 39.825 38.325 40.5 37.5 40.5H4.5C3.675 40.5 3 39.825 3 39V24C3 23.175 3.675 22.5 4.5 22.5H37.5C38.325 22.5 39 23.175 39 24V39Z" fill="#F15642"/>
<path d="M9.53809 28.4203C9.53809 28.0243 9.85009 27.5923 10.3526 27.5923H13.1231C14.6831 27.5923 16.0871 28.6363 16.0871 30.6373C16.0871 32.5333 14.6831 33.5893 13.1231 33.5893H11.1206V35.1733C11.1206 35.7013 10.7846 35.9998 10.3526 35.9998C9.95659 35.9998 9.53809 35.7013 9.53809 35.1733V28.4203ZM11.1206 29.1028V32.0908H13.1231C13.9271 32.0908 14.5631 31.3813 14.5631 30.6373C14.5631 29.7988 13.9271 29.1028 13.1231 29.1028H11.1206Z" fill="white"/>
<path d="M18.4364 35.9997C18.0404 35.9997 17.6084 35.7837 17.6084 35.2572V28.4442C17.6084 28.0137 18.0404 27.7002 18.4364 27.7002H21.1829C26.6639 27.7002 26.5439 35.9997 21.2909 35.9997H18.4364ZM19.1924 29.1642V34.5372H21.1829C24.4214 34.5372 24.5654 29.1642 21.1829 29.1642H19.1924Z" fill="white"/>
<path d="M28.4879 29.2602V31.1667H31.5464C31.9784 31.1667 32.4104 31.5987 32.4104 32.0172C32.4104 32.4132 31.9784 32.7372 31.5464 32.7372H28.4879V35.2557C28.4879 35.6757 28.1894 35.9982 27.7694 35.9982C27.2414 35.9982 26.9189 35.6757 26.9189 35.2557V28.4427C26.9189 28.0122 27.2429 27.6987 27.7694 27.6987H31.9799C32.5079 27.6987 32.8199 28.0122 32.8199 28.4427C32.8199 28.8267 32.5079 29.2587 31.9799 29.2587H28.4879V29.2602Z" fill="white"/>
<path d="M37.5 40.5H9V42H37.5C38.325 42 39 41.325 39 40.5V39C39 39.825 38.325 40.5 37.5 40.5Z" fill="#CAD1D8"/>
</svg>
